<?xml version="1.0" encoding="utf-8"?>
<svg xmlns="http://www.w3.org/2000/svg" xmlns:xlink="http://www.w3.org/1999/xlink" width="600" height="400" viewBox="0 0 2400 1600">
<defs>
  <clipPath id="clip510">
    <rect x="0" y="0" width="2400" height="1600"/>
  </clipPath>
</defs>
<path clip-path="url(#clip510)" d="
M0 1600 L2400 1600 L2400 0 L0 0  Z
  " fill="#ffffff" fill-rule="evenodd" fill-opacity="1"/>
<defs>
  <clipPath id="clip511">
    <rect x="480" y="0" width="1681" height="1600"/>
  </clipPath>
</defs>
<path clip-path="url(#clip510)" d="
M340.699 1442.95 L2352.76 1442.95 L2352.76 123.472 L340.699 123.472  Z
  " fill="#ffffff" fill-rule="evenodd" fill-opacity="1"/>
<defs>
  <clipPath id="clip512">
    <rect x="340" y="123" width="2013" height="1320"/>
  </clipPath>
</defs>
<polyline clip-path="url(#clip512)" style="stroke:#000000; stroke-linecap:butt; stroke-linejoin:round; stroke-width:2; stroke-opacity:0.1; fill:none" points="
  390.691,1442.95 390.691,123.472 
  "/>
<polyline clip-path="url(#clip512)" style="stroke:#000000; stroke-linecap:butt; stroke-linejoin:round; stroke-width:2; stroke-opacity:0.1; fill:none" points="
  814.824,1442.95 814.824,123.472 
  "/>
<polyline clip-path="url(#clip512)" style="stroke:#000000; stroke-linecap:butt; stroke-linejoin:round; stroke-width:2; stroke-opacity:0.1; fill:none" points="
  1238.96,1442.95 1238.96,123.472 
  "/>
<polyline clip-path="url(#clip512)" style="stroke:#000000; stroke-linecap:butt; stroke-linejoin:round; stroke-width:2; stroke-opacity:0.1; fill:none" points="
  1663.09,1442.95 1663.09,123.472 
  "/>
<polyline clip-path="url(#clip512)" style="stroke:#000000; stroke-linecap:butt; stroke-linejoin:round; stroke-width:2; stroke-opacity:0.1; fill:none" points="
  2087.22,1442.95 2087.22,123.472 
  "/>
<polyline clip-path="url(#clip510)" style="stroke:#000000; stroke-linecap:butt; stroke-linejoin:round; stroke-width:4; stroke-opacity:1; fill:none" points="
  340.699,1442.95 2352.76,1442.95 
  "/>
<polyline clip-path="url(#clip510)" style="stroke:#000000; stroke-linecap:butt; stroke-linejoin:round; stroke-width:4; stroke-opacity:1; fill:none" points="
  390.691,1442.95 390.691,1427.12 
  "/>
<polyline clip-path="url(#clip510)" style="stroke:#000000; stroke-linecap:butt; stroke-linejoin:round; stroke-width:4; stroke-opacity:1; fill:none" points="
  814.824,1442.95 814.824,1427.12 
  "/>
<polyline clip-path="url(#clip510)" style="stroke:#000000; stroke-linecap:butt; stroke-linejoin:round; stroke-width:4; stroke-opacity:1; fill:none" points="
  1238.96,1442.95 1238.96,1427.12 
  "/>
<polyline clip-path="url(#clip510)" style="stroke:#000000; stroke-linecap:butt; stroke-linejoin:round; stroke-width:4; stroke-opacity:1; fill:none" points="
  1663.09,1442.95 1663.09,1427.12 
  "/>
<polyline clip-path="url(#clip510)" style="stroke:#000000; stroke-linecap:butt; stroke-linejoin:round; stroke-width:4; stroke-opacity:1; fill:none" points="
  2087.22,1442.95 2087.22,1427.12 
  "/>
<path clip-path="url(#clip510)" d="M262.486 1499.69 L278.805 1499.69 L278.805 1503.62 L256.861 1503.62 L256.861 1499.69 Q259.523 1496.93 264.106 1492.3 Q268.712 1487.65 269.893 1486.31 Q272.138 1483.78 273.018 1482.05 Q273.921 1480.29 273.921 1478.6 Q273.921 1475.84 271.976 1474.11 Q270.055 1472.37 266.953 1472.37 Q264.754 1472.37 262.3 1473.14 Q259.87 1473.9 257.092 1475.45 L257.092 1470.73 Q259.916 1469.59 262.37 1469.02 Q264.824 1468.44 266.861 1468.44 Q272.231 1468.44 275.425 1471.12 Q278.62 1473.81 278.62 1478.3 Q278.62 1480.43 277.81 1482.35 Q277.023 1484.25 274.916 1486.84 Q274.337 1487.51 271.236 1490.73 Q268.134 1493.92 262.486 1499.69 Z" fill="#000000" fill-rule="evenodd" fill-opacity="1" /><path clip-path="url(#clip510)" d="M298.62 1472.14 Q295.009 1472.14 293.18 1475.71 Q291.374 1479.25 291.374 1486.38 Q291.374 1493.48 293.18 1497.05 Q295.009 1500.59 298.62 1500.59 Q302.254 1500.59 304.059 1497.05 Q305.888 1493.48 305.888 1486.38 Q305.888 1479.25 304.059 1475.71 Q302.254 1472.14 298.62 1472.14 M298.62 1468.44 Q304.43 1468.44 307.485 1473.04 Q310.564 1477.63 310.564 1486.38 Q310.564 1495.1 307.485 1499.71 Q304.43 1504.29 298.62 1504.29 Q292.81 1504.29 289.731 1499.71 Q286.675 1495.1 286.675 1486.38 Q286.675 1477.63 289.731 1473.04 Q292.81 1468.44 298.62 1468.44 Z" fill="#000000" fill-rule="evenodd" fill-opacity="1" /><path clip-path="url(#clip510)" d="M322.809 1499.69 L339.129 1499.69 L339.129 1503.62 L317.184 1503.62 L317.184 1499.69 Q319.846 1496.93 324.43 1492.3 Q329.036 1487.65 330.217 1486.31 Q332.462 1483.78 333.342 1482.05 Q334.245 1480.29 334.245 1478.6 Q334.245 1475.84 332.3 1474.11 Q330.379 1472.37 327.277 1472.37 Q325.078 1472.37 322.624 1473.14 Q320.194 1473.9 317.416 1475.45 L317.416 1470.73 Q320.24 1469.59 322.694 1469.02 Q325.147 1468.44 327.184 1468.44 Q332.555 1468.44 335.749 1471.12 Q338.944 1473.81 338.944 1478.3 Q338.944 1480.43 338.133 1482.35 Q337.346 1484.25 335.24 1486.84 Q334.661 1487.51 331.559 1490.73 Q328.458 1493.92 322.809 1499.69 Z" fill="#000000" fill-rule="evenodd" fill-opacity="1" /><path clip-path="url(#clip510)" d="M358.943 1472.14 Q355.332 1472.14 353.504 1475.71 Q351.698 1479.25 351.698 1486.38 Q351.698 1493.48 353.504 1497.05 Q355.332 1500.59 358.943 1500.59 Q362.578 1500.59 364.383 1497.05 Q366.212 1493.48 366.212 1486.38 Q366.212 1479.25 364.383 1475.71 Q362.578 1472.14 358.943 1472.14 M358.943 1468.44 Q364.754 1468.44 367.809 1473.04 Q370.888 1477.63 370.888 1486.38 Q370.888 1495.1 367.809 1499.71 Q364.754 1504.29 358.943 1504.29 Q353.133 1504.29 350.055 1499.71 Q346.999 1495.1 346.999 1486.38 Q346.999 1477.63 350.055 1473.04 Q353.133 1468.44 358.943 1468.44 Z" fill="#000000" fill-rule="evenodd" fill-opacity="1" /><path clip-path="url(#clip510)" d="M376.351 1488.74 L388.828 1488.74 L388.828 1492.53 L376.351 1492.53 L376.351 1488.74 Z" fill="#000000" fill-rule="evenodd" fill-opacity="1" /><path clip-path="url(#clip510)" d="M406.212 1472.14 Q402.601 1472.14 400.772 1475.71 Q398.966 1479.25 398.966 1486.38 Q398.966 1493.48 400.772 1497.05 Q402.601 1500.59 406.212 1500.59 Q409.846 1500.59 411.652 1497.05 Q413.48 1493.48 413.48 1486.38 Q413.48 1479.25 411.652 1475.71 Q409.846 1472.14 406.212 1472.14 M406.212 1468.44 Q412.022 1468.44 415.077 1473.04 Q418.156 1477.63 418.156 1486.38 Q418.156 1495.1 415.077 1499.71 Q412.022 1504.29 406.212 1504.29 Q400.402 1504.29 397.323 1499.71 Q394.267 1495.1 394.267 1486.38 Q394.267 1477.63 397.323 1473.04 Q400.402 1468.44 406.212 1468.44 Z" fill="#000000" fill-rule="evenodd" fill-opacity="1" /><path clip-path="url(#clip510)" d="M439.221 1473.14 L427.415 1491.58 L439.221 1491.58 L439.221 1473.14 M437.994 1469.06 L443.874 1469.06 L443.874 1491.58 L448.804 1491.58 L448.804 1495.47 L443.874 1495.47 L443.874 1503.62 L439.221 1503.62 L439.221 1495.47 L423.619 1495.47 L423.619 1490.96 L437.994 1469.06 Z" fill="#000000" fill-rule="evenodd" fill-opacity="1" /><path clip-path="url(#clip510)" d="M453.781 1488.74 L466.258 1488.74 L466.258 1492.53 L453.781 1492.53 L453.781 1488.74 Z" fill="#000000" fill-rule="evenodd" fill-opacity="1" /><path clip-path="url(#clip510)" d="M483.642 1472.14 Q480.031 1472.14 478.202 1475.71 Q476.397 1479.25 476.397 1486.38 Q476.397 1493.48 478.202 1497.05 Q480.031 1500.59 483.642 1500.59 Q487.276 1500.59 489.082 1497.05 Q490.91 1493.48 490.91 1486.38 Q490.91 1479.25 489.082 1475.71 Q487.276 1472.14 483.642 1472.14 M483.642 1468.44 Q489.452 1468.44 492.508 1473.04 Q495.586 1477.63 495.586 1486.38 Q495.586 1495.1 492.508 1499.71 Q489.452 1504.29 483.642 1504.29 Q477.832 1504.29 474.753 1499.71 Q471.697 1495.1 471.697 1486.38 Q471.697 1477.63 474.753 1473.04 Q477.832 1468.44 483.642 1468.44 Z" fill="#000000" fill-rule="evenodd" fill-opacity="1" /><path clip-path="url(#clip510)" d="M504.614 1499.69 L512.253 1499.69 L512.253 1473.32 L503.943 1474.99 L503.943 1470.73 L512.207 1469.06 L516.882 1469.06 L516.882 1499.69 L524.521 1499.69 L524.521 1503.62 L504.614 1503.62 L504.614 1499.69 Z" fill="#000000" fill-rule="evenodd" fill-opacity="1" /><path clip-path="url(#clip510)" d="M686.618 1499.69 L702.938 1499.69 L702.938 1503.62 L680.993 1503.62 L680.993 1499.69 Q683.655 1496.93 688.239 1492.3 Q692.845 1487.65 694.026 1486.31 Q696.271 1483.78 697.151 1482.05 Q698.053 1480.29 698.053 1478.6 Q698.053 1475.84 696.109 1474.11 Q694.188 1472.37 691.086 1472.37 Q688.887 1472.37 686.433 1473.14 Q684.002 1473.9 681.225 1475.45 L681.225 1470.73 Q684.049 1469.59 686.502 1469.02 Q688.956 1468.44 690.993 1468.44 Q696.363 1468.44 699.558 1471.12 Q702.752 1473.81 702.752 1478.3 Q702.752 1480.43 701.942 1482.35 Q701.155 1484.25 699.049 1486.84 Q698.47 1487.51 695.368 1490.73 Q692.266 1493.92 686.618 1499.69 Z" fill="#000000" fill-rule="evenodd" fill-opacity="1" /><path clip-path="url(#clip510)" d="M722.752 1472.14 Q719.141 1472.14 717.312 1475.71 Q715.507 1479.25 715.507 1486.38 Q715.507 1493.48 717.312 1497.05 Q719.141 1500.59 722.752 1500.59 Q726.386 1500.59 728.192 1497.05 Q730.021 1493.48 730.021 1486.38 Q730.021 1479.25 728.192 1475.71 Q726.386 1472.14 722.752 1472.14 M722.752 1468.44 Q728.562 1468.44 731.618 1473.04 Q734.697 1477.63 734.697 1486.38 Q734.697 1495.1 731.618 1499.71 Q728.562 1504.29 722.752 1504.29 Q716.942 1504.29 713.863 1499.71 Q710.808 1495.1 710.808 1486.38 Q710.808 1477.63 713.863 1473.04 Q716.942 1468.44 722.752 1468.44 Z" fill="#000000" fill-rule="evenodd" fill-opacity="1" /><path clip-path="url(#clip510)" d="M746.942 1499.69 L763.261 1499.69 L763.261 1503.62 L741.317 1503.62 L741.317 1499.69 Q743.979 1496.93 748.562 1492.3 Q753.169 1487.65 754.349 1486.31 Q756.595 1483.78 757.474 1482.05 Q758.377 1480.29 758.377 1478.6 Q758.377 1475.84 756.433 1474.11 Q754.511 1472.37 751.409 1472.37 Q749.21 1472.37 746.757 1473.14 Q744.326 1473.9 741.548 1475.45 L741.548 1470.73 Q744.372 1469.59 746.826 1469.02 Q749.28 1468.44 751.317 1468.44 Q756.687 1468.44 759.882 1471.12 Q763.076 1473.81 763.076 1478.3 Q763.076 1480.43 762.266 1482.35 Q761.479 1484.25 759.372 1486.84 Q758.794 1487.51 755.692 1490.73 Q752.59 1493.92 746.942 1499.69 Z" fill="#000000" fill-rule="evenodd" fill-opacity="1" /><path clip-path="url(#clip510)" d="M783.076 1472.14 Q779.465 1472.14 777.636 1475.71 Q775.831 1479.25 775.831 1486.38 Q775.831 1493.48 777.636 1497.05 Q779.465 1500.59 783.076 1500.59 Q786.71 1500.59 788.516 1497.05 Q790.344 1493.48 790.344 1486.38 Q790.344 1479.25 788.516 1475.71 Q786.71 1472.14 783.076 1472.14 M783.076 1468.44 Q788.886 1468.44 791.942 1473.04 Q795.02 1477.63 795.02 1486.38 Q795.02 1495.1 791.942 1499.71 Q788.886 1504.29 783.076 1504.29 Q777.266 1504.29 774.187 1499.71 Q771.132 1495.1 771.132 1486.38 Q771.132 1477.63 774.187 1473.04 Q777.266 1468.44 783.076 1468.44 Z" fill="#000000" fill-rule="evenodd" fill-opacity="1" /><path clip-path="url(#clip510)" d="M800.483 1488.74 L812.96 1488.74 L812.96 1492.53 L800.483 1492.53 L800.483 1488.74 Z" fill="#000000" fill-rule="evenodd" fill-opacity="1" /><path clip-path="url(#clip510)" d="M830.344 1472.14 Q826.733 1472.14 824.904 1475.71 Q823.099 1479.25 823.099 1486.38 Q823.099 1493.48 824.904 1497.05 Q826.733 1500.59 830.344 1500.59 Q833.978 1500.59 835.784 1497.05 Q837.613 1493.48 837.613 1486.38 Q837.613 1479.25 835.784 1475.71 Q833.978 1472.14 830.344 1472.14 M830.344 1468.44 Q836.154 1468.44 839.21 1473.04 Q842.289 1477.63 842.289 1486.38 Q842.289 1495.1 839.21 1499.71 Q836.154 1504.29 830.344 1504.29 Q824.534 1504.29 821.455 1499.71 Q818.4 1495.1 818.4 1486.38 Q818.4 1477.63 821.455 1473.04 Q824.534 1468.44 830.344 1468.44 Z" fill="#000000" fill-rule="evenodd" fill-opacity="1" /><path clip-path="url(#clip510)" d="M861.085 1484.48 Q857.937 1484.48 856.085 1486.63 Q854.256 1488.78 854.256 1492.53 Q854.256 1496.26 856.085 1498.44 Q857.937 1500.59 861.085 1500.59 Q864.233 1500.59 866.062 1498.44 Q867.913 1496.26 867.913 1492.53 Q867.913 1488.78 866.062 1486.63 Q864.233 1484.48 861.085 1484.48 M870.367 1469.83 L870.367 1474.08 Q868.608 1473.25 866.802 1472.81 Q865.02 1472.37 863.261 1472.37 Q858.631 1472.37 856.177 1475.5 Q853.747 1478.62 853.4 1484.94 Q854.765 1482.93 856.826 1481.86 Q858.886 1480.77 861.363 1480.77 Q866.571 1480.77 869.58 1483.95 Q872.613 1487.09 872.613 1492.53 Q872.613 1497.86 869.464 1501.08 Q866.316 1504.29 861.085 1504.29 Q855.089 1504.29 851.918 1499.71 Q848.747 1495.1 848.747 1486.38 Q848.747 1478.18 852.636 1473.32 Q856.525 1468.44 863.076 1468.44 Q864.835 1468.44 866.617 1468.78 Q868.423 1469.13 870.367 1469.83 Z" fill="#000000" fill-rule="evenodd" fill-opacity="1" /><path clip-path="url(#clip510)" d="M877.913 1488.74 L890.39 1488.74 L890.39 1492.53 L877.913 1492.53 L877.913 1488.74 Z" fill="#000000" fill-rule="evenodd" fill-opacity="1" /><path clip-path="url(#clip510)" d="M907.774 1472.14 Q904.163 1472.14 902.335 1475.71 Q900.529 1479.25 900.529 1486.38 Q900.529 1493.48 902.335 1497.05 Q904.163 1500.59 907.774 1500.59 Q911.409 1500.59 913.214 1497.05 Q915.043 1493.48 915.043 1486.38 Q915.043 1479.25 913.214 1475.71 Q911.409 1472.14 907.774 1472.14 M907.774 1468.44 Q913.585 1468.44 916.64 1473.04 Q919.719 1477.63 919.719 1486.38 Q919.719 1495.1 916.64 1499.71 Q913.585 1504.29 907.774 1504.29 Q901.964 1504.29 898.886 1499.71 Q895.83 1495.1 895.83 1486.38 Q895.83 1477.63 898.886 1473.04 Q901.964 1468.44 907.774 1468.44 Z" fill="#000000" fill-rule="evenodd" fill-opacity="1" /><path clip-path="url(#clip510)" d="M928.747 1499.69 L936.385 1499.69 L936.385 1473.32 L928.075 1474.99 L928.075 1470.73 L936.339 1469.06 L941.015 1469.06 L941.015 1499.69 L948.654 1499.69 L948.654 1503.62 L928.747 1503.62 L928.747 1499.69 Z" fill="#000000" fill-rule="evenodd" fill-opacity="1" /><path clip-path="url(#clip510)" d="M1110.75 1499.69 L1127.07 1499.69 L1127.07 1503.62 L1105.13 1503.62 L1105.13 1499.69 Q1107.79 1496.93 1112.37 1492.3 Q1116.98 1487.65 1118.16 1486.31 Q1120.4 1483.78 1121.28 1482.05 Q1122.19 1480.29 1122.19 1478.6 Q1122.19 1475.84 1120.24 1474.11 Q1118.32 1472.37 1115.22 1472.37 Q1113.02 1472.37 1110.57 1473.14 Q1108.13 1473.9 1105.36 1475.45 L1105.36 1470.73 Q1108.18 1469.59 1110.63 1469.02 Q1113.09 1468.44 1115.13 1468.44 Q1120.5 1468.44 1123.69 1471.12 Q1126.88 1473.81 1126.88 1478.3 Q1126.88 1480.43 1126.07 1482.35 Q1125.29 1484.25 1123.18 1486.84 Q1122.6 1487.51 1119.5 1490.73 Q1116.4 1493.92 1110.75 1499.69 Z" fill="#000000" fill-rule="evenodd" fill-opacity="1" /><path clip-path="url(#clip510)" d="M1146.88 1472.14 Q1143.27 1472.14 1141.44 1475.71 Q1139.64 1479.25 1139.64 1486.38 Q1139.64 1493.48 1141.44 1497.05 Q1143.27 1500.59 1146.88 1500.59 Q1150.52 1500.59 1152.32 1497.05 Q1154.15 1493.48 1154.15 1486.38 Q1154.15 1479.25 1152.32 1475.71 Q1150.52 1472.14 1146.88 1472.14 M1146.88 1468.44 Q1152.69 1468.44 1155.75 1473.04 Q1158.83 1477.63 1158.83 1486.38 Q1158.83 1495.1 1155.75 1499.71 Q1152.69 1504.29 1146.88 1504.29 Q1141.07 1504.29 1138 1499.71 Q1134.94 1495.1 1134.94 1486.38 Q1134.94 1477.63 1138 1473.04 Q1141.07 1468.44 1146.88 1468.44 Z" fill="#000000" fill-rule="evenodd" fill-opacity="1" /><path clip-path="url(#clip510)" d="M1171.07 1499.69 L1187.39 1499.69 L1187.39 1503.62 L1165.45 1503.62 L1165.45 1499.69 Q1168.11 1496.93 1172.69 1492.3 Q1177.3 1487.65 1178.48 1486.31 Q1180.73 1483.78 1181.61 1482.05 Q1182.51 1480.29 1182.51 1478.6 Q1182.51 1475.84 1180.57 1474.11 Q1178.64 1472.37 1175.54 1472.37 Q1173.34 1472.37 1170.89 1473.14 Q1168.46 1473.9 1165.68 1475.45 L1165.68 1470.73 Q1168.51 1469.59 1170.96 1469.02 Q1173.41 1468.44 1175.45 1468.44 Q1180.82 1468.44 1184.01 1471.12 Q1187.21 1473.81 1187.21 1478.3 Q1187.21 1480.43 1186.4 1482.35 Q1185.61 1484.25 1183.5 1486.84 Q1182.93 1487.51 1179.82 1490.73 Q1176.72 1493.92 1171.07 1499.69 Z" fill="#000000" fill-rule="evenodd" fill-opacity="1" /><path clip-path="url(#clip510)" d="M1207.21 1472.14 Q1203.6 1472.14 1201.77 1475.71 Q1199.96 1479.25 1199.96 1486.38 Q1199.96 1493.48 1201.77 1497.05 Q1203.6 1500.59 1207.21 1500.59 Q1210.84 1500.59 1212.65 1497.05 Q1214.48 1493.48 1214.48 1486.38 Q1214.48 1479.25 1212.65 1475.71 Q1210.84 1472.14 1207.21 1472.14 M1207.21 1468.44 Q1213.02 1468.44 1216.07 1473.04 Q1219.15 1477.63 1219.15 1486.38 Q1219.15 1495.1 1216.07 1499.71 Q1213.02 1504.29 1207.21 1504.29 Q1201.4 1504.29 1198.32 1499.71 Q1195.26 1495.1 1195.26 1486.38 Q1195.26 1477.63 1198.32 1473.04 Q1201.4 1468.44 1207.21 1468.44 Z" fill="#000000" fill-rule="evenodd" fill-opacity="1" /><path clip-path="url(#clip510)" d="M1224.62 1488.74 L1237.09 1488.74 L1237.09 1492.53 L1224.62 1492.53 L1224.62 1488.74 Z" fill="#000000" fill-rule="evenodd" fill-opacity="1" /><path clip-path="url(#clip510)" d="M1254.48 1472.14 Q1250.87 1472.14 1249.04 1475.71 Q1247.23 1479.25 1247.23 1486.38 Q1247.23 1493.48 1249.04 1497.05 Q1250.87 1500.59 1254.48 1500.59 Q1258.11 1500.59 1259.92 1497.05 Q1261.75 1493.48 1261.75 1486.38 Q1261.75 1479.25 1259.92 1475.71 Q1258.11 1472.14 1254.48 1472.14 M1254.48 1468.44 Q1260.29 1468.44 1263.34 1473.04 Q1266.42 1477.63 1266.42 1486.38 Q1266.42 1495.1 1263.34 1499.71 Q1260.29 1504.29 1254.48 1504.29 Q1248.67 1504.29 1245.59 1499.71 Q1242.53 1495.1 1242.53 1486.38 Q1242.53 1477.63 1245.59 1473.04 Q1248.67 1468.44 1254.48 1468.44 Z" fill="#000000" fill-rule="evenodd" fill-opacity="1" /><path clip-path="url(#clip510)" d="M1284.64 1487.21 Q1281.31 1487.21 1279.38 1488.99 Q1277.49 1490.77 1277.49 1493.9 Q1277.49 1497.02 1279.38 1498.81 Q1281.31 1500.59 1284.64 1500.59 Q1287.97 1500.59 1289.89 1498.81 Q1291.81 1497 1291.81 1493.9 Q1291.81 1490.77 1289.89 1488.99 Q1288 1487.21 1284.64 1487.21 M1279.96 1485.22 Q1276.95 1484.48 1275.26 1482.42 Q1273.6 1480.36 1273.6 1477.4 Q1273.6 1473.25 1276.54 1470.84 Q1279.5 1468.44 1284.64 1468.44 Q1289.8 1468.44 1292.74 1470.84 Q1295.68 1473.25 1295.68 1477.4 Q1295.68 1480.36 1293.99 1482.42 Q1292.32 1484.48 1289.34 1485.22 Q1292.72 1486.01 1294.59 1488.3 Q1296.49 1490.59 1296.49 1493.9 Q1296.49 1498.92 1293.41 1501.61 Q1290.36 1504.29 1284.64 1504.29 Q1278.92 1504.29 1275.84 1501.61 Q1272.79 1498.92 1272.79 1493.9 Q1272.79 1490.59 1274.69 1488.3 Q1276.58 1486.01 1279.96 1485.22 M1278.25 1477.83 Q1278.25 1480.52 1279.92 1482.02 Q1281.61 1483.53 1284.64 1483.53 Q1287.65 1483.53 1289.34 1482.02 Q1291.05 1480.52 1291.05 1477.83 Q1291.05 1475.15 1289.34 1473.65 Q1287.65 1472.14 1284.64 1472.14 Q1281.61 1472.14 1279.92 1473.65 Q1278.25 1475.15 1278.25 1477.83 Z" fill="#000000" fill-rule="evenodd" fill-opacity="1" /><path clip-path="url(#clip510)" d="M1302.05 1488.74 L1314.52 1488.74 L1314.52 1492.53 L1302.05 1492.53 L1302.05 1488.74 Z" fill="#000000" fill-rule="evenodd" fill-opacity="1" /><path clip-path="url(#clip510)" d="M1331.91 1472.14 Q1328.3 1472.14 1326.47 1475.71 Q1324.66 1479.25 1324.66 1486.38 Q1324.66 1493.48 1326.47 1497.05 Q1328.3 1500.59 1331.91 1500.59 Q1335.54 1500.59 1337.35 1497.05 Q1339.18 1493.48 1339.18 1486.38 Q1339.18 1479.25 1337.35 1475.71 Q1335.54 1472.14 1331.91 1472.14 M1331.91 1468.44 Q1337.72 1468.44 1340.77 1473.04 Q1343.85 1477.63 1343.85 1486.38 Q1343.85 1495.1 1340.77 1499.71 Q1337.72 1504.29 1331.91 1504.29 Q1326.1 1504.29 1323.02 1499.71 Q1319.96 1495.1 1319.96 1486.38 Q1319.96 1477.63 1323.02 1473.04 Q1326.1 1468.44 1331.91 1468.44 Z" fill="#000000" fill-rule="evenodd" fill-opacity="1" /><path clip-path="url(#clip510)" d="M1352.88 1499.69 L1360.52 1499.69 L1360.52 1473.32 L1352.21 1474.99 L1352.21 1470.73 L1360.47 1469.06 L1365.15 1469.06 L1365.15 1499.69 L1372.79 1499.69 L1372.79 1503.62 L1352.88 1503.62 L1352.88 1499.69 Z" fill="#000000" fill-rule="evenodd" fill-opacity="1" /><path clip-path="url(#clip510)" d="M1534.88 1499.69 L1551.2 1499.69 L1551.2 1503.62 L1529.26 1503.62 L1529.26 1499.69 Q1531.92 1496.93 1536.5 1492.3 Q1541.11 1487.65 1542.29 1486.31 Q1544.54 1483.78 1545.42 1482.05 Q1546.32 1480.29 1546.32 1478.6 Q1546.32 1475.84 1544.37 1474.11 Q1542.45 1472.37 1539.35 1472.37 Q1537.15 1472.37 1534.7 1473.14 Q1532.27 1473.9 1529.49 1475.45 L1529.49 1470.73 Q1532.31 1469.59 1534.77 1469.02 Q1537.22 1468.44 1539.26 1468.44 Q1544.63 1468.44 1547.82 1471.12 Q1551.02 1473.81 1551.02 1478.3 Q1551.02 1480.43 1550.21 1482.35 Q1549.42 1484.25 1547.31 1486.84 Q1546.74 1487.51 1543.63 1490.73 Q1540.53 1493.92 1534.88 1499.69 Z" fill="#000000" fill-rule="evenodd" fill-opacity="1" /><path clip-path="url(#clip510)" d="M1571.02 1472.14 Q1567.41 1472.14 1565.58 1475.71 Q1563.77 1479.25 1563.77 1486.38 Q1563.77 1493.48 1565.58 1497.05 Q1567.41 1500.59 1571.02 1500.59 Q1574.65 1500.59 1576.46 1497.05 Q1578.29 1493.48 1578.29 1486.38 Q1578.29 1479.25 1576.46 1475.71 Q1574.65 1472.14 1571.02 1472.14 M1571.02 1468.44 Q1576.83 1468.44 1579.88 1473.04 Q1582.96 1477.63 1582.96 1486.38 Q1582.96 1495.1 1579.88 1499.71 Q1576.83 1504.29 1571.02 1504.29 Q1565.21 1504.29 1562.13 1499.71 Q1559.07 1495.1 1559.07 1486.38 Q1559.07 1477.63 1562.13 1473.04 Q1565.21 1468.44 1571.02 1468.44 Z" fill="#000000" fill-rule="evenodd" fill-opacity="1" /><path clip-path="url(#clip510)" d="M1595.21 1499.69 L1611.53 1499.69 L1611.53 1503.62 L1589.58 1503.62 L1589.58 1499.69 Q1592.24 1496.93 1596.83 1492.3 Q1601.43 1487.65 1602.61 1486.31 Q1604.86 1483.78 1605.74 1482.05 Q1606.64 1480.29 1606.64 1478.6 Q1606.64 1475.84 1604.7 1474.11 Q1602.78 1472.37 1599.67 1472.37 Q1597.48 1472.37 1595.02 1473.14 Q1592.59 1473.9 1589.81 1475.45 L1589.81 1470.73 Q1592.64 1469.59 1595.09 1469.02 Q1597.54 1468.44 1599.58 1468.44 Q1604.95 1468.44 1608.15 1471.12 Q1611.34 1473.81 1611.34 1478.3 Q1611.34 1480.43 1610.53 1482.35 Q1609.74 1484.25 1607.64 1486.84 Q1607.06 1487.51 1603.96 1490.73 Q1600.86 1493.92 1595.21 1499.69 Z" fill="#000000" fill-rule="evenodd" fill-opacity="1" /><path clip-path="url(#clip510)" d="M1631.34 1472.14 Q1627.73 1472.14 1625.9 1475.71 Q1624.1 1479.25 1624.1 1486.38 Q1624.1 1493.48 1625.9 1497.05 Q1627.73 1500.59 1631.34 1500.59 Q1634.98 1500.59 1636.78 1497.05 Q1638.61 1493.48 1638.61 1486.38 Q1638.61 1479.25 1636.78 1475.71 Q1634.98 1472.14 1631.34 1472.14 M1631.34 1468.44 Q1637.15 1468.44 1640.21 1473.04 Q1643.29 1477.63 1643.29 1486.38 Q1643.29 1495.1 1640.21 1499.71 Q1637.15 1504.29 1631.34 1504.29 Q1625.53 1504.29 1622.45 1499.71 Q1619.4 1495.1 1619.4 1486.38 Q1619.4 1477.63 1622.45 1473.04 Q1625.53 1468.44 1631.34 1468.44 Z" fill="#000000" fill-rule="evenodd" fill-opacity="1" /><path clip-path="url(#clip510)" d="M1648.75 1488.74 L1661.23 1488.74 L1661.23 1492.53 L1648.75 1492.53 L1648.75 1488.74 Z" fill="#000000" fill-rule="evenodd" fill-opacity="1" /><path clip-path="url(#clip510)" d="M1669.42 1499.69 L1677.06 1499.69 L1677.06 1473.32 L1668.75 1474.99 L1668.75 1470.73 L1677.01 1469.06 L1681.69 1469.06 L1681.69 1499.69 L1689.33 1499.69 L1689.33 1503.62 L1669.42 1503.62 L1669.42 1499.69 Z" fill="#000000" fill-rule="evenodd" fill-opacity="1" /><path clip-path="url(#clip510)" d="M1708.77 1472.14 Q1705.16 1472.14 1703.33 1475.71 Q1701.53 1479.25 1701.53 1486.38 Q1701.53 1493.48 1703.33 1497.05 Q1705.16 1500.59 1708.77 1500.59 Q1712.41 1500.59 1714.21 1497.05 Q1716.04 1493.48 1716.04 1486.38 Q1716.04 1479.25 1714.21 1475.71 Q1712.41 1472.14 1708.77 1472.14 M1708.77 1468.44 Q1714.58 1468.44 1717.64 1473.04 Q1720.72 1477.63 1720.72 1486.38 Q1720.72 1495.1 1717.64 1499.71 Q1714.58 1504.29 1708.77 1504.29 Q1702.96 1504.29 1699.88 1499.71 Q1696.83 1495.1 1696.83 1486.38 Q1696.83 1477.63 1699.88 1473.04 Q1702.96 1468.44 1708.77 1468.44 Z" fill="#000000" fill-rule="evenodd" fill-opacity="1" /><path clip-path="url(#clip510)" d="M1726.18 1488.74 L1738.66 1488.74 L1738.66 1492.53 L1726.18 1492.53 L1726.18 1488.74 Z" fill="#000000" fill-rule="evenodd" fill-opacity="1" /><path clip-path="url(#clip510)" d="M1756.04 1472.14 Q1752.43 1472.14 1750.6 1475.71 Q1748.79 1479.25 1748.79 1486.38 Q1748.79 1493.48 1750.6 1497.05 Q1752.43 1500.59 1756.04 1500.59 Q1759.67 1500.59 1761.48 1497.05 Q1763.31 1493.48 1763.31 1486.38 Q1763.31 1479.25 1761.48 1475.71 Q1759.67 1472.14 1756.04 1472.14 M1756.04 1468.44 Q1761.85 1468.44 1764.91 1473.04 Q1767.98 1477.63 1767.98 1486.38 Q1767.98 1495.1 1764.91 1499.71 Q1761.85 1504.29 1756.04 1504.29 Q1750.23 1504.29 1747.15 1499.71 Q1744.1 1495.1 1744.1 1486.38 Q1744.1 1477.63 1747.15 1473.04 Q1750.23 1468.44 1756.04 1468.44 Z" fill="#000000" fill-rule="evenodd" fill-opacity="1" /><path clip-path="url(#clip510)" d="M1777.01 1499.69 L1784.65 1499.69 L1784.65 1473.32 L1776.34 1474.99 L1776.34 1470.73 L1784.6 1469.06 L1789.28 1469.06 L1789.28 1499.69 L1796.92 1499.69 L1796.92 1503.62 L1777.01 1503.62 L1777.01 1499.69 Z" fill="#000000" fill-rule="evenodd" fill-opacity="1" /><path clip-path="url(#clip510)" d="M1959.02 1499.69 L1975.34 1499.69 L1975.34 1503.62 L1953.39 1503.62 L1953.39 1499.69 Q1956.05 1496.93 1960.64 1492.3 Q1965.24 1487.65 1966.42 1486.31 Q1968.67 1483.78 1969.55 1482.05 Q1970.45 1480.29 1970.45 1478.6 Q1970.45 1475.84 1968.51 1474.11 Q1966.59 1472.37 1963.48 1472.37 Q1961.28 1472.37 1958.83 1473.14 Q1956.4 1473.9 1953.62 1475.45 L1953.62 1470.73 Q1956.45 1469.59 1958.9 1469.02 Q1961.35 1468.44 1963.39 1468.44 Q1968.76 1468.44 1971.96 1471.12 Q1975.15 1473.81 1975.15 1478.3 Q1975.15 1480.43 1974.34 1482.35 Q1973.55 1484.25 1971.45 1486.84 Q1970.87 1487.51 1967.77 1490.73 Q1964.66 1493.92 1959.02 1499.69 Z" fill="#000000" fill-rule="evenodd" fill-opacity="1" /><path clip-path="url(#clip510)" d="M1995.15 1472.14 Q1991.54 1472.14 1989.71 1475.71 Q1987.9 1479.25 1987.9 1486.38 Q1987.9 1493.48 1989.71 1497.05 Q1991.54 1500.59 1995.15 1500.59 Q1998.78 1500.59 2000.59 1497.05 Q2002.42 1493.48 2002.42 1486.38 Q2002.42 1479.25 2000.59 1475.71 Q1998.78 1472.14 1995.15 1472.14 M1995.15 1468.44 Q2000.96 1468.44 2004.02 1473.04 Q2007.09 1477.63 2007.09 1486.38 Q2007.09 1495.1 2004.02 1499.71 Q2000.96 1504.29 1995.15 1504.29 Q1989.34 1504.29 1986.26 1499.71 Q1983.21 1495.1 1983.21 1486.38 Q1983.21 1477.63 1986.26 1473.04 Q1989.34 1468.44 1995.15 1468.44 Z" fill="#000000" fill-rule="evenodd" fill-opacity="1" /><path clip-path="url(#clip510)" d="M2019.34 1499.69 L2035.66 1499.69 L2035.66 1503.62 L2013.71 1503.62 L2013.71 1499.69 Q2016.38 1496.93 2020.96 1492.3 Q2025.57 1487.65 2026.75 1486.31 Q2028.99 1483.78 2029.87 1482.05 Q2030.77 1480.29 2030.77 1478.6 Q2030.77 1475.84 2028.83 1474.11 Q2026.91 1472.37 2023.81 1472.37 Q2021.61 1472.37 2019.15 1473.14 Q2016.72 1473.9 2013.95 1475.45 L2013.95 1470.73 Q2016.77 1469.59 2019.22 1469.02 Q2021.68 1468.44 2023.71 1468.44 Q2029.08 1468.44 2032.28 1471.12 Q2035.47 1473.81 2035.47 1478.3 Q2035.47 1480.43 2034.66 1482.35 Q2033.88 1484.25 2031.77 1486.84 Q2031.19 1487.51 2028.09 1490.73 Q2024.99 1493.92 2019.34 1499.69 Z" fill="#000000" fill-rule="evenodd" fill-opacity="1" /><path clip-path="url(#clip510)" d="M2055.47 1472.14 Q2051.86 1472.14 2050.03 1475.71 Q2048.23 1479.25 2048.23 1486.38 Q2048.23 1493.48 2050.03 1497.05 Q2051.86 1500.59 2055.47 1500.59 Q2059.11 1500.59 2060.91 1497.05 Q2062.74 1493.48 2062.74 1486.38 Q2062.74 1479.25 2060.91 1475.71 Q2059.11 1472.14 2055.47 1472.14 M2055.47 1468.44 Q2061.28 1468.44 2064.34 1473.04 Q2067.42 1477.63 2067.42 1486.38 Q2067.42 1495.1 2064.34 1499.71 Q2061.28 1504.29 2055.47 1504.29 Q2049.66 1504.29 2046.58 1499.71 Q2043.53 1495.1 2043.53 1486.38 Q2043.53 1477.63 2046.58 1473.04 Q2049.66 1468.44 2055.47 1468.44 Z" fill="#000000" fill-rule="evenodd" fill-opacity="1" /><path clip-path="url(#clip510)" d="M2072.88 1488.74 L2085.36 1488.74 L2085.36 1492.53 L2072.88 1492.53 L2072.88 1488.74 Z" fill="#000000" fill-rule="evenodd" fill-opacity="1" /><path clip-path="url(#clip510)" d="M2093.55 1499.69 L2101.19 1499.69 L2101.19 1473.32 L2092.88 1474.99 L2092.88 1470.73 L2101.14 1469.06 L2105.82 1469.06 L2105.82 1499.69 L2113.46 1499.69 L2113.46 1503.62 L2093.55 1503.62 L2093.55 1499.69 Z" fill="#000000" fill-rule="evenodd" fill-opacity="1" /><path clip-path="url(#clip510)" d="M2126.93 1499.69 L2143.25 1499.69 L2143.25 1503.62 L2121.31 1503.62 L2121.31 1499.69 Q2123.97 1496.93 2128.55 1492.3 Q2133.16 1487.65 2134.34 1486.31 Q2136.58 1483.78 2137.46 1482.05 Q2138.37 1480.29 2138.37 1478.6 Q2138.37 1475.84 2136.42 1474.11 Q2134.5 1472.37 2131.4 1472.37 Q2129.2 1472.37 2126.75 1473.14 Q2124.32 1473.9 2121.54 1475.45 L2121.54 1470.73 Q2124.36 1469.59 2126.82 1469.02 Q2129.27 1468.44 2131.31 1468.44 Q2136.68 1468.44 2139.87 1471.12 Q2143.07 1473.81 2143.07 1478.3 Q2143.07 1480.43 2142.26 1482.35 Q2141.47 1484.25 2139.36 1486.84 Q2138.78 1487.51 2135.68 1490.73 Q2132.58 1493.92 2126.93 1499.69 Z" fill="#000000" fill-rule="evenodd" fill-opacity="1" /><path clip-path="url(#clip510)" d="M2150.31 1488.74 L2162.79 1488.74 L2162.79 1492.53 L2150.31 1492.53 L2150.31 1488.74 Z" fill="#000000" fill-rule="evenodd" fill-opacity="1" /><path clip-path="url(#clip510)" d="M2180.17 1472.14 Q2176.56 1472.14 2174.73 1475.71 Q2172.93 1479.25 2172.93 1486.38 Q2172.93 1493.48 2174.73 1497.05 Q2176.56 1500.59 2180.17 1500.59 Q2183.81 1500.59 2185.61 1497.05 Q2187.44 1493.48 2187.44 1486.38 Q2187.44 1479.25 2185.61 1475.71 Q2183.81 1472.14 2180.17 1472.14 M2180.17 1468.44 Q2185.98 1468.44 2189.04 1473.04 Q2192.12 1477.63 2192.12 1486.38 Q2192.12 1495.1 2189.04 1499.71 Q2185.98 1504.29 2180.17 1504.29 Q2174.36 1504.29 2171.28 1499.71 Q2168.23 1495.1 2168.23 1486.38 Q2168.23 1477.63 2171.28 1473.04 Q2174.36 1468.44 2180.17 1468.44 Z" fill="#000000" fill-rule="evenodd" fill-opacity="1" /><path clip-path="url(#clip510)" d="M2201.14 1499.69 L2208.78 1499.69 L2208.78 1473.32 L2200.47 1474.99 L2200.47 1470.73 L2208.74 1469.06 L2213.41 1469.06 L2213.41 1499.69 L2221.05 1499.69 L2221.05 1503.62 L2201.14 1503.62 L2201.14 1499.69 Z" fill="#000000" fill-rule="evenodd" fill-opacity="1" /><path clip-path="url(#clip510)" d="M1355.2 1539.82 Q1355.2 1540.72 1354.78 1540.95 Q1354.36 1541.14 1353.2 1541.14 L1347.02 1541.14 L1342.12 1560.59 Q1341.74 1562.3 1341.74 1563.75 Q1341.74 1565.36 1342.22 1566.07 Q1342.73 1566.78 1343.8 1566.78 Q1345.89 1566.78 1348.15 1564.88 Q1350.43 1562.98 1352.36 1558.34 Q1352.62 1557.73 1352.75 1557.6 Q1352.91 1557.44 1353.33 1557.44 Q1354.14 1557.44 1354.14 1558.08 Q1354.14 1558.31 1353.68 1559.34 Q1353.27 1560.37 1352.33 1561.88 Q1351.43 1563.4 1350.24 1564.81 Q1349.08 1566.23 1347.31 1567.26 Q1345.54 1568.26 1343.64 1568.26 Q1340.96 1568.26 1339.26 1566.55 Q1337.58 1564.84 1337.58 1562.17 Q1337.58 1561.3 1338.26 1558.53 Q1338.93 1555.73 1342.61 1541.14 L1336.78 1541.14 Q1335.97 1541.14 1335.65 1541.11 Q1335.36 1541.08 1335.13 1540.92 Q1334.94 1540.72 1334.94 1540.34 Q1334.94 1539.72 1335.2 1539.47 Q1335.46 1539.18 1335.78 1539.14 Q1336.13 1539.08 1336.94 1539.08 L1343.12 1539.08 L1345.7 1528.61 Q1345.96 1527.58 1346.6 1527 Q1347.28 1526.39 1347.66 1526.33 Q1348.05 1526.23 1348.34 1526.23 Q1349.21 1526.23 1349.72 1526.71 Q1350.24 1527.16 1350.24 1528 Q1350.24 1528.45 1347.53 1539.08 L1353.33 1539.08 Q1354.07 1539.08 1354.36 1539.11 Q1354.68 1539.14 1354.94 1539.31 Q1355.2 1539.47 1355.2 1539.82 Z" fill="#000000" fill-rule="evenodd" fill-opacity="1" /><polyline clip-path="url(#clip512)" style="stroke:#000000; stroke-linecap:butt; stroke-linejoin:round; stroke-width:2; stroke-opacity:0.1; fill:none" points="
  340.699,1421.01 2352.76,1421.01 
  "/>
<polyline clip-path="url(#clip512)" style="stroke:#000000; stroke-linecap:butt; stroke-linejoin:round; stroke-width:2; stroke-opacity:0.1; fill:none" points="
  340.699,1054.14 2352.76,1054.14 
  "/>
<polyline clip-path="url(#clip512)" style="stroke:#000000; stroke-linecap:butt; stroke-linejoin:round; stroke-width:2; stroke-opacity:0.1; fill:none" points="
  340.699,687.264 2352.76,687.264 
  "/>
<polyline clip-path="url(#clip512)" style="stroke:#000000; stroke-linecap:butt; stroke-linejoin:round; stroke-width:2; stroke-opacity:0.1; fill:none" points="
  340.699,320.388 2352.76,320.388 
  "/>
<polyline clip-path="url(#clip510)" style="stroke:#000000; stroke-linecap:butt; stroke-linejoin:round; stroke-width:4; stroke-opacity:1; fill:none" points="
  340.699,1442.95 340.699,123.472 
  "/>
<polyline clip-path="url(#clip510)" style="stroke:#000000; stroke-linecap:butt; stroke-linejoin:round; stroke-width:4; stroke-opacity:1; fill:none" points="
  340.699,1421.01 364.844,1421.01 
  "/>
<polyline clip-path="url(#clip510)" style="stroke:#000000; stroke-linecap:butt; stroke-linejoin:round; stroke-width:4; stroke-opacity:1; fill:none" points="
  340.699,1054.14 364.844,1054.14 
  "/>
<polyline clip-path="url(#clip510)" style="stroke:#000000; stroke-linecap:butt; stroke-linejoin:round; stroke-width:4; stroke-opacity:1; fill:none" points="
  340.699,687.264 364.844,687.264 
  "/>
<polyline clip-path="url(#clip510)" style="stroke:#000000; stroke-linecap:butt; stroke-linejoin:round; stroke-width:4; stroke-opacity:1; fill:none" points="
  340.699,320.388 364.844,320.388 
  "/>
<path clip-path="url(#clip510)" d="M292.755 1406.81 Q289.143 1406.81 287.315 1410.38 Q285.509 1413.92 285.509 1421.05 Q285.509 1428.16 287.315 1431.72 Q289.143 1435.26 292.755 1435.26 Q296.389 1435.26 298.194 1431.72 Q300.023 1428.16 300.023 1421.05 Q300.023 1413.92 298.194 1410.38 Q296.389 1406.81 292.755 1406.81 M292.755 1403.11 Q298.565 1403.11 301.62 1407.72 Q304.699 1412.3 304.699 1421.05 Q304.699 1429.78 301.62 1434.38 Q298.565 1438.97 292.755 1438.97 Q286.944 1438.97 283.866 1434.38 Q280.81 1429.78 280.81 1421.05 Q280.81 1412.3 283.866 1407.72 Q286.944 1403.11 292.755 1403.11 Z" fill="#000000" fill-rule="evenodd" fill-opacity="1" /><path clip-path="url(#clip510)" d="M121.043 1073.93 L137.362 1073.93 L137.362 1077.87 L115.418 1077.87 L115.418 1073.93 Q118.08 1071.18 122.663 1066.55 Q127.269 1061.89 128.45 1060.55 Q130.695 1058.03 131.575 1056.29 Q132.478 1054.53 132.478 1052.84 Q132.478 1050.09 130.533 1048.35 Q128.612 1046.62 125.51 1046.62 Q123.311 1046.62 120.857 1047.38 Q118.427 1048.14 115.649 1049.7 L115.649 1044.97 Q118.473 1043.84 120.927 1043.26 Q123.38 1042.68 125.418 1042.68 Q130.788 1042.68 133.982 1045.37 Q137.177 1048.05 137.177 1052.54 Q137.177 1054.67 136.367 1056.59 Q135.579 1058.49 133.473 1061.08 Q132.894 1061.76 129.792 1064.97 Q126.691 1068.17 121.043 1073.93 Z" fill="#000000" fill-rule="evenodd" fill-opacity="1" /><path clip-path="url(#clip510)" d="M147.177 1071.99 L152.061 1071.99 L152.061 1077.87 L147.177 1077.87 L147.177 1071.99 Z" fill="#000000" fill-rule="evenodd" fill-opacity="1" /><path clip-path="url(#clip510)" d="M172.246 1046.39 Q168.635 1046.39 166.806 1049.95 Q165.001 1053.49 165.001 1060.62 Q165.001 1067.73 166.806 1071.29 Q168.635 1074.83 172.246 1074.83 Q175.88 1074.83 177.686 1071.29 Q179.514 1067.73 179.514 1060.62 Q179.514 1053.49 177.686 1049.95 Q175.88 1046.39 172.246 1046.39 M172.246 1042.68 Q178.056 1042.68 181.112 1047.29 Q184.19 1051.87 184.19 1060.62 Q184.19 1069.35 181.112 1073.95 Q178.056 1078.54 172.246 1078.54 Q166.436 1078.54 163.357 1073.95 Q160.302 1069.35 160.302 1060.62 Q160.302 1051.87 163.357 1047.29 Q166.436 1042.68 172.246 1042.68 Z" fill="#000000" fill-rule="evenodd" fill-opacity="1" /><path clip-path="url(#clip510)" d="M220.579 1052.4 L210 1063.03 L220.579 1073.61 L217.824 1076.41 L207.199 1065.78 L196.575 1076.41 L193.843 1073.61 L204.399 1063.03 L193.843 1052.4 L196.575 1049.6 L207.199 1060.23 L217.824 1049.6 L220.579 1052.4 Z" fill="#000000" fill-rule="evenodd" fill-opacity="1" /><path clip-path="url(#clip510)" d="M232.94 1073.93 L240.579 1073.93 L240.579 1047.57 L232.269 1049.23 L232.269 1044.97 L240.533 1043.31 L245.209 1043.31 L245.209 1073.93 L252.847 1073.93 L252.847 1077.87 L232.94 1077.87 L232.94 1073.93 Z" fill="#000000" fill-rule="evenodd" fill-opacity="1" /><path clip-path="url(#clip510)" d="M272.292 1046.39 Q268.681 1046.39 266.852 1049.95 Q265.046 1053.49 265.046 1060.62 Q265.046 1067.73 266.852 1071.29 Q268.681 1074.83 272.292 1074.83 Q275.926 1074.83 277.732 1071.29 Q279.56 1067.73 279.56 1060.62 Q279.56 1053.49 277.732 1049.95 Q275.926 1046.39 272.292 1046.39 M272.292 1042.68 Q278.102 1042.68 281.157 1047.29 Q284.236 1051.87 284.236 1060.62 Q284.236 1069.35 281.157 1073.95 Q278.102 1078.54 272.292 1078.54 Q266.482 1078.54 263.403 1073.95 Q260.347 1069.35 260.347 1060.62 Q260.347 1051.87 263.403 1047.29 Q266.482 1042.68 272.292 1042.68 Z" fill="#000000" fill-rule="evenodd" fill-opacity="1" /><path clip-path="url(#clip510)" d="M296.913 1025.69 L287.321 1040.68 L296.913 1040.68 L296.913 1025.69 M295.916 1022.38 L300.693 1022.38 L300.693 1040.68 L304.699 1040.68 L304.699 1043.84 L300.693 1043.84 L300.693 1050.46 L296.913 1050.46 L296.913 1043.84 L284.236 1043.84 L284.236 1040.17 L295.916 1022.38 Z" fill="#000000" fill-rule="evenodd" fill-opacity="1" /><path clip-path="url(#clip510)" d="M129.862 680.506 L118.056 698.954 L129.862 698.954 L129.862 680.506 M128.635 676.431 L134.515 676.431 L134.515 698.954 L139.445 698.954 L139.445 702.843 L134.515 702.843 L134.515 710.991 L129.862 710.991 L129.862 702.843 L114.26 702.843 L114.26 698.329 L128.635 676.431 Z" fill="#000000" fill-rule="evenodd" fill-opacity="1" /><path clip-path="url(#clip510)" d="M147.177 705.112 L152.061 705.112 L152.061 710.991 L147.177 710.991 L147.177 705.112 Z" fill="#000000" fill-rule="evenodd" fill-opacity="1" /><path clip-path="url(#clip510)" d="M172.246 679.51 Q168.635 679.51 166.806 683.075 Q165.001 686.617 165.001 693.746 Q165.001 700.853 166.806 704.417 Q168.635 707.959 172.246 707.959 Q175.88 707.959 177.686 704.417 Q179.514 700.853 179.514 693.746 Q179.514 686.617 177.686 683.075 Q175.88 679.51 172.246 679.51 M172.246 675.806 Q178.056 675.806 181.112 680.413 Q184.19 684.996 184.19 693.746 Q184.19 702.473 181.112 707.079 Q178.056 711.663 172.246 711.663 Q166.436 711.663 163.357 707.079 Q160.302 702.473 160.302 693.746 Q160.302 684.996 163.357 680.413 Q166.436 675.806 172.246 675.806 Z" fill="#000000" fill-rule="evenodd" fill-opacity="1" /><path clip-path="url(#clip510)" d="M220.579 685.529 L210 696.154 L220.579 706.732 L217.824 709.533 L207.199 698.908 L196.575 709.533 L193.843 706.732 L204.399 696.154 L193.843 685.529 L196.575 682.728 L207.199 693.353 L217.824 682.728 L220.579 685.529 Z" fill="#000000" fill-rule="evenodd" fill-opacity="1" /><path clip-path="url(#clip510)" d="M232.94 707.056 L240.579 707.056 L240.579 680.691 L232.269 682.357 L232.269 678.098 L240.533 676.431 L245.209 676.431 L245.209 707.056 L252.847 707.056 L252.847 710.991 L232.94 710.991 L232.94 707.056 Z" fill="#000000" fill-rule="evenodd" fill-opacity="1" /><path clip-path="url(#clip510)" d="M272.292 679.51 Q268.681 679.51 266.852 683.075 Q265.046 686.617 265.046 693.746 Q265.046 700.853 266.852 704.417 Q268.681 707.959 272.292 707.959 Q275.926 707.959 277.732 704.417 Q279.56 700.853 279.56 693.746 Q279.56 686.617 277.732 683.075 Q275.926 679.51 272.292 679.51 M272.292 675.806 Q278.102 675.806 281.157 680.413 Q284.236 684.996 284.236 693.746 Q284.236 702.473 281.157 707.079 Q278.102 711.663 272.292 711.663 Q266.482 711.663 263.403 707.079 Q260.347 702.473 260.347 693.746 Q260.347 684.996 263.403 680.413 Q266.482 675.806 272.292 675.806 Z" fill="#000000" fill-rule="evenodd" fill-opacity="1" /><path clip-path="url(#clip510)" d="M296.913 658.811 L287.321 673.801 L296.913 673.801 L296.913 658.811 M295.916 655.501 L300.693 655.501 L300.693 673.801 L304.699 673.801 L304.699 676.961 L300.693 676.961 L300.693 683.581 L296.913 683.581 L296.913 676.961 L284.236 676.961 L284.236 673.293 L295.916 655.501 Z" fill="#000000" fill-rule="evenodd" fill-opacity="1" /><path clip-path="url(#clip510)" d="M127.593 324.973 Q124.445 324.973 122.593 327.125 Q120.765 329.278 120.765 333.028 Q120.765 336.755 122.593 338.931 Q124.445 341.084 127.593 341.084 Q130.742 341.084 132.57 338.931 Q134.422 336.755 134.422 333.028 Q134.422 329.278 132.57 327.125 Q130.742 324.973 127.593 324.973 M136.876 310.32 L136.876 314.579 Q135.117 313.746 133.311 313.306 Q131.529 312.866 129.769 312.866 Q125.14 312.866 122.686 315.991 Q120.255 319.116 119.908 325.435 Q121.274 323.422 123.334 322.357 Q125.394 321.269 127.871 321.269 Q133.08 321.269 136.089 324.44 Q139.121 327.588 139.121 333.028 Q139.121 338.352 135.973 341.57 Q132.825 344.787 127.593 344.787 Q121.598 344.787 118.427 340.204 Q115.256 335.597 115.256 326.871 Q115.256 318.676 119.144 313.815 Q123.033 308.931 129.584 308.931 Q131.343 308.931 133.126 309.278 Q134.931 309.625 136.876 310.32 Z" fill="#000000" fill-rule="evenodd" fill-opacity="1" /><path clip-path="url(#clip510)" d="M147.177 338.236 L152.061 338.236 L152.061 344.116 L147.177 344.116 L147.177 338.236 Z" fill="#000000" fill-rule="evenodd" fill-opacity="1" /><path clip-path="url(#clip510)" d="M172.246 312.635 Q168.635 312.635 166.806 316.199 Q165.001 319.741 165.001 326.871 Q165.001 333.977 166.806 337.542 Q168.635 341.084 172.246 341.084 Q175.88 341.084 177.686 337.542 Q179.514 333.977 179.514 326.871 Q179.514 319.741 177.686 316.199 Q175.88 312.635 172.246 312.635 M172.246 308.931 Q178.056 308.931 181.112 313.537 Q184.19 318.121 184.19 326.871 Q184.19 335.597 181.112 340.204 Q178.056 344.787 172.246 344.787 Q166.436 344.787 163.357 340.204 Q160.302 335.597 160.302 326.871 Q160.302 318.121 163.357 313.537 Q166.436 308.931 172.246 308.931 Z" fill="#000000" fill-rule="evenodd" fill-opacity="1" /><path clip-path="url(#clip510)" d="M220.579 318.653 L210 329.278 L220.579 339.857 L217.824 342.658 L207.199 332.033 L196.575 342.658 L193.843 339.857 L204.399 329.278 L193.843 318.653 L196.575 315.852 L207.199 326.477 L217.824 315.852 L220.579 318.653 Z" fill="#000000" fill-rule="evenodd" fill-opacity="1" /><path clip-path="url(#clip510)" d="M232.94 340.181 L240.579 340.181 L240.579 313.815 L232.269 315.482 L232.269 311.223 L240.533 309.556 L245.209 309.556 L245.209 340.181 L252.847 340.181 L252.847 344.116 L232.94 344.116 L232.94 340.181 Z" fill="#000000" fill-rule="evenodd" fill-opacity="1" /><path clip-path="url(#clip510)" d="M272.292 312.635 Q268.681 312.635 266.852 316.199 Q265.046 319.741 265.046 326.871 Q265.046 333.977 266.852 337.542 Q268.681 341.084 272.292 341.084 Q275.926 341.084 277.732 337.542 Q279.56 333.977 279.56 326.871 Q279.56 319.741 277.732 316.199 Q275.926 312.635 272.292 312.635 M272.292 308.931 Q278.102 308.931 281.157 313.537 Q284.236 318.121 284.236 326.871 Q284.236 335.597 281.157 340.204 Q278.102 344.787 272.292 344.787 Q266.482 344.787 263.403 340.204 Q260.347 335.597 260.347 326.871 Q260.347 318.121 263.403 313.537 Q266.482 308.931 272.292 308.931 Z" fill="#000000" fill-rule="evenodd" fill-opacity="1" /><path clip-path="url(#clip510)" d="M296.913 291.936 L287.321 306.926 L296.913 306.926 L296.913 291.936 M295.916 288.626 L300.693 288.626 L300.693 306.926 L304.699 306.926 L304.699 310.085 L300.693 310.085 L300.693 316.706 L296.913 316.706 L296.913 310.085 L284.236 310.085 L284.236 306.418 L295.916 288.626 Z" fill="#000000" fill-rule="evenodd" fill-opacity="1" /><path clip-path="url(#clip510)" d="M28.3562 909.857 L28.3562 904 L64.0042 904 L64.0042 909.857 L28.3562 909.857 M14.479 909.857 L14.479 904 L21.895 904 L21.895 909.857 L14.479 909.857 Z" fill="#000000" fill-rule="evenodd" fill-opacity="1" /><path clip-path="url(#clip510)" d="M42.4881 862.114 L64.0042 862.114 L64.0042 867.97 L42.679 867.97 Q37.6183 867.97 35.1038 869.944 Q32.5894 871.917 32.5894 875.864 Q32.5894 880.606 35.6131 883.344 Q38.6368 886.081 43.8567 886.081 L64.0042 886.081 L64.0042 891.969 L28.3562 891.969 L28.3562 886.081 L33.8944 886.081 Q30.6797 883.98 29.0883 881.147 Q27.4968 878.283 27.4968 874.559 Q27.4968 868.416 31.3163 865.265 Q35.1038 862.114 42.4881 862.114 Z" fill="#000000" fill-rule="evenodd" fill-opacity="1" /><path clip-path="url(#clip510)" d="M14.479 832.386 L19.3487 832.386 L19.3487 837.988 Q19.3487 841.139 20.6219 842.38 Q21.895 843.59 25.2052 843.59 L28.3562 843.59 L28.3562 833.946 L32.9077 833.946 L32.9077 843.59 L64.0042 843.59 L64.0042 849.478 L32.9077 849.478 L32.9077 855.08 L28.3562 855.08 L28.3562 849.478 L25.8736 849.478 Q19.9216 849.478 17.2162 846.709 Q14.479 843.94 14.479 837.924 L14.479 832.386 Z" fill="#000000" fill-rule="evenodd" fill-opacity="1" /><path clip-path="url(#clip510)" d="M44.7161 796.993 L47.5806 796.993 L47.5806 823.92 Q53.6281 823.538 56.8109 820.291 Q59.9619 817.013 59.9619 811.188 Q59.9619 807.814 59.1344 804.663 Q58.3069 801.481 56.6518 798.361 L62.1899 798.361 Q63.5267 801.512 64.227 804.823 Q64.9272 808.133 64.9272 811.538 Q64.9272 820.068 59.9619 825.066 Q54.9967 830.031 46.5303 830.031 Q37.7774 830.031 32.6531 825.32 Q27.4968 820.578 27.4968 812.557 Q27.4968 805.364 32.1438 801.194 Q36.7589 796.993 44.7161 796.993 M42.9973 802.849 Q38.1912 802.913 35.3266 805.555 Q32.4621 808.165 32.4621 812.493 Q32.4621 817.395 35.2312 820.355 Q38.0002 823.283 43.0292 823.729 L42.9973 802.849 Z" fill="#000000" fill-rule="evenodd" fill-opacity="1" /><path clip-path="url(#clip510)" d="M29.7248 761.727 L35.1993 761.727 Q33.8307 764.209 33.1623 766.724 Q32.4621 769.206 32.4621 771.753 Q32.4621 777.45 36.0905 780.601 Q39.6872 783.752 46.212 783.752 Q52.7369 783.752 56.3653 780.601 Q59.9619 777.45 59.9619 771.753 Q59.9619 769.206 59.2935 766.724 Q58.5933 764.209 57.2247 761.727 L62.6355 761.727 Q63.7814 764.178 64.3543 766.819 Q64.9272 769.429 64.9272 772.389 Q64.9272 780.442 59.8664 785.184 Q54.8057 789.927 46.212 789.927 Q37.491 789.927 32.4939 785.153 Q27.4968 780.346 27.4968 772.007 Q27.4968 769.302 28.0697 766.724 Q28.6108 764.146 29.7248 761.727 Z" fill="#000000" fill-rule="evenodd" fill-opacity="1" /><path clip-path="url(#clip510)" d="M18.2347 745.749 L28.3562 745.749 L28.3562 733.686 L32.9077 733.686 L32.9077 745.749 L52.2594 745.749 Q56.6199 745.749 57.8613 744.571 Q59.1026 743.362 59.1026 739.701 L59.1026 733.686 L64.0042 733.686 L64.0042 739.701 Q64.0042 746.481 61.4897 749.059 Q58.9434 751.637 52.2594 751.637 L32.9077 751.637 L32.9077 755.934 L28.3562 755.934 L28.3562 751.637 L18.2347 751.637 L18.2347 745.749 Z" fill="#000000" fill-rule="evenodd" fill-opacity="1" /><path clip-path="url(#clip510)" d="M44.7161 695.492 L47.5806 695.492 L47.5806 722.418 Q53.6281 722.037 56.8109 718.79 Q59.9619 715.512 59.9619 709.687 Q59.9619 706.313 59.1344 703.162 Q58.3069 699.979 56.6518 696.86 L62.1899 696.86 Q63.5267 700.011 64.227 703.321 Q64.9272 706.632 64.9272 710.037 Q64.9272 718.567 59.9619 723.564 Q54.9967 728.53 46.5303 728.53 Q37.7774 728.53 32.6531 723.819 Q27.4968 719.076 27.4968 711.056 Q27.4968 703.862 32.1438 699.693 Q36.7589 695.492 44.7161 695.492 M42.9973 701.348 Q38.1912 701.412 35.3266 704.053 Q32.4621 706.663 32.4621 710.992 Q32.4621 715.894 35.2312 718.854 Q38.0002 721.782 43.0292 722.228 L42.9973 701.348 Z" fill="#000000" fill-rule="evenodd" fill-opacity="1" /><path clip-path="url(#clip510)" d="M33.7671 662.422 L14.479 662.422 L14.479 656.565 L64.0042 656.565 L64.0042 662.422 L58.657 662.422 Q61.8398 664.268 63.3994 667.1 Q64.9272 669.901 64.9272 673.848 Q64.9272 680.309 59.771 684.383 Q54.6147 688.426 46.212 688.426 Q37.8093 688.426 32.6531 684.383 Q27.4968 680.309 27.4968 673.848 Q27.4968 669.901 29.0564 667.1 Q30.5842 664.268 33.7671 662.422 M46.212 682.378 Q52.6732 682.378 56.3653 679.736 Q60.0256 677.063 60.0256 672.416 Q60.0256 667.769 56.3653 665.095 Q52.6732 662.422 46.212 662.422 Q39.7508 662.422 36.0905 665.095 Q32.3984 667.769 32.3984 672.416 Q32.3984 677.063 36.0905 679.736 Q39.7508 682.378 46.212 682.378 Z" fill="#000000" fill-rule="evenodd" fill-opacity="1" /><path clip-path="url(#clip510)" d="M980.769 43.6931 L980.769 65.8515 L993.894 65.8515 Q1000.5 65.8515 1003.66 63.1374 Q1006.86 60.3828 1006.86 54.752 Q1006.86 49.0808 1003.66 46.4072 Q1000.5 43.6931 993.894 43.6931 L980.769 43.6931 M980.769 18.8205 L980.769 37.0496 L992.881 37.0496 Q998.876 37.0496 1001.79 34.8216 Q1004.75 32.5531 1004.75 27.935 Q1004.75 23.3575 1001.79 21.089 Q998.876 18.8205 992.881 18.8205 L980.769 18.8205 M972.586 12.096 L993.489 12.096 Q1002.85 12.096 1007.91 15.9849 Q1012.97 19.8737 1012.97 27.0438 Q1012.97 32.5936 1010.38 35.8748 Q1007.79 39.156 1002.77 39.9662 Q1008.8 41.2625 1012.12 45.3944 Q1015.48 49.4858 1015.48 55.6432 Q1015.48 63.745 1009.98 68.1605 Q1004.47 72.576 994.299 72.576 L972.586 72.576 L972.586 12.096 Z" fill="#000000" fill-rule="evenodd" fill-opacity="1" /><path clip-path="url(#clip510)" d="M1055.47 34.1734 Q1054.21 33.4443 1052.71 33.1202 Q1051.25 32.7556 1049.47 32.7556 Q1043.15 32.7556 1039.75 36.8875 Q1036.39 40.9789 1036.39 48.6757 L1036.39 72.576 L1028.89 72.576 L1028.89 27.2059 L1036.39 27.2059 L1036.39 34.2544 Q1038.74 30.1225 1042.5 28.1376 Q1046.27 26.1121 1051.66 26.1121 Q1052.43 26.1121 1053.36 26.2337 Q1054.29 26.3147 1055.43 26.5172 L1055.47 34.1734 Z" fill="#000000" fill-rule="evenodd" fill-opacity="1" /><path clip-path="url(#clip510)" d="M1083.9 49.7694 Q1074.87 49.7694 1071.39 51.8354 Q1067.9 53.9013 1067.9 58.8839 Q1067.9 62.8538 1070.5 65.2034 Q1073.13 67.5124 1077.63 67.5124 Q1083.82 67.5124 1087.55 63.1374 Q1091.32 58.7219 1091.32 51.4303 L1091.32 49.7694 L1083.9 49.7694 M1098.77 46.6907 L1098.77 72.576 L1091.32 72.576 L1091.32 65.6895 Q1088.77 69.8214 1084.96 71.8063 Q1081.15 73.7508 1075.64 73.7508 Q1068.67 73.7508 1064.54 69.8619 Q1060.45 65.9325 1060.45 59.3701 Q1060.45 51.7138 1065.55 47.825 Q1070.7 43.9361 1080.87 43.9361 L1091.32 43.9361 L1091.32 43.2069 Q1091.32 38.0623 1087.92 35.2672 Q1084.55 32.4315 1078.44 32.4315 Q1074.55 32.4315 1070.86 33.3632 Q1067.17 34.295 1063.77 36.1584 L1063.77 29.2718 Q1067.86 27.692 1071.71 26.9223 Q1075.56 26.1121 1079.21 26.1121 Q1089.05 26.1121 1093.91 31.2163 Q1098.77 36.3204 1098.77 46.6907 Z" fill="#000000" fill-rule="evenodd" fill-opacity="1" /><path clip-path="url(#clip510)" d="M1143.05 28.5427 L1143.05 35.5912 Q1139.89 33.9709 1136.49 33.1607 Q1133.08 32.3505 1129.44 32.3505 Q1123.89 32.3505 1121.09 34.0519 Q1118.34 35.7533 1118.34 39.156 Q1118.34 41.7486 1120.32 43.2475 Q1122.31 44.7058 1128.3 46.0426 L1130.85 46.6097 Q1138.79 48.3111 1142.12 51.4303 Q1145.48 54.509 1145.48 60.0587 Q1145.48 66.3781 1140.46 70.0644 Q1135.47 73.7508 1126.72 73.7508 Q1123.08 73.7508 1119.11 73.0216 Q1115.18 72.3329 1110.8 70.9151 L1110.8 63.2184 Q1114.93 65.3654 1118.95 66.4591 Q1122.96 67.5124 1126.88 67.5124 Q1132.15 67.5124 1134.99 65.73 Q1137.82 63.9071 1137.82 60.6258 Q1137.82 57.5877 1135.76 55.9673 Q1133.73 54.3469 1126.8 52.8481 L1124.21 52.2405 Q1117.28 50.7821 1114.21 47.7845 Q1111.13 44.7463 1111.13 39.4801 Q1111.13 33.0797 1115.66 29.5959 Q1120.2 26.1121 1128.55 26.1121 Q1132.68 26.1121 1136.32 26.7198 Q1139.97 27.3274 1143.05 28.5427 Z" fill="#000000" fill-rule="evenodd" fill-opacity="1" /><path clip-path="url(#clip510)" d="M1157.35 27.2059 L1164.8 27.2059 L1164.8 72.576 L1157.35 72.576 L1157.35 27.2059 M1157.35 9.54393 L1164.8 9.54393 L1164.8 18.9825 L1157.35 18.9825 L1157.35 9.54393 Z" fill="#000000" fill-rule="evenodd" fill-opacity="1" /><path clip-path="url(#clip510)" d="M1180.4 9.54393 L1187.85 9.54393 L1187.85 72.576 L1180.4 72.576 L1180.4 9.54393 Z" fill="#000000" fill-rule="evenodd" fill-opacity="1" /><path clip-path="url(#clip510)" d="M1275.43 16.7545 L1275.43 25.383 Q1271.3 21.5346 1266.6 19.6307 Q1261.94 17.7268 1256.68 17.7268 Q1246.31 17.7268 1240.8 24.0867 Q1235.29 30.4061 1235.29 42.3968 Q1235.29 54.3469 1240.8 60.7069 Q1246.31 67.0263 1256.68 67.0263 Q1261.94 67.0263 1266.6 65.1223 Q1271.3 63.2184 1275.43 59.3701 L1275.43 67.9175 Q1271.14 70.8341 1266.32 72.2924 Q1261.54 73.7508 1256.19 73.7508 Q1242.46 73.7508 1234.56 65.3654 Q1226.66 56.9395 1226.66 42.3968 Q1226.66 27.8135 1234.56 19.4281 Q1242.46 11.0023 1256.19 11.0023 Q1261.62 11.0023 1266.4 12.4606 Q1271.22 13.8784 1275.43 16.7545 Z" fill="#000000" fill-rule="evenodd" fill-opacity="1" /><path clip-path="url(#clip510)" d="M1312.62 17.6457 Q1303.71 17.6457 1298.44 24.2892 Q1293.21 30.9327 1293.21 42.3968 Q1293.21 53.8203 1298.44 60.4638 Q1303.71 67.1073 1312.62 67.1073 Q1321.53 67.1073 1326.72 60.4638 Q1331.94 53.8203 1331.94 42.3968 Q1331.94 30.9327 1326.72 24.2892 Q1321.53 17.6457 1312.62 17.6457 M1312.62 11.0023 Q1325.34 11.0023 1332.95 19.5497 Q1340.57 28.0566 1340.57 42.3968 Q1340.57 56.6965 1332.95 65.2439 Q1325.34 73.7508 1312.62 73.7508 Q1299.86 73.7508 1292.2 65.2439 Q1284.59 56.737 1284.59 42.3968 Q1284.59 28.0566 1292.2 19.5497 Q1299.86 11.0023 1312.62 11.0023 Z" fill="#000000" fill-rule="evenodd" fill-opacity="1" /><path clip-path="url(#clip510)" d="M1367.51 72.576 L1344.42 12.096 L1352.97 12.096 L1372.13 63.0159 L1391.33 12.096 L1399.83 12.096 L1376.79 72.576 L1367.51 72.576 Z" fill="#000000" fill-rule="evenodd" fill-opacity="1" /><path clip-path="url(#clip510)" d="M1408.67 12.096 L1416.85 12.096 L1416.85 72.576 L1408.67 72.576 L1408.67 12.096 Z" fill="#000000" fill-rule="evenodd" fill-opacity="1" /><path clip-path="url(#clip510)" d="M1441.32 18.8205 L1441.32 65.8515 L1451.2 65.8515 Q1463.72 65.8515 1469.51 60.1802 Q1475.34 54.509 1475.34 42.2752 Q1475.34 30.1225 1469.51 24.4918 Q1463.72 18.8205 1451.2 18.8205 L1441.32 18.8205 M1433.13 12.096 L1449.94 12.096 Q1467.53 12.096 1475.75 19.4281 Q1483.97 26.7198 1483.97 42.2752 Q1483.97 57.9117 1475.71 65.2439 Q1467.44 72.576 1449.94 72.576 L1433.13 72.576 L1433.13 12.096 Z" fill="#000000" fill-rule="evenodd" fill-opacity="1" /><path clip-path="url(#clip510)" d="M1531.17 65.6895 L1559.72 65.6895 L1559.72 72.576 L1521.32 72.576 L1521.32 65.6895 Q1525.98 60.8689 1534 52.7671 Q1542.06 44.6248 1544.13 42.2752 Q1548.06 37.8598 1549.6 34.8216 Q1551.18 31.7429 1551.18 28.7857 Q1551.18 23.9651 1547.77 20.927 Q1544.41 17.8888 1538.98 17.8888 Q1535.13 17.8888 1530.84 19.2256 Q1526.59 20.5624 1521.73 23.2765 L1521.73 15.0127 Q1526.67 13.0277 1530.96 12.015 Q1535.26 11.0023 1538.82 11.0023 Q1548.22 11.0023 1553.81 15.7013 Q1559.4 20.4004 1559.4 28.2591 Q1559.4 31.9859 1557.98 35.3482 Q1556.6 38.6699 1552.92 43.2069 Q1551.91 44.3817 1546.48 50.0125 Q1541.05 55.6027 1531.17 65.6895 Z" fill="#000000" fill-rule="evenodd" fill-opacity="1" /><path clip-path="url(#clip510)" d="M1594.4 17.4837 Q1588.08 17.4837 1584.88 23.7221 Q1581.72 29.92 1581.72 42.3968 Q1581.72 54.833 1584.88 61.0714 Q1588.08 67.2693 1594.4 67.2693 Q1600.76 67.2693 1603.92 61.0714 Q1607.12 54.833 1607.12 42.3968 Q1607.12 29.92 1603.92 23.7221 Q1600.76 17.4837 1594.4 17.4837 M1594.4 11.0023 Q1604.57 11.0023 1609.91 19.0636 Q1615.3 27.0843 1615.3 42.3968 Q1615.3 57.6687 1609.91 65.73 Q1604.57 73.7508 1594.4 73.7508 Q1584.23 73.7508 1578.84 65.73 Q1573.5 57.6687 1573.5 42.3968 Q1573.5 27.0843 1578.84 19.0636 Q1584.23 11.0023 1594.4 11.0023 Z" fill="#000000" fill-rule="evenodd" fill-opacity="1" /><path clip-path="url(#clip510)" d="M1636.73 65.6895 L1665.29 65.6895 L1665.29 72.576 L1626.89 72.576 L1626.89 65.6895 Q1631.55 60.8689 1639.57 52.7671 Q1647.63 44.6248 1649.69 42.2752 Q1653.62 37.8598 1655.16 34.8216 Q1656.74 31.7429 1656.74 28.7857 Q1656.74 23.9651 1653.34 20.927 Q1649.98 17.8888 1644.55 17.8888 Q1640.7 17.8888 1636.41 19.2256 Q1632.15 20.5624 1627.29 23.2765 L1627.29 15.0127 Q1632.24 13.0277 1636.53 12.015 Q1640.82 11.0023 1644.39 11.0023 Q1653.79 11.0023 1659.38 15.7013 Q1664.97 20.4004 1664.97 28.2591 Q1664.97 31.9859 1663.55 35.3482 Q1662.17 38.6699 1658.49 43.2069 Q1657.47 44.3817 1652.04 50.0125 Q1646.62 55.6027 1636.73 65.6895 Z" fill="#000000" fill-rule="evenodd" fill-opacity="1" /><path clip-path="url(#clip510)" d="M1699.97 17.4837 Q1693.65 17.4837 1690.45 23.7221 Q1687.29 29.92 1687.29 42.3968 Q1687.29 54.833 1690.45 61.0714 Q1693.65 67.2693 1699.97 67.2693 Q1706.33 67.2693 1709.49 61.0714 Q1712.69 54.833 1712.69 42.3968 Q1712.69 29.92 1709.49 23.7221 Q1706.33 17.4837 1699.97 17.4837 M1699.97 11.0023 Q1710.13 11.0023 1715.48 19.0636 Q1720.87 27.0843 1720.87 42.3968 Q1720.87 57.6687 1715.48 65.73 Q1710.13 73.7508 1699.97 73.7508 Q1689.8 73.7508 1684.41 65.73 Q1679.06 57.6687 1679.06 42.3968 Q1679.06 27.0843 1684.41 19.0636 Q1689.8 11.0023 1699.97 11.0023 Z" fill="#000000" fill-rule="evenodd" fill-opacity="1" /><polyline clip-path="url(#clip512)" style="stroke:#009af9; stroke-linecap:butt; stroke-linejoin:round; stroke-width:4; stroke-opacity:1; fill:none" points="
  397.644,1399.61 404.597,1400.58 411.55,1399.57 418.503,1401.94 425.456,1405.61 432.409,1387.61 439.362,1381.15 446.315,1385.78 453.268,1388.71 460.221,1401.68 
  467.174,1394.14 474.127,1395.32 481.08,1385.83 488.033,1361.53 494.986,1382.8 501.939,1360.55 508.892,1370.06 515.845,1385.61 522.798,1387.7 529.751,1371.06 
  536.704,1370.04 543.657,1349.97 550.61,1349.24 557.563,1323.85 564.516,1352.87 571.469,1344.98 578.422,1306.66 585.375,1308.86 592.328,1285.05 599.281,1320.93 
  606.234,1329.35 613.187,1343.29 620.14,1293.32 627.093,1280.96 634.046,1227.58 640.999,1242.49 647.952,1230.17 654.905,1234.73 661.858,1306.16 668.811,1306.84 
  675.764,1244.69 682.717,1206.52 689.67,1161.74 696.623,1137.66 703.576,1163.12 710.529,1280.43 717.482,1153.95 724.435,1100.18 731.388,1051.33 738.341,1092.7 
  745.294,1015.34 752.247,1109.1 759.2,1155.56 766.153,1186.09 773.106,1121.52 780.059,1050.47 787.012,901.207 793.965,927.751 800.918,828.144 807.871,1179.23 
  814.824,1146.56 821.776,835.72 828.729,942.518 835.682,834.895 842.635,832.125 849.588,984.616 856.541,1091.07 863.494,1102.99 870.447,839.517 877.4,801.179 
  884.353,894.805 891.306,975.481 898.259,1034 905.212,1110.55 912.165,970.107 919.118,741.947 926.071,853.734 933.024,960.219 939.977,391.709 946.93,891.32 
  953.883,1117.06 960.836,934.74 967.789,695.225 974.742,668.15 981.695,655.676 988.648,597.655 995.601,743.763 1002.55,818.422 1009.51,1025.12 1016.46,693.116 
  1023.41,562.068 1030.37,606.533 1037.32,634.911 1044.27,810.222 1051.23,950.534 1058.18,972.363 1065.13,564.471 1072.08,590.922 1079.04,632.93 1085.99,608.184 
  1092.94,779.955 1099.9,987.038 1106.85,1001.07 1113.8,633.663 1120.76,684.659 1127.71,619.704 1134.66,785.99 1141.61,949.103 1148.57,991.055 1155.52,1003.64 
  1162.47,560.105 1169.43,207.574 1176.38,369.44 1183.33,377.199 1190.29,549.044 1197.24,1034.95 1204.19,877.342 1211.14,430.378 1218.1,403.834 1225.05,356.067 
  1232,443.952 1238.96,658.996 1245.91,979.554 1252.86,1052.19 1259.82,388.591 1266.77,391.232 1273.72,430.084 1280.67,522.794 1287.63,562.031 1294.58,1004.06 
  1301.53,963.411 1308.49,486.785 1315.44,391.837 1322.39,307.309 1329.34,517.052 1336.3,742.13 1343.25,1001.82 1350.2,970.657 1357.16,517.327 1364.11,529.452 
  1371.06,632.709 1378.02,828.034 1384.97,578.889 1391.92,1019.85 1398.87,989.624 1405.83,571.57 1412.78,537.725 1419.73,645.807 1426.69,612.275 1433.64,736.957 
  1440.59,1154.41 1447.55,499.699 1454.5,607.854 1461.45,568.891 1468.4,562.361 1475.36,700.802 1482.31,794.868 1489.26,1157.98 1496.22,1240.35 1503.17,1078.7 
  1510.12,739.324 1517.08,674.221 1524.03,657.308 1530.98,856.027 1537.93,1163.84 1544.89,1042.93 1551.84,787.201 1558.79,736.847 1565.75,753.21 1572.7,692.198 
  1579.65,878.81 1586.61,1137.75 1593.56,1097.52 1600.51,779.588 1607.46,820.696 1614.42,833.757 1621.37,828.309 1628.32,967.612 1635.28,1168.27 1642.23,1111.35 
  1649.18,818.459 1656.14,817.486 1663.09,765.133 1670.04,818.495 1676.99,998.961 1683.95,1261.15 1690.9,943.105 1697.85,842.709 1704.81,853.495 1711.76,928.851 
  1718.71,912.287 1725.67,985.46 1732.62,1197.39 1739.57,1262.6 1746.52,1176.02 1753.48,910.196 1760.43,862.887 1767.38,896.456 1774.34,1039.9 1781.29,1199.95 
  1788.24,1116.89 1795.2,985.057 1802.15,946.957 1809.1,966.511 1816.05,870.683 1823.01,962.751 1829.96,1206.45 1836.91,1069.36 1843.87,871.032 1850.82,900.951 
  1857.77,931.236 1864.73,974.289 1871.68,1179.43 1878.63,1234.13 1885.58,1269.7 1892.54,1177.63 1899.49,969.208 1906.44,983.608 1913.4,1050.54 1920.35,1095.45 
  1927.3,1228.37 1934.26,1174.95 1941.21,569.423 1948.16,939.601 1955.11,798.757 1962.07,710.781 1969.02,938.977 1975.97,1165.93 1982.93,1132.21 1989.88,769.994 
  1996.83,783.532 2003.79,763.17 2010.74,709.827 2017.69,866.629 2024.64,1092.18 2031.6,1087.93 2038.55,787.549 2045.5,602.681 2052.46,670.718 2059.41,806.352 
  2066.36,476.586 2073.32,1035.58 2080.27,986.359 2087.22,467.414 2094.17,531.8 2101.13,501.276 2108.08,546.549 2115.03,682.091 2121.99,936.189 2128.94,925.293 
  2135.89,544.256 2142.85,419.61 2149.8,438.706 2156.75,457.068 2163.7,644.615 2170.66,1016.92 2177.61,918.762 2184.56,539.927 2191.52,208.051 2198.47,160.816 
  2205.42,451.491 2212.37,536.074 2219.33,971.886 2226.28,913.901 2233.23,381.565 2240.19,583.09 2247.14,353.205 2254.09,1032.44 2261.05,1099.39 2268,1097.91 
  2274.95,917.717 2281.9,386.958 2288.86,401.101 2295.81,421.848 
  "/>
</svg>
