<?xml version="1.0" encoding="utf-8"?>
<svg xmlns="http://www.w3.org/2000/svg" xmlns:xlink="http://www.w3.org/1999/xlink" width="600" height="400" viewBox="0 0 2400 1600">
<defs>
  <clipPath id="clip320">
    <rect x="0" y="0" width="2400" height="1600"/>
  </clipPath>
</defs>
<path clip-path="url(#clip320)" d="
M0 1600 L2400 1600 L2400 0 L0 0  Z
  " fill="#ffffff" fill-rule="evenodd" fill-opacity="1"/>
<defs>
  <clipPath id="clip321">
    <rect x="480" y="0" width="1681" height="1600"/>
  </clipPath>
</defs>
<defs>
  <clipPath id="clip322">
    <rect x="264" y="47" width="2089" height="1385"/>
  </clipPath>
</defs>
<path clip-path="url(#clip320)" d="
M249.542 1439.5 L2352.76 1439.5 L2352.76 47.2441 L249.542 47.2441  Z
  " fill="#ffffff" fill-rule="evenodd" fill-opacity="1"/>
<defs>
  <clipPath id="clip323">
    <rect x="249" y="47" width="2104" height="1393"/>
  </clipPath>
</defs>
<polyline clip-path="url(#clip323)" style="stroke:#000000; stroke-linecap:butt; stroke-linejoin:round; stroke-width:2; stroke-opacity:0.1; fill:none" points="
  309.067,1439.5 309.067,47.2441 
  "/>
<polyline clip-path="url(#clip323)" style="stroke:#000000; stroke-linecap:butt; stroke-linejoin:round; stroke-width:2; stroke-opacity:0.1; fill:none" points="
  705.9,1439.5 705.9,47.2441 
  "/>
<polyline clip-path="url(#clip323)" style="stroke:#000000; stroke-linecap:butt; stroke-linejoin:round; stroke-width:2; stroke-opacity:0.1; fill:none" points="
  1102.73,1439.5 1102.73,47.2441 
  "/>
<polyline clip-path="url(#clip323)" style="stroke:#000000; stroke-linecap:butt; stroke-linejoin:round; stroke-width:2; stroke-opacity:0.1; fill:none" points="
  1499.57,1439.5 1499.57,47.2441 
  "/>
<polyline clip-path="url(#clip323)" style="stroke:#000000; stroke-linecap:butt; stroke-linejoin:round; stroke-width:2; stroke-opacity:0.1; fill:none" points="
  1896.4,1439.5 1896.4,47.2441 
  "/>
<polyline clip-path="url(#clip323)" style="stroke:#000000; stroke-linecap:butt; stroke-linejoin:round; stroke-width:2; stroke-opacity:0.1; fill:none" points="
  2293.23,1439.5 2293.23,47.2441 
  "/>
<polyline clip-path="url(#clip320)" style="stroke:#000000; stroke-linecap:butt; stroke-linejoin:round; stroke-width:4; stroke-opacity:1; fill:none" points="
  249.542,1439.5 2352.76,1439.5 
  "/>
<polyline clip-path="url(#clip320)" style="stroke:#000000; stroke-linecap:butt; stroke-linejoin:round; stroke-width:4; stroke-opacity:1; fill:none" points="
  309.067,1439.5 309.067,1422.79 
  "/>
<polyline clip-path="url(#clip320)" style="stroke:#000000; stroke-linecap:butt; stroke-linejoin:round; stroke-width:4; stroke-opacity:1; fill:none" points="
  705.9,1439.5 705.9,1422.79 
  "/>
<polyline clip-path="url(#clip320)" style="stroke:#000000; stroke-linecap:butt; stroke-linejoin:round; stroke-width:4; stroke-opacity:1; fill:none" points="
  1102.73,1439.5 1102.73,1422.79 
  "/>
<polyline clip-path="url(#clip320)" style="stroke:#000000; stroke-linecap:butt; stroke-linejoin:round; stroke-width:4; stroke-opacity:1; fill:none" points="
  1499.57,1439.5 1499.57,1422.79 
  "/>
<polyline clip-path="url(#clip320)" style="stroke:#000000; stroke-linecap:butt; stroke-linejoin:round; stroke-width:4; stroke-opacity:1; fill:none" points="
  1896.4,1439.5 1896.4,1422.79 
  "/>
<polyline clip-path="url(#clip320)" style="stroke:#000000; stroke-linecap:butt; stroke-linejoin:round; stroke-width:4; stroke-opacity:1; fill:none" points="
  2293.23,1439.5 2293.23,1422.79 
  "/>
<path clip-path="url(#clip320)" d="M299.449 1496.24 L307.088 1496.24 L307.088 1469.87 L298.778 1471.54 L298.778 1467.28 L307.042 1465.61 L311.717 1465.61 L311.717 1496.24 L319.356 1496.24 L319.356 1500.17 L299.449 1500.17 L299.449 1496.24 Z" fill="#000000" fill-rule="evenodd" fill-opacity="1" /><path clip-path="url(#clip320)" d="M700.553 1496.24 L716.872 1496.24 L716.872 1500.17 L694.928 1500.17 L694.928 1496.24 Q697.59 1493.48 702.173 1488.85 Q706.779 1484.2 707.96 1482.86 Q710.205 1480.34 711.085 1478.6 Q711.988 1476.84 711.988 1475.15 Q711.988 1472.4 710.043 1470.66 Q708.122 1468.92 705.02 1468.92 Q702.821 1468.92 700.367 1469.69 Q697.937 1470.45 695.159 1472 L695.159 1467.28 Q697.983 1466.15 700.437 1465.57 Q702.891 1464.99 704.928 1464.99 Q710.298 1464.99 713.492 1467.67 Q716.687 1470.36 716.687 1474.85 Q716.687 1476.98 715.877 1478.9 Q715.09 1480.8 712.983 1483.39 Q712.404 1484.06 709.303 1487.28 Q706.201 1490.47 700.553 1496.24 Z" fill="#000000" fill-rule="evenodd" fill-opacity="1" /><path clip-path="url(#clip320)" d="M1106.98 1481.54 Q1110.34 1482.26 1112.21 1484.53 Q1114.11 1486.79 1114.11 1490.13 Q1114.11 1495.24 1110.59 1498.04 Q1107.07 1500.85 1100.59 1500.85 Q1098.42 1500.85 1096.1 1500.41 Q1093.81 1499.99 1091.36 1499.13 L1091.36 1494.62 Q1093.3 1495.75 1095.61 1496.33 Q1097.93 1496.91 1100.45 1496.91 Q1104.85 1496.91 1107.14 1495.17 Q1109.46 1493.44 1109.46 1490.13 Q1109.46 1487.07 1107.3 1485.36 Q1105.17 1483.62 1101.36 1483.62 L1097.33 1483.62 L1097.33 1479.78 L1101.54 1479.78 Q1104.99 1479.78 1106.82 1478.41 Q1108.65 1477.03 1108.65 1474.43 Q1108.65 1471.77 1106.75 1470.36 Q1104.87 1468.92 1101.36 1468.92 Q1099.43 1468.92 1097.23 1469.34 Q1095.04 1469.76 1092.4 1470.64 L1092.4 1466.47 Q1095.06 1465.73 1097.37 1465.36 Q1099.71 1464.99 1101.77 1464.99 Q1107.1 1464.99 1110.2 1467.42 Q1113.3 1469.83 1113.3 1473.95 Q1113.3 1476.82 1111.66 1478.81 Q1110.01 1480.78 1106.98 1481.54 Z" fill="#000000" fill-rule="evenodd" fill-opacity="1" /><path clip-path="url(#clip320)" d="M1502.57 1469.69 L1490.77 1488.14 L1502.57 1488.14 L1502.57 1469.69 M1501.35 1465.61 L1507.23 1465.61 L1507.23 1488.14 L1512.16 1488.14 L1512.16 1492.03 L1507.23 1492.03 L1507.23 1500.17 L1502.57 1500.17 L1502.57 1492.03 L1486.97 1492.03 L1486.97 1487.51 L1501.35 1465.61 Z" fill="#000000" fill-rule="evenodd" fill-opacity="1" /><path clip-path="url(#clip320)" d="M1886.68 1465.61 L1905.03 1465.61 L1905.03 1469.55 L1890.96 1469.55 L1890.96 1478.02 Q1891.98 1477.67 1893 1477.51 Q1894.01 1477.33 1895.03 1477.33 Q1900.82 1477.33 1904.2 1480.5 Q1907.58 1483.67 1907.58 1489.09 Q1907.58 1494.66 1904.11 1497.77 Q1900.63 1500.85 1894.31 1500.85 Q1892.14 1500.85 1889.87 1500.47 Q1887.63 1500.1 1885.22 1499.36 L1885.22 1494.66 Q1887.3 1495.8 1889.52 1496.35 Q1891.75 1496.91 1894.22 1496.91 Q1898.23 1496.91 1900.56 1494.8 Q1902.9 1492.7 1902.9 1489.09 Q1902.9 1485.47 1900.56 1483.37 Q1898.23 1481.26 1894.22 1481.26 Q1892.35 1481.26 1890.47 1481.68 Q1888.62 1482.1 1886.68 1482.97 L1886.68 1465.61 Z" fill="#000000" fill-rule="evenodd" fill-opacity="1" /><path clip-path="url(#clip320)" d="M2293.64 1481.03 Q2290.49 1481.03 2288.64 1483.18 Q2286.81 1485.34 2286.81 1489.09 Q2286.81 1492.81 2288.64 1494.99 Q2290.49 1497.14 2293.64 1497.14 Q2296.78 1497.14 2298.61 1494.99 Q2300.46 1492.81 2300.46 1489.09 Q2300.46 1485.34 2298.61 1483.18 Q2296.78 1481.03 2293.64 1481.03 M2302.92 1466.38 L2302.92 1470.64 Q2301.16 1469.8 2299.35 1469.36 Q2297.57 1468.92 2295.81 1468.92 Q2291.18 1468.92 2288.73 1472.05 Q2286.3 1475.17 2285.95 1481.49 Q2287.32 1479.48 2289.38 1478.41 Q2291.44 1477.33 2293.91 1477.33 Q2299.12 1477.33 2302.13 1480.5 Q2305.16 1483.65 2305.16 1489.09 Q2305.16 1494.41 2302.02 1497.63 Q2298.87 1500.85 2293.64 1500.85 Q2287.64 1500.85 2284.47 1496.26 Q2281.3 1491.66 2281.3 1482.93 Q2281.3 1474.73 2285.19 1469.87 Q2289.08 1464.99 2295.63 1464.99 Q2297.39 1464.99 2299.17 1465.34 Q2300.97 1465.68 2302.92 1466.38 Z" fill="#000000" fill-rule="evenodd" fill-opacity="1" /><path clip-path="url(#clip320)" d="M1313.08 1535.75 Q1313.08 1541.16 1311.34 1547.24 Q1309.64 1553.3 1306.93 1558.19 Q1304.23 1563.06 1300.68 1566.28 Q1297.14 1569.47 1293.76 1569.47 Q1291.6 1569.47 1289.99 1568.27 Q1288.41 1567.05 1287.54 1565.02 Q1286.68 1562.96 1286.26 1560.71 Q1285.84 1558.42 1285.84 1555.94 Q1285.84 1552.24 1286.64 1548.21 Q1287.45 1544.15 1288.8 1540.48 Q1290.15 1536.78 1292.05 1533.43 Q1293.95 1530.05 1296.05 1527.6 Q1298.17 1525.12 1300.56 1523.67 Q1302.94 1522.22 1305.16 1522.22 Q1306.77 1522.22 1308.06 1522.93 Q1309.38 1523.6 1310.22 1524.8 Q1311.05 1525.96 1311.63 1527.34 Q1312.25 1528.73 1312.54 1530.34 Q1312.83 1531.91 1312.96 1533.23 Q1313.08 1534.52 1313.08 1535.75 M1308.74 1531.66 Q1308.74 1530.01 1308.61 1528.79 Q1308.48 1527.53 1308.12 1526.28 Q1307.77 1525.02 1307 1524.35 Q1306.26 1523.67 1305.1 1523.67 Q1301.72 1523.67 1297.91 1530.59 Q1296.69 1532.75 1295.6 1535.68 Q1294.5 1538.61 1294.11 1540 Q1293.73 1541.38 1292.83 1544.8 L1306.61 1544.8 Q1308.74 1536 1308.74 1531.66 M1306.03 1546.89 L1292.31 1546.89 Q1290.19 1554.94 1290.19 1559.96 Q1290.19 1564.34 1291.09 1566.18 Q1292.02 1567.98 1293.76 1567.98 Q1295.76 1567.98 1297.63 1565.99 Q1299.49 1563.96 1301.39 1560.29 Q1303.91 1555.52 1306.03 1546.89 Z" fill="#000000" fill-rule="evenodd" fill-opacity="1" /><polyline clip-path="url(#clip323)" style="stroke:#000000; stroke-linecap:butt; stroke-linejoin:round; stroke-width:2; stroke-opacity:0.1; fill:none" points="
  249.542,1439.5 2352.76,1439.5 
  "/>
<polyline clip-path="url(#clip323)" style="stroke:#000000; stroke-linecap:butt; stroke-linejoin:round; stroke-width:2; stroke-opacity:0.1; fill:none" points="
  249.542,1207.46 2352.76,1207.46 
  "/>
<polyline clip-path="url(#clip323)" style="stroke:#000000; stroke-linecap:butt; stroke-linejoin:round; stroke-width:2; stroke-opacity:0.1; fill:none" points="
  249.542,975.416 2352.76,975.416 
  "/>
<polyline clip-path="url(#clip323)" style="stroke:#000000; stroke-linecap:butt; stroke-linejoin:round; stroke-width:2; stroke-opacity:0.1; fill:none" points="
  249.542,743.373 2352.76,743.373 
  "/>
<polyline clip-path="url(#clip323)" style="stroke:#000000; stroke-linecap:butt; stroke-linejoin:round; stroke-width:2; stroke-opacity:0.1; fill:none" points="
  249.542,511.33 2352.76,511.33 
  "/>
<polyline clip-path="url(#clip323)" style="stroke:#000000; stroke-linecap:butt; stroke-linejoin:round; stroke-width:2; stroke-opacity:0.1; fill:none" points="
  249.542,279.287 2352.76,279.287 
  "/>
<polyline clip-path="url(#clip320)" style="stroke:#000000; stroke-linecap:butt; stroke-linejoin:round; stroke-width:4; stroke-opacity:1; fill:none" points="
  249.542,1439.5 249.542,47.2441 
  "/>
<polyline clip-path="url(#clip320)" style="stroke:#000000; stroke-linecap:butt; stroke-linejoin:round; stroke-width:4; stroke-opacity:1; fill:none" points="
  249.542,1439.5 274.781,1439.5 
  "/>
<polyline clip-path="url(#clip320)" style="stroke:#000000; stroke-linecap:butt; stroke-linejoin:round; stroke-width:4; stroke-opacity:1; fill:none" points="
  249.542,1207.46 274.781,1207.46 
  "/>
<polyline clip-path="url(#clip320)" style="stroke:#000000; stroke-linecap:butt; stroke-linejoin:round; stroke-width:4; stroke-opacity:1; fill:none" points="
  249.542,975.416 274.781,975.416 
  "/>
<polyline clip-path="url(#clip320)" style="stroke:#000000; stroke-linecap:butt; stroke-linejoin:round; stroke-width:4; stroke-opacity:1; fill:none" points="
  249.542,743.373 274.781,743.373 
  "/>
<polyline clip-path="url(#clip320)" style="stroke:#000000; stroke-linecap:butt; stroke-linejoin:round; stroke-width:4; stroke-opacity:1; fill:none" points="
  249.542,511.33 274.781,511.33 
  "/>
<polyline clip-path="url(#clip320)" style="stroke:#000000; stroke-linecap:butt; stroke-linejoin:round; stroke-width:4; stroke-opacity:1; fill:none" points="
  249.542,279.287 274.781,279.287 
  "/>
<path clip-path="url(#clip320)" d="M126.205 1425.3 Q122.593 1425.3 120.765 1428.87 Q118.959 1432.41 118.959 1439.54 Q118.959 1446.64 120.765 1450.21 Q122.593 1453.75 126.205 1453.75 Q129.839 1453.75 131.644 1450.21 Q133.473 1446.64 133.473 1439.54 Q133.473 1432.41 131.644 1428.87 Q129.839 1425.3 126.205 1425.3 M126.205 1421.6 Q132.015 1421.6 135.07 1426.2 Q138.149 1430.79 138.149 1439.54 Q138.149 1448.26 135.07 1452.87 Q132.015 1457.45 126.205 1457.45 Q120.394 1457.45 117.316 1452.87 Q114.26 1448.26 114.26 1439.54 Q114.26 1430.79 117.316 1426.2 Q120.394 1421.6 126.205 1421.6 Z" fill="#000000" fill-rule="evenodd" fill-opacity="1" /><path clip-path="url(#clip320)" d="M146.366 1450.9 L151.251 1450.9 L151.251 1456.78 L146.366 1456.78 L146.366 1450.9 Z" fill="#000000" fill-rule="evenodd" fill-opacity="1" /><path clip-path="url(#clip320)" d="M171.436 1425.3 Q167.825 1425.3 165.996 1428.87 Q164.19 1432.41 164.19 1439.54 Q164.19 1446.64 165.996 1450.21 Q167.825 1453.75 171.436 1453.75 Q175.07 1453.75 176.876 1450.21 Q178.704 1446.64 178.704 1439.54 Q178.704 1432.41 176.876 1428.87 Q175.07 1425.3 171.436 1425.3 M171.436 1421.6 Q177.246 1421.6 180.301 1426.2 Q183.38 1430.79 183.38 1439.54 Q183.38 1448.26 180.301 1452.87 Q177.246 1457.45 171.436 1457.45 Q165.626 1457.45 162.547 1452.87 Q159.491 1448.26 159.491 1439.54 Q159.491 1430.79 162.547 1426.2 Q165.626 1421.6 171.436 1421.6 Z" fill="#000000" fill-rule="evenodd" fill-opacity="1" /><path clip-path="url(#clip320)" d="M201.598 1425.3 Q197.987 1425.3 196.158 1428.87 Q194.352 1432.41 194.352 1439.54 Q194.352 1446.64 196.158 1450.21 Q197.987 1453.75 201.598 1453.75 Q205.232 1453.75 207.037 1450.21 Q208.866 1446.64 208.866 1439.54 Q208.866 1432.41 207.037 1428.87 Q205.232 1425.3 201.598 1425.3 M201.598 1421.6 Q207.408 1421.6 210.463 1426.2 Q213.542 1430.79 213.542 1439.54 Q213.542 1448.26 210.463 1452.87 Q207.408 1457.45 201.598 1457.45 Q195.787 1457.45 192.709 1452.87 Q189.653 1448.26 189.653 1439.54 Q189.653 1430.79 192.709 1426.2 Q195.787 1421.6 201.598 1421.6 Z" fill="#000000" fill-rule="evenodd" fill-opacity="1" /><path clip-path="url(#clip320)" d="M127.2 1193.26 Q123.589 1193.26 121.76 1196.82 Q119.955 1200.36 119.955 1207.49 Q119.955 1214.6 121.76 1218.16 Q123.589 1221.71 127.2 1221.71 Q130.834 1221.71 132.64 1218.16 Q134.468 1214.6 134.468 1207.49 Q134.468 1200.36 132.64 1196.82 Q130.834 1193.26 127.2 1193.26 M127.2 1189.55 Q133.01 1189.55 136.066 1194.16 Q139.144 1198.74 139.144 1207.49 Q139.144 1216.22 136.066 1220.83 Q133.01 1225.41 127.2 1225.41 Q121.39 1225.41 118.311 1220.83 Q115.256 1216.22 115.256 1207.49 Q115.256 1198.74 118.311 1194.16 Q121.39 1189.55 127.2 1189.55 Z" fill="#000000" fill-rule="evenodd" fill-opacity="1" /><path clip-path="url(#clip320)" d="M147.362 1218.86 L152.246 1218.86 L152.246 1224.74 L147.362 1224.74 L147.362 1218.86 Z" fill="#000000" fill-rule="evenodd" fill-opacity="1" /><path clip-path="url(#clip320)" d="M172.431 1193.26 Q168.82 1193.26 166.991 1196.82 Q165.186 1200.36 165.186 1207.49 Q165.186 1214.6 166.991 1218.16 Q168.82 1221.71 172.431 1221.71 Q176.065 1221.71 177.871 1218.16 Q179.7 1214.6 179.7 1207.49 Q179.7 1200.36 177.871 1196.82 Q176.065 1193.26 172.431 1193.26 M172.431 1189.55 Q178.241 1189.55 181.297 1194.16 Q184.376 1198.74 184.376 1207.49 Q184.376 1216.22 181.297 1220.83 Q178.241 1225.41 172.431 1225.41 Q166.621 1225.41 163.542 1220.83 Q160.487 1216.22 160.487 1207.49 Q160.487 1198.74 163.542 1194.16 Q166.621 1189.55 172.431 1189.55 Z" fill="#000000" fill-rule="evenodd" fill-opacity="1" /><path clip-path="url(#clip320)" d="M192.639 1190.18 L210.996 1190.18 L210.996 1194.11 L196.922 1194.11 L196.922 1202.59 Q197.94 1202.24 198.959 1202.08 Q199.977 1201.89 200.996 1201.89 Q206.783 1201.89 210.162 1205.06 Q213.542 1208.23 213.542 1213.65 Q213.542 1219.23 210.07 1222.33 Q206.598 1225.41 200.278 1225.41 Q198.102 1225.41 195.834 1225.04 Q193.588 1224.67 191.181 1223.93 L191.181 1219.23 Q193.264 1220.36 195.487 1220.92 Q197.709 1221.48 200.186 1221.48 Q204.19 1221.48 206.528 1219.37 Q208.866 1217.26 208.866 1213.65 Q208.866 1210.04 206.528 1207.93 Q204.19 1205.83 200.186 1205.83 Q198.311 1205.83 196.436 1206.24 Q194.584 1206.66 192.639 1207.54 L192.639 1190.18 Z" fill="#000000" fill-rule="evenodd" fill-opacity="1" /><path clip-path="url(#clip320)" d="M126.205 961.215 Q122.593 961.215 120.765 964.779 Q118.959 968.321 118.959 975.451 Q118.959 982.557 120.765 986.122 Q122.593 989.664 126.205 989.664 Q129.839 989.664 131.644 986.122 Q133.473 982.557 133.473 975.451 Q133.473 968.321 131.644 964.779 Q129.839 961.215 126.205 961.215 M126.205 957.511 Q132.015 957.511 135.07 962.117 Q138.149 966.701 138.149 975.451 Q138.149 984.178 135.07 988.784 Q132.015 993.367 126.205 993.367 Q120.394 993.367 117.316 988.784 Q114.26 984.178 114.26 975.451 Q114.26 966.701 117.316 962.117 Q120.394 957.511 126.205 957.511 Z" fill="#000000" fill-rule="evenodd" fill-opacity="1" /><path clip-path="url(#clip320)" d="M146.366 986.816 L151.251 986.816 L151.251 992.696 L146.366 992.696 L146.366 986.816 Z" fill="#000000" fill-rule="evenodd" fill-opacity="1" /><path clip-path="url(#clip320)" d="M162.246 988.761 L169.885 988.761 L169.885 962.395 L161.575 964.062 L161.575 959.803 L169.839 958.136 L174.514 958.136 L174.514 988.761 L182.153 988.761 L182.153 992.696 L162.246 992.696 L162.246 988.761 Z" fill="#000000" fill-rule="evenodd" fill-opacity="1" /><path clip-path="url(#clip320)" d="M201.598 961.215 Q197.987 961.215 196.158 964.779 Q194.352 968.321 194.352 975.451 Q194.352 982.557 196.158 986.122 Q197.987 989.664 201.598 989.664 Q205.232 989.664 207.037 986.122 Q208.866 982.557 208.866 975.451 Q208.866 968.321 207.037 964.779 Q205.232 961.215 201.598 961.215 M201.598 957.511 Q207.408 957.511 210.463 962.117 Q213.542 966.701 213.542 975.451 Q213.542 984.178 210.463 988.784 Q207.408 993.367 201.598 993.367 Q195.787 993.367 192.709 988.784 Q189.653 984.178 189.653 975.451 Q189.653 966.701 192.709 962.117 Q195.787 957.511 201.598 957.511 Z" fill="#000000" fill-rule="evenodd" fill-opacity="1" /><path clip-path="url(#clip320)" d="M127.2 729.172 Q123.589 729.172 121.76 732.736 Q119.955 736.278 119.955 743.408 Q119.955 750.514 121.76 754.079 Q123.589 757.621 127.2 757.621 Q130.834 757.621 132.64 754.079 Q134.468 750.514 134.468 743.408 Q134.468 736.278 132.64 732.736 Q130.834 729.172 127.2 729.172 M127.2 725.468 Q133.01 725.468 136.066 730.074 Q139.144 734.658 139.144 743.408 Q139.144 752.135 136.066 756.741 Q133.01 761.324 127.2 761.324 Q121.39 761.324 118.311 756.741 Q115.256 752.135 115.256 743.408 Q115.256 734.658 118.311 730.074 Q121.39 725.468 127.2 725.468 Z" fill="#000000" fill-rule="evenodd" fill-opacity="1" /><path clip-path="url(#clip320)" d="M147.362 754.773 L152.246 754.773 L152.246 760.653 L147.362 760.653 L147.362 754.773 Z" fill="#000000" fill-rule="evenodd" fill-opacity="1" /><path clip-path="url(#clip320)" d="M163.241 756.718 L170.88 756.718 L170.88 730.352 L162.57 732.019 L162.57 727.76 L170.834 726.093 L175.51 726.093 L175.51 756.718 L183.149 756.718 L183.149 760.653 L163.241 760.653 L163.241 756.718 Z" fill="#000000" fill-rule="evenodd" fill-opacity="1" /><path clip-path="url(#clip320)" d="M192.639 726.093 L210.996 726.093 L210.996 730.028 L196.922 730.028 L196.922 738.5 Q197.94 738.153 198.959 737.991 Q199.977 737.806 200.996 737.806 Q206.783 737.806 210.162 740.977 Q213.542 744.148 213.542 749.565 Q213.542 755.144 210.07 758.246 Q206.598 761.324 200.278 761.324 Q198.102 761.324 195.834 760.954 Q193.588 760.584 191.181 759.843 L191.181 755.144 Q193.264 756.278 195.487 756.834 Q197.709 757.389 200.186 757.389 Q204.19 757.389 206.528 755.283 Q208.866 753.176 208.866 749.565 Q208.866 745.954 206.528 743.848 Q204.19 741.741 200.186 741.741 Q198.311 741.741 196.436 742.158 Q194.584 742.574 192.639 743.454 L192.639 726.093 Z" fill="#000000" fill-rule="evenodd" fill-opacity="1" /><path clip-path="url(#clip320)" d="M126.205 497.129 Q122.593 497.129 120.765 500.694 Q118.959 504.235 118.959 511.365 Q118.959 518.471 120.765 522.036 Q122.593 525.578 126.205 525.578 Q129.839 525.578 131.644 522.036 Q133.473 518.471 133.473 511.365 Q133.473 504.235 131.644 500.694 Q129.839 497.129 126.205 497.129 M126.205 493.425 Q132.015 493.425 135.07 498.031 Q138.149 502.615 138.149 511.365 Q138.149 520.092 135.07 524.698 Q132.015 529.281 126.205 529.281 Q120.394 529.281 117.316 524.698 Q114.26 520.092 114.26 511.365 Q114.26 502.615 117.316 498.031 Q120.394 493.425 126.205 493.425 Z" fill="#000000" fill-rule="evenodd" fill-opacity="1" /><path clip-path="url(#clip320)" d="M146.366 522.73 L151.251 522.73 L151.251 528.61 L146.366 528.61 L146.366 522.73 Z" fill="#000000" fill-rule="evenodd" fill-opacity="1" /><path clip-path="url(#clip320)" d="M165.464 524.675 L181.783 524.675 L181.783 528.61 L159.839 528.61 L159.839 524.675 Q162.501 521.92 167.084 517.291 Q171.69 512.638 172.871 511.295 Q175.116 508.772 175.996 507.036 Q176.899 505.277 176.899 503.587 Q176.899 500.832 174.954 499.096 Q173.033 497.36 169.931 497.36 Q167.732 497.36 165.278 498.124 Q162.848 498.888 160.07 500.439 L160.07 495.717 Q162.894 494.582 165.348 494.004 Q167.802 493.425 169.839 493.425 Q175.209 493.425 178.403 496.11 Q181.598 498.795 181.598 503.286 Q181.598 505.416 180.788 507.337 Q180.001 509.235 177.894 511.828 Q177.315 512.499 174.214 515.717 Q171.112 518.911 165.464 524.675 Z" fill="#000000" fill-rule="evenodd" fill-opacity="1" /><path clip-path="url(#clip320)" d="M201.598 497.129 Q197.987 497.129 196.158 500.694 Q194.352 504.235 194.352 511.365 Q194.352 518.471 196.158 522.036 Q197.987 525.578 201.598 525.578 Q205.232 525.578 207.037 522.036 Q208.866 518.471 208.866 511.365 Q208.866 504.235 207.037 500.694 Q205.232 497.129 201.598 497.129 M201.598 493.425 Q207.408 493.425 210.463 498.031 Q213.542 502.615 213.542 511.365 Q213.542 520.092 210.463 524.698 Q207.408 529.281 201.598 529.281 Q195.787 529.281 192.709 524.698 Q189.653 520.092 189.653 511.365 Q189.653 502.615 192.709 498.031 Q195.787 493.425 201.598 493.425 Z" fill="#000000" fill-rule="evenodd" fill-opacity="1" /><path clip-path="url(#clip320)" d="M127.2 265.086 Q123.589 265.086 121.76 268.651 Q119.955 272.192 119.955 279.322 Q119.955 286.428 121.76 289.993 Q123.589 293.535 127.2 293.535 Q130.834 293.535 132.64 289.993 Q134.468 286.428 134.468 279.322 Q134.468 272.192 132.64 268.651 Q130.834 265.086 127.2 265.086 M127.2 261.382 Q133.01 261.382 136.066 265.989 Q139.144 270.572 139.144 279.322 Q139.144 288.049 136.066 292.655 Q133.01 297.238 127.2 297.238 Q121.39 297.238 118.311 292.655 Q115.256 288.049 115.256 279.322 Q115.256 270.572 118.311 265.989 Q121.39 261.382 127.2 261.382 Z" fill="#000000" fill-rule="evenodd" fill-opacity="1" /><path clip-path="url(#clip320)" d="M147.362 290.687 L152.246 290.687 L152.246 296.567 L147.362 296.567 L147.362 290.687 Z" fill="#000000" fill-rule="evenodd" fill-opacity="1" /><path clip-path="url(#clip320)" d="M166.459 292.632 L182.778 292.632 L182.778 296.567 L160.834 296.567 L160.834 292.632 Q163.496 289.877 168.079 285.248 Q172.686 280.595 173.866 279.252 Q176.112 276.729 176.991 274.993 Q177.894 273.234 177.894 271.544 Q177.894 268.789 175.95 267.053 Q174.028 265.317 170.927 265.317 Q168.727 265.317 166.274 266.081 Q163.843 266.845 161.065 268.396 L161.065 263.674 Q163.89 262.539 166.343 261.961 Q168.797 261.382 170.834 261.382 Q176.204 261.382 179.399 264.067 Q182.593 266.752 182.593 271.243 Q182.593 273.373 181.783 275.294 Q180.996 277.192 178.889 279.785 Q178.311 280.456 175.209 283.674 Q172.107 286.868 166.459 292.632 Z" fill="#000000" fill-rule="evenodd" fill-opacity="1" /><path clip-path="url(#clip320)" d="M192.639 262.007 L210.996 262.007 L210.996 265.942 L196.922 265.942 L196.922 274.414 Q197.94 274.067 198.959 273.905 Q199.977 273.72 200.996 273.72 Q206.783 273.72 210.162 276.891 Q213.542 280.063 213.542 285.479 Q213.542 291.058 210.07 294.16 Q206.598 297.238 200.278 297.238 Q198.102 297.238 195.834 296.868 Q193.588 296.498 191.181 295.757 L191.181 291.058 Q193.264 292.192 195.487 292.748 Q197.709 293.303 200.186 293.303 Q204.19 293.303 206.528 291.197 Q208.866 289.09 208.866 285.479 Q208.866 281.868 206.528 279.762 Q204.19 277.655 200.186 277.655 Q198.311 277.655 196.436 278.072 Q194.584 278.488 192.639 279.368 L192.639 262.007 Z" fill="#000000" fill-rule="evenodd" fill-opacity="1" /><path clip-path="url(#clip320)" d="M16.4842 820.637 L16.4842 811.056 L48.8219 798.93 L16.4842 786.739 L16.4842 777.159 L64.0042 777.159 L64.0042 783.429 L22.277 783.429 L54.8694 795.683 L54.8694 802.144 L22.277 814.398 L64.0042 814.398 L64.0042 820.637 L16.4842 820.637 Z" fill="#000000" fill-rule="evenodd" fill-opacity="1" /><path clip-path="url(#clip320)" d="M46.0847 748.45 Q46.0847 755.547 47.7079 758.285 Q49.3312 761.022 53.2461 761.022 Q56.3653 761.022 58.2114 758.985 Q60.0256 756.916 60.0256 753.383 Q60.0256 748.513 56.5881 745.585 Q53.1188 742.625 47.3897 742.625 L46.0847 742.625 L46.0847 748.45 M43.6657 736.769 L64.0042 736.769 L64.0042 742.625 L58.5933 742.625 Q61.8398 744.63 63.3994 747.622 Q64.9272 750.614 64.9272 754.943 Q64.9272 760.417 61.8716 763.664 Q58.7843 766.878 53.6281 766.878 Q47.6125 766.878 44.5569 762.868 Q41.5014 758.826 41.5014 750.837 L41.5014 742.625 L40.9285 742.625 Q36.8862 742.625 34.6901 745.299 Q32.4621 747.94 32.4621 752.747 Q32.4621 755.802 33.1941 758.698 Q33.9262 761.595 35.3903 764.268 L29.9795 764.268 Q28.7381 761.054 28.1334 758.03 Q27.4968 755.006 27.4968 752.142 Q27.4968 744.407 31.5072 740.588 Q35.5176 736.769 43.6657 736.769 Z" fill="#000000" fill-rule="evenodd" fill-opacity="1" /><path clip-path="url(#clip320)" d="M29.4065 701.98 L34.9447 701.98 Q33.6716 704.463 33.035 707.136 Q32.3984 709.81 32.3984 712.674 Q32.3984 717.035 33.7352 719.231 Q35.072 721.395 37.7456 721.395 Q39.7826 721.395 40.9603 719.836 Q42.1061 718.276 43.1565 713.566 L43.6021 711.56 Q44.9389 705.322 47.3897 702.712 Q49.8086 700.07 54.1691 700.07 Q59.1344 700.07 62.0308 704.017 Q64.9272 707.932 64.9272 714.807 Q64.9272 717.671 64.3543 720.791 Q63.8132 723.878 62.6992 727.316 L56.6518 727.316 Q58.3387 724.069 59.198 720.918 Q60.0256 717.767 60.0256 714.68 Q60.0256 710.542 58.6251 708.314 Q57.1929 706.086 54.6147 706.086 Q52.2276 706.086 50.9545 707.709 Q49.6813 709.301 48.5037 714.743 L48.0262 716.78 Q46.8804 722.223 44.5251 724.642 Q42.138 727.061 38.0002 727.061 Q32.9713 727.061 30.2341 723.496 Q27.4968 719.931 27.4968 713.375 Q27.4968 710.128 27.9743 707.264 Q28.4517 704.399 29.4065 701.98 Z" fill="#000000" fill-rule="evenodd" fill-opacity="1" /><path clip-path="url(#clip320)" d="M29.4065 668.019 L34.9447 668.019 Q33.6716 670.502 33.035 673.175 Q32.3984 675.849 32.3984 678.713 Q32.3984 683.074 33.7352 685.27 Q35.072 687.434 37.7456 687.434 Q39.7826 687.434 40.9603 685.875 Q42.1061 684.315 43.1565 679.605 L43.6021 677.599 Q44.9389 671.361 47.3897 668.751 Q49.8086 666.109 54.1691 666.109 Q59.1344 666.109 62.0308 670.056 Q64.9272 673.971 64.9272 680.846 Q64.9272 683.71 64.3543 686.83 Q63.8132 689.917 62.6992 693.354 L56.6518 693.354 Q58.3387 690.108 59.198 686.957 Q60.0256 683.806 60.0256 680.719 Q60.0256 676.581 58.6251 674.353 Q57.1929 672.125 54.6147 672.125 Q52.2276 672.125 50.9545 673.748 Q49.6813 675.34 48.5037 680.782 L48.0262 682.819 Q46.8804 688.262 44.5251 690.681 Q42.138 693.1 38.0002 693.1 Q32.9713 693.1 30.2341 689.535 Q27.4968 685.97 27.4968 679.414 Q27.4968 676.167 27.9743 673.302 Q28.4517 670.438 29.4065 668.019 Z" fill="#000000" fill-rule="evenodd" fill-opacity="1" /><circle clip-path="url(#clip323)" cx="309.067" cy="666.025" r="18" fill="#009af9" fill-rule="evenodd" fill-opacity="1" stroke="#000000" stroke-opacity="1" stroke-width="3.2"/>
<circle clip-path="url(#clip323)" cx="705.9" cy="666.025" r="18" fill="#009af9" fill-rule="evenodd" fill-opacity="1" stroke="#000000" stroke-opacity="1" stroke-width="3.2"/>
<circle clip-path="url(#clip323)" cx="1102.73" cy="666.025" r="18" fill="#009af9" fill-rule="evenodd" fill-opacity="1" stroke="#000000" stroke-opacity="1" stroke-width="3.2"/>
<circle clip-path="url(#clip323)" cx="1499.57" cy="666.025" r="18" fill="#009af9" fill-rule="evenodd" fill-opacity="1" stroke="#000000" stroke-opacity="1" stroke-width="3.2"/>
<circle clip-path="url(#clip323)" cx="1896.4" cy="666.025" r="18" fill="#009af9" fill-rule="evenodd" fill-opacity="1" stroke="#000000" stroke-opacity="1" stroke-width="3.2"/>
<circle clip-path="url(#clip323)" cx="2293.23" cy="666.025" r="18" fill="#009af9" fill-rule="evenodd" fill-opacity="1" stroke="#000000" stroke-opacity="1" stroke-width="3.2"/>
<polyline clip-path="url(#clip323)" style="stroke:#009af9; stroke-linecap:butt; stroke-linejoin:round; stroke-width:4; stroke-opacity:1; fill:none" points="
  309.067,666.025 705.9,666.025 1102.73,666.025 1499.57,666.025 1896.4,666.025 2293.23,666.025 
  "/>
<circle clip-path="url(#clip323)" cx="309.067" cy="666.025" r="18" fill="#009af9" fill-rule="evenodd" fill-opacity="1" stroke="#000000" stroke-opacity="1" stroke-width="3.2"/>
<circle clip-path="url(#clip323)" cx="705.9" cy="666.025" r="18" fill="#009af9" fill-rule="evenodd" fill-opacity="1" stroke="#000000" stroke-opacity="1" stroke-width="3.2"/>
<circle clip-path="url(#clip323)" cx="1102.73" cy="666.025" r="18" fill="#009af9" fill-rule="evenodd" fill-opacity="1" stroke="#000000" stroke-opacity="1" stroke-width="3.2"/>
<circle clip-path="url(#clip323)" cx="1499.57" cy="666.025" r="18" fill="#009af9" fill-rule="evenodd" fill-opacity="1" stroke="#000000" stroke-opacity="1" stroke-width="3.2"/>
<circle clip-path="url(#clip323)" cx="1896.4" cy="666.025" r="18" fill="#009af9" fill-rule="evenodd" fill-opacity="1" stroke="#000000" stroke-opacity="1" stroke-width="3.2"/>
<circle clip-path="url(#clip323)" cx="2293.23" cy="666.025" r="18" fill="#009af9" fill-rule="evenodd" fill-opacity="1" stroke="#000000" stroke-opacity="1" stroke-width="3.2"/>
<polyline clip-path="url(#clip323)" style="stroke:#e26f46; stroke-linecap:butt; stroke-linejoin:round; stroke-width:20; stroke-opacity:1; fill:none" points="
  1301.15,2831.76 1301.15,-1345.01 
  "/>
<path clip-path="url(#clip320)" d="
M1723.82 275.093 L2282.65 275.093 L2282.65 93.6527 L1723.82 93.6527  Z
  " fill="#ffffff" fill-rule="evenodd" fill-opacity="1"/>
<polyline clip-path="url(#clip320)" style="stroke:#000000; stroke-linecap:butt; stroke-linejoin:round; stroke-width:4; stroke-opacity:1; fill:none" points="
  1723.82,275.093 2282.65,275.093 2282.65,93.6527 1723.82,93.6527 1723.82,275.093 
  "/>
<circle clip-path="url(#clip320)" cx="1817.3" cy="154.133" r="23" fill="#009af9" fill-rule="evenodd" fill-opacity="1" stroke="#000000" stroke-opacity="1" stroke-width="4.096"/>
<path clip-path="url(#clip320)" d="M1929.2 146.251 L1929.2 150.279 Q1927.39 149.353 1925.45 148.89 Q1923.5 148.427 1921.42 148.427 Q1918.25 148.427 1916.65 149.399 Q1915.08 150.371 1915.08 152.316 Q1915.08 153.797 1916.21 154.654 Q1917.35 155.487 1920.77 156.251 L1922.23 156.575 Q1926.77 157.547 1928.67 159.329 Q1930.59 161.089 1930.59 164.26 Q1930.59 167.871 1927.72 169.978 Q1924.87 172.084 1919.87 172.084 Q1917.79 172.084 1915.52 171.667 Q1913.27 171.274 1910.77 170.464 L1910.77 166.065 Q1913.13 167.292 1915.43 167.917 Q1917.72 168.519 1919.96 168.519 Q1922.97 168.519 1924.59 167.501 Q1926.21 166.459 1926.21 164.584 Q1926.21 162.848 1925.03 161.922 Q1923.88 160.996 1919.92 160.14 L1918.44 159.792 Q1914.48 158.959 1912.72 157.246 Q1910.96 155.51 1910.96 152.501 Q1910.96 148.843 1913.55 146.853 Q1916.14 144.862 1920.91 144.862 Q1923.27 144.862 1925.36 145.209 Q1927.44 145.556 1929.2 146.251 Z" fill="#000000" fill-rule="evenodd" fill-opacity="1" /><path clip-path="url(#clip320)" d="M1937.37 145.487 L1941.63 145.487 L1941.63 171.413 L1937.37 171.413 L1937.37 145.487 M1937.37 135.394 L1941.63 135.394 L1941.63 140.788 L1937.37 140.788 L1937.37 135.394 Z" fill="#000000" fill-rule="evenodd" fill-opacity="1" /><path clip-path="url(#clip320)" d="M1972.09 145.487 L1962.72 158.103 L1972.58 171.413 L1967.56 171.413 L1960.01 161.228 L1952.46 171.413 L1947.44 171.413 L1957.51 157.848 L1948.3 145.487 L1953.32 145.487 L1960.19 154.723 L1967.07 145.487 L1972.09 145.487 Z" fill="#000000" fill-rule="evenodd" fill-opacity="1" /><path clip-path="url(#clip320)" d="M1976.44 156.529 L1988.92 156.529 L1988.92 160.325 L1976.44 160.325 L1976.44 156.529 Z" fill="#000000" fill-rule="evenodd" fill-opacity="1" /><path clip-path="url(#clip320)" d="M2012.23 146.251 L2012.23 150.279 Q2010.43 149.353 2008.48 148.89 Q2006.54 148.427 2004.45 148.427 Q2001.28 148.427 1999.69 149.399 Q1998.11 150.371 1998.11 152.316 Q1998.11 153.797 1999.25 154.654 Q2000.38 155.487 2003.81 156.251 L2005.26 156.575 Q2009.8 157.547 2011.7 159.329 Q2013.62 161.089 2013.62 164.26 Q2013.62 167.871 2010.75 169.978 Q2007.9 172.084 2002.9 172.084 Q2000.82 172.084 1998.55 171.667 Q1996.31 171.274 1993.81 170.464 L1993.81 166.065 Q1996.17 167.292 1998.46 167.917 Q2000.75 168.519 2003 168.519 Q2006 168.519 2007.62 167.501 Q2009.25 166.459 2009.25 164.584 Q2009.25 162.848 2008.06 161.922 Q2006.91 160.996 2002.95 160.14 L2001.47 159.792 Q1997.51 158.959 1995.75 157.246 Q1993.99 155.51 1993.99 152.501 Q1993.99 148.843 1996.58 146.853 Q1999.18 144.862 2003.94 144.862 Q2006.31 144.862 2008.39 145.209 Q2010.47 145.556 2012.23 146.251 Z" fill="#000000" fill-rule="evenodd" fill-opacity="1" /><path clip-path="url(#clip320)" d="M2020.4 145.487 L2024.66 145.487 L2024.66 171.413 L2020.4 171.413 L2020.4 145.487 M2020.4 135.394 L2024.66 135.394 L2024.66 140.788 L2020.4 140.788 L2020.4 135.394 Z" fill="#000000" fill-rule="evenodd" fill-opacity="1" /><path clip-path="url(#clip320)" d="M2050.63 149.422 L2050.63 135.394 L2054.89 135.394 L2054.89 171.413 L2050.63 171.413 L2050.63 167.524 Q2049.29 169.839 2047.23 170.973 Q2045.19 172.084 2042.32 172.084 Q2037.62 172.084 2034.66 168.334 Q2031.72 164.584 2031.72 158.473 Q2031.72 152.362 2034.66 148.612 Q2037.62 144.862 2042.32 144.862 Q2045.19 144.862 2047.23 145.996 Q2049.29 147.107 2050.63 149.422 M2036.12 158.473 Q2036.12 163.172 2038.04 165.857 Q2039.99 168.519 2043.37 168.519 Q2046.75 168.519 2048.69 165.857 Q2050.63 163.172 2050.63 158.473 Q2050.63 153.774 2048.69 151.112 Q2046.75 148.427 2043.37 148.427 Q2039.99 148.427 2038.04 151.112 Q2036.12 153.774 2036.12 158.473 Z" fill="#000000" fill-rule="evenodd" fill-opacity="1" /><path clip-path="url(#clip320)" d="M2085.84 157.385 L2085.84 159.468 L2066.26 159.468 Q2066.54 163.866 2068.9 166.181 Q2071.28 168.473 2075.52 168.473 Q2077.97 168.473 2080.26 167.871 Q2082.58 167.269 2084.85 166.065 L2084.85 170.093 Q2082.56 171.065 2080.15 171.575 Q2077.74 172.084 2075.26 172.084 Q2069.06 172.084 2065.43 168.473 Q2061.81 164.862 2061.81 158.704 Q2061.81 152.339 2065.24 148.612 Q2068.69 144.862 2074.52 144.862 Q2079.75 144.862 2082.79 148.242 Q2085.84 151.598 2085.84 157.385 M2081.58 156.135 Q2081.54 152.64 2079.62 150.556 Q2077.72 148.473 2074.57 148.473 Q2071 148.473 2068.85 150.487 Q2066.72 152.501 2066.4 156.158 L2081.58 156.135 Z" fill="#000000" fill-rule="evenodd" fill-opacity="1" /><path clip-path="url(#clip320)" d="M2109.89 149.422 L2109.89 135.394 L2114.15 135.394 L2114.15 171.413 L2109.89 171.413 L2109.89 167.524 Q2108.55 169.839 2106.49 170.973 Q2104.45 172.084 2101.58 172.084 Q2096.88 172.084 2093.92 168.334 Q2090.98 164.584 2090.98 158.473 Q2090.98 152.362 2093.92 148.612 Q2096.88 144.862 2101.58 144.862 Q2104.45 144.862 2106.49 145.996 Q2108.55 147.107 2109.89 149.422 M2095.38 158.473 Q2095.38 163.172 2097.3 165.857 Q2099.24 168.519 2102.62 168.519 Q2106 168.519 2107.95 165.857 Q2109.89 163.172 2109.89 158.473 Q2109.89 153.774 2107.95 151.112 Q2106 148.427 2102.62 148.427 Q2099.24 148.427 2097.3 151.112 Q2095.38 153.774 2095.38 158.473 Z" fill="#000000" fill-rule="evenodd" fill-opacity="1" /><path clip-path="url(#clip320)" d="M2142.86 140.695 L2142.86 167.57 L2148.5 167.57 Q2155.66 167.57 2158.97 164.329 Q2162.3 161.089 2162.3 154.098 Q2162.3 147.154 2158.97 143.936 Q2155.66 140.695 2148.5 140.695 L2142.86 140.695 M2138.18 136.853 L2147.79 136.853 Q2157.83 136.853 2162.53 141.042 Q2167.23 145.209 2167.23 154.098 Q2167.23 163.033 2162.51 167.223 Q2157.79 171.413 2147.79 171.413 L2138.18 171.413 L2138.18 136.853 Z" fill="#000000" fill-rule="evenodd" fill-opacity="1" /><path clip-path="url(#clip320)" d="M2174.5 145.487 L2178.76 145.487 L2178.76 171.413 L2174.5 171.413 L2174.5 145.487 M2174.5 135.394 L2178.76 135.394 L2178.76 140.788 L2174.5 140.788 L2174.5 135.394 Z" fill="#000000" fill-rule="evenodd" fill-opacity="1" /><path clip-path="url(#clip320)" d="M2206.33 146.482 L2206.33 150.464 Q2204.52 149.468 2202.69 148.982 Q2200.89 148.473 2199.04 148.473 Q2194.89 148.473 2192.6 151.112 Q2190.31 153.728 2190.31 158.473 Q2190.31 163.218 2192.6 165.857 Q2194.89 168.473 2199.04 168.473 Q2200.89 168.473 2202.69 167.987 Q2204.52 167.478 2206.33 166.482 L2206.33 170.417 Q2204.55 171.251 2202.62 171.667 Q2200.73 172.084 2198.57 172.084 Q2192.72 172.084 2189.27 168.403 Q2185.82 164.723 2185.82 158.473 Q2185.82 152.13 2189.29 148.496 Q2192.79 144.862 2198.85 144.862 Q2200.82 144.862 2202.69 145.279 Q2204.57 145.672 2206.33 146.482 Z" fill="#000000" fill-rule="evenodd" fill-opacity="1" /><path clip-path="url(#clip320)" d="M2235.91 157.385 L2235.91 159.468 L2216.33 159.468 Q2216.61 163.866 2218.97 166.181 Q2221.35 168.473 2225.59 168.473 Q2228.04 168.473 2230.33 167.871 Q2232.65 167.269 2234.92 166.065 L2234.92 170.093 Q2232.62 171.065 2230.22 171.575 Q2227.81 172.084 2225.33 172.084 Q2219.13 172.084 2215.49 168.473 Q2211.88 164.862 2211.88 158.704 Q2211.88 152.339 2215.31 148.612 Q2218.76 144.862 2224.59 144.862 Q2229.82 144.862 2232.86 148.242 Q2235.91 151.598 2235.91 157.385 M2231.65 156.135 Q2231.61 152.64 2229.68 150.556 Q2227.79 148.473 2224.64 148.473 Q2221.07 148.473 2218.92 150.487 Q2216.79 152.501 2216.47 156.158 L2231.65 156.135 Z" fill="#000000" fill-rule="evenodd" fill-opacity="1" /><polyline clip-path="url(#clip320)" style="stroke:#e26f46; stroke-linecap:butt; stroke-linejoin:round; stroke-width:4; stroke-opacity:1; fill:none" points="
  1747.19,214.613 1887.4,214.613 
  "/>
<path clip-path="url(#clip320)" d="M1945.56 195.172 L1944.6 203.463 Q1944.53 204.213 1944.41 204.447 Q1944.29 204.658 1943.92 204.658 Q1943.64 204.658 1943.47 204.494 Q1943.33 204.307 1943.33 204.096 Q1943.33 203.979 1943.35 203.674 Q1943.38 203.37 1943.38 203.229 Q1943.59 201.777 1943.59 200.676 Q1943.59 198.638 1942.98 197.538 Q1942.37 196.413 1940.8 195.898 Q1939.23 195.359 1936.28 195.359 L1929.53 195.359 Q1927.99 195.359 1927.61 195.64 Q1927.26 195.921 1926.94 197.233 L1924.05 208.78 L1928.57 208.78 Q1930.26 208.78 1931.27 208.57 Q1932.3 208.359 1932.98 207.773 Q1933.68 207.164 1934.06 206.344 Q1934.45 205.525 1934.85 204.049 Q1934.97 203.557 1935.09 203.37 Q1935.23 203.182 1935.53 203.182 Q1935.77 203.182 1935.93 203.346 Q1936.09 203.487 1936.09 203.698 L1933.35 214.917 Q1933.21 215.479 1933.07 215.69 Q1932.93 215.877 1932.65 215.877 Q1932.35 215.877 1932.18 215.713 Q1932.02 215.549 1932.02 215.362 Q1932.02 215.175 1932.16 214.823 Q1932.51 213.301 1932.51 212.481 Q1932.51 212.013 1932.46 211.778 Q1932.44 211.544 1932.23 211.216 Q1932.04 210.865 1931.62 210.701 Q1931.2 210.537 1930.4 210.42 Q1929.61 210.279 1928.41 210.279 L1923.68 210.279 L1920.4 223.373 Q1920.17 224.239 1920.17 224.473 Q1920.17 224.731 1920.28 224.825 Q1920.42 224.895 1920.8 224.942 Q1921.22 225.012 1921.85 225.012 L1928.86 225.012 Q1930.4 225.012 1931.64 224.872 Q1932.88 224.731 1933.91 224.38 Q1934.97 224.028 1935.77 223.63 Q1936.56 223.232 1937.31 222.506 Q1938.06 221.756 1938.58 221.101 Q1939.11 220.421 1939.75 219.274 Q1940.38 218.126 1940.82 217.189 Q1941.27 216.229 1941.95 214.683 Q1942.14 214.121 1942.58 214.121 Q1942.84 214.121 1942.98 214.261 Q1943.12 214.378 1943.14 214.495 L1943.14 214.636 Q1943 215.081 1942.91 215.315 L1938.51 225.668 Q1938.25 226.253 1938.04 226.371 Q1937.83 226.488 1937.01 226.488 L1912.11 226.488 Q1911.55 226.488 1911.31 226.464 Q1911.1 226.441 1910.94 226.324 Q1910.77 226.183 1910.77 225.902 Q1910.77 225.457 1910.96 225.27 Q1911.15 225.059 1911.36 225.035 Q1911.57 225.012 1912.11 225.012 Q1913.28 225.012 1913.98 224.942 Q1914.69 224.872 1915.13 224.778 Q1915.6 224.661 1915.83 224.333 Q1916.09 224.005 1916.21 223.724 Q1916.32 223.419 1916.49 222.74 L1922.81 197.374 Q1923.05 196.507 1923.05 196.226 Q1923.05 195.921 1922.84 195.734 Q1922.65 195.547 1922.13 195.476 Q1921.62 195.383 1921.2 195.383 Q1920.8 195.359 1919.93 195.359 Q1919.37 195.359 1919.14 195.336 Q1918.92 195.312 1918.76 195.195 Q1918.6 195.078 1918.6 194.821 Q1918.6 194.165 1918.88 194.024 Q1919.18 193.86 1920.03 193.86 L1944.24 193.86 Q1945.2 193.86 1945.42 194.071 Q1945.65 194.258 1945.56 195.172 Z" fill="#000000" fill-rule="evenodd" fill-opacity="1" /><path clip-path="url(#clip320)" d="M1945.82 214.495 Q1945.82 206.391 1948.84 199.856 Q1950.13 197.116 1951.93 194.821 Q1953.74 192.525 1954.93 191.518 Q1956.12 190.511 1956.45 190.511 Q1956.92 190.511 1956.94 190.979 Q1956.94 191.213 1956.31 191.799 Q1948.58 199.669 1948.61 214.495 Q1948.61 229.369 1956.12 236.934 Q1956.94 237.754 1956.94 238.012 Q1956.94 238.48 1956.45 238.48 Q1956.12 238.48 1954.98 237.52 Q1953.83 236.559 1952.05 234.358 Q1950.27 232.156 1948.98 229.462 Q1945.82 222.927 1945.82 214.495 Z" fill="#000000" fill-rule="evenodd" fill-opacity="1" /><path clip-path="url(#clip320)" d="M1984.05 202.503 Q1984.05 206.438 1982.78 210.865 Q1981.54 215.268 1979.58 218.829 Q1977.61 222.365 1975.03 224.708 Q1972.46 227.026 1970 227.026 Q1968.43 227.026 1967.26 226.16 Q1966.11 225.27 1965.48 223.794 Q1964.84 222.295 1964.54 220.656 Q1964.23 218.993 1964.23 217.189 Q1964.23 214.495 1964.82 211.568 Q1965.41 208.616 1966.39 205.946 Q1967.37 203.253 1968.75 200.817 Q1970.14 198.357 1971.66 196.577 Q1973.21 194.774 1974.94 193.72 Q1976.67 192.666 1978.29 192.666 Q1979.46 192.666 1980.4 193.181 Q1981.36 193.673 1981.97 194.539 Q1982.57 195.383 1983 196.39 Q1983.44 197.397 1983.65 198.568 Q1983.86 199.716 1983.96 200.676 Q1984.05 201.613 1984.05 202.503 M1980.89 199.528 Q1980.89 198.334 1980.79 197.444 Q1980.7 196.53 1980.44 195.617 Q1980.18 194.703 1979.62 194.212 Q1979.08 193.72 1978.24 193.72 Q1975.78 193.72 1973.02 198.756 Q1972.13 200.325 1971.33 202.456 Q1970.53 204.588 1970.25 205.595 Q1969.97 206.602 1969.32 209.085 L1979.34 209.085 Q1980.89 202.69 1980.89 199.528 M1978.92 210.607 L1968.94 210.607 Q1967.4 216.463 1967.4 220.117 Q1967.4 223.302 1968.05 224.637 Q1968.73 225.949 1970 225.949 Q1971.45 225.949 1972.81 224.497 Q1974.17 223.021 1975.55 220.351 Q1977.37 216.884 1978.92 210.607 Z" fill="#000000" fill-rule="evenodd" fill-opacity="1" /><path clip-path="url(#clip320)" d="M1986.5 238.012 Q1986.5 237.777 1987.11 237.192 Q1994.84 229.322 1994.84 214.495 Q1994.84 199.622 1987.41 192.104 Q1986.5 191.237 1986.5 190.979 Q1986.5 190.511 1986.97 190.511 Q1987.3 190.511 1988.44 191.471 Q1989.62 192.431 1991.37 194.633 Q1993.15 196.835 1994.46 199.528 Q1997.63 206.063 1997.63 214.495 Q1997.63 222.6 1994.6 229.134 Q1993.32 231.875 1991.51 234.17 Q1989.71 236.466 1988.51 237.473 Q1987.32 238.48 1986.97 238.48 Q1986.5 238.48 1986.5 238.012 Z" fill="#000000" fill-rule="evenodd" fill-opacity="1" /></svg>
