<?xml version="1.0" encoding="utf-8"?>
<svg xmlns="http://www.w3.org/2000/svg" xmlns:xlink="http://www.w3.org/1999/xlink" width="600" height="400" viewBox="0 0 2400 1600">
<defs>
  <clipPath id="clip600">
    <rect x="0" y="0" width="2400" height="1600"/>
  </clipPath>
</defs>
<path clip-path="url(#clip600)" d="
M0 1600 L2400 1600 L2400 0 L0 0  Z
  " fill="#ffffff" fill-rule="evenodd" fill-opacity="1"/>
<defs>
  <clipPath id="clip601">
    <rect x="480" y="0" width="1681" height="1600"/>
  </clipPath>
</defs>
<defs>
  <clipPath id="clip602">
    <rect x="249" y="47" width="2104" height="1393"/>
  </clipPath>
</defs>
<path clip-path="url(#clip600)" d="
M219.866 1439.5 L2352.76 1439.5 L2352.76 47.2441 L219.866 47.2441  Z
  " fill="#ffffff" fill-rule="evenodd" fill-opacity="1"/>
<defs>
  <clipPath id="clip603">
    <rect x="219" y="47" width="2134" height="1393"/>
  </clipPath>
</defs>
<polyline clip-path="url(#clip603)" style="stroke:#000000; stroke-linecap:butt; stroke-linejoin:round; stroke-width:2; stroke-opacity:0.1; fill:none" points="
  231.72,1439.5 231.72,47.2441 
  "/>
<polyline clip-path="url(#clip603)" style="stroke:#000000; stroke-linecap:butt; stroke-linejoin:round; stroke-width:2; stroke-opacity:0.1; fill:none" points="
  759.015,1439.5 759.015,47.2441 
  "/>
<polyline clip-path="url(#clip603)" style="stroke:#000000; stroke-linecap:butt; stroke-linejoin:round; stroke-width:2; stroke-opacity:0.1; fill:none" points="
  1286.31,1439.5 1286.31,47.2441 
  "/>
<polyline clip-path="url(#clip603)" style="stroke:#000000; stroke-linecap:butt; stroke-linejoin:round; stroke-width:2; stroke-opacity:0.1; fill:none" points="
  1813.61,1439.5 1813.61,47.2441 
  "/>
<polyline clip-path="url(#clip603)" style="stroke:#000000; stroke-linecap:butt; stroke-linejoin:round; stroke-width:2; stroke-opacity:0.1; fill:none" points="
  2340.9,1439.5 2340.9,47.2441 
  "/>
<polyline clip-path="url(#clip600)" style="stroke:#000000; stroke-linecap:butt; stroke-linejoin:round; stroke-width:4; stroke-opacity:1; fill:none" points="
  219.866,1439.5 2352.76,1439.5 
  "/>
<polyline clip-path="url(#clip600)" style="stroke:#000000; stroke-linecap:butt; stroke-linejoin:round; stroke-width:4; stroke-opacity:1; fill:none" points="
  231.72,1439.5 231.72,1422.79 
  "/>
<polyline clip-path="url(#clip600)" style="stroke:#000000; stroke-linecap:butt; stroke-linejoin:round; stroke-width:4; stroke-opacity:1; fill:none" points="
  759.015,1439.5 759.015,1422.79 
  "/>
<polyline clip-path="url(#clip600)" style="stroke:#000000; stroke-linecap:butt; stroke-linejoin:round; stroke-width:4; stroke-opacity:1; fill:none" points="
  1286.31,1439.5 1286.31,1422.79 
  "/>
<polyline clip-path="url(#clip600)" style="stroke:#000000; stroke-linecap:butt; stroke-linejoin:round; stroke-width:4; stroke-opacity:1; fill:none" points="
  1813.61,1439.5 1813.61,1422.79 
  "/>
<polyline clip-path="url(#clip600)" style="stroke:#000000; stroke-linecap:butt; stroke-linejoin:round; stroke-width:4; stroke-opacity:1; fill:none" points="
  2340.9,1439.5 2340.9,1422.79 
  "/>
<path clip-path="url(#clip600)" d="M178.746 1483.35 L208.421 1483.35 L208.421 1487.28 L178.746 1487.28 L178.746 1483.35 Z" fill="#000000" fill-rule="evenodd" fill-opacity="1" /><path clip-path="url(#clip600)" d="M228.514 1468.69 Q224.903 1468.69 223.074 1472.26 Q221.269 1475.8 221.269 1482.93 Q221.269 1490.04 223.074 1493.6 Q224.903 1497.14 228.514 1497.14 Q232.148 1497.14 233.954 1493.6 Q235.782 1490.04 235.782 1482.93 Q235.782 1475.8 233.954 1472.26 Q232.148 1468.69 228.514 1468.69 M228.514 1464.99 Q234.324 1464.99 237.38 1469.6 Q240.458 1474.18 240.458 1482.93 Q240.458 1491.66 237.38 1496.26 Q234.324 1500.85 228.514 1500.85 Q222.704 1500.85 219.625 1496.26 Q216.569 1491.66 216.569 1482.93 Q216.569 1474.18 219.625 1469.6 Q222.704 1464.99 228.514 1464.99 Z" fill="#000000" fill-rule="evenodd" fill-opacity="1" /><path clip-path="url(#clip600)" d="M248.676 1494.29 L253.56 1494.29 L253.56 1500.17 L248.676 1500.17 L248.676 1494.29 Z" fill="#000000" fill-rule="evenodd" fill-opacity="1" /><path clip-path="url(#clip600)" d="M263.791 1465.61 L282.148 1465.61 L282.148 1469.55 L268.074 1469.55 L268.074 1478.02 Q269.092 1477.67 270.111 1477.51 Q271.129 1477.33 272.148 1477.33 Q277.935 1477.33 281.315 1480.5 Q284.694 1483.67 284.694 1489.09 Q284.694 1494.66 281.222 1497.77 Q277.75 1500.85 271.43 1500.85 Q269.254 1500.85 266.986 1500.47 Q264.741 1500.1 262.333 1499.36 L262.333 1494.66 Q264.416 1495.8 266.639 1496.35 Q268.861 1496.91 271.338 1496.91 Q275.342 1496.91 277.68 1494.8 Q280.018 1492.7 280.018 1489.09 Q280.018 1485.47 277.68 1483.37 Q275.342 1481.26 271.338 1481.26 Q269.463 1481.26 267.588 1481.68 Q265.736 1482.1 263.791 1482.97 L263.791 1465.61 Z" fill="#000000" fill-rule="evenodd" fill-opacity="1" /><path clip-path="url(#clip600)" d="M736.4 1468.69 Q732.789 1468.69 730.96 1472.26 Q729.155 1475.8 729.155 1482.93 Q729.155 1490.04 730.96 1493.6 Q732.789 1497.14 736.4 1497.14 Q740.034 1497.14 741.84 1493.6 Q743.668 1490.04 743.668 1482.93 Q743.668 1475.8 741.84 1472.26 Q740.034 1468.69 736.4 1468.69 M736.4 1464.99 Q742.21 1464.99 745.266 1469.6 Q748.344 1474.18 748.344 1482.93 Q748.344 1491.66 745.266 1496.26 Q742.21 1500.85 736.4 1500.85 Q730.59 1500.85 727.511 1496.26 Q724.455 1491.66 724.455 1482.93 Q724.455 1474.18 727.511 1469.6 Q730.59 1464.99 736.4 1464.99 Z" fill="#000000" fill-rule="evenodd" fill-opacity="1" /><path clip-path="url(#clip600)" d="M756.562 1494.29 L761.446 1494.29 L761.446 1500.17 L756.562 1500.17 L756.562 1494.29 Z" fill="#000000" fill-rule="evenodd" fill-opacity="1" /><path clip-path="url(#clip600)" d="M781.631 1468.69 Q778.02 1468.69 776.191 1472.26 Q774.386 1475.8 774.386 1482.93 Q774.386 1490.04 776.191 1493.6 Q778.02 1497.14 781.631 1497.14 Q785.265 1497.14 787.071 1493.6 Q788.9 1490.04 788.9 1482.93 Q788.9 1475.8 787.071 1472.26 Q785.265 1468.69 781.631 1468.69 M781.631 1464.99 Q787.441 1464.99 790.497 1469.6 Q793.575 1474.18 793.575 1482.93 Q793.575 1491.66 790.497 1496.26 Q787.441 1500.85 781.631 1500.85 Q775.821 1500.85 772.742 1496.26 Q769.687 1491.66 769.687 1482.93 Q769.687 1474.18 772.742 1469.6 Q775.821 1464.99 781.631 1464.99 Z" fill="#000000" fill-rule="evenodd" fill-opacity="1" /><path clip-path="url(#clip600)" d="M1264.19 1468.69 Q1260.58 1468.69 1258.75 1472.26 Q1256.95 1475.8 1256.95 1482.93 Q1256.95 1490.04 1258.75 1493.6 Q1260.58 1497.14 1264.19 1497.14 Q1267.83 1497.14 1269.63 1493.6 Q1271.46 1490.04 1271.46 1482.93 Q1271.46 1475.8 1269.63 1472.26 Q1267.83 1468.69 1264.19 1468.69 M1264.19 1464.99 Q1270 1464.99 1273.06 1469.6 Q1276.14 1474.18 1276.14 1482.93 Q1276.14 1491.66 1273.06 1496.26 Q1270 1500.85 1264.19 1500.85 Q1258.38 1500.85 1255.3 1496.26 Q1252.25 1491.66 1252.25 1482.93 Q1252.25 1474.18 1255.3 1469.6 Q1258.38 1464.99 1264.19 1464.99 Z" fill="#000000" fill-rule="evenodd" fill-opacity="1" /><path clip-path="url(#clip600)" d="M1284.36 1494.29 L1289.24 1494.29 L1289.24 1500.17 L1284.36 1500.17 L1284.36 1494.29 Z" fill="#000000" fill-rule="evenodd" fill-opacity="1" /><path clip-path="url(#clip600)" d="M1299.47 1465.61 L1317.83 1465.61 L1317.83 1469.55 L1303.75 1469.55 L1303.75 1478.02 Q1304.77 1477.67 1305.79 1477.51 Q1306.81 1477.33 1307.83 1477.33 Q1313.61 1477.33 1316.99 1480.5 Q1320.37 1483.67 1320.37 1489.09 Q1320.37 1494.66 1316.9 1497.77 Q1313.43 1500.85 1307.11 1500.85 Q1304.93 1500.85 1302.67 1500.47 Q1300.42 1500.1 1298.01 1499.36 L1298.01 1494.66 Q1300.1 1495.8 1302.32 1496.35 Q1304.54 1496.91 1307.02 1496.91 Q1311.02 1496.91 1313.36 1494.8 Q1315.7 1492.7 1315.7 1489.09 Q1315.7 1485.47 1313.36 1483.37 Q1311.02 1481.26 1307.02 1481.26 Q1305.14 1481.26 1303.27 1481.68 Q1301.42 1482.1 1299.47 1482.97 L1299.47 1465.61 Z" fill="#000000" fill-rule="evenodd" fill-opacity="1" /><path clip-path="url(#clip600)" d="M1780.76 1496.24 L1788.4 1496.24 L1788.4 1469.87 L1780.09 1471.54 L1780.09 1467.28 L1788.35 1465.61 L1793.03 1465.61 L1793.03 1496.24 L1800.67 1496.24 L1800.67 1500.17 L1780.76 1500.17 L1780.76 1496.24 Z" fill="#000000" fill-rule="evenodd" fill-opacity="1" /><path clip-path="url(#clip600)" d="M1810.11 1494.29 L1815 1494.29 L1815 1500.17 L1810.11 1500.17 L1810.11 1494.29 Z" fill="#000000" fill-rule="evenodd" fill-opacity="1" /><path clip-path="url(#clip600)" d="M1835.18 1468.69 Q1831.57 1468.69 1829.74 1472.26 Q1827.94 1475.8 1827.94 1482.93 Q1827.94 1490.04 1829.74 1493.6 Q1831.57 1497.14 1835.18 1497.14 Q1838.81 1497.14 1840.62 1493.6 Q1842.45 1490.04 1842.45 1482.93 Q1842.45 1475.8 1840.62 1472.26 Q1838.81 1468.69 1835.18 1468.69 M1835.18 1464.99 Q1840.99 1464.99 1844.05 1469.6 Q1847.13 1474.18 1847.13 1482.93 Q1847.13 1491.66 1844.05 1496.26 Q1840.99 1500.85 1835.18 1500.85 Q1829.37 1500.85 1826.29 1496.26 Q1823.24 1491.66 1823.24 1482.93 Q1823.24 1474.18 1826.29 1469.6 Q1829.37 1464.99 1835.18 1464.99 Z" fill="#000000" fill-rule="evenodd" fill-opacity="1" /><path clip-path="url(#clip600)" d="M2308.55 1496.24 L2316.19 1496.24 L2316.19 1469.87 L2307.88 1471.54 L2307.88 1467.28 L2316.15 1465.61 L2320.82 1465.61 L2320.82 1496.24 L2328.46 1496.24 L2328.46 1500.17 L2308.55 1500.17 L2308.55 1496.24 Z" fill="#000000" fill-rule="evenodd" fill-opacity="1" /><path clip-path="url(#clip600)" d="M2337.9 1494.29 L2342.79 1494.29 L2342.79 1500.17 L2337.9 1500.17 L2337.9 1494.29 Z" fill="#000000" fill-rule="evenodd" fill-opacity="1" /><path clip-path="url(#clip600)" d="M2353.02 1465.61 L2371.38 1465.61 L2371.38 1469.55 L2357.3 1469.55 L2357.3 1478.02 Q2358.32 1477.67 2359.34 1477.51 Q2360.36 1477.33 2361.38 1477.33 Q2367.16 1477.33 2370.54 1480.5 Q2373.92 1483.67 2373.92 1489.09 Q2373.92 1494.66 2370.45 1497.77 Q2366.98 1500.85 2360.66 1500.85 Q2358.48 1500.85 2356.21 1500.47 Q2353.97 1500.1 2351.56 1499.36 L2351.56 1494.66 Q2353.65 1495.8 2355.87 1496.35 Q2358.09 1496.91 2360.57 1496.91 Q2364.57 1496.91 2366.91 1494.8 Q2369.25 1492.7 2369.25 1489.09 Q2369.25 1485.47 2366.91 1483.37 Q2364.57 1481.26 2360.57 1481.26 Q2358.69 1481.26 2356.82 1481.68 Q2354.96 1482.1 2353.02 1482.97 L2353.02 1465.61 Z" fill="#000000" fill-rule="evenodd" fill-opacity="1" /><path clip-path="url(#clip600)" d="M1298.25 1535.75 Q1298.25 1541.16 1296.51 1547.24 Q1294.8 1553.3 1292.09 1558.19 Q1289.39 1563.06 1285.85 1566.28 Q1282.3 1569.47 1278.92 1569.47 Q1276.76 1569.47 1275.15 1568.27 Q1273.58 1567.05 1272.71 1565.02 Q1271.84 1562.96 1271.42 1560.71 Q1271 1558.42 1271 1555.94 Q1271 1552.24 1271.8 1548.21 Q1272.61 1544.15 1273.96 1540.48 Q1275.32 1536.78 1277.22 1533.43 Q1279.12 1530.05 1281.21 1527.6 Q1283.33 1525.12 1285.72 1523.67 Q1288.1 1522.22 1290.32 1522.22 Q1291.93 1522.22 1293.22 1522.93 Q1294.54 1523.6 1295.38 1524.8 Q1296.22 1525.96 1296.8 1527.34 Q1297.41 1528.73 1297.7 1530.34 Q1297.99 1531.91 1298.12 1533.23 Q1298.25 1534.52 1298.25 1535.75 M1293.9 1531.66 Q1293.9 1530.01 1293.77 1528.79 Q1293.64 1527.53 1293.29 1526.28 Q1292.93 1525.02 1292.16 1524.35 Q1291.42 1523.67 1290.26 1523.67 Q1286.88 1523.67 1283.08 1530.59 Q1281.85 1532.75 1280.76 1535.68 Q1279.66 1538.61 1279.28 1540 Q1278.89 1541.38 1277.99 1544.8 L1291.77 1544.8 Q1293.9 1536 1293.9 1531.66 M1291.19 1546.89 L1277.47 1546.89 Q1275.35 1554.94 1275.35 1559.96 Q1275.35 1564.34 1276.25 1566.18 Q1277.18 1567.98 1278.92 1567.98 Q1280.92 1567.98 1282.79 1565.99 Q1284.66 1563.96 1286.56 1560.29 Q1289.07 1555.52 1291.19 1546.89 Z" fill="#000000" fill-rule="evenodd" fill-opacity="1" /><polyline clip-path="url(#clip603)" style="stroke:#000000; stroke-linecap:butt; stroke-linejoin:round; stroke-width:2; stroke-opacity:0.1; fill:none" points="
  219.866,1439.5 2352.76,1439.5 
  "/>
<polyline clip-path="url(#clip603)" style="stroke:#000000; stroke-linecap:butt; stroke-linejoin:round; stroke-width:2; stroke-opacity:0.1; fill:none" points="
  219.866,1161.05 2352.76,1161.05 
  "/>
<polyline clip-path="url(#clip603)" style="stroke:#000000; stroke-linecap:butt; stroke-linejoin:round; stroke-width:2; stroke-opacity:0.1; fill:none" points="
  219.866,882.599 2352.76,882.599 
  "/>
<polyline clip-path="url(#clip603)" style="stroke:#000000; stroke-linecap:butt; stroke-linejoin:round; stroke-width:2; stroke-opacity:0.1; fill:none" points="
  219.866,604.147 2352.76,604.147 
  "/>
<polyline clip-path="url(#clip603)" style="stroke:#000000; stroke-linecap:butt; stroke-linejoin:round; stroke-width:2; stroke-opacity:0.1; fill:none" points="
  219.866,325.696 2352.76,325.696 
  "/>
<polyline clip-path="url(#clip603)" style="stroke:#000000; stroke-linecap:butt; stroke-linejoin:round; stroke-width:2; stroke-opacity:0.1; fill:none" points="
  219.866,47.2441 2352.76,47.2441 
  "/>
<polyline clip-path="url(#clip600)" style="stroke:#000000; stroke-linecap:butt; stroke-linejoin:round; stroke-width:4; stroke-opacity:1; fill:none" points="
  219.866,1439.5 219.866,47.2441 
  "/>
<polyline clip-path="url(#clip600)" style="stroke:#000000; stroke-linecap:butt; stroke-linejoin:round; stroke-width:4; stroke-opacity:1; fill:none" points="
  219.866,1439.5 245.461,1439.5 
  "/>
<polyline clip-path="url(#clip600)" style="stroke:#000000; stroke-linecap:butt; stroke-linejoin:round; stroke-width:4; stroke-opacity:1; fill:none" points="
  219.866,1161.05 245.461,1161.05 
  "/>
<polyline clip-path="url(#clip600)" style="stroke:#000000; stroke-linecap:butt; stroke-linejoin:round; stroke-width:4; stroke-opacity:1; fill:none" points="
  219.866,882.599 245.461,882.599 
  "/>
<polyline clip-path="url(#clip600)" style="stroke:#000000; stroke-linecap:butt; stroke-linejoin:round; stroke-width:4; stroke-opacity:1; fill:none" points="
  219.866,604.147 245.461,604.147 
  "/>
<polyline clip-path="url(#clip600)" style="stroke:#000000; stroke-linecap:butt; stroke-linejoin:round; stroke-width:4; stroke-opacity:1; fill:none" points="
  219.866,325.696 245.461,325.696 
  "/>
<polyline clip-path="url(#clip600)" style="stroke:#000000; stroke-linecap:butt; stroke-linejoin:round; stroke-width:4; stroke-opacity:1; fill:none" points="
  219.866,47.2441 245.461,47.2441 
  "/>
<path clip-path="url(#clip600)" d="M126.691 1425.3 Q123.08 1425.3 121.251 1428.87 Q119.445 1432.41 119.445 1439.54 Q119.445 1446.64 121.251 1450.21 Q123.08 1453.75 126.691 1453.75 Q130.325 1453.75 132.13 1450.21 Q133.959 1446.64 133.959 1439.54 Q133.959 1432.41 132.13 1428.87 Q130.325 1425.3 126.691 1425.3 M126.691 1421.6 Q132.501 1421.6 135.556 1426.2 Q138.635 1430.79 138.635 1439.54 Q138.635 1448.26 135.556 1452.87 Q132.501 1457.45 126.691 1457.45 Q120.88 1457.45 117.802 1452.87 Q114.746 1448.26 114.746 1439.54 Q114.746 1430.79 117.802 1426.2 Q120.88 1421.6 126.691 1421.6 Z" fill="#000000" fill-rule="evenodd" fill-opacity="1" /><path clip-path="url(#clip600)" d="M146.853 1450.9 L151.737 1450.9 L151.737 1456.78 L146.853 1456.78 L146.853 1450.9 Z" fill="#000000" fill-rule="evenodd" fill-opacity="1" /><path clip-path="url(#clip600)" d="M171.922 1425.3 Q168.311 1425.3 166.482 1428.87 Q164.677 1432.41 164.677 1439.54 Q164.677 1446.64 166.482 1450.21 Q168.311 1453.75 171.922 1453.75 Q175.556 1453.75 177.362 1450.21 Q179.19 1446.64 179.19 1439.54 Q179.19 1432.41 177.362 1428.87 Q175.556 1425.3 171.922 1425.3 M171.922 1421.6 Q177.732 1421.6 180.788 1426.2 Q183.866 1430.79 183.866 1439.54 Q183.866 1448.26 180.788 1452.87 Q177.732 1457.45 171.922 1457.45 Q166.112 1457.45 163.033 1452.87 Q159.978 1448.26 159.978 1439.54 Q159.978 1430.79 163.033 1426.2 Q166.112 1421.6 171.922 1421.6 Z" fill="#000000" fill-rule="evenodd" fill-opacity="1" /><path clip-path="url(#clip600)" d="M128.288 1146.85 Q124.677 1146.85 122.848 1150.41 Q121.043 1153.96 121.043 1161.09 Q121.043 1168.19 122.848 1171.76 Q124.677 1175.3 128.288 1175.3 Q131.922 1175.3 133.728 1171.76 Q135.556 1168.19 135.556 1161.09 Q135.556 1153.96 133.728 1150.41 Q131.922 1146.85 128.288 1146.85 M128.288 1143.15 Q134.098 1143.15 137.154 1147.75 Q140.232 1152.34 140.232 1161.09 Q140.232 1169.81 137.154 1174.42 Q134.098 1179 128.288 1179 Q122.478 1179 119.399 1174.42 Q116.343 1169.81 116.343 1161.09 Q116.343 1152.34 119.399 1147.75 Q122.478 1143.15 128.288 1143.15 Z" fill="#000000" fill-rule="evenodd" fill-opacity="1" /><path clip-path="url(#clip600)" d="M148.45 1172.45 L153.334 1172.45 L153.334 1178.33 L148.45 1178.33 L148.45 1172.45 Z" fill="#000000" fill-rule="evenodd" fill-opacity="1" /><path clip-path="url(#clip600)" d="M167.547 1174.4 L183.866 1174.4 L183.866 1178.33 L161.922 1178.33 L161.922 1174.4 Q164.584 1171.64 169.167 1167.01 Q173.774 1162.36 174.954 1161.02 Q177.2 1158.49 178.079 1156.76 Q178.982 1155 178.982 1153.31 Q178.982 1150.55 177.038 1148.82 Q175.116 1147.08 172.014 1147.08 Q169.815 1147.08 167.362 1147.84 Q164.931 1148.61 162.153 1150.16 L162.153 1145.44 Q164.977 1144.3 167.431 1143.72 Q169.885 1143.15 171.922 1143.15 Q177.292 1143.15 180.487 1145.83 Q183.681 1148.52 183.681 1153.01 Q183.681 1155.14 182.871 1157.06 Q182.084 1158.96 179.977 1161.55 Q179.399 1162.22 176.297 1165.44 Q173.195 1168.63 167.547 1174.4 Z" fill="#000000" fill-rule="evenodd" fill-opacity="1" /><path clip-path="url(#clip600)" d="M126.205 868.397 Q122.593 868.397 120.765 871.962 Q118.959 875.504 118.959 882.634 Q118.959 889.74 120.765 893.305 Q122.593 896.846 126.205 896.846 Q129.839 896.846 131.644 893.305 Q133.473 889.74 133.473 882.634 Q133.473 875.504 131.644 871.962 Q129.839 868.397 126.205 868.397 M126.205 864.694 Q132.015 864.694 135.07 869.3 Q138.149 873.884 138.149 882.634 Q138.149 891.36 135.07 895.967 Q132.015 900.55 126.205 900.55 Q120.394 900.55 117.316 895.967 Q114.26 891.36 114.26 882.634 Q114.26 873.884 117.316 869.3 Q120.394 864.694 126.205 864.694 Z" fill="#000000" fill-rule="evenodd" fill-opacity="1" /><path clip-path="url(#clip600)" d="M146.366 893.999 L151.251 893.999 L151.251 899.879 L146.366 899.879 L146.366 893.999 Z" fill="#000000" fill-rule="evenodd" fill-opacity="1" /><path clip-path="url(#clip600)" d="M174.283 869.393 L162.477 887.842 L174.283 887.842 L174.283 869.393 M173.056 865.319 L178.936 865.319 L178.936 887.842 L183.866 887.842 L183.866 891.731 L178.936 891.731 L178.936 899.879 L174.283 899.879 L174.283 891.731 L158.681 891.731 L158.681 887.217 L173.056 865.319 Z" fill="#000000" fill-rule="evenodd" fill-opacity="1" /><path clip-path="url(#clip600)" d="M126.529 589.946 Q122.918 589.946 121.089 593.511 Q119.283 597.052 119.283 604.182 Q119.283 611.288 121.089 614.853 Q122.918 618.395 126.529 618.395 Q130.163 618.395 131.968 614.853 Q133.797 611.288 133.797 604.182 Q133.797 597.052 131.968 593.511 Q130.163 589.946 126.529 589.946 M126.529 586.242 Q132.339 586.242 135.394 590.849 Q138.473 595.432 138.473 604.182 Q138.473 612.909 135.394 617.515 Q132.339 622.099 126.529 622.099 Q120.718 622.099 117.64 617.515 Q114.584 612.909 114.584 604.182 Q114.584 595.432 117.64 590.849 Q120.718 586.242 126.529 586.242 Z" fill="#000000" fill-rule="evenodd" fill-opacity="1" /><path clip-path="url(#clip600)" d="M146.691 615.548 L151.575 615.548 L151.575 621.427 L146.691 621.427 L146.691 615.548 Z" fill="#000000" fill-rule="evenodd" fill-opacity="1" /><path clip-path="url(#clip600)" d="M172.339 602.284 Q169.19 602.284 167.339 604.437 Q165.51 606.589 165.51 610.339 Q165.51 614.066 167.339 616.242 Q169.19 618.395 172.339 618.395 Q175.487 618.395 177.315 616.242 Q179.167 614.066 179.167 610.339 Q179.167 606.589 177.315 604.437 Q175.487 602.284 172.339 602.284 M181.621 587.631 L181.621 591.89 Q179.862 591.057 178.056 590.617 Q176.274 590.177 174.514 590.177 Q169.885 590.177 167.431 593.302 Q165.001 596.427 164.653 602.747 Q166.019 600.733 168.079 599.668 Q170.139 598.58 172.616 598.58 Q177.825 598.58 180.834 601.751 Q183.866 604.9 183.866 610.339 Q183.866 615.663 180.718 618.881 Q177.57 622.099 172.339 622.099 Q166.343 622.099 163.172 617.515 Q160.001 612.909 160.001 604.182 Q160.001 595.988 163.89 591.126 Q167.778 586.242 174.329 586.242 Q176.089 586.242 177.871 586.589 Q179.676 586.937 181.621 587.631 Z" fill="#000000" fill-rule="evenodd" fill-opacity="1" /><path clip-path="url(#clip600)" d="M126.783 311.494 Q123.172 311.494 121.343 315.059 Q119.538 318.601 119.538 325.73 Q119.538 332.837 121.343 336.402 Q123.172 339.943 126.783 339.943 Q130.417 339.943 132.223 336.402 Q134.052 332.837 134.052 325.73 Q134.052 318.601 132.223 315.059 Q130.417 311.494 126.783 311.494 M126.783 307.791 Q132.593 307.791 135.649 312.397 Q138.728 316.98 138.728 325.73 Q138.728 334.457 135.649 339.064 Q132.593 343.647 126.783 343.647 Q120.973 343.647 117.894 339.064 Q114.839 334.457 114.839 325.73 Q114.839 316.98 117.894 312.397 Q120.973 307.791 126.783 307.791 Z" fill="#000000" fill-rule="evenodd" fill-opacity="1" /><path clip-path="url(#clip600)" d="M146.945 337.096 L151.829 337.096 L151.829 342.976 L146.945 342.976 L146.945 337.096 Z" fill="#000000" fill-rule="evenodd" fill-opacity="1" /><path clip-path="url(#clip600)" d="M172.014 326.564 Q168.681 326.564 166.76 328.346 Q164.862 330.129 164.862 333.253 Q164.862 336.378 166.76 338.161 Q168.681 339.943 172.014 339.943 Q175.348 339.943 177.269 338.161 Q179.19 336.355 179.19 333.253 Q179.19 330.129 177.269 328.346 Q175.371 326.564 172.014 326.564 M167.339 324.573 Q164.329 323.832 162.64 321.772 Q160.973 319.712 160.973 316.749 Q160.973 312.605 163.913 310.198 Q166.876 307.791 172.014 307.791 Q177.176 307.791 180.116 310.198 Q183.056 312.605 183.056 316.749 Q183.056 319.712 181.366 321.772 Q179.7 323.832 176.714 324.573 Q180.093 325.36 181.968 327.652 Q183.866 329.943 183.866 333.253 Q183.866 338.277 180.788 340.962 Q177.732 343.647 172.014 343.647 Q166.297 343.647 163.218 340.962 Q160.163 338.277 160.163 333.253 Q160.163 329.943 162.061 327.652 Q163.959 325.36 167.339 324.573 M165.626 317.189 Q165.626 319.874 167.292 321.379 Q168.982 322.883 172.014 322.883 Q175.024 322.883 176.714 321.379 Q178.426 319.874 178.426 317.189 Q178.426 314.504 176.714 312.999 Q175.024 311.494 172.014 311.494 Q168.982 311.494 167.292 312.999 Q165.626 314.504 165.626 317.189 Z" fill="#000000" fill-rule="evenodd" fill-opacity="1" /><path clip-path="url(#clip600)" d="M117.501 60.5889 L125.14 60.5889 L125.14 34.2233 L116.83 35.89 L116.83 31.6308 L125.093 29.9641 L129.769 29.9641 L129.769 60.5889 L137.408 60.5889 L137.408 64.5241 L117.501 64.5241 L117.501 60.5889 Z" fill="#000000" fill-rule="evenodd" fill-opacity="1" /><path clip-path="url(#clip600)" d="M146.853 58.6445 L151.737 58.6445 L151.737 64.5241 L146.853 64.5241 L146.853 58.6445 Z" fill="#000000" fill-rule="evenodd" fill-opacity="1" /><path clip-path="url(#clip600)" d="M171.922 33.0428 Q168.311 33.0428 166.482 36.6076 Q164.677 40.1492 164.677 47.2788 Q164.677 54.3853 166.482 57.9501 Q168.311 61.4917 171.922 61.4917 Q175.556 61.4917 177.362 57.9501 Q179.19 54.3853 179.19 47.2788 Q179.19 40.1492 177.362 36.6076 Q175.556 33.0428 171.922 33.0428 M171.922 29.3391 Q177.732 29.3391 180.788 33.9456 Q183.866 38.5289 183.866 47.2788 Q183.866 56.0056 180.788 60.6121 Q177.732 65.1954 171.922 65.1954 Q166.112 65.1954 163.033 60.6121 Q159.978 56.0056 159.978 47.2788 Q159.978 38.5289 163.033 33.9456 Q166.112 29.3391 171.922 29.3391 Z" fill="#000000" fill-rule="evenodd" fill-opacity="1" /><path clip-path="url(#clip600)" d="M16.4842 820.637 L16.4842 811.056 L48.8219 798.93 L16.4842 786.739 L16.4842 777.159 L64.0042 777.159 L64.0042 783.429 L22.277 783.429 L54.8694 795.683 L54.8694 802.144 L22.277 814.398 L64.0042 814.398 L64.0042 820.637 L16.4842 820.637 Z" fill="#000000" fill-rule="evenodd" fill-opacity="1" /><path clip-path="url(#clip600)" d="M46.0847 748.45 Q46.0847 755.547 47.7079 758.285 Q49.3312 761.022 53.2461 761.022 Q56.3653 761.022 58.2114 758.985 Q60.0256 756.916 60.0256 753.383 Q60.0256 748.513 56.5881 745.585 Q53.1188 742.625 47.3897 742.625 L46.0847 742.625 L46.0847 748.45 M43.6657 736.769 L64.0042 736.769 L64.0042 742.625 L58.5933 742.625 Q61.8398 744.63 63.3994 747.622 Q64.9272 750.614 64.9272 754.943 Q64.9272 760.417 61.8716 763.664 Q58.7843 766.878 53.6281 766.878 Q47.6125 766.878 44.5569 762.868 Q41.5014 758.826 41.5014 750.837 L41.5014 742.625 L40.9285 742.625 Q36.8862 742.625 34.6901 745.299 Q32.4621 747.94 32.4621 752.747 Q32.4621 755.802 33.1941 758.698 Q33.9262 761.595 35.3903 764.268 L29.9795 764.268 Q28.7381 761.054 28.1334 758.03 Q27.4968 755.006 27.4968 752.142 Q27.4968 744.407 31.5072 740.588 Q35.5176 736.769 43.6657 736.769 Z" fill="#000000" fill-rule="evenodd" fill-opacity="1" /><path clip-path="url(#clip600)" d="M29.4065 701.98 L34.9447 701.98 Q33.6716 704.463 33.035 707.136 Q32.3984 709.81 32.3984 712.674 Q32.3984 717.035 33.7352 719.231 Q35.072 721.395 37.7456 721.395 Q39.7826 721.395 40.9603 719.836 Q42.1061 718.276 43.1565 713.566 L43.6021 711.56 Q44.9389 705.322 47.3897 702.712 Q49.8086 700.07 54.1691 700.07 Q59.1344 700.07 62.0308 704.017 Q64.9272 707.932 64.9272 714.807 Q64.9272 717.671 64.3543 720.791 Q63.8132 723.878 62.6992 727.316 L56.6518 727.316 Q58.3387 724.069 59.198 720.918 Q60.0256 717.767 60.0256 714.68 Q60.0256 710.542 58.6251 708.314 Q57.1929 706.086 54.6147 706.086 Q52.2276 706.086 50.9545 707.709 Q49.6813 709.301 48.5037 714.743 L48.0262 716.78 Q46.8804 722.223 44.5251 724.642 Q42.138 727.061 38.0002 727.061 Q32.9713 727.061 30.2341 723.496 Q27.4968 719.931 27.4968 713.375 Q27.4968 710.128 27.9743 707.264 Q28.4517 704.399 29.4065 701.98 Z" fill="#000000" fill-rule="evenodd" fill-opacity="1" /><path clip-path="url(#clip600)" d="M29.4065 668.019 L34.9447 668.019 Q33.6716 670.502 33.035 673.175 Q32.3984 675.849 32.3984 678.713 Q32.3984 683.074 33.7352 685.27 Q35.072 687.434 37.7456 687.434 Q39.7826 687.434 40.9603 685.875 Q42.1061 684.315 43.1565 679.605 L43.6021 677.599 Q44.9389 671.361 47.3897 668.751 Q49.8086 666.109 54.1691 666.109 Q59.1344 666.109 62.0308 670.056 Q64.9272 673.971 64.9272 680.846 Q64.9272 683.71 64.3543 686.83 Q63.8132 689.917 62.6992 693.354 L56.6518 693.354 Q58.3387 690.108 59.198 686.957 Q60.0256 683.806 60.0256 680.719 Q60.0256 676.581 58.6251 674.353 Q57.1929 672.125 54.6147 672.125 Q52.2276 672.125 50.9545 673.748 Q49.6813 675.34 48.5037 680.782 L48.0262 682.819 Q46.8804 688.262 44.5251 690.681 Q42.138 693.1 38.0002 693.1 Q32.9713 693.1 30.2341 689.535 Q27.4968 685.97 27.4968 679.414 Q27.4968 676.167 27.9743 673.302 Q28.4517 670.438 29.4065 668.019 Z" fill="#000000" fill-rule="evenodd" fill-opacity="1" /><path clip-path="url(#clip603)" d="
M337.179 743.373 L337.179 1439.5 L1180.85 1439.5 L1180.85 743.373 L337.179 743.373 L337.179 743.373  Z
  " fill="#009af9" fill-rule="evenodd" fill-opacity="0.3"/>
<polyline clip-path="url(#clip603)" style="stroke:#000000; stroke-linecap:butt; stroke-linejoin:round; stroke-width:4; stroke-opacity:0.3; fill:none" points="
  337.179,743.373 337.179,1439.5 1180.85,1439.5 1180.85,743.373 337.179,743.373 
  "/>
<path clip-path="url(#clip603)" d="
M1391.77 743.373 L1391.77 1439.5 L2235.44 1439.5 L2235.44 743.373 L1391.77 743.373 L1391.77 743.373  Z
  " fill="#009af9" fill-rule="evenodd" fill-opacity="0.3"/>
<polyline clip-path="url(#clip603)" style="stroke:#000000; stroke-linecap:butt; stroke-linejoin:round; stroke-width:4; stroke-opacity:0.3; fill:none" points="
  1391.77,743.373 1391.77,1439.5 2235.44,1439.5 2235.44,743.373 1391.77,743.373 
  "/>
<path clip-path="url(#clip603)" d="
M337.179 325.696 L337.179 1439.5 L1180.85 1439.5 L1180.85 325.696 L337.179 325.696 L337.179 325.696  Z
  " fill="#e26f46" fill-rule="evenodd" fill-opacity="0.3"/>
<polyline clip-path="url(#clip603)" style="stroke:#000000; stroke-linecap:butt; stroke-linejoin:round; stroke-width:4; stroke-opacity:0.3; fill:none" points="
  337.179,325.696 337.179,1439.5 1180.85,1439.5 1180.85,325.696 337.179,325.696 
  "/>
<path clip-path="url(#clip603)" d="
M1391.77 1161.05 L1391.77 1439.5 L2235.44 1439.5 L2235.44 1161.05 L1391.77 1161.05 L1391.77 1161.05  Z
  " fill="#e26f46" fill-rule="evenodd" fill-opacity="0.3"/>
<polyline clip-path="url(#clip603)" style="stroke:#000000; stroke-linecap:butt; stroke-linejoin:round; stroke-width:4; stroke-opacity:0.3; fill:none" points="
  1391.77,1161.05 1391.77,1439.5 2235.44,1439.5 2235.44,1161.05 1391.77,1161.05 
  "/>
<path clip-path="url(#clip600)" d="
M1896.53 275.093 L2281.66 275.093 L2281.66 93.6527 L1896.53 93.6527  Z
  " fill="#ffffff" fill-rule="evenodd" fill-opacity="1"/>
<polyline clip-path="url(#clip600)" style="stroke:#000000; stroke-linecap:butt; stroke-linejoin:round; stroke-width:4; stroke-opacity:1; fill:none" points="
  1896.53,275.093 2281.66,275.093 2281.66,93.6527 1896.53,93.6527 1896.53,275.093 
  "/>
<path clip-path="url(#clip600)" d="
M1920.23 178.325 L2062.42 178.325 L2062.42 129.941 L1920.23 129.941 L1920.23 178.325  Z
  " fill="#009af9" fill-rule="evenodd" fill-opacity="0.3"/>
<polyline clip-path="url(#clip600)" style="stroke:#000000; stroke-linecap:butt; stroke-linejoin:round; stroke-width:4; stroke-opacity:1; fill:none" points="
  1920.23,178.325 2062.42,178.325 2062.42,129.941 1920.23,129.941 1920.23,178.325 
  "/>
<path clip-path="url(#clip600)" d="M2111.18 151.813 Q2111.18 155.233 2109.45 158.536 Q2107.74 161.838 2105.04 163.876 Q2102.35 165.89 2099.61 165.89 Q2097.97 165.89 2096.87 165 Q2095.79 164.087 2095.21 162.798 Q2094.76 164.391 2093.8 168.209 Q2092.84 172.027 2092.84 172.402 Q2092.84 172.612 2092.89 172.706 Q2092.94 172.8 2093.15 172.917 Q2093.36 173.057 2093.87 173.104 Q2094.39 173.175 2095.25 173.175 Q2095.7 173.175 2095.86 173.175 Q2096.05 173.198 2096.21 173.315 Q2096.4 173.432 2096.4 173.69 Q2096.4 174.65 2095.54 174.65 Q2094.76 174.65 2093.17 174.58 Q2091.58 174.51 2090.78 174.51 Q2090.1 174.51 2088.74 174.58 Q2087.38 174.65 2086.75 174.65 Q2086.12 174.65 2086.12 174.088 Q2086.12 173.76 2086.21 173.549 Q2086.28 173.362 2086.47 173.268 Q2086.66 173.198 2086.82 173.175 Q2086.96 173.175 2087.24 173.175 Q2088.32 173.175 2088.79 172.987 Q2089.26 172.823 2089.42 172.472 Q2089.61 172.144 2089.82 171.207 L2095.21 149.846 Q2095.54 148.417 2095.54 147.41 Q2095.54 146.145 2095.14 145.677 Q2094.74 145.208 2094.04 145.208 Q2092.82 145.208 2092.02 146.66 Q2091.23 148.113 2090.55 150.923 Q2090.34 151.696 2090.19 151.86 Q2090.08 152.024 2089.73 152.024 Q2089.14 152.001 2089.14 151.532 Q2089.14 151.415 2089.33 150.666 Q2089.52 149.893 2089.87 148.768 Q2090.24 147.621 2090.64 146.895 Q2090.87 146.403 2091.08 146.075 Q2091.3 145.747 2091.72 145.232 Q2092.16 144.716 2092.79 144.435 Q2093.43 144.154 2094.2 144.154 Q2095.7 144.154 2096.94 145.044 Q2098.18 145.934 2098.51 147.738 Q2099.84 146.168 2101.48 145.161 Q2103.12 144.154 2104.79 144.154 Q2107.55 144.154 2109.35 146.309 Q2111.18 148.44 2111.18 151.813 M2107.71 149.705 Q2107.71 147.574 2106.9 146.403 Q2106.1 145.208 2104.65 145.208 Q2102.84 145.208 2100.76 147.035 Q2098.7 148.768 2098.28 150.384 L2095.91 159.777 L2095.77 160.55 Q2095.77 160.69 2095.84 161.112 Q2095.93 161.51 2096.19 162.166 Q2096.47 162.822 2096.85 163.407 Q2097.25 163.97 2097.95 164.391 Q2098.67 164.813 2099.56 164.813 Q2100.99 164.813 2102.54 163.548 Q2104.11 162.283 2105.28 159.894 Q2106.01 158.348 2106.85 155.022 Q2107.71 151.673 2107.71 149.705 Z" fill="#000000" fill-rule="evenodd" fill-opacity="1" /><path clip-path="url(#clip600)" d="M2123.31 158.067 Q2123.36 157.481 2124.27 157.481 L2153.67 157.481 Q2155.05 157.481 2155.07 158.02 Q2155.07 158.606 2153.76 158.582 L2124.6 158.582 Q2123.31 158.606 2123.31 158.067 M2123.31 148.698 Q2123.31 148.113 2124.32 148.136 L2153.62 148.136 Q2155.05 148.136 2155.07 148.698 Q2155.07 149.237 2153.86 149.237 L2124.27 149.237 Q2123.31 149.237 2123.31 148.698 Z" fill="#000000" fill-rule="evenodd" fill-opacity="1" /><path clip-path="url(#clip600)" d="M2173.57 150.01 Q2173.57 142.96 2175.35 139.118 Q2177.83 133.403 2183.68 133.403 Q2184.92 133.403 2186.21 133.755 Q2187.52 134.082 2189.16 135.371 Q2190.83 136.659 2191.83 138.767 Q2193.76 142.842 2193.76 150.01 Q2193.76 157.013 2191.98 160.831 Q2189.38 166.405 2183.64 166.405 Q2181.48 166.405 2179.28 165.305 Q2177.1 164.204 2175.72 161.557 Q2173.57 157.599 2173.57 150.01 M2177.55 149.424 Q2177.55 156.662 2178.06 159.543 Q2178.65 162.658 2180.24 164.016 Q2181.86 165.351 2183.64 165.351 Q2185.56 165.351 2187.15 163.923 Q2188.77 162.47 2189.26 159.355 Q2189.8 156.287 2189.77 149.424 Q2189.77 142.749 2189.3 140.079 Q2188.67 136.963 2186.99 135.722 Q2185.32 134.457 2183.64 134.457 Q2183 134.457 2182.33 134.645 Q2181.67 134.832 2180.71 135.371 Q2179.75 135.909 2179 137.245 Q2178.27 138.58 2177.92 140.594 Q2177.55 143.194 2177.55 149.424 Z" fill="#000000" fill-rule="evenodd" fill-opacity="1" /><path clip-path="url(#clip600)" d="M2198.04 164.578 Q2197.32 163.806 2197.32 162.798 Q2197.32 161.791 2198.04 161.065 Q2198.77 160.316 2199.87 160.316 Q2200.92 160.316 2201.62 161.018 Q2202.35 161.698 2202.35 162.822 Q2202.35 163.923 2201.58 164.649 Q2200.83 165.351 2199.87 165.351 Q2198.77 165.351 2198.04 164.578 Z" fill="#000000" fill-rule="evenodd" fill-opacity="1" /><path clip-path="url(#clip600)" d="M2210.51 157.622 Q2210.51 156.193 2211.28 155.655 Q2212.06 155.092 2212.88 155.092 Q2213.98 155.092 2214.61 155.795 Q2215.27 156.474 2215.27 157.435 Q2215.27 158.395 2214.61 159.098 Q2213.98 159.777 2212.88 159.777 Q2212.34 159.777 2212.06 159.683 Q2212.69 161.885 2214.61 163.478 Q2216.56 165.07 2219.11 165.07 Q2222.32 165.07 2224.24 161.955 Q2225.39 159.941 2225.39 155.373 Q2225.39 151.345 2224.52 149.33 Q2223.18 146.262 2220.44 146.262 Q2216.56 146.262 2214.26 149.612 Q2213.98 150.033 2213.65 150.057 Q2213.18 150.057 2213.07 149.799 Q2212.97 149.518 2212.97 148.792 L2212.97 134.598 Q2212.97 133.45 2213.44 133.45 Q2213.63 133.45 2214.03 133.591 Q2217.05 134.926 2220.4 134.949 Q2223.84 134.949 2226.93 133.544 Q2227.17 133.403 2227.31 133.403 Q2227.77 133.403 2227.8 133.942 Q2227.8 134.129 2227.4 134.691 Q2227.02 135.23 2226.21 135.956 Q2225.39 136.659 2224.33 137.338 Q2223.28 138.017 2221.73 138.486 Q2220.21 138.931 2218.52 138.931 Q2216.51 138.931 2214.45 138.299 L2214.45 147.644 Q2216.93 145.208 2220.54 145.208 Q2224.38 145.208 2227.02 148.3 Q2229.67 151.392 2229.67 155.701 Q2229.67 160.222 2226.53 163.314 Q2223.42 166.405 2219.2 166.405 Q2215.36 166.405 2212.92 163.665 Q2210.51 160.925 2210.51 157.622 Z" fill="#000000" fill-rule="evenodd" fill-opacity="1" /><path clip-path="url(#clip600)" d="
M1920.23 238.805 L2062.42 238.805 L2062.42 190.421 L1920.23 190.421 L1920.23 238.805  Z
  " fill="#e26f46" fill-rule="evenodd" fill-opacity="0.3"/>
<polyline clip-path="url(#clip600)" style="stroke:#000000; stroke-linecap:butt; stroke-linejoin:round; stroke-width:4; stroke-opacity:1; fill:none" points="
  1920.23,238.805 2062.42,238.805 2062.42,190.421 1920.23,190.421 1920.23,238.805 
  "/>
<path clip-path="url(#clip600)" d="M2111.18 212.293 Q2111.18 215.713 2109.45 219.016 Q2107.74 222.318 2105.04 224.356 Q2102.35 226.37 2099.61 226.37 Q2097.97 226.37 2096.87 225.48 Q2095.79 224.567 2095.21 223.278 Q2094.76 224.871 2093.8 228.689 Q2092.84 232.507 2092.84 232.882 Q2092.84 233.092 2092.89 233.186 Q2092.94 233.28 2093.15 233.397 Q2093.36 233.537 2093.87 233.584 Q2094.39 233.655 2095.25 233.655 Q2095.7 233.655 2095.86 233.655 Q2096.05 233.678 2096.21 233.795 Q2096.4 233.912 2096.4 234.17 Q2096.4 235.13 2095.54 235.13 Q2094.76 235.13 2093.17 235.06 Q2091.58 234.99 2090.78 234.99 Q2090.1 234.99 2088.74 235.06 Q2087.38 235.13 2086.75 235.13 Q2086.12 235.13 2086.12 234.568 Q2086.12 234.24 2086.21 234.029 Q2086.28 233.842 2086.47 233.748 Q2086.66 233.678 2086.82 233.655 Q2086.96 233.655 2087.24 233.655 Q2088.32 233.655 2088.79 233.467 Q2089.26 233.303 2089.42 232.952 Q2089.61 232.624 2089.82 231.687 L2095.21 210.326 Q2095.54 208.897 2095.54 207.89 Q2095.54 206.625 2095.14 206.157 Q2094.74 205.688 2094.04 205.688 Q2092.82 205.688 2092.02 207.14 Q2091.23 208.593 2090.55 211.403 Q2090.34 212.176 2090.19 212.34 Q2090.08 212.504 2089.73 212.504 Q2089.14 212.481 2089.14 212.012 Q2089.14 211.895 2089.33 211.146 Q2089.52 210.373 2089.87 209.248 Q2090.24 208.101 2090.64 207.375 Q2090.87 206.883 2091.08 206.555 Q2091.3 206.227 2091.72 205.712 Q2092.16 205.196 2092.79 204.915 Q2093.43 204.634 2094.2 204.634 Q2095.7 204.634 2096.94 205.524 Q2098.18 206.414 2098.51 208.218 Q2099.84 206.648 2101.48 205.641 Q2103.12 204.634 2104.79 204.634 Q2107.55 204.634 2109.35 206.789 Q2111.18 208.92 2111.18 212.293 M2107.71 210.185 Q2107.71 208.054 2106.9 206.883 Q2106.1 205.688 2104.65 205.688 Q2102.84 205.688 2100.76 207.515 Q2098.7 209.248 2098.28 210.864 L2095.91 220.257 L2095.77 221.03 Q2095.77 221.17 2095.84 221.592 Q2095.93 221.99 2096.19 222.646 Q2096.47 223.302 2096.85 223.887 Q2097.25 224.45 2097.95 224.871 Q2098.67 225.293 2099.56 225.293 Q2100.99 225.293 2102.54 224.028 Q2104.11 222.763 2105.28 220.374 Q2106.01 218.828 2106.85 215.502 Q2107.71 212.153 2107.71 210.185 Z" fill="#000000" fill-rule="evenodd" fill-opacity="1" /><path clip-path="url(#clip600)" d="M2123.31 218.547 Q2123.36 217.961 2124.27 217.961 L2153.67 217.961 Q2155.05 217.961 2155.07 218.5 Q2155.07 219.086 2153.76 219.062 L2124.6 219.062 Q2123.31 219.086 2123.31 218.547 M2123.31 209.178 Q2123.31 208.593 2124.32 208.616 L2153.62 208.616 Q2155.05 208.616 2155.07 209.178 Q2155.07 209.717 2153.86 209.717 L2124.27 209.717 Q2123.31 209.717 2123.31 209.178 Z" fill="#000000" fill-rule="evenodd" fill-opacity="1" /><path clip-path="url(#clip600)" d="M2173.57 210.49 Q2173.57 203.44 2175.35 199.598 Q2177.83 193.883 2183.68 193.883 Q2184.92 193.883 2186.21 194.235 Q2187.52 194.562 2189.16 195.851 Q2190.83 197.139 2191.83 199.247 Q2193.76 203.322 2193.76 210.49 Q2193.76 217.493 2191.98 221.311 Q2189.38 226.885 2183.64 226.885 Q2181.48 226.885 2179.28 225.785 Q2177.1 224.684 2175.72 222.037 Q2173.57 218.079 2173.57 210.49 M2177.55 209.904 Q2177.55 217.142 2178.06 220.023 Q2178.65 223.138 2180.24 224.496 Q2181.86 225.831 2183.64 225.831 Q2185.56 225.831 2187.15 224.403 Q2188.77 222.95 2189.26 219.835 Q2189.8 216.767 2189.77 209.904 Q2189.77 203.229 2189.3 200.559 Q2188.67 197.443 2186.99 196.202 Q2185.32 194.937 2183.64 194.937 Q2183 194.937 2182.33 195.125 Q2181.67 195.312 2180.71 195.851 Q2179.75 196.389 2179 197.725 Q2178.27 199.06 2177.92 201.074 Q2177.55 203.674 2177.55 209.904 Z" fill="#000000" fill-rule="evenodd" fill-opacity="1" /><path clip-path="url(#clip600)" d="M2198.04 225.058 Q2197.32 224.286 2197.32 223.278 Q2197.32 222.271 2198.04 221.545 Q2198.77 220.796 2199.87 220.796 Q2200.92 220.796 2201.62 221.498 Q2202.35 222.178 2202.35 223.302 Q2202.35 224.403 2201.58 225.129 Q2200.83 225.831 2199.87 225.831 Q2198.77 225.831 2198.04 225.058 Z" fill="#000000" fill-rule="evenodd" fill-opacity="1" /><path clip-path="url(#clip600)" d="M2210.51 225.831 Q2210.51 224.965 2210.58 224.707 Q2210.68 224.45 2211.05 224.051 L2220.26 213.792 Q2225.29 208.124 2225.29 203.182 Q2225.29 199.973 2223.61 197.678 Q2221.94 195.382 2218.87 195.382 Q2216.77 195.382 2214.99 196.67 Q2213.21 197.959 2212.39 200.254 Q2212.53 200.207 2213.02 200.207 Q2214.21 200.207 2214.87 200.957 Q2215.55 201.706 2215.55 202.713 Q2215.55 204.002 2214.7 204.634 Q2213.88 205.243 2213.07 205.243 Q2212.74 205.243 2212.29 205.173 Q2211.87 205.103 2211.19 204.447 Q2210.51 203.767 2210.51 202.573 Q2210.51 199.224 2213.04 196.553 Q2215.59 193.883 2219.48 193.883 Q2223.89 193.883 2226.77 196.507 Q2229.67 199.106 2229.67 203.182 Q2229.67 204.611 2229.23 205.922 Q2228.8 207.211 2228.22 208.218 Q2227.66 209.225 2226.11 210.841 Q2224.57 212.457 2223.32 213.605 Q2222.08 214.753 2219.3 217.189 L2214.21 222.131 L2222.86 222.131 Q2227.07 222.131 2227.4 221.756 Q2227.87 221.077 2228.45 217.493 L2229.67 217.493 L2228.31 225.831 L2210.51 225.831 Z" fill="#000000" fill-rule="evenodd" fill-opacity="1" /></svg>
