<?xml version="1.0" encoding="utf-8"?>
<svg xmlns="http://www.w3.org/2000/svg" xmlns:xlink="http://www.w3.org/1999/xlink" width="600" height="400" viewBox="0 0 2400 1600">
<defs>
  <clipPath id="clip840">
    <rect x="0" y="0" width="2400" height="1600"/>
  </clipPath>
</defs>
<path clip-path="url(#clip840)" d="
M0 1600 L2400 1600 L2400 0 L0 0  Z
  " fill="#ffffff" fill-rule="evenodd" fill-opacity="1"/>
<defs>
  <clipPath id="clip841">
    <rect x="480" y="0" width="1681" height="1600"/>
  </clipPath>
</defs>
<defs>
  <clipPath id="clip842">
    <rect x="219" y="47" width="2134" height="1393"/>
  </clipPath>
</defs>
<path clip-path="url(#clip840)" d="
M219.38 1439.5 L2352.76 1439.5 L2352.76 47.2441 L219.38 47.2441  Z
  " fill="#ffffff" fill-rule="evenodd" fill-opacity="1"/>
<polyline clip-path="url(#clip842)" style="stroke:#000000; stroke-linecap:butt; stroke-linejoin:round; stroke-width:2; stroke-opacity:0.1; fill:none" points="
  219.38,1439.5 219.38,47.2441 
  "/>
<polyline clip-path="url(#clip842)" style="stroke:#000000; stroke-linecap:butt; stroke-linejoin:round; stroke-width:2; stroke-opacity:0.1; fill:none" points="
  646.055,1439.5 646.055,47.2441 
  "/>
<polyline clip-path="url(#clip842)" style="stroke:#000000; stroke-linecap:butt; stroke-linejoin:round; stroke-width:2; stroke-opacity:0.1; fill:none" points="
  1072.73,1439.5 1072.73,47.2441 
  "/>
<polyline clip-path="url(#clip842)" style="stroke:#000000; stroke-linecap:butt; stroke-linejoin:round; stroke-width:2; stroke-opacity:0.1; fill:none" points="
  1499.41,1439.5 1499.41,47.2441 
  "/>
<polyline clip-path="url(#clip842)" style="stroke:#000000; stroke-linecap:butt; stroke-linejoin:round; stroke-width:2; stroke-opacity:0.1; fill:none" points="
  1926.08,1439.5 1926.08,47.2441 
  "/>
<polyline clip-path="url(#clip842)" style="stroke:#000000; stroke-linecap:butt; stroke-linejoin:round; stroke-width:2; stroke-opacity:0.1; fill:none" points="
  2352.76,1439.5 2352.76,47.2441 
  "/>
<polyline clip-path="url(#clip840)" style="stroke:#000000; stroke-linecap:butt; stroke-linejoin:round; stroke-width:4; stroke-opacity:1; fill:none" points="
  219.38,1439.5 2352.76,1439.5 
  "/>
<polyline clip-path="url(#clip840)" style="stroke:#000000; stroke-linecap:butt; stroke-linejoin:round; stroke-width:4; stroke-opacity:1; fill:none" points="
  219.38,1439.5 219.38,1422.79 
  "/>
<polyline clip-path="url(#clip840)" style="stroke:#000000; stroke-linecap:butt; stroke-linejoin:round; stroke-width:4; stroke-opacity:1; fill:none" points="
  646.055,1439.5 646.055,1422.79 
  "/>
<polyline clip-path="url(#clip840)" style="stroke:#000000; stroke-linecap:butt; stroke-linejoin:round; stroke-width:4; stroke-opacity:1; fill:none" points="
  1072.73,1439.5 1072.73,1422.79 
  "/>
<polyline clip-path="url(#clip840)" style="stroke:#000000; stroke-linecap:butt; stroke-linejoin:round; stroke-width:4; stroke-opacity:1; fill:none" points="
  1499.41,1439.5 1499.41,1422.79 
  "/>
<polyline clip-path="url(#clip840)" style="stroke:#000000; stroke-linecap:butt; stroke-linejoin:round; stroke-width:4; stroke-opacity:1; fill:none" points="
  1926.08,1439.5 1926.08,1422.79 
  "/>
<polyline clip-path="url(#clip840)" style="stroke:#000000; stroke-linecap:butt; stroke-linejoin:round; stroke-width:4; stroke-opacity:1; fill:none" points="
  2352.76,1439.5 2352.76,1422.79 
  "/>
<path clip-path="url(#clip840)" d="M196.765 1468.69 Q193.153 1468.69 191.325 1472.26 Q189.519 1475.8 189.519 1482.93 Q189.519 1490.04 191.325 1493.6 Q193.153 1497.14 196.765 1497.14 Q200.399 1497.14 202.204 1493.6 Q204.033 1490.04 204.033 1482.93 Q204.033 1475.8 202.204 1472.26 Q200.399 1468.69 196.765 1468.69 M196.765 1464.99 Q202.575 1464.99 205.63 1469.6 Q208.709 1474.18 208.709 1482.93 Q208.709 1491.66 205.63 1496.26 Q202.575 1500.85 196.765 1500.85 Q190.954 1500.85 187.876 1496.26 Q184.82 1491.66 184.82 1482.93 Q184.82 1474.18 187.876 1469.6 Q190.954 1464.99 196.765 1464.99 Z" fill="#000000" fill-rule="evenodd" fill-opacity="1" /><path clip-path="url(#clip840)" d="M216.926 1494.29 L221.811 1494.29 L221.811 1500.17 L216.926 1500.17 L216.926 1494.29 Z" fill="#000000" fill-rule="evenodd" fill-opacity="1" /><path clip-path="url(#clip840)" d="M241.996 1468.69 Q238.385 1468.69 236.556 1472.26 Q234.75 1475.8 234.75 1482.93 Q234.75 1490.04 236.556 1493.6 Q238.385 1497.14 241.996 1497.14 Q245.63 1497.14 247.436 1493.6 Q249.264 1490.04 249.264 1482.93 Q249.264 1475.8 247.436 1472.26 Q245.63 1468.69 241.996 1468.69 M241.996 1464.99 Q247.806 1464.99 250.861 1469.6 Q253.94 1474.18 253.94 1482.93 Q253.94 1491.66 250.861 1496.26 Q247.806 1500.85 241.996 1500.85 Q236.186 1500.85 233.107 1496.26 Q230.051 1491.66 230.051 1482.93 Q230.051 1474.18 233.107 1469.6 Q236.186 1464.99 241.996 1464.99 Z" fill="#000000" fill-rule="evenodd" fill-opacity="1" /><path clip-path="url(#clip840)" d="M624.238 1468.69 Q620.627 1468.69 618.799 1472.26 Q616.993 1475.8 616.993 1482.93 Q616.993 1490.04 618.799 1493.6 Q620.627 1497.14 624.238 1497.14 Q627.873 1497.14 629.678 1493.6 Q631.507 1490.04 631.507 1482.93 Q631.507 1475.8 629.678 1472.26 Q627.873 1468.69 624.238 1468.69 M624.238 1464.99 Q630.048 1464.99 633.104 1469.6 Q636.183 1474.18 636.183 1482.93 Q636.183 1491.66 633.104 1496.26 Q630.048 1500.85 624.238 1500.85 Q618.428 1500.85 615.349 1496.26 Q612.294 1491.66 612.294 1482.93 Q612.294 1474.18 615.349 1469.6 Q618.428 1464.99 624.238 1464.99 Z" fill="#000000" fill-rule="evenodd" fill-opacity="1" /><path clip-path="url(#clip840)" d="M644.4 1494.29 L649.284 1494.29 L649.284 1500.17 L644.4 1500.17 L644.4 1494.29 Z" fill="#000000" fill-rule="evenodd" fill-opacity="1" /><path clip-path="url(#clip840)" d="M663.497 1496.24 L679.817 1496.24 L679.817 1500.17 L657.872 1500.17 L657.872 1496.24 Q660.534 1493.48 665.118 1488.85 Q669.724 1484.2 670.905 1482.86 Q673.15 1480.34 674.03 1478.6 Q674.932 1476.84 674.932 1475.15 Q674.932 1472.4 672.988 1470.66 Q671.067 1468.92 667.965 1468.92 Q665.766 1468.92 663.312 1469.69 Q660.882 1470.45 658.104 1472 L658.104 1467.28 Q660.928 1466.15 663.382 1465.57 Q665.835 1464.99 667.872 1464.99 Q673.243 1464.99 676.437 1467.67 Q679.632 1470.36 679.632 1474.85 Q679.632 1476.98 678.821 1478.9 Q678.034 1480.8 675.928 1483.39 Q675.349 1484.06 672.247 1487.28 Q669.145 1490.47 663.497 1496.24 Z" fill="#000000" fill-rule="evenodd" fill-opacity="1" /><path clip-path="url(#clip840)" d="M1049.87 1468.69 Q1046.26 1468.69 1044.43 1472.26 Q1042.63 1475.8 1042.63 1482.93 Q1042.63 1490.04 1044.43 1493.6 Q1046.26 1497.14 1049.87 1497.14 Q1053.51 1497.14 1055.31 1493.6 Q1057.14 1490.04 1057.14 1482.93 Q1057.14 1475.8 1055.31 1472.26 Q1053.51 1468.69 1049.87 1468.69 M1049.87 1464.99 Q1055.68 1464.99 1058.74 1469.6 Q1061.82 1474.18 1061.82 1482.93 Q1061.82 1491.66 1058.74 1496.26 Q1055.68 1500.85 1049.87 1500.85 Q1044.06 1500.85 1040.98 1496.26 Q1037.93 1491.66 1037.93 1482.93 Q1037.93 1474.18 1040.98 1469.6 Q1044.06 1464.99 1049.87 1464.99 Z" fill="#000000" fill-rule="evenodd" fill-opacity="1" /><path clip-path="url(#clip840)" d="M1070.03 1494.29 L1074.92 1494.29 L1074.92 1500.17 L1070.03 1500.17 L1070.03 1494.29 Z" fill="#000000" fill-rule="evenodd" fill-opacity="1" /><path clip-path="url(#clip840)" d="M1097.95 1469.69 L1086.14 1488.14 L1097.95 1488.14 L1097.95 1469.69 M1096.72 1465.61 L1102.6 1465.61 L1102.6 1488.14 L1107.53 1488.14 L1107.53 1492.03 L1102.6 1492.03 L1102.6 1500.17 L1097.95 1500.17 L1097.95 1492.03 L1082.35 1492.03 L1082.35 1487.51 L1096.72 1465.61 Z" fill="#000000" fill-rule="evenodd" fill-opacity="1" /><path clip-path="url(#clip840)" d="M1476.71 1468.69 Q1473.1 1468.69 1471.27 1472.26 Q1469.46 1475.8 1469.46 1482.93 Q1469.46 1490.04 1471.27 1493.6 Q1473.1 1497.14 1476.71 1497.14 Q1480.34 1497.14 1482.15 1493.6 Q1483.98 1490.04 1483.98 1482.93 Q1483.98 1475.8 1482.15 1472.26 Q1480.34 1468.69 1476.71 1468.69 M1476.71 1464.99 Q1482.52 1464.99 1485.57 1469.6 Q1488.65 1474.18 1488.65 1482.93 Q1488.65 1491.66 1485.57 1496.26 Q1482.52 1500.85 1476.71 1500.85 Q1470.9 1500.85 1467.82 1496.26 Q1464.76 1491.66 1464.76 1482.93 Q1464.76 1474.18 1467.82 1469.6 Q1470.9 1464.99 1476.71 1464.99 Z" fill="#000000" fill-rule="evenodd" fill-opacity="1" /><path clip-path="url(#clip840)" d="M1496.87 1494.29 L1501.76 1494.29 L1501.76 1500.17 L1496.87 1500.17 L1496.87 1494.29 Z" fill="#000000" fill-rule="evenodd" fill-opacity="1" /><path clip-path="url(#clip840)" d="M1522.52 1481.03 Q1519.37 1481.03 1517.52 1483.18 Q1515.69 1485.34 1515.69 1489.09 Q1515.69 1492.81 1517.52 1494.99 Q1519.37 1497.14 1522.52 1497.14 Q1525.67 1497.14 1527.5 1494.99 Q1529.35 1492.81 1529.35 1489.09 Q1529.35 1485.34 1527.5 1483.18 Q1525.67 1481.03 1522.52 1481.03 M1531.8 1466.38 L1531.8 1470.64 Q1530.04 1469.8 1528.24 1469.36 Q1526.45 1468.92 1524.69 1468.92 Q1520.07 1468.92 1517.61 1472.05 Q1515.18 1475.17 1514.83 1481.49 Q1516.2 1479.48 1518.26 1478.41 Q1520.32 1477.33 1522.8 1477.33 Q1528 1477.33 1531.01 1480.5 Q1534.05 1483.65 1534.05 1489.09 Q1534.05 1494.41 1530.9 1497.63 Q1527.75 1500.85 1522.52 1500.85 Q1516.52 1500.85 1513.35 1496.26 Q1510.18 1491.66 1510.18 1482.93 Q1510.18 1474.73 1514.07 1469.87 Q1517.96 1464.99 1524.51 1464.99 Q1526.27 1464.99 1528.05 1465.34 Q1529.86 1465.68 1531.8 1466.38 Z" fill="#000000" fill-rule="evenodd" fill-opacity="1" /><path clip-path="url(#clip840)" d="M1903.51 1468.69 Q1899.9 1468.69 1898.07 1472.26 Q1896.27 1475.8 1896.27 1482.93 Q1896.27 1490.04 1898.07 1493.6 Q1899.9 1497.14 1903.51 1497.14 Q1907.15 1497.14 1908.95 1493.6 Q1910.78 1490.04 1910.78 1482.93 Q1910.78 1475.8 1908.95 1472.26 Q1907.15 1468.69 1903.51 1468.69 M1903.51 1464.99 Q1909.32 1464.99 1912.38 1469.6 Q1915.46 1474.18 1915.46 1482.93 Q1915.46 1491.66 1912.38 1496.26 Q1909.32 1500.85 1903.51 1500.85 Q1897.7 1500.85 1894.62 1496.26 Q1891.57 1491.66 1891.57 1482.93 Q1891.57 1474.18 1894.62 1469.6 Q1897.7 1464.99 1903.51 1464.99 Z" fill="#000000" fill-rule="evenodd" fill-opacity="1" /><path clip-path="url(#clip840)" d="M1923.67 1494.29 L1928.56 1494.29 L1928.56 1500.17 L1923.67 1500.17 L1923.67 1494.29 Z" fill="#000000" fill-rule="evenodd" fill-opacity="1" /><path clip-path="url(#clip840)" d="M1948.74 1483.76 Q1945.41 1483.76 1943.49 1485.54 Q1941.59 1487.33 1941.59 1490.45 Q1941.59 1493.58 1943.49 1495.36 Q1945.41 1497.14 1948.74 1497.14 Q1952.08 1497.14 1954 1495.36 Q1955.92 1493.55 1955.92 1490.45 Q1955.92 1487.33 1954 1485.54 Q1952.1 1483.76 1948.74 1483.76 M1944.07 1481.77 Q1941.06 1481.03 1939.37 1478.97 Q1937.7 1476.91 1937.7 1473.95 Q1937.7 1469.8 1940.64 1467.4 Q1943.6 1464.99 1948.74 1464.99 Q1953.9 1464.99 1956.84 1467.4 Q1959.78 1469.8 1959.78 1473.95 Q1959.78 1476.91 1958.09 1478.97 Q1956.43 1481.03 1953.44 1481.77 Q1956.82 1482.56 1958.7 1484.85 Q1960.59 1487.14 1960.59 1490.45 Q1960.59 1495.47 1957.52 1498.16 Q1954.46 1500.85 1948.74 1500.85 Q1943.03 1500.85 1939.95 1498.16 Q1936.89 1495.47 1936.89 1490.45 Q1936.89 1487.14 1938.79 1484.85 Q1940.69 1482.56 1944.07 1481.77 M1942.35 1474.39 Q1942.35 1477.07 1944.02 1478.58 Q1945.71 1480.08 1948.74 1480.08 Q1951.75 1480.08 1953.44 1478.58 Q1955.15 1477.07 1955.15 1474.39 Q1955.15 1471.7 1953.44 1470.2 Q1951.75 1468.69 1948.74 1468.69 Q1945.71 1468.69 1944.02 1470.2 Q1942.35 1471.7 1942.35 1474.39 Z" fill="#000000" fill-rule="evenodd" fill-opacity="1" /><path clip-path="url(#clip840)" d="M2319.91 1496.24 L2327.55 1496.24 L2327.55 1469.87 L2319.24 1471.54 L2319.24 1467.28 L2327.5 1465.61 L2332.18 1465.61 L2332.18 1496.24 L2339.82 1496.24 L2339.82 1500.17 L2319.91 1500.17 L2319.91 1496.24 Z" fill="#000000" fill-rule="evenodd" fill-opacity="1" /><path clip-path="url(#clip840)" d="M2349.26 1494.29 L2354.14 1494.29 L2354.14 1500.17 L2349.26 1500.17 L2349.26 1494.29 Z" fill="#000000" fill-rule="evenodd" fill-opacity="1" /><path clip-path="url(#clip840)" d="M2374.33 1468.69 Q2370.72 1468.69 2368.89 1472.26 Q2367.08 1475.8 2367.08 1482.93 Q2367.08 1490.04 2368.89 1493.6 Q2370.72 1497.14 2374.33 1497.14 Q2377.96 1497.14 2379.77 1493.6 Q2381.6 1490.04 2381.6 1482.93 Q2381.6 1475.8 2379.77 1472.26 Q2377.96 1468.69 2374.33 1468.69 M2374.33 1464.99 Q2380.14 1464.99 2383.2 1469.6 Q2386.27 1474.18 2386.27 1482.93 Q2386.27 1491.66 2383.2 1496.26 Q2380.14 1500.85 2374.33 1500.85 Q2368.52 1500.85 2365.44 1496.26 Q2362.39 1491.66 2362.39 1482.93 Q2362.39 1474.18 2365.44 1469.6 Q2368.52 1464.99 2374.33 1464.99 Z" fill="#000000" fill-rule="evenodd" fill-opacity="1" /><path clip-path="url(#clip840)" d="M1298 1535.75 Q1298 1541.16 1296.26 1547.24 Q1294.56 1553.3 1291.85 1558.19 Q1289.15 1563.06 1285.6 1566.28 Q1282.06 1569.47 1278.68 1569.47 Q1276.52 1569.47 1274.91 1568.27 Q1273.33 1567.05 1272.46 1565.02 Q1271.59 1562.96 1271.18 1560.71 Q1270.76 1558.42 1270.76 1555.94 Q1270.76 1552.24 1271.56 1548.21 Q1272.37 1544.15 1273.72 1540.48 Q1275.07 1536.78 1276.97 1533.43 Q1278.87 1530.05 1280.97 1527.6 Q1283.09 1525.12 1285.47 1523.67 Q1287.86 1522.22 1290.08 1522.22 Q1291.69 1522.22 1292.98 1522.93 Q1294.3 1523.6 1295.14 1524.8 Q1295.97 1525.96 1296.55 1527.34 Q1297.17 1528.73 1297.46 1530.34 Q1297.75 1531.91 1297.87 1533.23 Q1298 1534.52 1298 1535.75 M1293.66 1531.66 Q1293.66 1530.01 1293.53 1528.79 Q1293.4 1527.53 1293.04 1526.28 Q1292.69 1525.02 1291.92 1524.35 Q1291.18 1523.67 1290.02 1523.67 Q1286.63 1523.67 1282.83 1530.59 Q1281.61 1532.75 1280.52 1535.68 Q1279.42 1538.61 1279.03 1540 Q1278.65 1541.38 1277.75 1544.8 L1291.53 1544.8 Q1293.66 1536 1293.66 1531.66 M1290.95 1546.89 L1277.23 1546.89 Q1275.1 1554.94 1275.1 1559.96 Q1275.1 1564.34 1276.01 1566.18 Q1276.94 1567.98 1278.68 1567.98 Q1280.68 1567.98 1282.54 1565.99 Q1284.41 1563.96 1286.31 1560.29 Q1288.82 1555.52 1290.95 1546.89 Z" fill="#000000" fill-rule="evenodd" fill-opacity="1" /><polyline clip-path="url(#clip842)" style="stroke:#000000; stroke-linecap:butt; stroke-linejoin:round; stroke-width:2; stroke-opacity:0.1; fill:none" points="
  219.38,1400.1 2352.76,1400.1 
  "/>
<polyline clip-path="url(#clip842)" style="stroke:#000000; stroke-linecap:butt; stroke-linejoin:round; stroke-width:2; stroke-opacity:0.1; fill:none" points="
  219.38,1030.54 2352.76,1030.54 
  "/>
<polyline clip-path="url(#clip842)" style="stroke:#000000; stroke-linecap:butt; stroke-linejoin:round; stroke-width:2; stroke-opacity:0.1; fill:none" points="
  219.38,660.982 2352.76,660.982 
  "/>
<polyline clip-path="url(#clip842)" style="stroke:#000000; stroke-linecap:butt; stroke-linejoin:round; stroke-width:2; stroke-opacity:0.1; fill:none" points="
  219.38,291.424 2352.76,291.424 
  "/>
<polyline clip-path="url(#clip840)" style="stroke:#000000; stroke-linecap:butt; stroke-linejoin:round; stroke-width:4; stroke-opacity:1; fill:none" points="
  219.38,1439.5 219.38,47.2441 
  "/>
<polyline clip-path="url(#clip840)" style="stroke:#000000; stroke-linecap:butt; stroke-linejoin:round; stroke-width:4; stroke-opacity:1; fill:none" points="
  219.38,1400.1 244.981,1400.1 
  "/>
<polyline clip-path="url(#clip840)" style="stroke:#000000; stroke-linecap:butt; stroke-linejoin:round; stroke-width:4; stroke-opacity:1; fill:none" points="
  219.38,1030.54 244.981,1030.54 
  "/>
<polyline clip-path="url(#clip840)" style="stroke:#000000; stroke-linecap:butt; stroke-linejoin:round; stroke-width:4; stroke-opacity:1; fill:none" points="
  219.38,660.982 244.981,660.982 
  "/>
<polyline clip-path="url(#clip840)" style="stroke:#000000; stroke-linecap:butt; stroke-linejoin:round; stroke-width:4; stroke-opacity:1; fill:none" points="
  219.38,291.424 244.981,291.424 
  "/>
<path clip-path="url(#clip840)" d="M126.205 1385.9 Q122.593 1385.9 120.765 1389.46 Q118.959 1393 118.959 1400.13 Q118.959 1407.24 120.765 1410.8 Q122.593 1414.35 126.205 1414.35 Q129.839 1414.35 131.644 1410.8 Q133.473 1407.24 133.473 1400.13 Q133.473 1393 131.644 1389.46 Q129.839 1385.9 126.205 1385.9 M126.205 1382.19 Q132.015 1382.19 135.07 1386.8 Q138.149 1391.38 138.149 1400.13 Q138.149 1408.86 135.07 1413.47 Q132.015 1418.05 126.205 1418.05 Q120.394 1418.05 117.316 1413.47 Q114.26 1408.86 114.26 1400.13 Q114.26 1391.38 117.316 1386.8 Q120.394 1382.19 126.205 1382.19 Z" fill="#000000" fill-rule="evenodd" fill-opacity="1" /><path clip-path="url(#clip840)" d="M146.366 1411.5 L151.251 1411.5 L151.251 1417.38 L146.366 1417.38 L146.366 1411.5 Z" fill="#000000" fill-rule="evenodd" fill-opacity="1" /><path clip-path="url(#clip840)" d="M171.436 1385.9 Q167.825 1385.9 165.996 1389.46 Q164.19 1393 164.19 1400.13 Q164.19 1407.24 165.996 1410.8 Q167.825 1414.35 171.436 1414.35 Q175.07 1414.35 176.876 1410.8 Q178.704 1407.24 178.704 1400.13 Q178.704 1393 176.876 1389.46 Q175.07 1385.9 171.436 1385.9 M171.436 1382.19 Q177.246 1382.19 180.301 1386.8 Q183.38 1391.38 183.38 1400.13 Q183.38 1408.86 180.301 1413.47 Q177.246 1418.05 171.436 1418.05 Q165.626 1418.05 162.547 1413.47 Q159.491 1408.86 159.491 1400.13 Q159.491 1391.38 162.547 1386.8 Q165.626 1382.19 171.436 1382.19 Z" fill="#000000" fill-rule="evenodd" fill-opacity="1" /><path clip-path="url(#clip840)" d="M127.2 1016.34 Q123.589 1016.34 121.76 1019.9 Q119.955 1023.45 119.955 1030.57 Q119.955 1037.68 121.76 1041.25 Q123.589 1044.79 127.2 1044.79 Q130.834 1044.79 132.64 1041.25 Q134.468 1037.68 134.468 1030.57 Q134.468 1023.45 132.64 1019.9 Q130.834 1016.34 127.2 1016.34 M127.2 1012.64 Q133.01 1012.64 136.066 1017.24 Q139.144 1021.82 139.144 1030.57 Q139.144 1039.3 136.066 1043.91 Q133.01 1048.49 127.2 1048.49 Q121.39 1048.49 118.311 1043.91 Q115.256 1039.3 115.256 1030.57 Q115.256 1021.82 118.311 1017.24 Q121.39 1012.64 127.2 1012.64 Z" fill="#000000" fill-rule="evenodd" fill-opacity="1" /><path clip-path="url(#clip840)" d="M147.362 1041.94 L152.246 1041.94 L152.246 1047.82 L147.362 1047.82 L147.362 1041.94 Z" fill="#000000" fill-rule="evenodd" fill-opacity="1" /><path clip-path="url(#clip840)" d="M162.477 1013.26 L180.834 1013.26 L180.834 1017.2 L166.76 1017.2 L166.76 1025.67 Q167.778 1025.32 168.797 1025.16 Q169.815 1024.97 170.834 1024.97 Q176.621 1024.97 180.001 1028.14 Q183.38 1031.32 183.38 1036.73 Q183.38 1042.31 179.908 1045.41 Q176.436 1048.49 170.116 1048.49 Q167.94 1048.49 165.672 1048.12 Q163.427 1047.75 161.019 1047.01 L161.019 1042.31 Q163.102 1043.45 165.325 1044 Q167.547 1044.56 170.024 1044.56 Q174.028 1044.56 176.366 1042.45 Q178.704 1040.34 178.704 1036.73 Q178.704 1033.12 176.366 1031.01 Q174.028 1028.91 170.024 1028.91 Q168.149 1028.91 166.274 1029.32 Q164.422 1029.74 162.477 1030.62 L162.477 1013.26 Z" fill="#000000" fill-rule="evenodd" fill-opacity="1" /><path clip-path="url(#clip840)" d="M117.015 674.327 L124.654 674.327 L124.654 647.961 L116.343 649.628 L116.343 645.369 L124.607 643.702 L129.283 643.702 L129.283 674.327 L136.922 674.327 L136.922 678.262 L117.015 678.262 L117.015 674.327 Z" fill="#000000" fill-rule="evenodd" fill-opacity="1" /><path clip-path="url(#clip840)" d="M146.366 672.382 L151.251 672.382 L151.251 678.262 L146.366 678.262 L146.366 672.382 Z" fill="#000000" fill-rule="evenodd" fill-opacity="1" /><path clip-path="url(#clip840)" d="M171.436 646.781 Q167.825 646.781 165.996 650.345 Q164.19 653.887 164.19 661.017 Q164.19 668.123 165.996 671.688 Q167.825 675.23 171.436 675.23 Q175.07 675.23 176.876 671.688 Q178.704 668.123 178.704 661.017 Q178.704 653.887 176.876 650.345 Q175.07 646.781 171.436 646.781 M171.436 643.077 Q177.246 643.077 180.301 647.683 Q183.38 652.267 183.38 661.017 Q183.38 669.744 180.301 674.35 Q177.246 678.933 171.436 678.933 Q165.626 678.933 162.547 674.35 Q159.491 669.744 159.491 661.017 Q159.491 652.267 162.547 647.683 Q165.626 643.077 171.436 643.077 Z" fill="#000000" fill-rule="evenodd" fill-opacity="1" /><path clip-path="url(#clip840)" d="M118.01 304.769 L125.649 304.769 L125.649 278.403 L117.339 280.07 L117.339 275.81 L125.603 274.144 L130.279 274.144 L130.279 304.769 L137.917 304.769 L137.917 308.704 L118.01 308.704 L118.01 304.769 Z" fill="#000000" fill-rule="evenodd" fill-opacity="1" /><path clip-path="url(#clip840)" d="M147.362 302.824 L152.246 302.824 L152.246 308.704 L147.362 308.704 L147.362 302.824 Z" fill="#000000" fill-rule="evenodd" fill-opacity="1" /><path clip-path="url(#clip840)" d="M162.477 274.144 L180.834 274.144 L180.834 278.079 L166.76 278.079 L166.76 286.551 Q167.778 286.204 168.797 286.042 Q169.815 285.857 170.834 285.857 Q176.621 285.857 180.001 289.028 Q183.38 292.199 183.38 297.616 Q183.38 303.195 179.908 306.296 Q176.436 309.375 170.116 309.375 Q167.94 309.375 165.672 309.005 Q163.427 308.634 161.019 307.894 L161.019 303.195 Q163.102 304.329 165.325 304.884 Q167.547 305.44 170.024 305.44 Q174.028 305.44 176.366 303.333 Q178.704 301.227 178.704 297.616 Q178.704 294.005 176.366 291.898 Q174.028 289.792 170.024 289.792 Q168.149 289.792 166.274 290.209 Q164.422 290.625 162.477 291.505 L162.477 274.144 Z" fill="#000000" fill-rule="evenodd" fill-opacity="1" /><path clip-path="url(#clip840)" d="M21.7677 856.683 L58.7206 856.683 L58.7206 848.916 Q58.7206 839.081 54.2646 834.53 Q49.8086 829.947 40.1964 829.947 Q30.6479 829.947 26.2237 834.53 Q21.7677 839.081 21.7677 848.916 L21.7677 856.683 M16.4842 863.112 L16.4842 849.903 Q16.4842 836.09 22.2451 829.628 Q27.9743 823.167 40.1964 823.167 Q52.4822 823.167 58.2432 829.66 Q64.0042 836.153 64.0042 849.903 L64.0042 863.112 L16.4842 863.112 Z" fill="#000000" fill-rule="evenodd" fill-opacity="1" /><path clip-path="url(#clip840)" d="M44.7161 782.681 L47.5806 782.681 L47.5806 809.608 Q53.6281 809.226 56.8109 805.98 Q59.9619 802.701 59.9619 796.877 Q59.9619 793.503 59.1344 790.352 Q58.3069 787.169 56.6518 784.05 L62.1899 784.05 Q63.5267 787.201 64.227 790.511 Q64.9272 793.821 64.9272 797.227 Q64.9272 805.757 59.9619 810.754 Q54.9967 815.719 46.5303 815.719 Q37.7774 815.719 32.6531 811.009 Q27.4968 806.266 27.4968 798.245 Q27.4968 791.052 32.1438 786.883 Q36.7589 782.681 44.7161 782.681 M42.9973 788.538 Q38.1912 788.601 35.3266 791.243 Q32.4621 793.853 32.4621 798.182 Q32.4621 803.083 35.2312 806.043 Q38.0002 808.972 43.0292 809.417 L42.9973 788.538 Z" fill="#000000" fill-rule="evenodd" fill-opacity="1" /><path clip-path="url(#clip840)" d="M42.4881 743.437 L64.0042 743.437 L64.0042 749.293 L42.679 749.293 Q37.6183 749.293 35.1038 751.266 Q32.5894 753.24 32.5894 757.187 Q32.5894 761.929 35.6131 764.666 Q38.6368 767.404 43.8567 767.404 L64.0042 767.404 L64.0042 773.292 L28.3562 773.292 L28.3562 767.404 L33.8944 767.404 Q30.6797 765.303 29.0883 762.47 Q27.4968 759.606 27.4968 755.882 Q27.4968 749.739 31.3163 746.588 Q35.1038 743.437 42.4881 743.437 Z" fill="#000000" fill-rule="evenodd" fill-opacity="1" /><path clip-path="url(#clip840)" d="M29.4065 709.03 L34.9447 709.03 Q33.6716 711.513 33.035 714.186 Q32.3984 716.86 32.3984 719.724 Q32.3984 724.085 33.7352 726.281 Q35.072 728.445 37.7456 728.445 Q39.7826 728.445 40.9603 726.886 Q42.1061 725.326 43.1565 720.616 L43.6021 718.61 Q44.9389 712.372 47.3897 709.762 Q49.8086 707.12 54.1691 707.12 Q59.1344 707.12 62.0308 711.067 Q64.9272 714.982 64.9272 721.857 Q64.9272 724.721 64.3543 727.841 Q63.8132 730.928 62.6992 734.366 L56.6518 734.366 Q58.3387 731.119 59.198 727.968 Q60.0256 724.817 60.0256 721.73 Q60.0256 717.592 58.6251 715.364 Q57.1929 713.136 54.6147 713.136 Q52.2276 713.136 50.9545 714.759 Q49.6813 716.351 48.5037 721.793 L48.0262 723.83 Q46.8804 729.273 44.5251 731.692 Q42.138 734.111 38.0002 734.111 Q32.9713 734.111 30.2341 730.546 Q27.4968 726.981 27.4968 720.425 Q27.4968 717.178 27.9743 714.314 Q28.4517 711.449 29.4065 709.03 Z" fill="#000000" fill-rule="evenodd" fill-opacity="1" /><path clip-path="url(#clip840)" d="M28.3562 697.795 L28.3562 691.938 L64.0042 691.938 L64.0042 697.795 L28.3562 697.795 M14.479 697.795 L14.479 691.938 L21.895 691.938 L21.895 697.795 L14.479 697.795 Z" fill="#000000" fill-rule="evenodd" fill-opacity="1" /><path clip-path="url(#clip840)" d="M18.2347 673.891 L28.3562 673.891 L28.3562 661.828 L32.9077 661.828 L32.9077 673.891 L52.2594 673.891 Q56.6199 673.891 57.8613 672.714 Q59.1026 671.504 59.1026 667.844 L59.1026 661.828 L64.0042 661.828 L64.0042 667.844 Q64.0042 674.623 61.4897 677.201 Q58.9434 679.78 52.2594 679.78 L32.9077 679.78 L32.9077 684.076 L28.3562 684.076 L28.3562 679.78 L18.2347 679.78 L18.2347 673.891 Z" fill="#000000" fill-rule="evenodd" fill-opacity="1" /><path clip-path="url(#clip840)" d="M67.3143 639.294 Q73.68 641.776 75.6216 644.132 Q77.5631 646.487 77.5631 650.434 L77.5631 655.112 L72.6615 655.112 L72.6615 651.675 Q72.6615 649.256 71.5157 647.919 Q70.3699 646.582 66.1048 644.959 L63.4312 643.909 L28.3562 658.327 L28.3562 652.121 L56.238 640.981 L28.3562 629.841 L28.3562 623.634 L67.3143 639.294 Z" fill="#000000" fill-rule="evenodd" fill-opacity="1" /><polyline clip-path="url(#clip842)" style="stroke:#009af9; stroke-linecap:butt; stroke-linejoin:round; stroke-width:20; stroke-opacity:1; fill:none" points="
  219.38,660.982 240.214,660.982 432.856,660.982 548.626,660.982 646.508,660.982 752.835,660.982 850.859,660.982 955.951,660.982 1077.71,660.982 1185.92,660.982 
  1280.8,660.982 1384.26,660.982 1488.32,660.982 1603.38,660.982 1712.86,660.982 1826.69,660.982 1922.51,660.982 2039.49,660.982 2149.46,660.982 2325.64,660.982 
  2352.76,660.982 
  "/>
<polyline clip-path="url(#clip842)" style="stroke:#e26f46; stroke-linecap:butt; stroke-linejoin:round; stroke-width:20; stroke-opacity:1; fill:none" points="
  219.38,1400.1 224.589,1400.05 229.797,1399.89 235.006,1399.63 240.214,1399.26 288.375,1391.12 336.535,1374.82 384.696,1350.97 432.856,1320.18 461.799,1298.59 
  490.741,1274.85 519.684,1249.09 548.626,1221.45 597.567,1170.79 646.508,1115.75 752.835,984.201 850.859,853.02 955.951,707.858 1077.71,542.02 1185.92,404.373 
  1280.8,296.922 1332.53,245.328 1384.26,199.63 1436.29,160.375 1488.32,128.625 1545.85,103.188 1603.38,88.9136 1658.12,86.6476 1712.86,96.3303 1769.77,120.035 
  1826.69,158.64 1874.6,203.429 1922.51,260.096 1951.75,300.783 1981,346.259 2010.25,396.659 2039.49,452.121 2066.98,508.994 2094.48,570.576 2121.97,636.98 
  2149.46,708.319 2193.51,833.184 2237.55,971.477 2281.6,1123.67 2325.64,1290.22 2332.42,1317.16 2339.2,1344.45 2345.98,1372.1 2352.76,1400.1 
  "/>
<polyline clip-path="url(#clip842)" style="stroke:#3da44d; stroke-linecap:butt; stroke-linejoin:round; stroke-width:20; stroke-opacity:1; fill:none" points="
  219.38,1400.1 224.589,1378.55 229.797,1357.21 235.006,1336.08 240.214,1315.16 288.375,1131.51 336.535,965.058 384.696,815.197 432.856,681.315 461.799,608.288 
  490.741,540.678 519.684,478.352 548.626,421.177 597.567,335.842 646.508,264.214 699.671,201.188 752.835,152.753 801.847,120.317 850.859,98.9373 903.405,87.5631 
  955.951,87.3605 1016.83,100.049 1077.71,125.429 1131.81,157.636 1185.92,198.021 1233.36,239.482 1280.8,285.979 1384.26,402.005 1488.32,533.94 1603.38,690.151 
  1712.86,841.483 1826.69,993.771 1922.51,1112.11 1981,1177.71 2039.49,1236.94 2094.48,1285.84 2149.46,1327.23 2193.51,1354.37 2237.55,1375.63 2281.6,1390.56 
  2325.64,1398.68 2332.42,1399.3 2339.2,1399.74 2345.98,1400.01 2352.76,1400.1 
  "/>
<path clip-path="url(#clip840)" d="
M1803.75 335.573 L2281.64 335.573 L2281.64 93.6527 L1803.75 93.6527  Z
  " fill="#ffffff" fill-rule="evenodd" fill-opacity="1"/>
<polyline clip-path="url(#clip840)" style="stroke:#000000; stroke-linecap:butt; stroke-linejoin:round; stroke-width:4; stroke-opacity:1; fill:none" points="
  1803.75,335.573 2281.64,335.573 2281.64,93.6527 1803.75,93.6527 1803.75,335.573 
  "/>
<polyline clip-path="url(#clip840)" style="stroke:#009af9; stroke-linecap:butt; stroke-linejoin:round; stroke-width:4; stroke-opacity:1; fill:none" points="
  1827.46,154.133 1969.68,154.133 
  "/>
<path clip-path="url(#clip840)" d="M2015.36 163.481 Q2014.72 166.502 2013.9 168.236 Q2012.59 170.882 2010.37 170.882 Q2008.68 170.882 2007.49 169.852 Q2006.29 168.821 2006.01 167.275 Q2002.94 170.882 1999.76 170.882 Q1996.95 170.882 1995.17 168.751 Q1993.39 166.596 1993.39 163.2 Q1993.39 159.78 1995.07 156.501 Q1996.78 153.222 1999.48 151.184 Q2002.17 149.146 2004.93 149.146 Q2007.86 149.146 2009.36 152.215 Q2009.48 151.371 2010.02 150.739 Q2010.56 150.107 2011.38 150.107 Q2012.01 150.107 2012.38 150.458 Q2012.76 150.786 2012.76 151.395 Q2012.76 151.699 2012.43 153.034 L2010.7 159.733 L2009.64 164.066 Q2009.24 165.659 2009.13 166.245 Q2009.03 166.83 2009.03 167.603 Q2009.03 169.805 2010.46 169.805 Q2011.16 169.805 2011.73 169.36 Q2012.29 168.915 2012.73 167.978 Q2013.18 167.041 2013.46 166.174 Q2013.74 165.284 2014.12 163.879 Q2014.23 163.317 2014.33 163.176 Q2014.44 163.012 2014.77 163.012 Q2015.36 163.012 2015.36 163.481 M2008.78 154.416 Q2008.78 154.206 2008.61 153.62 Q2008.45 153.034 2008.07 152.215 Q2007.7 151.395 2006.88 150.809 Q2006.08 150.2 2005 150.2 Q2003.55 150.2 2002.03 151.442 Q2000.53 152.683 1999.43 154.791 Q1998.59 156.478 1997.67 160.014 Q1996.78 163.551 1996.78 165.308 Q1996.78 166.385 1997.02 167.346 Q1997.27 168.282 1998 169.055 Q1998.73 169.805 1999.85 169.805 Q2002.59 169.805 2005.29 166.409 Q2005.8 165.823 2005.92 165.589 Q2006.06 165.331 2006.25 164.629 L2008.63 155.236 Q2008.78 154.533 2008.78 154.416 Z" fill="#000000" fill-rule="evenodd" fill-opacity="1" /><path clip-path="url(#clip840)" d="M2031.81 163.059 Q2031.86 162.474 2032.77 162.474 L2062.17 162.474 Q2063.55 162.474 2063.57 163.012 Q2063.57 163.598 2062.26 163.575 L2033.1 163.575 Q2031.81 163.598 2031.81 163.059 M2031.81 153.69 Q2031.81 153.105 2032.82 153.128 L2062.12 153.128 Q2063.55 153.128 2063.57 153.69 Q2063.57 154.229 2062.35 154.229 L2032.77 154.229 Q2031.81 154.229 2031.81 153.69 Z" fill="#000000" fill-rule="evenodd" fill-opacity="1" /><path clip-path="url(#clip840)" d="M2099.72 156.805 Q2099.72 160.178 2098.01 163.481 Q2096.33 166.76 2093.61 168.821 Q2090.92 170.882 2088.15 170.882 Q2085.46 170.882 2083.75 168.821 Q2082.06 166.737 2082.06 163.34 Q2082.06 162.146 2082.2 161.303 Q2082.34 160.459 2082.83 158.492 L2086.77 142.846 Q2087.45 139.918 2087.45 139.894 Q2087.45 139.613 2087.33 139.473 Q2087.24 139.309 2086.68 139.192 Q2086.11 139.075 2085.04 139.075 Q2084.59 139.075 2084.38 139.051 Q2084.19 139.028 2084.03 138.911 Q2083.89 138.77 2083.89 138.489 Q2083.89 138.091 2084.05 137.88 Q2084.24 137.646 2084.38 137.599 Q2084.52 137.552 2084.8 137.529 Q2085.2 137.505 2086.54 137.388 Q2087.87 137.248 2089.02 137.154 Q2090.17 137.06 2090.66 137.06 Q2090.94 137.06 2091.08 137.201 Q2091.24 137.318 2091.24 137.459 L2091.27 137.576 L2087.73 152.027 Q2090.52 149.146 2093.35 149.146 Q2096.19 149.146 2097.94 151.325 Q2099.72 153.503 2099.72 156.805 M2096.26 154.697 Q2096.26 152.472 2095.41 151.348 Q2094.59 150.2 2093.23 150.2 Q2092.09 150.2 2090.59 151.067 Q2089.09 151.934 2087.5 154.042 Q2087.19 154.44 2087.07 154.674 Q2086.98 154.908 2086.77 155.705 L2085.72 160.131 Q2084.94 163.153 2084.94 164.98 Q2084.94 167.463 2085.86 168.634 Q2086.77 169.805 2088.15 169.805 Q2089.6 169.805 2091.13 168.517 Q2092.65 167.228 2093.82 164.886 Q2094.55 163.34 2095.39 160.014 Q2096.26 156.665 2096.26 154.697 Z" fill="#000000" fill-rule="evenodd" fill-opacity="1" /><path clip-path="url(#clip840)" d="M2115.73 163.059 Q2115.78 162.474 2116.69 162.474 L2146.09 162.474 Q2147.47 162.474 2147.49 163.012 Q2147.49 163.598 2146.18 163.575 L2117.02 163.575 Q2115.73 163.598 2115.73 163.059 M2115.73 153.69 Q2115.73 153.105 2116.74 153.128 L2146.04 153.128 Q2147.47 153.128 2147.49 153.69 Q2147.49 154.229 2146.27 154.229 L2116.69 154.229 Q2115.73 154.229 2115.73 153.69 Z" fill="#000000" fill-rule="evenodd" fill-opacity="1" /><path clip-path="url(#clip840)" d="M2165.98 142.963 L2165.98 141.464 Q2171.74 141.464 2174.72 138.395 Q2175.54 138.395 2175.68 138.583 Q2175.82 138.77 2175.82 139.637 L2175.82 166.549 Q2175.82 167.978 2176.52 168.423 Q2177.22 168.868 2180.29 168.868 L2181.82 168.868 L2181.82 170.344 Q2180.13 170.203 2174.04 170.203 Q2167.95 170.203 2166.29 170.344 L2166.29 168.868 L2167.81 168.868 Q2170.83 168.868 2171.56 168.446 Q2172.28 168.001 2172.28 166.549 L2172.28 141.698 Q2169.78 142.963 2165.98 142.963 Z" fill="#000000" fill-rule="evenodd" fill-opacity="1" /><polyline clip-path="url(#clip840)" style="stroke:#e26f46; stroke-linecap:butt; stroke-linejoin:round; stroke-width:4; stroke-opacity:1; fill:none" points="
  1827.46,214.613 1969.68,214.613 
  "/>
<path clip-path="url(#clip840)" d="M2015.36 219.648 Q2014.72 222.67 2013.9 224.403 Q2012.59 227.05 2010.37 227.05 Q2008.68 227.05 2007.49 226.019 Q2006.29 224.989 2006.01 223.443 Q2002.94 227.05 1999.76 227.05 Q1996.95 227.05 1995.17 224.918 Q1993.39 222.764 1993.39 219.367 Q1993.39 215.948 1995.07 212.668 Q1996.78 209.389 1999.48 207.352 Q2002.17 205.314 2004.93 205.314 Q2007.86 205.314 2009.36 208.382 Q2009.48 207.539 2010.02 206.907 Q2010.56 206.274 2011.38 206.274 Q2012.01 206.274 2012.38 206.625 Q2012.76 206.953 2012.76 207.562 Q2012.76 207.867 2012.43 209.202 L2010.7 215.901 L2009.64 220.234 Q2009.24 221.827 2009.13 222.412 Q2009.03 222.998 2009.03 223.771 Q2009.03 225.972 2010.46 225.972 Q2011.16 225.972 2011.73 225.527 Q2012.29 225.082 2012.73 224.145 Q2013.18 223.209 2013.46 222.342 Q2013.74 221.452 2014.12 220.047 Q2014.23 219.484 2014.33 219.344 Q2014.44 219.18 2014.77 219.18 Q2015.36 219.18 2015.36 219.648 M2008.78 210.584 Q2008.78 210.373 2008.61 209.788 Q2008.45 209.202 2008.07 208.382 Q2007.7 207.562 2006.88 206.977 Q2006.08 206.368 2005 206.368 Q2003.55 206.368 2002.03 207.609 Q2000.53 208.851 1999.43 210.959 Q1998.59 212.645 1997.67 216.182 Q1996.78 219.719 1996.78 221.475 Q1996.78 222.553 1997.02 223.513 Q1997.27 224.45 1998 225.223 Q1998.73 225.972 1999.85 225.972 Q2002.59 225.972 2005.29 222.576 Q2005.8 221.991 2005.92 221.756 Q2006.06 221.499 2006.25 220.796 L2008.63 211.404 Q2008.78 210.701 2008.78 210.584 Z" fill="#000000" fill-rule="evenodd" fill-opacity="1" /><path clip-path="url(#clip840)" d="M2031.81 219.227 Q2031.86 218.641 2032.77 218.641 L2062.17 218.641 Q2063.55 218.641 2063.57 219.18 Q2063.57 219.765 2062.26 219.742 L2033.1 219.742 Q2031.81 219.765 2031.81 219.227 M2031.81 209.858 Q2031.81 209.272 2032.82 209.296 L2062.12 209.296 Q2063.55 209.296 2063.57 209.858 Q2063.57 210.396 2062.35 210.396 L2032.77 210.396 Q2031.81 210.396 2031.81 209.858 Z" fill="#000000" fill-rule="evenodd" fill-opacity="1" /><path clip-path="url(#clip840)" d="M2082.06 220.047 Q2082.06 218.618 2082.88 217.939 Q2083.7 217.259 2084.76 217.259 Q2085.86 217.259 2086.63 217.985 Q2087.43 218.688 2087.43 219.929 Q2087.43 221.264 2086.49 222.014 Q2085.57 222.764 2084.26 222.576 Q2085.41 224.497 2087.52 225.363 Q2089.65 226.23 2091.62 226.23 Q2093.68 226.23 2095.34 224.45 Q2097.03 222.67 2097.03 218.313 Q2097.03 214.613 2095.58 212.481 Q2094.15 210.35 2091.31 210.35 L2089.21 210.35 Q2088.48 210.35 2088.27 210.279 Q2088.06 210.209 2088.06 209.811 Q2088.06 209.342 2088.78 209.249 Q2089.51 209.249 2090.66 209.108 Q2093.44 209.015 2094.92 206.602 Q2096.26 204.353 2096.26 201.145 Q2096.26 198.217 2094.85 196.999 Q2093.47 195.757 2091.66 195.757 Q2089.98 195.757 2088.13 196.46 Q2086.28 197.163 2085.27 198.732 Q2088.25 198.732 2088.25 201.145 Q2088.25 202.199 2087.57 202.901 Q2086.91 203.581 2085.81 203.581 Q2084.76 203.581 2084.05 202.925 Q2083.35 202.245 2083.35 201.098 Q2083.35 198.357 2085.79 196.46 Q2088.25 194.563 2091.85 194.563 Q2095.41 194.563 2098.04 196.437 Q2100.68 198.311 2100.68 201.191 Q2100.68 204.026 2098.81 206.344 Q2096.93 208.663 2093.96 209.624 Q2097.61 210.35 2099.79 212.832 Q2101.97 215.292 2101.97 218.313 Q2101.97 222.061 2099.02 224.825 Q2096.07 227.565 2091.76 227.565 Q2087.78 227.565 2084.92 225.41 Q2082.06 223.255 2082.06 220.047 Z" fill="#000000" fill-rule="evenodd" fill-opacity="1" /><path clip-path="url(#clip840)" d="M2106.49 225.738 Q2105.81 224.965 2105.81 223.958 Q2105.81 222.951 2106.47 222.201 Q2107.15 221.428 2108.36 221.428 Q2109.79 221.428 2110.61 222.81 Q2111.43 224.169 2111.43 226.464 Q2111.43 228.947 2110.43 231.242 Q2109.42 233.561 2108.43 234.662 Q2107.45 235.763 2107.05 235.763 Q2106.58 235.763 2106.58 235.248 Q2106.58 235.06 2106.91 234.709 Q2110.36 231.008 2110.38 226.464 Q2110.38 225.738 2110.29 225.738 L2110.17 225.832 Q2109.35 226.511 2108.36 226.511 Q2107.17 226.511 2106.49 225.738 Z" fill="#000000" fill-rule="evenodd" fill-opacity="1" /><path clip-path="url(#clip840)" d="M2144.23 212.973 Q2144.23 216.346 2142.52 219.648 Q2140.83 222.927 2138.11 224.989 Q2135.42 227.05 2132.65 227.05 Q2129.96 227.05 2128.25 224.989 Q2126.56 222.904 2126.56 219.508 Q2126.56 218.313 2126.71 217.47 Q2126.85 216.627 2127.34 214.659 L2131.27 199.013 Q2131.95 196.085 2131.95 196.062 Q2131.95 195.781 2131.83 195.64 Q2131.74 195.476 2131.18 195.359 Q2130.62 195.242 2129.54 195.242 Q2129.09 195.242 2128.88 195.219 Q2128.7 195.195 2128.53 195.078 Q2128.39 194.938 2128.39 194.657 Q2128.39 194.258 2128.56 194.048 Q2128.74 193.813 2128.88 193.767 Q2129.02 193.72 2129.31 193.696 Q2129.7 193.673 2131.04 193.556 Q2132.37 193.415 2133.52 193.322 Q2134.67 193.228 2135.16 193.228 Q2135.44 193.228 2135.58 193.368 Q2135.75 193.485 2135.75 193.626 L2135.77 193.743 L2132.23 208.195 Q2135.02 205.314 2137.85 205.314 Q2140.69 205.314 2142.45 207.492 Q2144.23 209.67 2144.23 212.973 M2140.76 210.865 Q2140.76 208.64 2139.92 207.516 Q2139.1 206.368 2137.74 206.368 Q2136.59 206.368 2135.09 207.234 Q2133.59 208.101 2132 210.209 Q2131.69 210.607 2131.58 210.842 Q2131.48 211.076 2131.27 211.872 L2130.22 216.299 Q2129.45 219.32 2129.45 221.147 Q2129.45 223.63 2130.36 224.801 Q2131.27 225.972 2132.65 225.972 Q2134.11 225.972 2135.63 224.684 Q2137.15 223.396 2138.32 221.054 Q2139.05 219.508 2139.89 216.182 Q2140.76 212.832 2140.76 210.865 Z" fill="#000000" fill-rule="evenodd" fill-opacity="1" /><path clip-path="url(#clip840)" d="M2160.23 219.227 Q2160.28 218.641 2161.19 218.641 L2190.59 218.641 Q2191.97 218.641 2191.99 219.18 Q2191.99 219.765 2190.68 219.742 L2161.52 219.742 Q2160.23 219.765 2160.23 219.227 M2160.23 209.858 Q2160.23 209.272 2161.24 209.296 L2190.54 209.296 Q2191.97 209.296 2191.99 209.858 Q2191.99 210.396 2190.78 210.396 L2161.19 210.396 Q2160.23 210.396 2160.23 209.858 Z" fill="#000000" fill-rule="evenodd" fill-opacity="1" /><path clip-path="url(#clip840)" d="M2210.49 226.511 Q2210.49 225.644 2210.56 225.387 Q2210.65 225.129 2211.02 224.731 L2220.23 214.472 Q2225.26 208.804 2225.26 203.862 Q2225.26 200.653 2223.58 198.357 Q2221.92 196.062 2218.85 196.062 Q2216.74 196.062 2214.96 197.35 Q2213.18 198.638 2212.36 200.934 Q2212.5 200.887 2212.99 200.887 Q2214.19 200.887 2214.84 201.636 Q2215.52 202.386 2215.52 203.393 Q2215.52 204.681 2214.68 205.314 Q2213.86 205.923 2213.04 205.923 Q2212.71 205.923 2212.27 205.853 Q2211.84 205.782 2211.16 205.126 Q2210.49 204.447 2210.49 203.253 Q2210.49 199.903 2213.01 197.233 Q2215.57 194.563 2219.46 194.563 Q2223.86 194.563 2226.74 197.186 Q2229.64 199.786 2229.64 203.862 Q2229.64 205.29 2229.2 206.602 Q2228.78 207.89 2228.19 208.897 Q2227.63 209.905 2226.08 211.521 Q2224.54 213.137 2223.3 214.285 Q2222.06 215.432 2219.27 217.868 L2214.19 222.81 L2222.83 222.81 Q2227.04 222.81 2227.37 222.436 Q2227.84 221.756 2228.43 218.173 L2229.64 218.173 L2228.29 226.511 L2210.49 226.511 Z" fill="#000000" fill-rule="evenodd" fill-opacity="1" /><polyline clip-path="url(#clip840)" style="stroke:#3da44d; stroke-linecap:butt; stroke-linejoin:round; stroke-width:4; stroke-opacity:1; fill:none" points="
  1827.46,275.093 1969.68,275.093 
  "/>
<path clip-path="url(#clip840)" d="M2015.36 280.128 Q2014.72 283.15 2013.9 284.883 Q2012.59 287.53 2010.37 287.53 Q2008.68 287.53 2007.49 286.499 Q2006.29 285.469 2006.01 283.923 Q2002.94 287.53 1999.76 287.53 Q1996.95 287.53 1995.17 285.398 Q1993.39 283.244 1993.39 279.847 Q1993.39 276.428 1995.07 273.148 Q1996.78 269.869 1999.48 267.832 Q2002.17 265.794 2004.93 265.794 Q2007.86 265.794 2009.36 268.862 Q2009.48 268.019 2010.02 267.387 Q2010.56 266.754 2011.38 266.754 Q2012.01 266.754 2012.38 267.105 Q2012.76 267.433 2012.76 268.042 Q2012.76 268.347 2012.43 269.682 L2010.7 276.381 L2009.64 280.714 Q2009.24 282.307 2009.13 282.892 Q2009.03 283.478 2009.03 284.251 Q2009.03 286.452 2010.46 286.452 Q2011.16 286.452 2011.73 286.007 Q2012.29 285.562 2012.73 284.625 Q2013.18 283.689 2013.46 282.822 Q2013.74 281.932 2014.12 280.527 Q2014.23 279.964 2014.33 279.824 Q2014.44 279.66 2014.77 279.66 Q2015.36 279.66 2015.36 280.128 M2008.78 271.064 Q2008.78 270.853 2008.61 270.268 Q2008.45 269.682 2008.07 268.862 Q2007.7 268.042 2006.88 267.457 Q2006.08 266.848 2005 266.848 Q2003.55 266.848 2002.03 268.089 Q2000.53 269.331 1999.43 271.439 Q1998.59 273.125 1997.67 276.662 Q1996.78 280.199 1996.78 281.955 Q1996.78 283.033 1997.02 283.993 Q1997.27 284.93 1998 285.703 Q1998.73 286.452 1999.85 286.452 Q2002.59 286.452 2005.29 283.056 Q2005.8 282.471 2005.92 282.236 Q2006.06 281.979 2006.25 281.276 L2008.63 271.884 Q2008.78 271.181 2008.78 271.064 Z" fill="#000000" fill-rule="evenodd" fill-opacity="1" /><path clip-path="url(#clip840)" d="M2031.81 279.707 Q2031.86 279.121 2032.77 279.121 L2062.17 279.121 Q2063.55 279.121 2063.57 279.66 Q2063.57 280.245 2062.26 280.222 L2033.1 280.222 Q2031.81 280.245 2031.81 279.707 M2031.81 270.338 Q2031.81 269.752 2032.82 269.776 L2062.12 269.776 Q2063.55 269.776 2063.57 270.338 Q2063.57 270.876 2062.35 270.876 L2032.77 270.876 Q2031.81 270.876 2031.81 270.338 Z" fill="#000000" fill-rule="evenodd" fill-opacity="1" /><path clip-path="url(#clip840)" d="M2082.06 286.991 Q2082.06 286.124 2082.13 285.867 Q2082.23 285.609 2082.6 285.211 L2091.81 274.952 Q2096.84 269.284 2096.84 264.342 Q2096.84 261.133 2095.15 258.837 Q2093.49 256.542 2090.42 256.542 Q2088.32 256.542 2086.54 257.83 Q2084.76 259.118 2083.94 261.414 Q2084.08 261.367 2084.57 261.367 Q2085.76 261.367 2086.42 262.116 Q2087.1 262.866 2087.1 263.873 Q2087.1 265.161 2086.25 265.794 Q2085.43 266.403 2084.61 266.403 Q2084.29 266.403 2083.84 266.333 Q2083.42 266.262 2082.74 265.606 Q2082.06 264.927 2082.06 263.733 Q2082.06 260.383 2084.59 257.713 Q2087.14 255.043 2091.03 255.043 Q2095.44 255.043 2098.32 257.666 Q2101.22 260.266 2101.22 264.342 Q2101.22 265.77 2100.78 267.082 Q2100.35 268.37 2099.77 269.377 Q2099.21 270.385 2097.66 272.001 Q2096.11 273.617 2094.87 274.765 Q2093.63 275.912 2090.84 278.348 L2085.76 283.29 L2094.41 283.29 Q2098.62 283.29 2098.95 282.916 Q2099.42 282.236 2100 278.653 L2101.22 278.653 L2099.86 286.991 L2082.06 286.991 Z" fill="#000000" fill-rule="evenodd" fill-opacity="1" /><path clip-path="url(#clip840)" d="M2106.49 286.218 Q2105.81 285.445 2105.81 284.438 Q2105.81 283.431 2106.47 282.681 Q2107.15 281.908 2108.36 281.908 Q2109.79 281.908 2110.61 283.29 Q2111.43 284.649 2111.43 286.944 Q2111.43 289.427 2110.43 291.722 Q2109.42 294.041 2108.43 295.142 Q2107.45 296.243 2107.05 296.243 Q2106.58 296.243 2106.58 295.728 Q2106.58 295.54 2106.91 295.189 Q2110.36 291.488 2110.38 286.944 Q2110.38 286.218 2110.29 286.218 L2110.17 286.312 Q2109.35 286.991 2108.36 286.991 Q2107.17 286.991 2106.49 286.218 Z" fill="#000000" fill-rule="evenodd" fill-opacity="1" /><path clip-path="url(#clip840)" d="M2144.23 273.453 Q2144.23 276.826 2142.52 280.128 Q2140.83 283.407 2138.11 285.469 Q2135.42 287.53 2132.65 287.53 Q2129.96 287.53 2128.25 285.469 Q2126.56 283.384 2126.56 279.988 Q2126.56 278.793 2126.71 277.95 Q2126.85 277.107 2127.34 275.139 L2131.27 259.493 Q2131.95 256.565 2131.95 256.542 Q2131.95 256.261 2131.83 256.12 Q2131.74 255.956 2131.18 255.839 Q2130.62 255.722 2129.54 255.722 Q2129.09 255.722 2128.88 255.699 Q2128.7 255.675 2128.53 255.558 Q2128.39 255.418 2128.39 255.137 Q2128.39 254.738 2128.56 254.528 Q2128.74 254.293 2128.88 254.247 Q2129.02 254.2 2129.31 254.176 Q2129.7 254.153 2131.04 254.036 Q2132.37 253.895 2133.52 253.802 Q2134.67 253.708 2135.16 253.708 Q2135.44 253.708 2135.58 253.848 Q2135.75 253.965 2135.75 254.106 L2135.77 254.223 L2132.23 268.675 Q2135.02 265.794 2137.85 265.794 Q2140.69 265.794 2142.45 267.972 Q2144.23 270.15 2144.23 273.453 M2140.76 271.345 Q2140.76 269.12 2139.92 267.996 Q2139.1 266.848 2137.74 266.848 Q2136.59 266.848 2135.09 267.714 Q2133.59 268.581 2132 270.689 Q2131.69 271.087 2131.58 271.322 Q2131.48 271.556 2131.27 272.352 L2130.22 276.779 Q2129.45 279.8 2129.45 281.627 Q2129.45 284.11 2130.36 285.281 Q2131.27 286.452 2132.65 286.452 Q2134.11 286.452 2135.63 285.164 Q2137.15 283.876 2138.32 281.534 Q2139.05 279.988 2139.89 276.662 Q2140.76 273.312 2140.76 271.345 Z" fill="#000000" fill-rule="evenodd" fill-opacity="1" /><path clip-path="url(#clip840)" d="M2160.23 279.707 Q2160.28 279.121 2161.19 279.121 L2190.59 279.121 Q2191.97 279.121 2191.99 279.66 Q2191.99 280.245 2190.68 280.222 L2161.52 280.222 Q2160.23 280.245 2160.23 279.707 M2160.23 270.338 Q2160.23 269.752 2161.24 269.776 L2190.54 269.776 Q2191.97 269.776 2191.99 270.338 Q2191.99 270.876 2190.78 270.876 L2161.19 270.876 Q2160.23 270.876 2160.23 270.338 Z" fill="#000000" fill-rule="evenodd" fill-opacity="1" /><path clip-path="url(#clip840)" d="M2210.49 280.527 Q2210.49 279.098 2211.3 278.419 Q2212.12 277.739 2213.18 277.739 Q2214.28 277.739 2215.05 278.465 Q2215.85 279.168 2215.85 280.409 Q2215.85 281.744 2214.91 282.494 Q2214 283.244 2212.69 283.056 Q2213.83 284.977 2215.94 285.843 Q2218.07 286.71 2220.04 286.71 Q2222.1 286.71 2223.77 284.93 Q2225.45 283.15 2225.45 278.793 Q2225.45 275.093 2224 272.961 Q2222.57 270.83 2219.74 270.83 L2217.63 270.83 Q2216.9 270.83 2216.69 270.759 Q2216.48 270.689 2216.48 270.291 Q2216.48 269.822 2217.21 269.729 Q2217.93 269.729 2219.08 269.588 Q2221.87 269.495 2223.34 267.082 Q2224.68 264.833 2224.68 261.625 Q2224.68 258.697 2223.27 257.479 Q2221.89 256.237 2220.09 256.237 Q2218.4 256.237 2216.55 256.94 Q2214.7 257.643 2213.69 259.212 Q2216.67 259.212 2216.67 261.625 Q2216.67 262.679 2215.99 263.381 Q2215.33 264.061 2214.23 264.061 Q2213.18 264.061 2212.48 263.405 Q2211.77 262.725 2211.77 261.578 Q2211.77 258.837 2214.21 256.94 Q2216.67 255.043 2220.28 255.043 Q2223.84 255.043 2226.46 256.917 Q2229.11 258.791 2229.11 261.671 Q2229.11 264.506 2227.23 266.824 Q2225.36 269.143 2222.38 270.104 Q2226.04 270.83 2228.22 273.312 Q2230.39 275.772 2230.39 278.793 Q2230.39 282.541 2227.44 285.305 Q2224.49 288.045 2220.18 288.045 Q2216.2 288.045 2213.34 285.89 Q2210.49 283.735 2210.49 280.527 Z" fill="#000000" fill-rule="evenodd" fill-opacity="1" /></svg>
