<?xml version="1.0" encoding="utf-8"?>
<svg xmlns="http://www.w3.org/2000/svg" xmlns:xlink="http://www.w3.org/1999/xlink" width="600" height="400" viewBox="0 0 2400 1600">
<defs>
  <clipPath id="clip630">
    <rect x="0" y="0" width="2400" height="1600"/>
  </clipPath>
</defs>
<path clip-path="url(#clip630)" d="
M0 1600 L2400 1600 L2400 0 L0 0  Z
  " fill="#ffffff" fill-rule="evenodd" fill-opacity="1"/>
<defs>
  <clipPath id="clip631">
    <rect x="480" y="0" width="1681" height="1600"/>
  </clipPath>
</defs>
<defs>
  <clipPath id="clip632">
    <rect x="219" y="47" width="2134" height="1393"/>
  </clipPath>
</defs>
<path clip-path="url(#clip630)" d="
M219.866 1439.5 L2352.76 1439.5 L2352.76 47.2441 L219.866 47.2441  Z
  " fill="#ffffff" fill-rule="evenodd" fill-opacity="1"/>
<polyline clip-path="url(#clip632)" style="stroke:#000000; stroke-linecap:butt; stroke-linejoin:round; stroke-width:2; stroke-opacity:0.1; fill:none" points="
  468.094,1439.5 468.094,47.2441 
  "/>
<polyline clip-path="url(#clip632)" style="stroke:#000000; stroke-linecap:butt; stroke-linejoin:round; stroke-width:2; stroke-opacity:0.1; fill:none" points="
  795.381,1439.5 795.381,47.2441 
  "/>
<polyline clip-path="url(#clip632)" style="stroke:#000000; stroke-linecap:butt; stroke-linejoin:round; stroke-width:2; stroke-opacity:0.1; fill:none" points="
  1122.67,1439.5 1122.67,47.2441 
  "/>
<polyline clip-path="url(#clip632)" style="stroke:#000000; stroke-linecap:butt; stroke-linejoin:round; stroke-width:2; stroke-opacity:0.1; fill:none" points="
  1449.95,1439.5 1449.95,47.2441 
  "/>
<polyline clip-path="url(#clip632)" style="stroke:#000000; stroke-linecap:butt; stroke-linejoin:round; stroke-width:2; stroke-opacity:0.1; fill:none" points="
  1777.24,1439.5 1777.24,47.2441 
  "/>
<polyline clip-path="url(#clip632)" style="stroke:#000000; stroke-linecap:butt; stroke-linejoin:round; stroke-width:2; stroke-opacity:0.1; fill:none" points="
  2104.53,1439.5 2104.53,47.2441 
  "/>
<polyline clip-path="url(#clip630)" style="stroke:#000000; stroke-linecap:butt; stroke-linejoin:round; stroke-width:4; stroke-opacity:1; fill:none" points="
  219.866,1439.5 2352.76,1439.5 
  "/>
<polyline clip-path="url(#clip630)" style="stroke:#000000; stroke-linecap:butt; stroke-linejoin:round; stroke-width:4; stroke-opacity:1; fill:none" points="
  468.094,1439.5 468.094,1422.79 
  "/>
<polyline clip-path="url(#clip630)" style="stroke:#000000; stroke-linecap:butt; stroke-linejoin:round; stroke-width:4; stroke-opacity:1; fill:none" points="
  795.381,1439.5 795.381,1422.79 
  "/>
<polyline clip-path="url(#clip630)" style="stroke:#000000; stroke-linecap:butt; stroke-linejoin:round; stroke-width:4; stroke-opacity:1; fill:none" points="
  1122.67,1439.5 1122.67,1422.79 
  "/>
<polyline clip-path="url(#clip630)" style="stroke:#000000; stroke-linecap:butt; stroke-linejoin:round; stroke-width:4; stroke-opacity:1; fill:none" points="
  1449.95,1439.5 1449.95,1422.79 
  "/>
<polyline clip-path="url(#clip630)" style="stroke:#000000; stroke-linecap:butt; stroke-linejoin:round; stroke-width:4; stroke-opacity:1; fill:none" points="
  1777.24,1439.5 1777.24,1422.79 
  "/>
<polyline clip-path="url(#clip630)" style="stroke:#000000; stroke-linecap:butt; stroke-linejoin:round; stroke-width:4; stroke-opacity:1; fill:none" points="
  2104.53,1439.5 2104.53,1422.79 
  "/>
<path clip-path="url(#clip630)" d="M468.094 1468.69 Q464.483 1468.69 462.654 1472.26 Q460.848 1475.8 460.848 1482.93 Q460.848 1490.04 462.654 1493.6 Q464.483 1497.14 468.094 1497.14 Q471.728 1497.14 473.534 1493.6 Q475.362 1490.04 475.362 1482.93 Q475.362 1475.8 473.534 1472.26 Q471.728 1468.69 468.094 1468.69 M468.094 1464.99 Q473.904 1464.99 476.959 1469.6 Q480.038 1474.18 480.038 1482.93 Q480.038 1491.66 476.959 1496.26 Q473.904 1500.85 468.094 1500.85 Q462.284 1500.85 459.205 1496.26 Q456.149 1491.66 456.149 1482.93 Q456.149 1474.18 459.205 1469.6 Q462.284 1464.99 468.094 1464.99 Z" fill="#000000" fill-rule="evenodd" fill-opacity="1" /><path clip-path="url(#clip630)" d="M785.763 1496.24 L793.402 1496.24 L793.402 1469.87 L785.091 1471.54 L785.091 1467.28 L793.355 1465.61 L798.031 1465.61 L798.031 1496.24 L805.67 1496.24 L805.67 1500.17 L785.763 1500.17 L785.763 1496.24 Z" fill="#000000" fill-rule="evenodd" fill-opacity="1" /><path clip-path="url(#clip630)" d="M1117.32 1496.24 L1133.64 1496.24 L1133.64 1500.17 L1111.7 1500.17 L1111.7 1496.24 Q1114.36 1493.48 1118.94 1488.85 Q1123.55 1484.2 1124.73 1482.86 Q1126.97 1480.34 1127.85 1478.6 Q1128.76 1476.84 1128.76 1475.15 Q1128.76 1472.4 1126.81 1470.66 Q1124.89 1468.92 1121.79 1468.92 Q1119.59 1468.92 1117.14 1469.69 Q1114.7 1470.45 1111.93 1472 L1111.93 1467.28 Q1114.75 1466.15 1117.2 1465.57 Q1119.66 1464.99 1121.7 1464.99 Q1127.07 1464.99 1130.26 1467.67 Q1133.45 1470.36 1133.45 1474.85 Q1133.45 1476.98 1132.64 1478.9 Q1131.86 1480.8 1129.75 1483.39 Q1129.17 1484.06 1126.07 1487.28 Q1122.97 1490.47 1117.32 1496.24 Z" fill="#000000" fill-rule="evenodd" fill-opacity="1" /><path clip-path="url(#clip630)" d="M1454.2 1481.54 Q1457.56 1482.26 1459.43 1484.53 Q1461.33 1486.79 1461.33 1490.13 Q1461.33 1495.24 1457.81 1498.04 Q1454.29 1500.85 1447.81 1500.85 Q1445.64 1500.85 1443.32 1500.41 Q1441.03 1499.99 1438.58 1499.13 L1438.58 1494.62 Q1440.52 1495.75 1442.84 1496.33 Q1445.15 1496.91 1447.67 1496.91 Q1452.07 1496.91 1454.36 1495.17 Q1456.68 1493.44 1456.68 1490.13 Q1456.68 1487.07 1454.53 1485.36 Q1452.4 1483.62 1448.58 1483.62 L1444.55 1483.62 L1444.55 1479.78 L1448.76 1479.78 Q1452.21 1479.78 1454.04 1478.41 Q1455.87 1477.03 1455.87 1474.43 Q1455.87 1471.77 1453.97 1470.36 Q1452.1 1468.92 1448.58 1468.92 Q1446.66 1468.92 1444.46 1469.34 Q1442.26 1469.76 1439.62 1470.64 L1439.62 1466.47 Q1442.28 1465.73 1444.6 1465.36 Q1446.93 1464.99 1448.99 1464.99 Q1454.32 1464.99 1457.42 1467.42 Q1460.52 1469.83 1460.52 1473.95 Q1460.52 1476.82 1458.88 1478.81 Q1457.23 1480.78 1454.2 1481.54 Z" fill="#000000" fill-rule="evenodd" fill-opacity="1" /><path clip-path="url(#clip630)" d="M1780.25 1469.69 L1768.45 1488.14 L1780.25 1488.14 L1780.25 1469.69 M1779.02 1465.61 L1784.9 1465.61 L1784.9 1488.14 L1789.83 1488.14 L1789.83 1492.03 L1784.9 1492.03 L1784.9 1500.17 L1780.25 1500.17 L1780.25 1492.03 L1764.65 1492.03 L1764.65 1487.51 L1779.02 1465.61 Z" fill="#000000" fill-rule="evenodd" fill-opacity="1" /><path clip-path="url(#clip630)" d="M2094.81 1465.61 L2113.16 1465.61 L2113.16 1469.55 L2099.09 1469.55 L2099.09 1478.02 Q2100.11 1477.67 2101.13 1477.51 Q2102.14 1477.33 2103.16 1477.33 Q2108.95 1477.33 2112.33 1480.5 Q2115.71 1483.67 2115.71 1489.09 Q2115.71 1494.66 2112.24 1497.77 Q2108.76 1500.85 2102.45 1500.85 Q2100.27 1500.85 2098 1500.47 Q2095.76 1500.1 2093.35 1499.36 L2093.35 1494.66 Q2095.43 1495.8 2097.65 1496.35 Q2099.88 1496.91 2102.35 1496.91 Q2106.36 1496.91 2108.7 1494.8 Q2111.03 1492.7 2111.03 1489.09 Q2111.03 1485.47 2108.7 1483.37 Q2106.36 1481.26 2102.35 1481.26 Q2100.48 1481.26 2098.6 1481.68 Q2096.75 1482.1 2094.81 1482.97 L2094.81 1465.61 Z" fill="#000000" fill-rule="evenodd" fill-opacity="1" /><path clip-path="url(#clip630)" d="M1298.25 1535.75 Q1298.25 1541.16 1296.51 1547.24 Q1294.8 1553.3 1292.09 1558.19 Q1289.39 1563.06 1285.85 1566.28 Q1282.3 1569.47 1278.92 1569.47 Q1276.76 1569.47 1275.15 1568.27 Q1273.58 1567.05 1272.71 1565.02 Q1271.84 1562.96 1271.42 1560.71 Q1271 1558.42 1271 1555.94 Q1271 1552.24 1271.8 1548.21 Q1272.61 1544.15 1273.96 1540.48 Q1275.32 1536.78 1277.22 1533.43 Q1279.12 1530.05 1281.21 1527.6 Q1283.33 1525.12 1285.72 1523.67 Q1288.1 1522.22 1290.32 1522.22 Q1291.93 1522.22 1293.22 1522.93 Q1294.54 1523.6 1295.38 1524.8 Q1296.22 1525.96 1296.8 1527.34 Q1297.41 1528.73 1297.7 1530.34 Q1297.99 1531.91 1298.12 1533.23 Q1298.25 1534.52 1298.25 1535.75 M1293.9 1531.66 Q1293.9 1530.01 1293.77 1528.79 Q1293.64 1527.53 1293.29 1526.28 Q1292.93 1525.02 1292.16 1524.35 Q1291.42 1523.67 1290.26 1523.67 Q1286.88 1523.67 1283.08 1530.59 Q1281.85 1532.75 1280.76 1535.68 Q1279.66 1538.61 1279.28 1540 Q1278.89 1541.38 1277.99 1544.8 L1291.77 1544.8 Q1293.9 1536 1293.9 1531.66 M1291.19 1546.89 L1277.47 1546.89 Q1275.35 1554.94 1275.35 1559.96 Q1275.35 1564.34 1276.25 1566.18 Q1277.18 1567.98 1278.92 1567.98 Q1280.92 1567.98 1282.79 1565.99 Q1284.66 1563.96 1286.56 1560.29 Q1289.07 1555.52 1291.19 1546.89 Z" fill="#000000" fill-rule="evenodd" fill-opacity="1" /><polyline clip-path="url(#clip632)" style="stroke:#000000; stroke-linecap:butt; stroke-linejoin:round; stroke-width:2; stroke-opacity:0.1; fill:none" points="
  219.866,1400.1 2352.76,1400.1 
  "/>
<polyline clip-path="url(#clip632)" style="stroke:#000000; stroke-linecap:butt; stroke-linejoin:round; stroke-width:2; stroke-opacity:0.1; fill:none" points="
  219.866,1079.43 2352.76,1079.43 
  "/>
<polyline clip-path="url(#clip632)" style="stroke:#000000; stroke-linecap:butt; stroke-linejoin:round; stroke-width:2; stroke-opacity:0.1; fill:none" points="
  219.866,758.765 2352.76,758.765 
  "/>
<polyline clip-path="url(#clip632)" style="stroke:#000000; stroke-linecap:butt; stroke-linejoin:round; stroke-width:2; stroke-opacity:0.1; fill:none" points="
  219.866,438.098 2352.76,438.098 
  "/>
<polyline clip-path="url(#clip632)" style="stroke:#000000; stroke-linecap:butt; stroke-linejoin:round; stroke-width:2; stroke-opacity:0.1; fill:none" points="
  219.866,117.432 2352.76,117.432 
  "/>
<polyline clip-path="url(#clip630)" style="stroke:#000000; stroke-linecap:butt; stroke-linejoin:round; stroke-width:4; stroke-opacity:1; fill:none" points="
  219.866,1439.5 219.866,47.2441 
  "/>
<polyline clip-path="url(#clip630)" style="stroke:#000000; stroke-linecap:butt; stroke-linejoin:round; stroke-width:4; stroke-opacity:1; fill:none" points="
  219.866,1400.1 245.461,1400.1 
  "/>
<polyline clip-path="url(#clip630)" style="stroke:#000000; stroke-linecap:butt; stroke-linejoin:round; stroke-width:4; stroke-opacity:1; fill:none" points="
  219.866,1079.43 245.461,1079.43 
  "/>
<polyline clip-path="url(#clip630)" style="stroke:#000000; stroke-linecap:butt; stroke-linejoin:round; stroke-width:4; stroke-opacity:1; fill:none" points="
  219.866,758.765 245.461,758.765 
  "/>
<polyline clip-path="url(#clip630)" style="stroke:#000000; stroke-linecap:butt; stroke-linejoin:round; stroke-width:4; stroke-opacity:1; fill:none" points="
  219.866,438.098 245.461,438.098 
  "/>
<polyline clip-path="url(#clip630)" style="stroke:#000000; stroke-linecap:butt; stroke-linejoin:round; stroke-width:4; stroke-opacity:1; fill:none" points="
  219.866,117.432 245.461,117.432 
  "/>
<path clip-path="url(#clip630)" d="M126.691 1385.9 Q123.08 1385.9 121.251 1389.46 Q119.445 1393 119.445 1400.13 Q119.445 1407.24 121.251 1410.8 Q123.08 1414.35 126.691 1414.35 Q130.325 1414.35 132.13 1410.8 Q133.959 1407.24 133.959 1400.13 Q133.959 1393 132.13 1389.46 Q130.325 1385.9 126.691 1385.9 M126.691 1382.19 Q132.501 1382.19 135.556 1386.8 Q138.635 1391.38 138.635 1400.13 Q138.635 1408.86 135.556 1413.47 Q132.501 1418.05 126.691 1418.05 Q120.88 1418.05 117.802 1413.47 Q114.746 1408.86 114.746 1400.13 Q114.746 1391.38 117.802 1386.8 Q120.88 1382.19 126.691 1382.19 Z" fill="#000000" fill-rule="evenodd" fill-opacity="1" /><path clip-path="url(#clip630)" d="M146.853 1411.5 L151.737 1411.5 L151.737 1417.38 L146.853 1417.38 L146.853 1411.5 Z" fill="#000000" fill-rule="evenodd" fill-opacity="1" /><path clip-path="url(#clip630)" d="M171.922 1385.9 Q168.311 1385.9 166.482 1389.46 Q164.677 1393 164.677 1400.13 Q164.677 1407.24 166.482 1410.8 Q168.311 1414.35 171.922 1414.35 Q175.556 1414.35 177.362 1410.8 Q179.19 1407.24 179.19 1400.13 Q179.19 1393 177.362 1389.46 Q175.556 1385.9 171.922 1385.9 M171.922 1382.19 Q177.732 1382.19 180.788 1386.8 Q183.866 1391.38 183.866 1400.13 Q183.866 1408.86 180.788 1413.47 Q177.732 1418.05 171.922 1418.05 Q166.112 1418.05 163.033 1413.47 Q159.978 1408.86 159.978 1400.13 Q159.978 1391.38 163.033 1386.8 Q166.112 1382.19 171.922 1382.19 Z" fill="#000000" fill-rule="evenodd" fill-opacity="1" /><path clip-path="url(#clip630)" d="M127.917 1065.23 Q124.306 1065.23 122.478 1068.8 Q120.672 1072.34 120.672 1079.47 Q120.672 1086.57 122.478 1090.14 Q124.306 1093.68 127.917 1093.68 Q131.552 1093.68 133.357 1090.14 Q135.186 1086.57 135.186 1079.47 Q135.186 1072.34 133.357 1068.8 Q131.552 1065.23 127.917 1065.23 M127.917 1061.53 Q133.728 1061.53 136.783 1066.13 Q139.862 1070.72 139.862 1079.47 Q139.862 1088.19 136.783 1092.8 Q133.728 1097.38 127.917 1097.38 Q122.107 1097.38 119.029 1092.8 Q115.973 1088.19 115.973 1079.47 Q115.973 1070.72 119.029 1066.13 Q122.107 1061.53 127.917 1061.53 Z" fill="#000000" fill-rule="evenodd" fill-opacity="1" /><path clip-path="url(#clip630)" d="M148.079 1090.83 L152.964 1090.83 L152.964 1096.71 L148.079 1096.71 L148.079 1090.83 Z" fill="#000000" fill-rule="evenodd" fill-opacity="1" /><path clip-path="url(#clip630)" d="M163.959 1092.78 L171.598 1092.78 L171.598 1066.41 L163.288 1068.08 L163.288 1063.82 L171.552 1062.15 L176.227 1062.15 L176.227 1092.78 L183.866 1092.78 L183.866 1096.71 L163.959 1096.71 L163.959 1092.78 Z" fill="#000000" fill-rule="evenodd" fill-opacity="1" /><path clip-path="url(#clip630)" d="M128.288 744.564 Q124.677 744.564 122.848 748.128 Q121.043 751.67 121.043 758.8 Q121.043 765.906 122.848 769.471 Q124.677 773.013 128.288 773.013 Q131.922 773.013 133.728 769.471 Q135.556 765.906 135.556 758.8 Q135.556 751.67 133.728 748.128 Q131.922 744.564 128.288 744.564 M128.288 740.86 Q134.098 740.86 137.154 745.466 Q140.232 750.05 140.232 758.8 Q140.232 767.527 137.154 772.133 Q134.098 776.716 128.288 776.716 Q122.478 776.716 119.399 772.133 Q116.343 767.527 116.343 758.8 Q116.343 750.05 119.399 745.466 Q122.478 740.86 128.288 740.86 Z" fill="#000000" fill-rule="evenodd" fill-opacity="1" /><path clip-path="url(#clip630)" d="M148.45 770.165 L153.334 770.165 L153.334 776.045 L148.45 776.045 L148.45 770.165 Z" fill="#000000" fill-rule="evenodd" fill-opacity="1" /><path clip-path="url(#clip630)" d="M167.547 772.11 L183.866 772.11 L183.866 776.045 L161.922 776.045 L161.922 772.11 Q164.584 769.355 169.167 764.726 Q173.774 760.073 174.954 758.73 Q177.2 756.207 178.079 754.471 Q178.982 752.712 178.982 751.022 Q178.982 748.267 177.038 746.531 Q175.116 744.795 172.014 744.795 Q169.815 744.795 167.362 745.559 Q164.931 746.323 162.153 747.874 L162.153 743.152 Q164.977 742.017 167.431 741.439 Q169.885 740.86 171.922 740.86 Q177.292 740.86 180.487 743.545 Q183.681 746.23 183.681 750.721 Q183.681 752.851 182.871 754.772 Q182.084 756.67 179.977 759.263 Q179.399 759.934 176.297 763.152 Q173.195 766.346 167.547 772.11 Z" fill="#000000" fill-rule="evenodd" fill-opacity="1" /><path clip-path="url(#clip630)" d="M127.339 423.897 Q123.728 423.897 121.899 427.462 Q120.093 431.003 120.093 438.133 Q120.093 445.239 121.899 448.804 Q123.728 452.346 127.339 452.346 Q130.973 452.346 132.779 448.804 Q134.607 445.239 134.607 438.133 Q134.607 431.003 132.779 427.462 Q130.973 423.897 127.339 423.897 M127.339 420.193 Q133.149 420.193 136.204 424.8 Q139.283 429.383 139.283 438.133 Q139.283 446.86 136.204 451.466 Q133.149 456.05 127.339 456.05 Q121.529 456.05 118.45 451.466 Q115.394 446.86 115.394 438.133 Q115.394 429.383 118.45 424.8 Q121.529 420.193 127.339 420.193 Z" fill="#000000" fill-rule="evenodd" fill-opacity="1" /><path clip-path="url(#clip630)" d="M147.501 449.499 L152.385 449.499 L152.385 455.378 L147.501 455.378 L147.501 449.499 Z" fill="#000000" fill-rule="evenodd" fill-opacity="1" /><path clip-path="url(#clip630)" d="M176.737 436.744 Q180.093 437.462 181.968 439.73 Q183.866 441.999 183.866 445.332 Q183.866 450.448 180.348 453.249 Q176.829 456.05 170.348 456.05 Q168.172 456.05 165.857 455.61 Q163.565 455.193 161.112 454.337 L161.112 449.823 Q163.056 450.957 165.371 451.536 Q167.686 452.114 170.209 452.114 Q174.607 452.114 176.899 450.378 Q179.214 448.642 179.214 445.332 Q179.214 442.277 177.061 440.564 Q174.931 438.827 171.112 438.827 L167.084 438.827 L167.084 434.985 L171.297 434.985 Q174.746 434.985 176.575 433.619 Q178.403 432.23 178.403 429.638 Q178.403 426.976 176.505 425.564 Q174.63 424.128 171.112 424.128 Q169.19 424.128 166.991 424.545 Q164.792 424.962 162.153 425.841 L162.153 421.675 Q164.815 420.934 167.13 420.564 Q169.468 420.193 171.528 420.193 Q176.852 420.193 179.954 422.624 Q183.056 425.031 183.056 429.152 Q183.056 432.022 181.413 434.013 Q179.769 435.98 176.737 436.744 Z" fill="#000000" fill-rule="evenodd" fill-opacity="1" /><path clip-path="url(#clip630)" d="M126.205 103.23 Q122.593 103.23 120.765 106.795 Q118.959 110.337 118.959 117.466 Q118.959 124.573 120.765 128.138 Q122.593 131.679 126.205 131.679 Q129.839 131.679 131.644 128.138 Q133.473 124.573 133.473 117.466 Q133.473 110.337 131.644 106.795 Q129.839 103.23 126.205 103.23 M126.205 99.5266 Q132.015 99.5266 135.07 104.133 Q138.149 108.716 138.149 117.466 Q138.149 126.193 135.07 130.8 Q132.015 135.383 126.205 135.383 Q120.394 135.383 117.316 130.8 Q114.26 126.193 114.26 117.466 Q114.26 108.716 117.316 104.133 Q120.394 99.5266 126.205 99.5266 Z" fill="#000000" fill-rule="evenodd" fill-opacity="1" /><path clip-path="url(#clip630)" d="M146.366 128.832 L151.251 128.832 L151.251 134.712 L146.366 134.712 L146.366 128.832 Z" fill="#000000" fill-rule="evenodd" fill-opacity="1" /><path clip-path="url(#clip630)" d="M174.283 104.226 L162.477 122.675 L174.283 122.675 L174.283 104.226 M173.056 100.152 L178.936 100.152 L178.936 122.675 L183.866 122.675 L183.866 126.564 L178.936 126.564 L178.936 134.712 L174.283 134.712 L174.283 126.564 L158.681 126.564 L158.681 122.05 L173.056 100.152 Z" fill="#000000" fill-rule="evenodd" fill-opacity="1" /><path clip-path="url(#clip630)" d="M16.4842 820.637 L16.4842 811.056 L48.8219 798.93 L16.4842 786.739 L16.4842 777.159 L64.0042 777.159 L64.0042 783.429 L22.277 783.429 L54.8694 795.683 L54.8694 802.144 L22.277 814.398 L64.0042 814.398 L64.0042 820.637 L16.4842 820.637 Z" fill="#000000" fill-rule="evenodd" fill-opacity="1" /><path clip-path="url(#clip630)" d="M46.0847 748.45 Q46.0847 755.547 47.7079 758.285 Q49.3312 761.022 53.2461 761.022 Q56.3653 761.022 58.2114 758.985 Q60.0256 756.916 60.0256 753.383 Q60.0256 748.513 56.5881 745.585 Q53.1188 742.625 47.3897 742.625 L46.0847 742.625 L46.0847 748.45 M43.6657 736.769 L64.0042 736.769 L64.0042 742.625 L58.5933 742.625 Q61.8398 744.63 63.3994 747.622 Q64.9272 750.614 64.9272 754.943 Q64.9272 760.417 61.8716 763.664 Q58.7843 766.878 53.6281 766.878 Q47.6125 766.878 44.5569 762.868 Q41.5014 758.826 41.5014 750.837 L41.5014 742.625 L40.9285 742.625 Q36.8862 742.625 34.6901 745.299 Q32.4621 747.94 32.4621 752.747 Q32.4621 755.802 33.1941 758.698 Q33.9262 761.595 35.3903 764.268 L29.9795 764.268 Q28.7381 761.054 28.1334 758.03 Q27.4968 755.006 27.4968 752.142 Q27.4968 744.407 31.5072 740.588 Q35.5176 736.769 43.6657 736.769 Z" fill="#000000" fill-rule="evenodd" fill-opacity="1" /><path clip-path="url(#clip630)" d="M29.4065 701.98 L34.9447 701.98 Q33.6716 704.463 33.035 707.136 Q32.3984 709.81 32.3984 712.674 Q32.3984 717.035 33.7352 719.231 Q35.072 721.395 37.7456 721.395 Q39.7826 721.395 40.9603 719.836 Q42.1061 718.276 43.1565 713.566 L43.6021 711.56 Q44.9389 705.322 47.3897 702.712 Q49.8086 700.07 54.1691 700.07 Q59.1344 700.07 62.0308 704.017 Q64.9272 707.932 64.9272 714.807 Q64.9272 717.671 64.3543 720.791 Q63.8132 723.878 62.6992 727.316 L56.6518 727.316 Q58.3387 724.069 59.198 720.918 Q60.0256 717.767 60.0256 714.68 Q60.0256 710.542 58.6251 708.314 Q57.1929 706.086 54.6147 706.086 Q52.2276 706.086 50.9545 707.709 Q49.6813 709.301 48.5037 714.743 L48.0262 716.78 Q46.8804 722.223 44.5251 724.642 Q42.138 727.061 38.0002 727.061 Q32.9713 727.061 30.2341 723.496 Q27.4968 719.931 27.4968 713.375 Q27.4968 710.128 27.9743 707.264 Q28.4517 704.399 29.4065 701.98 Z" fill="#000000" fill-rule="evenodd" fill-opacity="1" /><path clip-path="url(#clip630)" d="M29.4065 668.019 L34.9447 668.019 Q33.6716 670.502 33.035 673.175 Q32.3984 675.849 32.3984 678.713 Q32.3984 683.074 33.7352 685.27 Q35.072 687.434 37.7456 687.434 Q39.7826 687.434 40.9603 685.875 Q42.1061 684.315 43.1565 679.605 L43.6021 677.599 Q44.9389 671.361 47.3897 668.751 Q49.8086 666.109 54.1691 666.109 Q59.1344 666.109 62.0308 670.056 Q64.9272 673.971 64.9272 680.846 Q64.9272 683.71 64.3543 686.83 Q63.8132 689.917 62.6992 693.354 L56.6518 693.354 Q58.3387 690.108 59.198 686.957 Q60.0256 683.806 60.0256 680.719 Q60.0256 676.581 58.6251 674.353 Q57.1929 672.125 54.6147 672.125 Q52.2276 672.125 50.9545 673.748 Q49.6813 675.34 48.5037 680.782 L48.0262 682.819 Q46.8804 688.262 44.5251 690.681 Q42.138 693.1 38.0002 693.1 Q32.9713 693.1 30.2341 689.535 Q27.4968 685.97 27.4968 679.414 Q27.4968 676.167 27.9743 673.302 Q28.4517 670.438 29.4065 668.019 Z" fill="#000000" fill-rule="evenodd" fill-opacity="1" /><path clip-path="url(#clip632)" d="
M337.179 1299.89 L337.179 1400.1 L599.009 1400.1 L599.009 1299.89 L337.179 1299.89 L337.179 1299.89  Z
  " fill="#009af9" fill-rule="evenodd" fill-opacity="0.3"/>
<polyline clip-path="url(#clip632)" style="stroke:#000000; stroke-linecap:butt; stroke-linejoin:round; stroke-width:4; stroke-opacity:0.3; fill:none" points="
  337.179,1299.89 337.179,1400.1 599.009,1400.1 599.009,1299.89 337.179,1299.89 
  "/>
<path clip-path="url(#clip632)" d="
M664.466 899.057 L664.466 1400.1 L926.295 1400.1 L926.295 899.057 L664.466 899.057 L664.466 899.057  Z
  " fill="#009af9" fill-rule="evenodd" fill-opacity="0.3"/>
<polyline clip-path="url(#clip632)" style="stroke:#000000; stroke-linecap:butt; stroke-linejoin:round; stroke-width:4; stroke-opacity:0.3; fill:none" points="
  664.466,899.057 664.466,1400.1 926.295,1400.1 926.295,899.057 664.466,899.057 
  "/>
<path clip-path="url(#clip632)" d="
M991.753 398.015 L991.753 1400.1 L1253.58 1400.1 L1253.58 398.015 L991.753 398.015 L991.753 398.015  Z
  " fill="#009af9" fill-rule="evenodd" fill-opacity="0.3"/>
<polyline clip-path="url(#clip632)" style="stroke:#000000; stroke-linecap:butt; stroke-linejoin:round; stroke-width:4; stroke-opacity:0.3; fill:none" points="
  991.753,398.015 991.753,1400.1 1253.58,1400.1 1253.58,398.015 991.753,398.015 
  "/>
<path clip-path="url(#clip632)" d="
M1319.04 398.015 L1319.04 1400.1 L1580.87 1400.1 L1580.87 398.015 L1319.04 398.015 L1319.04 398.015  Z
  " fill="#009af9" fill-rule="evenodd" fill-opacity="0.3"/>
<polyline clip-path="url(#clip632)" style="stroke:#000000; stroke-linecap:butt; stroke-linejoin:round; stroke-width:4; stroke-opacity:0.3; fill:none" points="
  1319.04,398.015 1319.04,1400.1 1580.87,1400.1 1580.87,398.015 1319.04,398.015 
  "/>
<path clip-path="url(#clip632)" d="
M1646.33 899.057 L1646.33 1400.1 L1908.16 1400.1 L1908.16 899.057 L1646.33 899.057 L1646.33 899.057  Z
  " fill="#009af9" fill-rule="evenodd" fill-opacity="0.3"/>
<polyline clip-path="url(#clip632)" style="stroke:#000000; stroke-linecap:butt; stroke-linejoin:round; stroke-width:4; stroke-opacity:0.3; fill:none" points="
  1646.33,899.057 1646.33,1400.1 1908.16,1400.1 1908.16,899.057 1646.33,899.057 
  "/>
<path clip-path="url(#clip632)" d="
M1973.61 1299.89 L1973.61 1400.1 L2235.44 1400.1 L2235.44 1299.89 L1973.61 1299.89 L1973.61 1299.89  Z
  " fill="#009af9" fill-rule="evenodd" fill-opacity="0.3"/>
<polyline clip-path="url(#clip632)" style="stroke:#000000; stroke-linecap:butt; stroke-linejoin:round; stroke-width:4; stroke-opacity:0.3; fill:none" points="
  1973.61,1299.89 1973.61,1400.1 2235.44,1400.1 2235.44,1299.89 1973.61,1299.89 
  "/>
<path clip-path="url(#clip632)" d="
M337.179 349.338 L337.179 1400.1 L599.009 1400.1 L599.009 349.338 L337.179 349.338 L337.179 349.338  Z
  " fill="#e26f46" fill-rule="evenodd" fill-opacity="0.3"/>
<polyline clip-path="url(#clip632)" style="stroke:#000000; stroke-linecap:butt; stroke-linejoin:round; stroke-width:4; stroke-opacity:0.3; fill:none" points="
  337.179,349.338 337.179,1400.1 599.009,1400.1 599.009,349.338 337.179,349.338 
  "/>
<path clip-path="url(#clip632)" d="
M664.466 86.6476 L664.466 1400.1 L926.295 1400.1 L926.295 86.6476 L664.466 86.6476 L664.466 86.6476  Z
  " fill="#e26f46" fill-rule="evenodd" fill-opacity="0.3"/>
<polyline clip-path="url(#clip632)" style="stroke:#000000; stroke-linecap:butt; stroke-linejoin:round; stroke-width:4; stroke-opacity:0.3; fill:none" points="
  664.466,86.6476 664.466,1400.1 926.295,1400.1 926.295,86.6476 664.466,86.6476 
  "/>
<path clip-path="url(#clip632)" d="
M991.753 743.373 L991.753 1400.1 L1253.58 1400.1 L1253.58 743.373 L991.753 743.373 L991.753 743.373  Z
  " fill="#e26f46" fill-rule="evenodd" fill-opacity="0.3"/>
<polyline clip-path="url(#clip632)" style="stroke:#000000; stroke-linecap:butt; stroke-linejoin:round; stroke-width:4; stroke-opacity:0.3; fill:none" points="
  991.753,743.373 991.753,1400.1 1253.58,1400.1 1253.58,743.373 991.753,743.373 
  "/>
<path clip-path="url(#clip632)" d="
M1319.04 1235.92 L1319.04 1400.1 L1580.87 1400.1 L1580.87 1235.92 L1319.04 1235.92 L1319.04 1235.92  Z
  " fill="#e26f46" fill-rule="evenodd" fill-opacity="0.3"/>
<polyline clip-path="url(#clip632)" style="stroke:#000000; stroke-linecap:butt; stroke-linejoin:round; stroke-width:4; stroke-opacity:0.3; fill:none" points="
  1319.04,1235.92 1319.04,1400.1 1580.87,1400.1 1580.87,1235.92 1319.04,1235.92 
  "/>
<path clip-path="url(#clip632)" d="
M1646.33 1379.58 L1646.33 1400.1 L1908.16 1400.1 L1908.16 1379.58 L1646.33 1379.58 L1646.33 1379.58  Z
  " fill="#e26f46" fill-rule="evenodd" fill-opacity="0.3"/>
<polyline clip-path="url(#clip632)" style="stroke:#000000; stroke-linecap:butt; stroke-linejoin:round; stroke-width:4; stroke-opacity:0.3; fill:none" points="
  1646.33,1379.58 1646.33,1400.1 1908.16,1400.1 1908.16,1379.58 1646.33,1379.58 
  "/>
<path clip-path="url(#clip632)" d="
M1973.61 1399.07 L1973.61 1400.1 L2235.44 1400.1 L2235.44 1399.07 L1973.61 1399.07 L1973.61 1399.07  Z
  " fill="#e26f46" fill-rule="evenodd" fill-opacity="0.3"/>
<polyline clip-path="url(#clip632)" style="stroke:#000000; stroke-linecap:butt; stroke-linejoin:round; stroke-width:4; stroke-opacity:0.3; fill:none" points="
  1973.61,1399.07 1973.61,1400.1 2235.44,1400.1 2235.44,1399.07 1973.61,1399.07 
  "/>
<path clip-path="url(#clip630)" d="
M1896.53 275.093 L2281.66 275.093 L2281.66 93.6527 L1896.53 93.6527  Z
  " fill="#ffffff" fill-rule="evenodd" fill-opacity="1"/>
<polyline clip-path="url(#clip630)" style="stroke:#000000; stroke-linecap:butt; stroke-linejoin:round; stroke-width:4; stroke-opacity:1; fill:none" points="
  1896.53,275.093 2281.66,275.093 2281.66,93.6527 1896.53,93.6527 1896.53,275.093 
  "/>
<path clip-path="url(#clip630)" d="
M1920.23 178.325 L2062.42 178.325 L2062.42 129.941 L1920.23 129.941 L1920.23 178.325  Z
  " fill="#009af9" fill-rule="evenodd" fill-opacity="0.3"/>
<polyline clip-path="url(#clip630)" style="stroke:#000000; stroke-linecap:butt; stroke-linejoin:round; stroke-width:4; stroke-opacity:1; fill:none" points="
  1920.23,178.325 2062.42,178.325 2062.42,129.941 1920.23,129.941 1920.23,178.325 
  "/>
<path clip-path="url(#clip630)" d="M2111.18 151.813 Q2111.18 155.233 2109.45 158.536 Q2107.74 161.838 2105.04 163.876 Q2102.35 165.89 2099.61 165.89 Q2097.97 165.89 2096.87 165 Q2095.79 164.087 2095.21 162.798 Q2094.76 164.391 2093.8 168.209 Q2092.84 172.027 2092.84 172.402 Q2092.84 172.612 2092.89 172.706 Q2092.94 172.8 2093.15 172.917 Q2093.36 173.057 2093.87 173.104 Q2094.39 173.175 2095.25 173.175 Q2095.7 173.175 2095.86 173.175 Q2096.05 173.198 2096.21 173.315 Q2096.4 173.432 2096.4 173.69 Q2096.4 174.65 2095.54 174.65 Q2094.76 174.65 2093.17 174.58 Q2091.58 174.51 2090.78 174.51 Q2090.1 174.51 2088.74 174.58 Q2087.38 174.65 2086.75 174.65 Q2086.12 174.65 2086.12 174.088 Q2086.12 173.76 2086.21 173.549 Q2086.28 173.362 2086.47 173.268 Q2086.66 173.198 2086.82 173.175 Q2086.96 173.175 2087.24 173.175 Q2088.32 173.175 2088.79 172.987 Q2089.26 172.823 2089.42 172.472 Q2089.61 172.144 2089.82 171.207 L2095.21 149.846 Q2095.54 148.417 2095.54 147.41 Q2095.54 146.145 2095.14 145.677 Q2094.74 145.208 2094.04 145.208 Q2092.82 145.208 2092.02 146.66 Q2091.23 148.113 2090.55 150.923 Q2090.34 151.696 2090.19 151.86 Q2090.08 152.024 2089.73 152.024 Q2089.14 152.001 2089.14 151.532 Q2089.14 151.415 2089.33 150.666 Q2089.52 149.893 2089.87 148.768 Q2090.24 147.621 2090.64 146.895 Q2090.87 146.403 2091.08 146.075 Q2091.3 145.747 2091.72 145.232 Q2092.16 144.716 2092.79 144.435 Q2093.43 144.154 2094.2 144.154 Q2095.7 144.154 2096.94 145.044 Q2098.18 145.934 2098.51 147.738 Q2099.84 146.168 2101.48 145.161 Q2103.12 144.154 2104.79 144.154 Q2107.55 144.154 2109.35 146.309 Q2111.18 148.44 2111.18 151.813 M2107.71 149.705 Q2107.71 147.574 2106.9 146.403 Q2106.1 145.208 2104.65 145.208 Q2102.84 145.208 2100.76 147.035 Q2098.7 148.768 2098.28 150.384 L2095.91 159.777 L2095.77 160.55 Q2095.77 160.69 2095.84 161.112 Q2095.93 161.51 2096.19 162.166 Q2096.47 162.822 2096.85 163.407 Q2097.25 163.97 2097.95 164.391 Q2098.67 164.813 2099.56 164.813 Q2100.99 164.813 2102.54 163.548 Q2104.11 162.283 2105.28 159.894 Q2106.01 158.348 2106.85 155.022 Q2107.71 151.673 2107.71 149.705 Z" fill="#000000" fill-rule="evenodd" fill-opacity="1" /><path clip-path="url(#clip630)" d="M2123.31 158.067 Q2123.36 157.481 2124.27 157.481 L2153.67 157.481 Q2155.05 157.481 2155.07 158.02 Q2155.07 158.606 2153.76 158.582 L2124.6 158.582 Q2123.31 158.606 2123.31 158.067 M2123.31 148.698 Q2123.31 148.113 2124.32 148.136 L2153.62 148.136 Q2155.05 148.136 2155.07 148.698 Q2155.07 149.237 2153.86 149.237 L2124.27 149.237 Q2123.31 149.237 2123.31 148.698 Z" fill="#000000" fill-rule="evenodd" fill-opacity="1" /><path clip-path="url(#clip630)" d="M2173.57 150.01 Q2173.57 142.96 2175.35 139.118 Q2177.83 133.403 2183.68 133.403 Q2184.92 133.403 2186.21 133.755 Q2187.52 134.082 2189.16 135.371 Q2190.83 136.659 2191.83 138.767 Q2193.76 142.842 2193.76 150.01 Q2193.76 157.013 2191.98 160.831 Q2189.38 166.405 2183.64 166.405 Q2181.48 166.405 2179.28 165.305 Q2177.1 164.204 2175.72 161.557 Q2173.57 157.599 2173.57 150.01 M2177.55 149.424 Q2177.55 156.662 2178.06 159.543 Q2178.65 162.658 2180.24 164.016 Q2181.86 165.351 2183.64 165.351 Q2185.56 165.351 2187.15 163.923 Q2188.77 162.47 2189.26 159.355 Q2189.8 156.287 2189.77 149.424 Q2189.77 142.749 2189.3 140.079 Q2188.67 136.963 2186.99 135.722 Q2185.32 134.457 2183.64 134.457 Q2183 134.457 2182.33 134.645 Q2181.67 134.832 2180.71 135.371 Q2179.75 135.909 2179 137.245 Q2178.27 138.58 2177.92 140.594 Q2177.55 143.194 2177.55 149.424 Z" fill="#000000" fill-rule="evenodd" fill-opacity="1" /><path clip-path="url(#clip630)" d="M2198.04 164.578 Q2197.32 163.806 2197.32 162.798 Q2197.32 161.791 2198.04 161.065 Q2198.77 160.316 2199.87 160.316 Q2200.92 160.316 2201.62 161.018 Q2202.35 161.698 2202.35 162.822 Q2202.35 163.923 2201.58 164.649 Q2200.83 165.351 2199.87 165.351 Q2198.77 165.351 2198.04 164.578 Z" fill="#000000" fill-rule="evenodd" fill-opacity="1" /><path clip-path="url(#clip630)" d="M2210.51 157.622 Q2210.51 156.193 2211.28 155.655 Q2212.06 155.092 2212.88 155.092 Q2213.98 155.092 2214.61 155.795 Q2215.27 156.474 2215.27 157.435 Q2215.27 158.395 2214.61 159.098 Q2213.98 159.777 2212.88 159.777 Q2212.34 159.777 2212.06 159.683 Q2212.69 161.885 2214.61 163.478 Q2216.56 165.07 2219.11 165.07 Q2222.32 165.07 2224.24 161.955 Q2225.39 159.941 2225.39 155.373 Q2225.39 151.345 2224.52 149.33 Q2223.18 146.262 2220.44 146.262 Q2216.56 146.262 2214.26 149.612 Q2213.98 150.033 2213.65 150.057 Q2213.18 150.057 2213.07 149.799 Q2212.97 149.518 2212.97 148.792 L2212.97 134.598 Q2212.97 133.45 2213.44 133.45 Q2213.63 133.45 2214.03 133.591 Q2217.05 134.926 2220.4 134.949 Q2223.84 134.949 2226.93 133.544 Q2227.17 133.403 2227.31 133.403 Q2227.77 133.403 2227.8 133.942 Q2227.8 134.129 2227.4 134.691 Q2227.02 135.23 2226.21 135.956 Q2225.39 136.659 2224.33 137.338 Q2223.28 138.017 2221.73 138.486 Q2220.21 138.931 2218.52 138.931 Q2216.51 138.931 2214.45 138.299 L2214.45 147.644 Q2216.93 145.208 2220.54 145.208 Q2224.38 145.208 2227.02 148.3 Q2229.67 151.392 2229.67 155.701 Q2229.67 160.222 2226.53 163.314 Q2223.42 166.405 2219.2 166.405 Q2215.36 166.405 2212.92 163.665 Q2210.51 160.925 2210.51 157.622 Z" fill="#000000" fill-rule="evenodd" fill-opacity="1" /><path clip-path="url(#clip630)" d="
M1920.23 238.805 L2062.42 238.805 L2062.42 190.421 L1920.23 190.421 L1920.23 238.805  Z
  " fill="#e26f46" fill-rule="evenodd" fill-opacity="0.3"/>
<polyline clip-path="url(#clip630)" style="stroke:#000000; stroke-linecap:butt; stroke-linejoin:round; stroke-width:4; stroke-opacity:1; fill:none" points="
  1920.23,238.805 2062.42,238.805 2062.42,190.421 1920.23,190.421 1920.23,238.805 
  "/>
<path clip-path="url(#clip630)" d="M2111.18 212.293 Q2111.18 215.713 2109.45 219.016 Q2107.74 222.318 2105.04 224.356 Q2102.35 226.37 2099.61 226.37 Q2097.97 226.37 2096.87 225.48 Q2095.79 224.567 2095.21 223.278 Q2094.76 224.871 2093.8 228.689 Q2092.84 232.507 2092.84 232.882 Q2092.84 233.092 2092.89 233.186 Q2092.94 233.28 2093.15 233.397 Q2093.36 233.537 2093.87 233.584 Q2094.39 233.655 2095.25 233.655 Q2095.7 233.655 2095.86 233.655 Q2096.05 233.678 2096.21 233.795 Q2096.4 233.912 2096.4 234.17 Q2096.4 235.13 2095.54 235.13 Q2094.76 235.13 2093.17 235.06 Q2091.58 234.99 2090.78 234.99 Q2090.1 234.99 2088.74 235.06 Q2087.38 235.13 2086.75 235.13 Q2086.12 235.13 2086.12 234.568 Q2086.12 234.24 2086.21 234.029 Q2086.28 233.842 2086.47 233.748 Q2086.66 233.678 2086.82 233.655 Q2086.96 233.655 2087.24 233.655 Q2088.32 233.655 2088.79 233.467 Q2089.26 233.303 2089.42 232.952 Q2089.61 232.624 2089.82 231.687 L2095.21 210.326 Q2095.54 208.897 2095.54 207.89 Q2095.54 206.625 2095.14 206.157 Q2094.74 205.688 2094.04 205.688 Q2092.82 205.688 2092.02 207.14 Q2091.23 208.593 2090.55 211.403 Q2090.34 212.176 2090.19 212.34 Q2090.08 212.504 2089.73 212.504 Q2089.14 212.481 2089.14 212.012 Q2089.14 211.895 2089.33 211.146 Q2089.52 210.373 2089.87 209.248 Q2090.24 208.101 2090.64 207.375 Q2090.87 206.883 2091.08 206.555 Q2091.3 206.227 2091.72 205.712 Q2092.16 205.196 2092.79 204.915 Q2093.43 204.634 2094.2 204.634 Q2095.7 204.634 2096.94 205.524 Q2098.18 206.414 2098.51 208.218 Q2099.84 206.648 2101.48 205.641 Q2103.12 204.634 2104.79 204.634 Q2107.55 204.634 2109.35 206.789 Q2111.18 208.92 2111.18 212.293 M2107.71 210.185 Q2107.71 208.054 2106.9 206.883 Q2106.1 205.688 2104.65 205.688 Q2102.84 205.688 2100.76 207.515 Q2098.7 209.248 2098.28 210.864 L2095.91 220.257 L2095.77 221.03 Q2095.77 221.17 2095.84 221.592 Q2095.93 221.99 2096.19 222.646 Q2096.47 223.302 2096.85 223.887 Q2097.25 224.45 2097.95 224.871 Q2098.67 225.293 2099.56 225.293 Q2100.99 225.293 2102.54 224.028 Q2104.11 222.763 2105.28 220.374 Q2106.01 218.828 2106.85 215.502 Q2107.71 212.153 2107.71 210.185 Z" fill="#000000" fill-rule="evenodd" fill-opacity="1" /><path clip-path="url(#clip630)" d="M2123.31 218.547 Q2123.36 217.961 2124.27 217.961 L2153.67 217.961 Q2155.05 217.961 2155.07 218.5 Q2155.07 219.086 2153.76 219.062 L2124.6 219.062 Q2123.31 219.086 2123.31 218.547 M2123.31 209.178 Q2123.31 208.593 2124.32 208.616 L2153.62 208.616 Q2155.05 208.616 2155.07 209.178 Q2155.07 209.717 2153.86 209.717 L2124.27 209.717 Q2123.31 209.717 2123.31 209.178 Z" fill="#000000" fill-rule="evenodd" fill-opacity="1" /><path clip-path="url(#clip630)" d="M2173.57 210.49 Q2173.57 203.44 2175.35 199.598 Q2177.83 193.883 2183.68 193.883 Q2184.92 193.883 2186.21 194.235 Q2187.52 194.562 2189.16 195.851 Q2190.83 197.139 2191.83 199.247 Q2193.76 203.322 2193.76 210.49 Q2193.76 217.493 2191.98 221.311 Q2189.38 226.885 2183.64 226.885 Q2181.48 226.885 2179.28 225.785 Q2177.1 224.684 2175.72 222.037 Q2173.57 218.079 2173.57 210.49 M2177.55 209.904 Q2177.55 217.142 2178.06 220.023 Q2178.65 223.138 2180.24 224.496 Q2181.86 225.831 2183.64 225.831 Q2185.56 225.831 2187.15 224.403 Q2188.77 222.95 2189.26 219.835 Q2189.8 216.767 2189.77 209.904 Q2189.77 203.229 2189.3 200.559 Q2188.67 197.443 2186.99 196.202 Q2185.32 194.937 2183.64 194.937 Q2183 194.937 2182.33 195.125 Q2181.67 195.312 2180.71 195.851 Q2179.75 196.389 2179 197.725 Q2178.27 199.06 2177.92 201.074 Q2177.55 203.674 2177.55 209.904 Z" fill="#000000" fill-rule="evenodd" fill-opacity="1" /><path clip-path="url(#clip630)" d="M2198.04 225.058 Q2197.32 224.286 2197.32 223.278 Q2197.32 222.271 2198.04 221.545 Q2198.77 220.796 2199.87 220.796 Q2200.92 220.796 2201.62 221.498 Q2202.35 222.178 2202.35 223.302 Q2202.35 224.403 2201.58 225.129 Q2200.83 225.831 2199.87 225.831 Q2198.77 225.831 2198.04 225.058 Z" fill="#000000" fill-rule="evenodd" fill-opacity="1" /><path clip-path="url(#clip630)" d="M2210.51 225.831 Q2210.51 224.965 2210.58 224.707 Q2210.68 224.45 2211.05 224.051 L2220.26 213.792 Q2225.29 208.124 2225.29 203.182 Q2225.29 199.973 2223.61 197.678 Q2221.94 195.382 2218.87 195.382 Q2216.77 195.382 2214.99 196.67 Q2213.21 197.959 2212.39 200.254 Q2212.53 200.207 2213.02 200.207 Q2214.21 200.207 2214.87 200.957 Q2215.55 201.706 2215.55 202.713 Q2215.55 204.002 2214.7 204.634 Q2213.88 205.243 2213.07 205.243 Q2212.74 205.243 2212.29 205.173 Q2211.87 205.103 2211.19 204.447 Q2210.51 203.767 2210.51 202.573 Q2210.51 199.224 2213.04 196.553 Q2215.59 193.883 2219.48 193.883 Q2223.89 193.883 2226.77 196.507 Q2229.67 199.106 2229.67 203.182 Q2229.67 204.611 2229.23 205.922 Q2228.8 207.211 2228.22 208.218 Q2227.66 209.225 2226.11 210.841 Q2224.57 212.457 2223.32 213.605 Q2222.08 214.753 2219.3 217.189 L2214.21 222.131 L2222.86 222.131 Q2227.07 222.131 2227.4 221.756 Q2227.87 221.077 2228.45 217.493 L2229.67 217.493 L2228.31 225.831 L2210.51 225.831 Z" fill="#000000" fill-rule="evenodd" fill-opacity="1" /></svg>
