<?xml version="1.0" encoding="utf-8"?>
<svg xmlns="http://www.w3.org/2000/svg" xmlns:xlink="http://www.w3.org/1999/xlink" width="600" height="400" viewBox="0 0 2400 1600">
<defs>
  <clipPath id="clip930">
    <rect x="0" y="0" width="2400" height="1600"/>
  </clipPath>
</defs>
<path clip-path="url(#clip930)" d="
M0 1600 L2400 1600 L2400 0 L0 0  Z
  " fill="#ffffff" fill-rule="evenodd" fill-opacity="1"/>
<defs>
  <clipPath id="clip931">
    <rect x="480" y="0" width="1681" height="1600"/>
  </clipPath>
</defs>
<defs>
  <clipPath id="clip932">
    <rect x="274" y="123" width="2079" height="1320"/>
  </clipPath>
</defs>
<path clip-path="url(#clip930)" d="
M249.542 1439.5 L2352.76 1439.5 L2352.76 47.2441 L249.542 47.2441  Z
  " fill="#ffffff" fill-rule="evenodd" fill-opacity="1"/>
<defs>
  <clipPath id="clip933">
    <rect x="249" y="47" width="2104" height="1393"/>
  </clipPath>
</defs>
<polyline clip-path="url(#clip933)" style="stroke:#000000; stroke-linecap:butt; stroke-linejoin:round; stroke-width:2; stroke-opacity:0.1; fill:none" points="
  494.316,1439.5 494.316,47.2441 
  "/>
<polyline clip-path="url(#clip933)" style="stroke:#000000; stroke-linecap:butt; stroke-linejoin:round; stroke-width:2; stroke-opacity:0.1; fill:none" points="
  817.049,1439.5 817.049,47.2441 
  "/>
<polyline clip-path="url(#clip933)" style="stroke:#000000; stroke-linecap:butt; stroke-linejoin:round; stroke-width:2; stroke-opacity:0.1; fill:none" points="
  1139.78,1439.5 1139.78,47.2441 
  "/>
<polyline clip-path="url(#clip933)" style="stroke:#000000; stroke-linecap:butt; stroke-linejoin:round; stroke-width:2; stroke-opacity:0.1; fill:none" points="
  1462.52,1439.5 1462.52,47.2441 
  "/>
<polyline clip-path="url(#clip933)" style="stroke:#000000; stroke-linecap:butt; stroke-linejoin:round; stroke-width:2; stroke-opacity:0.1; fill:none" points="
  1785.25,1439.5 1785.25,47.2441 
  "/>
<polyline clip-path="url(#clip933)" style="stroke:#000000; stroke-linecap:butt; stroke-linejoin:round; stroke-width:2; stroke-opacity:0.1; fill:none" points="
  2107.98,1439.5 2107.98,47.2441 
  "/>
<polyline clip-path="url(#clip930)" style="stroke:#000000; stroke-linecap:butt; stroke-linejoin:round; stroke-width:4; stroke-opacity:1; fill:none" points="
  249.542,1439.5 2352.76,1439.5 
  "/>
<polyline clip-path="url(#clip930)" style="stroke:#000000; stroke-linecap:butt; stroke-linejoin:round; stroke-width:4; stroke-opacity:1; fill:none" points="
  494.316,1439.5 494.316,1422.79 
  "/>
<polyline clip-path="url(#clip930)" style="stroke:#000000; stroke-linecap:butt; stroke-linejoin:round; stroke-width:4; stroke-opacity:1; fill:none" points="
  817.049,1439.5 817.049,1422.79 
  "/>
<polyline clip-path="url(#clip930)" style="stroke:#000000; stroke-linecap:butt; stroke-linejoin:round; stroke-width:4; stroke-opacity:1; fill:none" points="
  1139.78,1439.5 1139.78,1422.79 
  "/>
<polyline clip-path="url(#clip930)" style="stroke:#000000; stroke-linecap:butt; stroke-linejoin:round; stroke-width:4; stroke-opacity:1; fill:none" points="
  1462.52,1439.5 1462.52,1422.79 
  "/>
<polyline clip-path="url(#clip930)" style="stroke:#000000; stroke-linecap:butt; stroke-linejoin:round; stroke-width:4; stroke-opacity:1; fill:none" points="
  1785.25,1439.5 1785.25,1422.79 
  "/>
<polyline clip-path="url(#clip930)" style="stroke:#000000; stroke-linecap:butt; stroke-linejoin:round; stroke-width:4; stroke-opacity:1; fill:none" points="
  2107.98,1439.5 2107.98,1422.79 
  "/>
<path clip-path="url(#clip930)" d="M484.698 1496.24 L492.337 1496.24 L492.337 1469.87 L484.027 1471.54 L484.027 1467.28 L492.29 1465.61 L496.966 1465.61 L496.966 1496.24 L504.605 1496.24 L504.605 1500.17 L484.698 1500.17 L484.698 1496.24 Z" fill="#000000" fill-rule="evenodd" fill-opacity="1" /><path clip-path="url(#clip930)" d="M811.702 1496.24 L828.021 1496.24 L828.021 1500.17 L806.077 1500.17 L806.077 1496.24 Q808.739 1493.48 813.322 1488.85 Q817.929 1484.2 819.109 1482.86 Q821.355 1480.34 822.234 1478.6 Q823.137 1476.84 823.137 1475.15 Q823.137 1472.4 821.193 1470.66 Q819.271 1468.92 816.169 1468.92 Q813.97 1468.92 811.517 1469.69 Q809.086 1470.45 806.308 1472 L806.308 1467.28 Q809.132 1466.15 811.586 1465.57 Q814.04 1464.99 816.077 1464.99 Q821.447 1464.99 824.642 1467.67 Q827.836 1470.36 827.836 1474.85 Q827.836 1476.98 827.026 1478.9 Q826.239 1480.8 824.132 1483.39 Q823.554 1484.06 820.452 1487.28 Q817.35 1490.47 811.702 1496.24 Z" fill="#000000" fill-rule="evenodd" fill-opacity="1" /><path clip-path="url(#clip930)" d="M1144.03 1481.54 Q1147.39 1482.26 1149.26 1484.53 Q1151.16 1486.79 1151.16 1490.13 Q1151.16 1495.24 1147.64 1498.04 Q1144.12 1500.85 1137.64 1500.85 Q1135.47 1500.85 1133.15 1500.41 Q1130.86 1499.99 1128.41 1499.13 L1128.41 1494.62 Q1130.35 1495.75 1132.66 1496.33 Q1134.98 1496.91 1137.5 1496.91 Q1141.9 1496.91 1144.19 1495.17 Q1146.51 1493.44 1146.51 1490.13 Q1146.51 1487.07 1144.35 1485.36 Q1142.22 1483.62 1138.41 1483.62 L1134.38 1483.62 L1134.38 1479.78 L1138.59 1479.78 Q1142.04 1479.78 1143.87 1478.41 Q1145.7 1477.03 1145.7 1474.43 Q1145.7 1471.77 1143.8 1470.36 Q1141.92 1468.92 1138.41 1468.92 Q1136.48 1468.92 1134.28 1469.34 Q1132.09 1469.76 1129.45 1470.64 L1129.45 1466.47 Q1132.11 1465.73 1134.42 1465.36 Q1136.76 1464.99 1138.82 1464.99 Q1144.15 1464.99 1147.25 1467.42 Q1150.35 1469.83 1150.35 1473.95 Q1150.35 1476.82 1148.71 1478.81 Q1147.06 1480.78 1144.03 1481.54 Z" fill="#000000" fill-rule="evenodd" fill-opacity="1" /><path clip-path="url(#clip930)" d="M1465.52 1469.69 L1453.72 1488.14 L1465.52 1488.14 L1465.52 1469.69 M1464.3 1465.61 L1470.18 1465.61 L1470.18 1488.14 L1475.11 1488.14 L1475.11 1492.03 L1470.18 1492.03 L1470.18 1500.17 L1465.52 1500.17 L1465.52 1492.03 L1449.92 1492.03 L1449.92 1487.51 L1464.3 1465.61 Z" fill="#000000" fill-rule="evenodd" fill-opacity="1" /><path clip-path="url(#clip930)" d="M1775.53 1465.61 L1793.88 1465.61 L1793.88 1469.55 L1779.81 1469.55 L1779.81 1478.02 Q1780.83 1477.67 1781.85 1477.51 Q1782.86 1477.33 1783.88 1477.33 Q1789.67 1477.33 1793.05 1480.5 Q1796.43 1483.67 1796.43 1489.09 Q1796.43 1494.66 1792.96 1497.77 Q1789.48 1500.85 1783.17 1500.85 Q1780.99 1500.85 1778.72 1500.47 Q1776.48 1500.1 1774.07 1499.36 L1774.07 1494.66 Q1776.15 1495.8 1778.37 1496.35 Q1780.6 1496.91 1783.07 1496.91 Q1787.08 1496.91 1789.42 1494.8 Q1791.75 1492.7 1791.75 1489.09 Q1791.75 1485.47 1789.42 1483.37 Q1787.08 1481.26 1783.07 1481.26 Q1781.2 1481.26 1779.32 1481.68 Q1777.47 1482.1 1775.53 1482.97 L1775.53 1465.61 Z" fill="#000000" fill-rule="evenodd" fill-opacity="1" /><path clip-path="url(#clip930)" d="M2108.39 1481.03 Q2105.24 1481.03 2103.39 1483.18 Q2101.56 1485.34 2101.56 1489.09 Q2101.56 1492.81 2103.39 1494.99 Q2105.24 1497.14 2108.39 1497.14 Q2111.54 1497.14 2113.36 1494.99 Q2115.22 1492.81 2115.22 1489.09 Q2115.22 1485.34 2113.36 1483.18 Q2111.54 1481.03 2108.39 1481.03 M2117.67 1466.38 L2117.67 1470.64 Q2115.91 1469.8 2114.1 1469.36 Q2112.32 1468.92 2110.56 1468.92 Q2105.93 1468.92 2103.48 1472.05 Q2101.05 1475.17 2100.7 1481.49 Q2102.07 1479.48 2104.13 1478.41 Q2106.19 1477.33 2108.66 1477.33 Q2113.87 1477.33 2116.88 1480.5 Q2119.91 1483.65 2119.91 1489.09 Q2119.91 1494.41 2116.77 1497.63 Q2113.62 1500.85 2108.39 1500.85 Q2102.39 1500.85 2099.22 1496.26 Q2096.05 1491.66 2096.05 1482.93 Q2096.05 1474.73 2099.94 1469.87 Q2103.83 1464.99 2110.38 1464.99 Q2112.14 1464.99 2113.92 1465.34 Q2115.73 1465.68 2117.67 1466.38 Z" fill="#000000" fill-rule="evenodd" fill-opacity="1" /><path clip-path="url(#clip930)" d="M1313.08 1535.75 Q1313.08 1541.16 1311.34 1547.24 Q1309.64 1553.3 1306.93 1558.19 Q1304.23 1563.06 1300.68 1566.28 Q1297.14 1569.47 1293.76 1569.47 Q1291.6 1569.47 1289.99 1568.27 Q1288.41 1567.05 1287.54 1565.02 Q1286.68 1562.96 1286.26 1560.71 Q1285.84 1558.42 1285.84 1555.94 Q1285.84 1552.24 1286.64 1548.21 Q1287.45 1544.15 1288.8 1540.48 Q1290.15 1536.78 1292.05 1533.43 Q1293.95 1530.05 1296.05 1527.6 Q1298.17 1525.12 1300.56 1523.67 Q1302.94 1522.22 1305.16 1522.22 Q1306.77 1522.22 1308.06 1522.93 Q1309.38 1523.6 1310.22 1524.8 Q1311.05 1525.96 1311.63 1527.34 Q1312.25 1528.73 1312.54 1530.34 Q1312.83 1531.91 1312.96 1533.23 Q1313.08 1534.52 1313.08 1535.75 M1308.74 1531.66 Q1308.74 1530.01 1308.61 1528.79 Q1308.48 1527.53 1308.12 1526.28 Q1307.77 1525.02 1307 1524.35 Q1306.26 1523.67 1305.1 1523.67 Q1301.72 1523.67 1297.91 1530.59 Q1296.69 1532.75 1295.6 1535.68 Q1294.5 1538.61 1294.11 1540 Q1293.73 1541.38 1292.83 1544.8 L1306.61 1544.8 Q1308.74 1536 1308.74 1531.66 M1306.03 1546.89 L1292.31 1546.89 Q1290.19 1554.94 1290.19 1559.96 Q1290.19 1564.34 1291.09 1566.18 Q1292.02 1567.98 1293.76 1567.98 Q1295.76 1567.98 1297.63 1565.99 Q1299.49 1563.96 1301.39 1560.29 Q1303.91 1555.52 1306.03 1546.89 Z" fill="#000000" fill-rule="evenodd" fill-opacity="1" /><polyline clip-path="url(#clip933)" style="stroke:#000000; stroke-linecap:butt; stroke-linejoin:round; stroke-width:2; stroke-opacity:0.1; fill:none" points="
  249.542,1439.5 2352.76,1439.5 
  "/>
<polyline clip-path="url(#clip933)" style="stroke:#000000; stroke-linecap:butt; stroke-linejoin:round; stroke-width:2; stroke-opacity:0.1; fill:none" points="
  249.542,1207.46 2352.76,1207.46 
  "/>
<polyline clip-path="url(#clip933)" style="stroke:#000000; stroke-linecap:butt; stroke-linejoin:round; stroke-width:2; stroke-opacity:0.1; fill:none" points="
  249.542,975.416 2352.76,975.416 
  "/>
<polyline clip-path="url(#clip933)" style="stroke:#000000; stroke-linecap:butt; stroke-linejoin:round; stroke-width:2; stroke-opacity:0.1; fill:none" points="
  249.542,743.373 2352.76,743.373 
  "/>
<polyline clip-path="url(#clip933)" style="stroke:#000000; stroke-linecap:butt; stroke-linejoin:round; stroke-width:2; stroke-opacity:0.1; fill:none" points="
  249.542,511.33 2352.76,511.33 
  "/>
<polyline clip-path="url(#clip933)" style="stroke:#000000; stroke-linecap:butt; stroke-linejoin:round; stroke-width:2; stroke-opacity:0.1; fill:none" points="
  249.542,279.287 2352.76,279.287 
  "/>
<polyline clip-path="url(#clip930)" style="stroke:#000000; stroke-linecap:butt; stroke-linejoin:round; stroke-width:4; stroke-opacity:1; fill:none" points="
  249.542,1439.5 249.542,47.2441 
  "/>
<polyline clip-path="url(#clip930)" style="stroke:#000000; stroke-linecap:butt; stroke-linejoin:round; stroke-width:4; stroke-opacity:1; fill:none" points="
  249.542,1439.5 274.781,1439.5 
  "/>
<polyline clip-path="url(#clip930)" style="stroke:#000000; stroke-linecap:butt; stroke-linejoin:round; stroke-width:4; stroke-opacity:1; fill:none" points="
  249.542,1207.46 274.781,1207.46 
  "/>
<polyline clip-path="url(#clip930)" style="stroke:#000000; stroke-linecap:butt; stroke-linejoin:round; stroke-width:4; stroke-opacity:1; fill:none" points="
  249.542,975.416 274.781,975.416 
  "/>
<polyline clip-path="url(#clip930)" style="stroke:#000000; stroke-linecap:butt; stroke-linejoin:round; stroke-width:4; stroke-opacity:1; fill:none" points="
  249.542,743.373 274.781,743.373 
  "/>
<polyline clip-path="url(#clip930)" style="stroke:#000000; stroke-linecap:butt; stroke-linejoin:round; stroke-width:4; stroke-opacity:1; fill:none" points="
  249.542,511.33 274.781,511.33 
  "/>
<polyline clip-path="url(#clip930)" style="stroke:#000000; stroke-linecap:butt; stroke-linejoin:round; stroke-width:4; stroke-opacity:1; fill:none" points="
  249.542,279.287 274.781,279.287 
  "/>
<path clip-path="url(#clip930)" d="M126.205 1425.3 Q122.593 1425.3 120.765 1428.87 Q118.959 1432.41 118.959 1439.54 Q118.959 1446.64 120.765 1450.21 Q122.593 1453.75 126.205 1453.75 Q129.839 1453.75 131.644 1450.21 Q133.473 1446.64 133.473 1439.54 Q133.473 1432.41 131.644 1428.87 Q129.839 1425.3 126.205 1425.3 M126.205 1421.6 Q132.015 1421.6 135.07 1426.2 Q138.149 1430.79 138.149 1439.54 Q138.149 1448.26 135.07 1452.87 Q132.015 1457.45 126.205 1457.45 Q120.394 1457.45 117.316 1452.87 Q114.26 1448.26 114.26 1439.54 Q114.26 1430.79 117.316 1426.2 Q120.394 1421.6 126.205 1421.6 Z" fill="#000000" fill-rule="evenodd" fill-opacity="1" /><path clip-path="url(#clip930)" d="M146.366 1450.9 L151.251 1450.9 L151.251 1456.78 L146.366 1456.78 L146.366 1450.9 Z" fill="#000000" fill-rule="evenodd" fill-opacity="1" /><path clip-path="url(#clip930)" d="M171.436 1425.3 Q167.825 1425.3 165.996 1428.87 Q164.19 1432.41 164.19 1439.54 Q164.19 1446.64 165.996 1450.21 Q167.825 1453.75 171.436 1453.75 Q175.07 1453.75 176.876 1450.21 Q178.704 1446.64 178.704 1439.54 Q178.704 1432.41 176.876 1428.87 Q175.07 1425.3 171.436 1425.3 M171.436 1421.6 Q177.246 1421.6 180.301 1426.2 Q183.38 1430.79 183.38 1439.54 Q183.38 1448.26 180.301 1452.87 Q177.246 1457.45 171.436 1457.45 Q165.626 1457.45 162.547 1452.87 Q159.491 1448.26 159.491 1439.54 Q159.491 1430.79 162.547 1426.2 Q165.626 1421.6 171.436 1421.6 Z" fill="#000000" fill-rule="evenodd" fill-opacity="1" /><path clip-path="url(#clip930)" d="M201.598 1425.3 Q197.987 1425.3 196.158 1428.87 Q194.352 1432.41 194.352 1439.54 Q194.352 1446.64 196.158 1450.21 Q197.987 1453.75 201.598 1453.75 Q205.232 1453.75 207.037 1450.21 Q208.866 1446.64 208.866 1439.54 Q208.866 1432.41 207.037 1428.87 Q205.232 1425.3 201.598 1425.3 M201.598 1421.6 Q207.408 1421.6 210.463 1426.2 Q213.542 1430.79 213.542 1439.54 Q213.542 1448.26 210.463 1452.87 Q207.408 1457.45 201.598 1457.45 Q195.787 1457.45 192.709 1452.87 Q189.653 1448.26 189.653 1439.54 Q189.653 1430.79 192.709 1426.2 Q195.787 1421.6 201.598 1421.6 Z" fill="#000000" fill-rule="evenodd" fill-opacity="1" /><path clip-path="url(#clip930)" d="M127.2 1193.26 Q123.589 1193.26 121.76 1196.82 Q119.955 1200.36 119.955 1207.49 Q119.955 1214.6 121.76 1218.16 Q123.589 1221.71 127.2 1221.71 Q130.834 1221.71 132.64 1218.16 Q134.468 1214.6 134.468 1207.49 Q134.468 1200.36 132.64 1196.82 Q130.834 1193.26 127.2 1193.26 M127.2 1189.55 Q133.01 1189.55 136.066 1194.16 Q139.144 1198.74 139.144 1207.49 Q139.144 1216.22 136.066 1220.83 Q133.01 1225.41 127.2 1225.41 Q121.39 1225.41 118.311 1220.83 Q115.256 1216.22 115.256 1207.49 Q115.256 1198.74 118.311 1194.16 Q121.39 1189.55 127.2 1189.55 Z" fill="#000000" fill-rule="evenodd" fill-opacity="1" /><path clip-path="url(#clip930)" d="M147.362 1218.86 L152.246 1218.86 L152.246 1224.74 L147.362 1224.74 L147.362 1218.86 Z" fill="#000000" fill-rule="evenodd" fill-opacity="1" /><path clip-path="url(#clip930)" d="M172.431 1193.26 Q168.82 1193.26 166.991 1196.82 Q165.186 1200.36 165.186 1207.49 Q165.186 1214.6 166.991 1218.16 Q168.82 1221.71 172.431 1221.71 Q176.065 1221.71 177.871 1218.16 Q179.7 1214.6 179.7 1207.49 Q179.7 1200.36 177.871 1196.82 Q176.065 1193.26 172.431 1193.26 M172.431 1189.55 Q178.241 1189.55 181.297 1194.16 Q184.376 1198.74 184.376 1207.49 Q184.376 1216.22 181.297 1220.83 Q178.241 1225.41 172.431 1225.41 Q166.621 1225.41 163.542 1220.83 Q160.487 1216.22 160.487 1207.49 Q160.487 1198.74 163.542 1194.16 Q166.621 1189.55 172.431 1189.55 Z" fill="#000000" fill-rule="evenodd" fill-opacity="1" /><path clip-path="url(#clip930)" d="M192.639 1190.18 L210.996 1190.18 L210.996 1194.11 L196.922 1194.11 L196.922 1202.59 Q197.94 1202.24 198.959 1202.08 Q199.977 1201.89 200.996 1201.89 Q206.783 1201.89 210.162 1205.06 Q213.542 1208.23 213.542 1213.65 Q213.542 1219.23 210.07 1222.33 Q206.598 1225.41 200.278 1225.41 Q198.102 1225.41 195.834 1225.04 Q193.588 1224.67 191.181 1223.93 L191.181 1219.23 Q193.264 1220.36 195.487 1220.92 Q197.709 1221.48 200.186 1221.48 Q204.19 1221.48 206.528 1219.37 Q208.866 1217.26 208.866 1213.65 Q208.866 1210.04 206.528 1207.93 Q204.19 1205.83 200.186 1205.83 Q198.311 1205.83 196.436 1206.24 Q194.584 1206.66 192.639 1207.54 L192.639 1190.18 Z" fill="#000000" fill-rule="evenodd" fill-opacity="1" /><path clip-path="url(#clip930)" d="M126.205 961.215 Q122.593 961.215 120.765 964.779 Q118.959 968.321 118.959 975.451 Q118.959 982.557 120.765 986.122 Q122.593 989.664 126.205 989.664 Q129.839 989.664 131.644 986.122 Q133.473 982.557 133.473 975.451 Q133.473 968.321 131.644 964.779 Q129.839 961.215 126.205 961.215 M126.205 957.511 Q132.015 957.511 135.07 962.117 Q138.149 966.701 138.149 975.451 Q138.149 984.178 135.07 988.784 Q132.015 993.367 126.205 993.367 Q120.394 993.367 117.316 988.784 Q114.26 984.178 114.26 975.451 Q114.26 966.701 117.316 962.117 Q120.394 957.511 126.205 957.511 Z" fill="#000000" fill-rule="evenodd" fill-opacity="1" /><path clip-path="url(#clip930)" d="M146.366 986.816 L151.251 986.816 L151.251 992.696 L146.366 992.696 L146.366 986.816 Z" fill="#000000" fill-rule="evenodd" fill-opacity="1" /><path clip-path="url(#clip930)" d="M162.246 988.761 L169.885 988.761 L169.885 962.395 L161.575 964.062 L161.575 959.803 L169.839 958.136 L174.514 958.136 L174.514 988.761 L182.153 988.761 L182.153 992.696 L162.246 992.696 L162.246 988.761 Z" fill="#000000" fill-rule="evenodd" fill-opacity="1" /><path clip-path="url(#clip930)" d="M201.598 961.215 Q197.987 961.215 196.158 964.779 Q194.352 968.321 194.352 975.451 Q194.352 982.557 196.158 986.122 Q197.987 989.664 201.598 989.664 Q205.232 989.664 207.037 986.122 Q208.866 982.557 208.866 975.451 Q208.866 968.321 207.037 964.779 Q205.232 961.215 201.598 961.215 M201.598 957.511 Q207.408 957.511 210.463 962.117 Q213.542 966.701 213.542 975.451 Q213.542 984.178 210.463 988.784 Q207.408 993.367 201.598 993.367 Q195.787 993.367 192.709 988.784 Q189.653 984.178 189.653 975.451 Q189.653 966.701 192.709 962.117 Q195.787 957.511 201.598 957.511 Z" fill="#000000" fill-rule="evenodd" fill-opacity="1" /><path clip-path="url(#clip930)" d="M127.2 729.172 Q123.589 729.172 121.76 732.736 Q119.955 736.278 119.955 743.408 Q119.955 750.514 121.76 754.079 Q123.589 757.621 127.2 757.621 Q130.834 757.621 132.64 754.079 Q134.468 750.514 134.468 743.408 Q134.468 736.278 132.64 732.736 Q130.834 729.172 127.2 729.172 M127.2 725.468 Q133.01 725.468 136.066 730.074 Q139.144 734.658 139.144 743.408 Q139.144 752.135 136.066 756.741 Q133.01 761.324 127.2 761.324 Q121.39 761.324 118.311 756.741 Q115.256 752.135 115.256 743.408 Q115.256 734.658 118.311 730.074 Q121.39 725.468 127.2 725.468 Z" fill="#000000" fill-rule="evenodd" fill-opacity="1" /><path clip-path="url(#clip930)" d="M147.362 754.773 L152.246 754.773 L152.246 760.653 L147.362 760.653 L147.362 754.773 Z" fill="#000000" fill-rule="evenodd" fill-opacity="1" /><path clip-path="url(#clip930)" d="M163.241 756.718 L170.88 756.718 L170.88 730.352 L162.57 732.019 L162.57 727.76 L170.834 726.093 L175.51 726.093 L175.51 756.718 L183.149 756.718 L183.149 760.653 L163.241 760.653 L163.241 756.718 Z" fill="#000000" fill-rule="evenodd" fill-opacity="1" /><path clip-path="url(#clip930)" d="M192.639 726.093 L210.996 726.093 L210.996 730.028 L196.922 730.028 L196.922 738.5 Q197.94 738.153 198.959 737.991 Q199.977 737.806 200.996 737.806 Q206.783 737.806 210.162 740.977 Q213.542 744.148 213.542 749.565 Q213.542 755.144 210.07 758.246 Q206.598 761.324 200.278 761.324 Q198.102 761.324 195.834 760.954 Q193.588 760.584 191.181 759.843 L191.181 755.144 Q193.264 756.278 195.487 756.834 Q197.709 757.389 200.186 757.389 Q204.19 757.389 206.528 755.283 Q208.866 753.176 208.866 749.565 Q208.866 745.954 206.528 743.848 Q204.19 741.741 200.186 741.741 Q198.311 741.741 196.436 742.158 Q194.584 742.574 192.639 743.454 L192.639 726.093 Z" fill="#000000" fill-rule="evenodd" fill-opacity="1" /><path clip-path="url(#clip930)" d="M126.205 497.129 Q122.593 497.129 120.765 500.694 Q118.959 504.235 118.959 511.365 Q118.959 518.471 120.765 522.036 Q122.593 525.578 126.205 525.578 Q129.839 525.578 131.644 522.036 Q133.473 518.471 133.473 511.365 Q133.473 504.235 131.644 500.694 Q129.839 497.129 126.205 497.129 M126.205 493.425 Q132.015 493.425 135.07 498.031 Q138.149 502.615 138.149 511.365 Q138.149 520.092 135.07 524.698 Q132.015 529.281 126.205 529.281 Q120.394 529.281 117.316 524.698 Q114.26 520.092 114.26 511.365 Q114.26 502.615 117.316 498.031 Q120.394 493.425 126.205 493.425 Z" fill="#000000" fill-rule="evenodd" fill-opacity="1" /><path clip-path="url(#clip930)" d="M146.366 522.73 L151.251 522.73 L151.251 528.61 L146.366 528.61 L146.366 522.73 Z" fill="#000000" fill-rule="evenodd" fill-opacity="1" /><path clip-path="url(#clip930)" d="M165.464 524.675 L181.783 524.675 L181.783 528.61 L159.839 528.61 L159.839 524.675 Q162.501 521.92 167.084 517.291 Q171.69 512.638 172.871 511.295 Q175.116 508.772 175.996 507.036 Q176.899 505.277 176.899 503.587 Q176.899 500.832 174.954 499.096 Q173.033 497.36 169.931 497.36 Q167.732 497.36 165.278 498.124 Q162.848 498.888 160.07 500.439 L160.07 495.717 Q162.894 494.582 165.348 494.004 Q167.802 493.425 169.839 493.425 Q175.209 493.425 178.403 496.11 Q181.598 498.795 181.598 503.286 Q181.598 505.416 180.788 507.337 Q180.001 509.235 177.894 511.828 Q177.315 512.499 174.214 515.717 Q171.112 518.911 165.464 524.675 Z" fill="#000000" fill-rule="evenodd" fill-opacity="1" /><path clip-path="url(#clip930)" d="M201.598 497.129 Q197.987 497.129 196.158 500.694 Q194.352 504.235 194.352 511.365 Q194.352 518.471 196.158 522.036 Q197.987 525.578 201.598 525.578 Q205.232 525.578 207.037 522.036 Q208.866 518.471 208.866 511.365 Q208.866 504.235 207.037 500.694 Q205.232 497.129 201.598 497.129 M201.598 493.425 Q207.408 493.425 210.463 498.031 Q213.542 502.615 213.542 511.365 Q213.542 520.092 210.463 524.698 Q207.408 529.281 201.598 529.281 Q195.787 529.281 192.709 524.698 Q189.653 520.092 189.653 511.365 Q189.653 502.615 192.709 498.031 Q195.787 493.425 201.598 493.425 Z" fill="#000000" fill-rule="evenodd" fill-opacity="1" /><path clip-path="url(#clip930)" d="M127.2 265.086 Q123.589 265.086 121.76 268.651 Q119.955 272.192 119.955 279.322 Q119.955 286.428 121.76 289.993 Q123.589 293.535 127.2 293.535 Q130.834 293.535 132.64 289.993 Q134.468 286.428 134.468 279.322 Q134.468 272.192 132.64 268.651 Q130.834 265.086 127.2 265.086 M127.2 261.382 Q133.01 261.382 136.066 265.989 Q139.144 270.572 139.144 279.322 Q139.144 288.049 136.066 292.655 Q133.01 297.238 127.2 297.238 Q121.39 297.238 118.311 292.655 Q115.256 288.049 115.256 279.322 Q115.256 270.572 118.311 265.989 Q121.39 261.382 127.2 261.382 Z" fill="#000000" fill-rule="evenodd" fill-opacity="1" /><path clip-path="url(#clip930)" d="M147.362 290.687 L152.246 290.687 L152.246 296.567 L147.362 296.567 L147.362 290.687 Z" fill="#000000" fill-rule="evenodd" fill-opacity="1" /><path clip-path="url(#clip930)" d="M166.459 292.632 L182.778 292.632 L182.778 296.567 L160.834 296.567 L160.834 292.632 Q163.496 289.877 168.079 285.248 Q172.686 280.595 173.866 279.252 Q176.112 276.729 176.991 274.993 Q177.894 273.234 177.894 271.544 Q177.894 268.789 175.95 267.053 Q174.028 265.317 170.927 265.317 Q168.727 265.317 166.274 266.081 Q163.843 266.845 161.065 268.396 L161.065 263.674 Q163.89 262.539 166.343 261.961 Q168.797 261.382 170.834 261.382 Q176.204 261.382 179.399 264.067 Q182.593 266.752 182.593 271.243 Q182.593 273.373 181.783 275.294 Q180.996 277.192 178.889 279.785 Q178.311 280.456 175.209 283.674 Q172.107 286.868 166.459 292.632 Z" fill="#000000" fill-rule="evenodd" fill-opacity="1" /><path clip-path="url(#clip930)" d="M192.639 262.007 L210.996 262.007 L210.996 265.942 L196.922 265.942 L196.922 274.414 Q197.94 274.067 198.959 273.905 Q199.977 273.72 200.996 273.72 Q206.783 273.72 210.162 276.891 Q213.542 280.063 213.542 285.479 Q213.542 291.058 210.07 294.16 Q206.598 297.238 200.278 297.238 Q198.102 297.238 195.834 296.868 Q193.588 296.498 191.181 295.757 L191.181 291.058 Q193.264 292.192 195.487 292.748 Q197.709 293.303 200.186 293.303 Q204.19 293.303 206.528 291.197 Q208.866 289.09 208.866 285.479 Q208.866 281.868 206.528 279.762 Q204.19 277.655 200.186 277.655 Q198.311 277.655 196.436 278.072 Q194.584 278.488 192.639 279.368 L192.639 262.007 Z" fill="#000000" fill-rule="evenodd" fill-opacity="1" /><path clip-path="url(#clip930)" d="M16.4842 820.637 L16.4842 811.056 L48.8219 798.93 L16.4842 786.739 L16.4842 777.159 L64.0042 777.159 L64.0042 783.429 L22.277 783.429 L54.8694 795.683 L54.8694 802.144 L22.277 814.398 L64.0042 814.398 L64.0042 820.637 L16.4842 820.637 Z" fill="#000000" fill-rule="evenodd" fill-opacity="1" /><path clip-path="url(#clip930)" d="M46.0847 748.45 Q46.0847 755.547 47.7079 758.285 Q49.3312 761.022 53.2461 761.022 Q56.3653 761.022 58.2114 758.985 Q60.0256 756.916 60.0256 753.383 Q60.0256 748.513 56.5881 745.585 Q53.1188 742.625 47.3897 742.625 L46.0847 742.625 L46.0847 748.45 M43.6657 736.769 L64.0042 736.769 L64.0042 742.625 L58.5933 742.625 Q61.8398 744.63 63.3994 747.622 Q64.9272 750.614 64.9272 754.943 Q64.9272 760.417 61.8716 763.664 Q58.7843 766.878 53.6281 766.878 Q47.6125 766.878 44.5569 762.868 Q41.5014 758.826 41.5014 750.837 L41.5014 742.625 L40.9285 742.625 Q36.8862 742.625 34.6901 745.299 Q32.4621 747.94 32.4621 752.747 Q32.4621 755.802 33.1941 758.698 Q33.9262 761.595 35.3903 764.268 L29.9795 764.268 Q28.7381 761.054 28.1334 758.03 Q27.4968 755.006 27.4968 752.142 Q27.4968 744.407 31.5072 740.588 Q35.5176 736.769 43.6657 736.769 Z" fill="#000000" fill-rule="evenodd" fill-opacity="1" /><path clip-path="url(#clip930)" d="M29.4065 701.98 L34.9447 701.98 Q33.6716 704.463 33.035 707.136 Q32.3984 709.81 32.3984 712.674 Q32.3984 717.035 33.7352 719.231 Q35.072 721.395 37.7456 721.395 Q39.7826 721.395 40.9603 719.836 Q42.1061 718.276 43.1565 713.566 L43.6021 711.56 Q44.9389 705.322 47.3897 702.712 Q49.8086 700.07 54.1691 700.07 Q59.1344 700.07 62.0308 704.017 Q64.9272 707.932 64.9272 714.807 Q64.9272 717.671 64.3543 720.791 Q63.8132 723.878 62.6992 727.316 L56.6518 727.316 Q58.3387 724.069 59.198 720.918 Q60.0256 717.767 60.0256 714.68 Q60.0256 710.542 58.6251 708.314 Q57.1929 706.086 54.6147 706.086 Q52.2276 706.086 50.9545 707.709 Q49.6813 709.301 48.5037 714.743 L48.0262 716.78 Q46.8804 722.223 44.5251 724.642 Q42.138 727.061 38.0002 727.061 Q32.9713 727.061 30.2341 723.496 Q27.4968 719.931 27.4968 713.375 Q27.4968 710.128 27.9743 707.264 Q28.4517 704.399 29.4065 701.98 Z" fill="#000000" fill-rule="evenodd" fill-opacity="1" /><path clip-path="url(#clip930)" d="M29.4065 668.019 L34.9447 668.019 Q33.6716 670.502 33.035 673.175 Q32.3984 675.849 32.3984 678.713 Q32.3984 683.074 33.7352 685.27 Q35.072 687.434 37.7456 687.434 Q39.7826 687.434 40.9603 685.875 Q42.1061 684.315 43.1565 679.605 L43.6021 677.599 Q44.9389 671.361 47.3897 668.751 Q49.8086 666.109 54.1691 666.109 Q59.1344 666.109 62.0308 670.056 Q64.9272 673.971 64.9272 680.846 Q64.9272 683.71 64.3543 686.83 Q63.8132 689.917 62.6992 693.354 L56.6518 693.354 Q58.3387 690.108 59.198 686.957 Q60.0256 683.806 60.0256 680.719 Q60.0256 676.581 58.6251 674.353 Q57.1929 672.125 54.6147 672.125 Q52.2276 672.125 50.9545 673.748 Q49.6813 675.34 48.5037 680.782 L48.0262 682.819 Q46.8804 688.262 44.5251 690.681 Q42.138 693.1 38.0002 693.1 Q32.9713 693.1 30.2341 689.535 Q27.4968 685.97 27.4968 679.414 Q27.4968 676.167 27.9743 673.302 Q28.4517 670.438 29.4065 668.019 Z" fill="#000000" fill-rule="evenodd" fill-opacity="1" /><path clip-path="url(#clip933)" d="
M365.223 666.025 L365.223 1439.5 L623.409 1439.5 L623.409 666.025 L365.223 666.025 L365.223 666.025  Z
  " fill="#009af9" fill-rule="evenodd" fill-opacity="1"/>
<polyline clip-path="url(#clip933)" style="stroke:#000000; stroke-linecap:butt; stroke-linejoin:round; stroke-width:4; stroke-opacity:1; fill:none" points="
  365.223,666.025 365.223,1439.5 623.409,1439.5 623.409,666.025 365.223,666.025 
  "/>
<path clip-path="url(#clip933)" d="
M687.956 666.025 L687.956 1439.5 L946.142 1439.5 L946.142 666.025 L687.956 666.025 L687.956 666.025  Z
  " fill="#009af9" fill-rule="evenodd" fill-opacity="1"/>
<polyline clip-path="url(#clip933)" style="stroke:#000000; stroke-linecap:butt; stroke-linejoin:round; stroke-width:4; stroke-opacity:1; fill:none" points="
  687.956,666.025 687.956,1439.5 946.142,1439.5 946.142,666.025 687.956,666.025 
  "/>
<path clip-path="url(#clip933)" d="
M1010.69 666.025 L1010.69 1439.5 L1268.88 1439.5 L1268.88 666.025 L1010.69 666.025 L1010.69 666.025  Z
  " fill="#009af9" fill-rule="evenodd" fill-opacity="1"/>
<polyline clip-path="url(#clip933)" style="stroke:#000000; stroke-linecap:butt; stroke-linejoin:round; stroke-width:4; stroke-opacity:1; fill:none" points="
  1010.69,666.025 1010.69,1439.5 1268.88,1439.5 1268.88,666.025 1010.69,666.025 
  "/>
<path clip-path="url(#clip933)" d="
M1333.42 666.025 L1333.42 1439.5 L1591.61 1439.5 L1591.61 666.025 L1333.42 666.025 L1333.42 666.025  Z
  " fill="#009af9" fill-rule="evenodd" fill-opacity="1"/>
<polyline clip-path="url(#clip933)" style="stroke:#000000; stroke-linecap:butt; stroke-linejoin:round; stroke-width:4; stroke-opacity:1; fill:none" points="
  1333.42,666.025 1333.42,1439.5 1591.61,1439.5 1591.61,666.025 1333.42,666.025 
  "/>
<path clip-path="url(#clip933)" d="
M1656.16 666.025 L1656.16 1439.5 L1914.34 1439.5 L1914.34 666.025 L1656.16 666.025 L1656.16 666.025  Z
  " fill="#009af9" fill-rule="evenodd" fill-opacity="1"/>
<polyline clip-path="url(#clip933)" style="stroke:#000000; stroke-linecap:butt; stroke-linejoin:round; stroke-width:4; stroke-opacity:1; fill:none" points="
  1656.16,666.025 1656.16,1439.5 1914.34,1439.5 1914.34,666.025 1656.16,666.025 
  "/>
<path clip-path="url(#clip933)" d="
M1978.89 666.025 L1978.89 1439.5 L2237.08 1439.5 L2237.08 666.025 L1978.89 666.025 L1978.89 666.025  Z
  " fill="#009af9" fill-rule="evenodd" fill-opacity="1"/>
<polyline clip-path="url(#clip933)" style="stroke:#000000; stroke-linecap:butt; stroke-linejoin:round; stroke-width:4; stroke-opacity:1; fill:none" points="
  1978.89,666.025 1978.89,1439.5 2237.08,1439.5 2237.08,666.025 1978.89,666.025 
  "/>
<path clip-path="url(#clip930)" d="
M1760.33 214.613 L2282.65 214.613 L2282.65 93.6527 L1760.33 93.6527  Z
  " fill="#ffffff" fill-rule="evenodd" fill-opacity="1"/>
<polyline clip-path="url(#clip930)" style="stroke:#000000; stroke-linecap:butt; stroke-linejoin:round; stroke-width:4; stroke-opacity:1; fill:none" points="
  1760.33,214.613 2282.65,214.613 2282.65,93.6527 1760.33,93.6527 1760.33,214.613 
  "/>
<path clip-path="url(#clip930)" d="
M1783.69 178.325 L1923.91 178.325 L1923.91 129.941 L1783.69 129.941 L1783.69 178.325  Z
  " fill="#009af9" fill-rule="evenodd" fill-opacity="1"/>
<polyline clip-path="url(#clip930)" style="stroke:#000000; stroke-linecap:butt; stroke-linejoin:round; stroke-width:4; stroke-opacity:1; fill:none" points="
  1783.69,178.325 1923.91,178.325 1923.91,129.941 1783.69,129.941 1783.69,178.325 
  "/>
<path clip-path="url(#clip930)" d="M1959.62 152.269 Q1956.47 152.269 1954.62 154.422 Q1952.79 156.575 1952.79 160.325 Q1952.79 164.052 1954.62 166.228 Q1956.47 168.38 1959.62 168.38 Q1962.76 168.38 1964.59 166.228 Q1966.44 164.052 1966.44 160.325 Q1966.44 156.575 1964.59 154.422 Q1962.76 152.269 1959.62 152.269 M1968.9 137.617 L1968.9 141.876 Q1967.14 141.042 1965.33 140.603 Q1963.55 140.163 1961.79 140.163 Q1957.16 140.163 1954.71 143.288 Q1952.28 146.413 1951.93 152.732 Q1953.3 150.718 1955.36 149.654 Q1957.42 148.566 1959.89 148.566 Q1965.1 148.566 1968.11 151.737 Q1971.14 154.885 1971.14 160.325 Q1971.14 165.649 1968 168.866 Q1964.85 172.084 1959.62 172.084 Q1953.62 172.084 1950.45 167.501 Q1947.28 162.894 1947.28 154.167 Q1947.28 145.973 1951.17 141.112 Q1955.06 136.228 1961.61 136.228 Q1963.37 136.228 1965.15 136.575 Q1966.95 136.922 1968.9 137.617 Z" fill="#000000" fill-rule="evenodd" fill-opacity="1" /><path clip-path="url(#clip930)" d="M1976.44 156.529 L1988.92 156.529 L1988.92 160.325 L1976.44 160.325 L1976.44 156.529 Z" fill="#000000" fill-rule="evenodd" fill-opacity="1" /><path clip-path="url(#clip930)" d="M2012.23 146.251 L2012.23 150.279 Q2010.43 149.353 2008.48 148.89 Q2006.54 148.427 2004.45 148.427 Q2001.28 148.427 1999.69 149.399 Q1998.11 150.371 1998.11 152.316 Q1998.11 153.797 1999.25 154.654 Q2000.38 155.487 2003.81 156.251 L2005.26 156.575 Q2009.8 157.547 2011.7 159.329 Q2013.62 161.089 2013.62 164.26 Q2013.62 167.871 2010.75 169.978 Q2007.9 172.084 2002.9 172.084 Q2000.82 172.084 1998.55 171.667 Q1996.31 171.274 1993.81 170.464 L1993.81 166.065 Q1996.17 167.292 1998.46 167.917 Q2000.75 168.519 2003 168.519 Q2006 168.519 2007.62 167.501 Q2009.25 166.459 2009.25 164.584 Q2009.25 162.848 2008.06 161.922 Q2006.91 160.996 2002.95 160.14 L2001.47 159.792 Q1997.51 158.959 1995.75 157.246 Q1993.99 155.51 1993.99 152.501 Q1993.99 148.843 1996.58 146.853 Q1999.18 144.862 2003.94 144.862 Q2006.31 144.862 2008.39 145.209 Q2010.47 145.556 2012.23 146.251 Z" fill="#000000" fill-rule="evenodd" fill-opacity="1" /><path clip-path="url(#clip930)" d="M2020.4 145.487 L2024.66 145.487 L2024.66 171.413 L2020.4 171.413 L2020.4 145.487 M2020.4 135.394 L2024.66 135.394 L2024.66 140.788 L2020.4 140.788 L2020.4 135.394 Z" fill="#000000" fill-rule="evenodd" fill-opacity="1" /><path clip-path="url(#clip930)" d="M2050.63 149.422 L2050.63 135.394 L2054.89 135.394 L2054.89 171.413 L2050.63 171.413 L2050.63 167.524 Q2049.29 169.839 2047.23 170.973 Q2045.19 172.084 2042.32 172.084 Q2037.62 172.084 2034.66 168.334 Q2031.72 164.584 2031.72 158.473 Q2031.72 152.362 2034.66 148.612 Q2037.62 144.862 2042.32 144.862 Q2045.19 144.862 2047.23 145.996 Q2049.29 147.107 2050.63 149.422 M2036.12 158.473 Q2036.12 163.172 2038.04 165.857 Q2039.99 168.519 2043.37 168.519 Q2046.75 168.519 2048.69 165.857 Q2050.63 163.172 2050.63 158.473 Q2050.63 153.774 2048.69 151.112 Q2046.75 148.427 2043.37 148.427 Q2039.99 148.427 2038.04 151.112 Q2036.12 153.774 2036.12 158.473 Z" fill="#000000" fill-rule="evenodd" fill-opacity="1" /><path clip-path="url(#clip930)" d="M2085.84 157.385 L2085.84 159.468 L2066.26 159.468 Q2066.54 163.866 2068.9 166.181 Q2071.28 168.473 2075.52 168.473 Q2077.97 168.473 2080.26 167.871 Q2082.58 167.269 2084.85 166.065 L2084.85 170.093 Q2082.56 171.065 2080.15 171.575 Q2077.74 172.084 2075.26 172.084 Q2069.06 172.084 2065.43 168.473 Q2061.81 164.862 2061.81 158.704 Q2061.81 152.339 2065.24 148.612 Q2068.69 144.862 2074.52 144.862 Q2079.75 144.862 2082.79 148.242 Q2085.84 151.598 2085.84 157.385 M2081.58 156.135 Q2081.54 152.64 2079.62 150.556 Q2077.72 148.473 2074.57 148.473 Q2071 148.473 2068.85 150.487 Q2066.72 152.501 2066.4 156.158 L2081.58 156.135 Z" fill="#000000" fill-rule="evenodd" fill-opacity="1" /><path clip-path="url(#clip930)" d="M2109.89 149.422 L2109.89 135.394 L2114.15 135.394 L2114.15 171.413 L2109.89 171.413 L2109.89 167.524 Q2108.55 169.839 2106.49 170.973 Q2104.45 172.084 2101.58 172.084 Q2096.88 172.084 2093.92 168.334 Q2090.98 164.584 2090.98 158.473 Q2090.98 152.362 2093.92 148.612 Q2096.88 144.862 2101.58 144.862 Q2104.45 144.862 2106.49 145.996 Q2108.55 147.107 2109.89 149.422 M2095.38 158.473 Q2095.38 163.172 2097.3 165.857 Q2099.24 168.519 2102.62 168.519 Q2106 168.519 2107.95 165.857 Q2109.89 163.172 2109.89 158.473 Q2109.89 153.774 2107.95 151.112 Q2106 148.427 2102.62 148.427 Q2099.24 148.427 2097.3 151.112 Q2095.38 153.774 2095.38 158.473 Z" fill="#000000" fill-rule="evenodd" fill-opacity="1" /><path clip-path="url(#clip930)" d="M2142.86 140.695 L2142.86 167.57 L2148.5 167.57 Q2155.66 167.57 2158.97 164.329 Q2162.3 161.089 2162.3 154.098 Q2162.3 147.154 2158.97 143.936 Q2155.66 140.695 2148.5 140.695 L2142.86 140.695 M2138.18 136.853 L2147.79 136.853 Q2157.83 136.853 2162.53 141.042 Q2167.23 145.209 2167.23 154.098 Q2167.23 163.033 2162.51 167.223 Q2157.79 171.413 2147.79 171.413 L2138.18 171.413 L2138.18 136.853 Z" fill="#000000" fill-rule="evenodd" fill-opacity="1" /><path clip-path="url(#clip930)" d="M2174.5 145.487 L2178.76 145.487 L2178.76 171.413 L2174.5 171.413 L2174.5 145.487 M2174.5 135.394 L2178.76 135.394 L2178.76 140.788 L2174.5 140.788 L2174.5 135.394 Z" fill="#000000" fill-rule="evenodd" fill-opacity="1" /><path clip-path="url(#clip930)" d="M2206.33 146.482 L2206.33 150.464 Q2204.52 149.468 2202.69 148.982 Q2200.89 148.473 2199.04 148.473 Q2194.89 148.473 2192.6 151.112 Q2190.31 153.728 2190.31 158.473 Q2190.31 163.218 2192.6 165.857 Q2194.89 168.473 2199.04 168.473 Q2200.89 168.473 2202.69 167.987 Q2204.52 167.478 2206.33 166.482 L2206.33 170.417 Q2204.55 171.251 2202.62 171.667 Q2200.73 172.084 2198.57 172.084 Q2192.72 172.084 2189.27 168.403 Q2185.82 164.723 2185.82 158.473 Q2185.82 152.13 2189.29 148.496 Q2192.79 144.862 2198.85 144.862 Q2200.82 144.862 2202.69 145.279 Q2204.57 145.672 2206.33 146.482 Z" fill="#000000" fill-rule="evenodd" fill-opacity="1" /><path clip-path="url(#clip930)" d="M2235.91 157.385 L2235.91 159.468 L2216.33 159.468 Q2216.61 163.866 2218.97 166.181 Q2221.35 168.473 2225.59 168.473 Q2228.04 168.473 2230.33 167.871 Q2232.65 167.269 2234.92 166.065 L2234.92 170.093 Q2232.62 171.065 2230.22 171.575 Q2227.81 172.084 2225.33 172.084 Q2219.13 172.084 2215.49 168.473 Q2211.88 164.862 2211.88 158.704 Q2211.88 152.339 2215.31 148.612 Q2218.76 144.862 2224.59 144.862 Q2229.82 144.862 2232.86 148.242 Q2235.91 151.598 2235.91 157.385 M2231.65 156.135 Q2231.61 152.64 2229.68 150.556 Q2227.79 148.473 2224.64 148.473 Q2221.07 148.473 2218.92 150.487 Q2216.79 152.501 2216.47 156.158 L2231.65 156.135 Z" fill="#000000" fill-rule="evenodd" fill-opacity="1" /></svg>
