<?xml version="1.0" encoding="utf-8"?>
<svg xmlns="http://www.w3.org/2000/svg" xmlns:xlink="http://www.w3.org/1999/xlink" width="600" height="400" viewBox="0 0 2400 1600">
<defs>
  <clipPath id="clip750">
    <rect x="0" y="0" width="2400" height="1600"/>
  </clipPath>
</defs>
<path clip-path="url(#clip750)" d="
M0 1600 L2400 1600 L2400 0 L0 0  Z
  " fill="#ffffff" fill-rule="evenodd" fill-opacity="1"/>
<defs>
  <clipPath id="clip751">
    <rect x="480" y="0" width="1681" height="1600"/>
  </clipPath>
</defs>
<defs>
  <clipPath id="clip752">
    <rect x="219" y="47" width="2134" height="1393"/>
  </clipPath>
</defs>
<path clip-path="url(#clip750)" d="
M219.38 1439.5 L2352.76 1439.5 L2352.76 47.2441 L219.38 47.2441  Z
  " fill="#ffffff" fill-rule="evenodd" fill-opacity="1"/>
<polyline clip-path="url(#clip752)" style="stroke:#000000; stroke-linecap:butt; stroke-linejoin:round; stroke-width:2; stroke-opacity:0.1; fill:none" points="
  219.38,1439.5 219.38,47.2441 
  "/>
<polyline clip-path="url(#clip752)" style="stroke:#000000; stroke-linecap:butt; stroke-linejoin:round; stroke-width:2; stroke-opacity:0.1; fill:none" points="
  930.505,1439.5 930.505,47.2441 
  "/>
<polyline clip-path="url(#clip752)" style="stroke:#000000; stroke-linecap:butt; stroke-linejoin:round; stroke-width:2; stroke-opacity:0.1; fill:none" points="
  1641.63,1439.5 1641.63,47.2441 
  "/>
<polyline clip-path="url(#clip752)" style="stroke:#000000; stroke-linecap:butt; stroke-linejoin:round; stroke-width:2; stroke-opacity:0.1; fill:none" points="
  2352.76,1439.5 2352.76,47.2441 
  "/>
<polyline clip-path="url(#clip750)" style="stroke:#000000; stroke-linecap:butt; stroke-linejoin:round; stroke-width:4; stroke-opacity:1; fill:none" points="
  219.38,1439.5 2352.76,1439.5 
  "/>
<polyline clip-path="url(#clip750)" style="stroke:#000000; stroke-linecap:butt; stroke-linejoin:round; stroke-width:4; stroke-opacity:1; fill:none" points="
  219.38,1439.5 219.38,1422.79 
  "/>
<polyline clip-path="url(#clip750)" style="stroke:#000000; stroke-linecap:butt; stroke-linejoin:round; stroke-width:4; stroke-opacity:1; fill:none" points="
  930.505,1439.5 930.505,1422.79 
  "/>
<polyline clip-path="url(#clip750)" style="stroke:#000000; stroke-linecap:butt; stroke-linejoin:round; stroke-width:4; stroke-opacity:1; fill:none" points="
  1641.63,1439.5 1641.63,1422.79 
  "/>
<polyline clip-path="url(#clip750)" style="stroke:#000000; stroke-linecap:butt; stroke-linejoin:round; stroke-width:4; stroke-opacity:1; fill:none" points="
  2352.76,1439.5 2352.76,1422.79 
  "/>
<path clip-path="url(#clip750)" d="M219.38 1468.69 Q215.769 1468.69 213.94 1472.26 Q212.135 1475.8 212.135 1482.93 Q212.135 1490.04 213.94 1493.6 Q215.769 1497.14 219.38 1497.14 Q223.014 1497.14 224.82 1493.6 Q226.649 1490.04 226.649 1482.93 Q226.649 1475.8 224.82 1472.26 Q223.014 1468.69 219.38 1468.69 M219.38 1464.99 Q225.19 1464.99 228.246 1469.6 Q231.325 1474.18 231.325 1482.93 Q231.325 1491.66 228.246 1496.26 Q225.19 1500.85 219.38 1500.85 Q213.57 1500.85 210.491 1496.26 Q207.436 1491.66 207.436 1482.93 Q207.436 1474.18 210.491 1469.6 Q213.57 1464.99 219.38 1464.99 Z" fill="#000000" fill-rule="evenodd" fill-opacity="1" /><path clip-path="url(#clip750)" d="M920.887 1496.24 L928.526 1496.24 L928.526 1469.87 L920.216 1471.54 L920.216 1467.28 L928.48 1465.61 L933.156 1465.61 L933.156 1496.24 L940.795 1496.24 L940.795 1500.17 L920.887 1500.17 L920.887 1496.24 Z" fill="#000000" fill-rule="evenodd" fill-opacity="1" /><path clip-path="url(#clip750)" d="M1636.28 1496.24 L1652.6 1496.24 L1652.6 1500.17 L1630.66 1500.17 L1630.66 1496.24 Q1633.32 1493.48 1637.9 1488.85 Q1642.51 1484.2 1643.69 1482.86 Q1645.94 1480.34 1646.82 1478.6 Q1647.72 1476.84 1647.72 1475.15 Q1647.72 1472.4 1645.77 1470.66 Q1643.85 1468.92 1640.75 1468.92 Q1638.55 1468.92 1636.1 1469.69 Q1633.67 1470.45 1630.89 1472 L1630.89 1467.28 Q1633.71 1466.15 1636.17 1465.57 Q1638.62 1464.99 1640.66 1464.99 Q1646.03 1464.99 1649.22 1467.67 Q1652.42 1470.36 1652.42 1474.85 Q1652.42 1476.98 1651.61 1478.9 Q1650.82 1480.8 1648.71 1483.39 Q1648.14 1484.06 1645.03 1487.28 Q1641.93 1490.47 1636.28 1496.24 Z" fill="#000000" fill-rule="evenodd" fill-opacity="1" /><path clip-path="url(#clip750)" d="M2357 1481.54 Q2360.36 1482.26 2362.24 1484.53 Q2364.13 1486.79 2364.13 1490.13 Q2364.13 1495.24 2360.61 1498.04 Q2357.1 1500.85 2350.61 1500.85 Q2348.44 1500.85 2346.12 1500.41 Q2343.83 1499.99 2341.38 1499.13 L2341.38 1494.62 Q2343.32 1495.75 2345.64 1496.33 Q2347.95 1496.91 2350.48 1496.91 Q2354.87 1496.91 2357.17 1495.17 Q2359.48 1493.44 2359.48 1490.13 Q2359.48 1487.07 2357.33 1485.36 Q2355.2 1483.62 2351.38 1483.62 L2347.35 1483.62 L2347.35 1479.78 L2351.56 1479.78 Q2355.01 1479.78 2356.84 1478.41 Q2358.67 1477.03 2358.67 1474.43 Q2358.67 1471.77 2356.77 1470.36 Q2354.9 1468.92 2351.38 1468.92 Q2349.46 1468.92 2347.26 1469.34 Q2345.06 1469.76 2342.42 1470.64 L2342.42 1466.47 Q2345.08 1465.73 2347.4 1465.36 Q2349.74 1464.99 2351.8 1464.99 Q2357.12 1464.99 2360.22 1467.42 Q2363.32 1469.83 2363.32 1473.95 Q2363.32 1476.82 2361.68 1478.81 Q2360.04 1480.78 2357 1481.54 Z" fill="#000000" fill-rule="evenodd" fill-opacity="1" /><path clip-path="url(#clip750)" d="M1298 1535.75 Q1298 1541.16 1296.26 1547.24 Q1294.56 1553.3 1291.85 1558.19 Q1289.15 1563.06 1285.6 1566.28 Q1282.06 1569.47 1278.68 1569.47 Q1276.52 1569.47 1274.91 1568.27 Q1273.33 1567.05 1272.46 1565.02 Q1271.59 1562.96 1271.18 1560.71 Q1270.76 1558.42 1270.76 1555.94 Q1270.76 1552.24 1271.56 1548.21 Q1272.37 1544.15 1273.72 1540.48 Q1275.07 1536.78 1276.97 1533.43 Q1278.87 1530.05 1280.97 1527.6 Q1283.09 1525.12 1285.47 1523.67 Q1287.86 1522.22 1290.08 1522.22 Q1291.69 1522.22 1292.98 1522.93 Q1294.3 1523.6 1295.14 1524.8 Q1295.97 1525.96 1296.55 1527.34 Q1297.17 1528.73 1297.46 1530.34 Q1297.75 1531.91 1297.87 1533.23 Q1298 1534.52 1298 1535.75 M1293.66 1531.66 Q1293.66 1530.01 1293.53 1528.79 Q1293.4 1527.53 1293.04 1526.28 Q1292.69 1525.02 1291.92 1524.35 Q1291.18 1523.67 1290.02 1523.67 Q1286.63 1523.67 1282.83 1530.59 Q1281.61 1532.75 1280.52 1535.68 Q1279.42 1538.61 1279.03 1540 Q1278.65 1541.38 1277.75 1544.8 L1291.53 1544.8 Q1293.66 1536 1293.66 1531.66 M1290.95 1546.89 L1277.23 1546.89 Q1275.1 1554.94 1275.1 1559.96 Q1275.1 1564.34 1276.01 1566.18 Q1276.94 1567.98 1278.68 1567.98 Q1280.68 1567.98 1282.54 1565.99 Q1284.41 1563.96 1286.31 1560.29 Q1288.82 1555.52 1290.95 1546.89 Z" fill="#000000" fill-rule="evenodd" fill-opacity="1" /><polyline clip-path="url(#clip752)" style="stroke:#000000; stroke-linecap:butt; stroke-linejoin:round; stroke-width:2; stroke-opacity:0.1; fill:none" points="
  219.38,1400.1 2352.76,1400.1 
  "/>
<polyline clip-path="url(#clip752)" style="stroke:#000000; stroke-linecap:butt; stroke-linejoin:round; stroke-width:2; stroke-opacity:0.1; fill:none" points="
  219.38,1001 2352.76,1001 
  "/>
<polyline clip-path="url(#clip752)" style="stroke:#000000; stroke-linecap:butt; stroke-linejoin:round; stroke-width:2; stroke-opacity:0.1; fill:none" points="
  219.38,601.908 2352.76,601.908 
  "/>
<polyline clip-path="url(#clip752)" style="stroke:#000000; stroke-linecap:butt; stroke-linejoin:round; stroke-width:2; stroke-opacity:0.1; fill:none" points="
  219.38,202.813 2352.76,202.813 
  "/>
<polyline clip-path="url(#clip750)" style="stroke:#000000; stroke-linecap:butt; stroke-linejoin:round; stroke-width:4; stroke-opacity:1; fill:none" points="
  219.38,1439.5 219.38,47.2441 
  "/>
<polyline clip-path="url(#clip750)" style="stroke:#000000; stroke-linecap:butt; stroke-linejoin:round; stroke-width:4; stroke-opacity:1; fill:none" points="
  219.38,1400.1 244.981,1400.1 
  "/>
<polyline clip-path="url(#clip750)" style="stroke:#000000; stroke-linecap:butt; stroke-linejoin:round; stroke-width:4; stroke-opacity:1; fill:none" points="
  219.38,1001 244.981,1001 
  "/>
<polyline clip-path="url(#clip750)" style="stroke:#000000; stroke-linecap:butt; stroke-linejoin:round; stroke-width:4; stroke-opacity:1; fill:none" points="
  219.38,601.908 244.981,601.908 
  "/>
<polyline clip-path="url(#clip750)" style="stroke:#000000; stroke-linecap:butt; stroke-linejoin:round; stroke-width:4; stroke-opacity:1; fill:none" points="
  219.38,202.813 244.981,202.813 
  "/>
<path clip-path="url(#clip750)" d="M126.205 1385.9 Q122.593 1385.9 120.765 1389.46 Q118.959 1393 118.959 1400.13 Q118.959 1407.24 120.765 1410.8 Q122.593 1414.35 126.205 1414.35 Q129.839 1414.35 131.644 1410.8 Q133.473 1407.24 133.473 1400.13 Q133.473 1393 131.644 1389.46 Q129.839 1385.9 126.205 1385.9 M126.205 1382.19 Q132.015 1382.19 135.07 1386.8 Q138.149 1391.38 138.149 1400.13 Q138.149 1408.86 135.07 1413.47 Q132.015 1418.05 126.205 1418.05 Q120.394 1418.05 117.316 1413.47 Q114.26 1408.86 114.26 1400.13 Q114.26 1391.38 117.316 1386.8 Q120.394 1382.19 126.205 1382.19 Z" fill="#000000" fill-rule="evenodd" fill-opacity="1" /><path clip-path="url(#clip750)" d="M146.366 1411.5 L151.251 1411.5 L151.251 1417.38 L146.366 1417.38 L146.366 1411.5 Z" fill="#000000" fill-rule="evenodd" fill-opacity="1" /><path clip-path="url(#clip750)" d="M171.436 1385.9 Q167.825 1385.9 165.996 1389.46 Q164.19 1393 164.19 1400.13 Q164.19 1407.24 165.996 1410.8 Q167.825 1414.35 171.436 1414.35 Q175.07 1414.35 176.876 1410.8 Q178.704 1407.24 178.704 1400.13 Q178.704 1393 176.876 1389.46 Q175.07 1385.9 171.436 1385.9 M171.436 1382.19 Q177.246 1382.19 180.301 1386.8 Q183.38 1391.38 183.38 1400.13 Q183.38 1408.86 180.301 1413.47 Q177.246 1418.05 171.436 1418.05 Q165.626 1418.05 162.547 1413.47 Q159.491 1408.86 159.491 1400.13 Q159.491 1391.38 162.547 1386.8 Q165.626 1382.19 171.436 1382.19 Z" fill="#000000" fill-rule="evenodd" fill-opacity="1" /><path clip-path="url(#clip750)" d="M127.2 986.802 Q123.589 986.802 121.76 990.367 Q119.955 993.908 119.955 1001.04 Q119.955 1008.14 121.76 1011.71 Q123.589 1015.25 127.2 1015.25 Q130.834 1015.25 132.64 1011.71 Q134.468 1008.14 134.468 1001.04 Q134.468 993.908 132.64 990.367 Q130.834 986.802 127.2 986.802 M127.2 983.098 Q133.01 983.098 136.066 987.705 Q139.144 992.288 139.144 1001.04 Q139.144 1009.76 136.066 1014.37 Q133.01 1018.95 127.2 1018.95 Q121.39 1018.95 118.311 1014.37 Q115.256 1009.76 115.256 1001.04 Q115.256 992.288 118.311 987.705 Q121.39 983.098 127.2 983.098 Z" fill="#000000" fill-rule="evenodd" fill-opacity="1" /><path clip-path="url(#clip750)" d="M147.362 1012.4 L152.246 1012.4 L152.246 1018.28 L147.362 1018.28 L147.362 1012.4 Z" fill="#000000" fill-rule="evenodd" fill-opacity="1" /><path clip-path="url(#clip750)" d="M162.477 983.723 L180.834 983.723 L180.834 987.658 L166.76 987.658 L166.76 996.131 Q167.778 995.783 168.797 995.621 Q169.815 995.436 170.834 995.436 Q176.621 995.436 180.001 998.607 Q183.38 1001.78 183.38 1007.2 Q183.38 1012.77 179.908 1015.88 Q176.436 1018.95 170.116 1018.95 Q167.94 1018.95 165.672 1018.58 Q163.427 1018.21 161.019 1017.47 L161.019 1012.77 Q163.102 1013.91 165.325 1014.46 Q167.547 1015.02 170.024 1015.02 Q174.028 1015.02 176.366 1012.91 Q178.704 1010.81 178.704 1007.2 Q178.704 1003.58 176.366 1001.48 Q174.028 999.371 170.024 999.371 Q168.149 999.371 166.274 999.788 Q164.422 1000.2 162.477 1001.08 L162.477 983.723 Z" fill="#000000" fill-rule="evenodd" fill-opacity="1" /><path clip-path="url(#clip750)" d="M117.015 615.253 L124.654 615.253 L124.654 588.887 L116.343 590.554 L116.343 586.295 L124.607 584.628 L129.283 584.628 L129.283 615.253 L136.922 615.253 L136.922 619.188 L117.015 619.188 L117.015 615.253 Z" fill="#000000" fill-rule="evenodd" fill-opacity="1" /><path clip-path="url(#clip750)" d="M146.366 613.308 L151.251 613.308 L151.251 619.188 L146.366 619.188 L146.366 613.308 Z" fill="#000000" fill-rule="evenodd" fill-opacity="1" /><path clip-path="url(#clip750)" d="M171.436 587.707 Q167.825 587.707 165.996 591.272 Q164.19 594.813 164.19 601.943 Q164.19 609.049 165.996 612.614 Q167.825 616.156 171.436 616.156 Q175.07 616.156 176.876 612.614 Q178.704 609.049 178.704 601.943 Q178.704 594.813 176.876 591.272 Q175.07 587.707 171.436 587.707 M171.436 584.003 Q177.246 584.003 180.301 588.61 Q183.38 593.193 183.38 601.943 Q183.38 610.67 180.301 615.276 Q177.246 619.859 171.436 619.859 Q165.626 619.859 162.547 615.276 Q159.491 610.67 159.491 601.943 Q159.491 593.193 162.547 588.61 Q165.626 584.003 171.436 584.003 Z" fill="#000000" fill-rule="evenodd" fill-opacity="1" /><path clip-path="url(#clip750)" d="M118.01 216.158 L125.649 216.158 L125.649 189.792 L117.339 191.459 L117.339 187.2 L125.603 185.533 L130.279 185.533 L130.279 216.158 L137.917 216.158 L137.917 220.093 L118.01 220.093 L118.01 216.158 Z" fill="#000000" fill-rule="evenodd" fill-opacity="1" /><path clip-path="url(#clip750)" d="M147.362 214.213 L152.246 214.213 L152.246 220.093 L147.362 220.093 L147.362 214.213 Z" fill="#000000" fill-rule="evenodd" fill-opacity="1" /><path clip-path="url(#clip750)" d="M162.477 185.533 L180.834 185.533 L180.834 189.468 L166.76 189.468 L166.76 197.94 Q167.778 197.593 168.797 197.431 Q169.815 197.246 170.834 197.246 Q176.621 197.246 180.001 200.417 Q183.38 203.588 183.38 209.005 Q183.38 214.584 179.908 217.686 Q176.436 220.764 170.116 220.764 Q167.94 220.764 165.672 220.394 Q163.427 220.023 161.019 219.283 L161.019 214.584 Q163.102 215.718 165.325 216.274 Q167.547 216.829 170.024 216.829 Q174.028 216.829 176.366 214.723 Q178.704 212.616 178.704 209.005 Q178.704 205.394 176.366 203.287 Q174.028 201.181 170.024 201.181 Q168.149 201.181 166.274 201.598 Q164.422 202.014 162.477 202.894 L162.477 185.533 Z" fill="#000000" fill-rule="evenodd" fill-opacity="1" /><path clip-path="url(#clip750)" d="M21.7677 856.683 L58.7206 856.683 L58.7206 848.916 Q58.7206 839.081 54.2646 834.53 Q49.8086 829.947 40.1964 829.947 Q30.6479 829.947 26.2237 834.53 Q21.7677 839.081 21.7677 848.916 L21.7677 856.683 M16.4842 863.112 L16.4842 849.903 Q16.4842 836.09 22.2451 829.628 Q27.9743 823.167 40.1964 823.167 Q52.4822 823.167 58.2432 829.66 Q64.0042 836.153 64.0042 849.903 L64.0042 863.112 L16.4842 863.112 Z" fill="#000000" fill-rule="evenodd" fill-opacity="1" /><path clip-path="url(#clip750)" d="M44.7161 782.681 L47.5806 782.681 L47.5806 809.608 Q53.6281 809.226 56.8109 805.98 Q59.9619 802.701 59.9619 796.877 Q59.9619 793.503 59.1344 790.352 Q58.3069 787.169 56.6518 784.05 L62.1899 784.05 Q63.5267 787.201 64.227 790.511 Q64.9272 793.821 64.9272 797.227 Q64.9272 805.757 59.9619 810.754 Q54.9967 815.719 46.5303 815.719 Q37.7774 815.719 32.6531 811.009 Q27.4968 806.266 27.4968 798.245 Q27.4968 791.052 32.1438 786.883 Q36.7589 782.681 44.7161 782.681 M42.9973 788.538 Q38.1912 788.601 35.3266 791.243 Q32.4621 793.853 32.4621 798.182 Q32.4621 803.083 35.2312 806.043 Q38.0002 808.972 43.0292 809.417 L42.9973 788.538 Z" fill="#000000" fill-rule="evenodd" fill-opacity="1" /><path clip-path="url(#clip750)" d="M42.4881 743.437 L64.0042 743.437 L64.0042 749.293 L42.679 749.293 Q37.6183 749.293 35.1038 751.266 Q32.5894 753.24 32.5894 757.187 Q32.5894 761.929 35.6131 764.666 Q38.6368 767.404 43.8567 767.404 L64.0042 767.404 L64.0042 773.292 L28.3562 773.292 L28.3562 767.404 L33.8944 767.404 Q30.6797 765.303 29.0883 762.47 Q27.4968 759.606 27.4968 755.882 Q27.4968 749.739 31.3163 746.588 Q35.1038 743.437 42.4881 743.437 Z" fill="#000000" fill-rule="evenodd" fill-opacity="1" /><path clip-path="url(#clip750)" d="M29.4065 709.03 L34.9447 709.03 Q33.6716 711.513 33.035 714.186 Q32.3984 716.86 32.3984 719.724 Q32.3984 724.085 33.7352 726.281 Q35.072 728.445 37.7456 728.445 Q39.7826 728.445 40.9603 726.886 Q42.1061 725.326 43.1565 720.616 L43.6021 718.61 Q44.9389 712.372 47.3897 709.762 Q49.8086 707.12 54.1691 707.12 Q59.1344 707.12 62.0308 711.067 Q64.9272 714.982 64.9272 721.857 Q64.9272 724.721 64.3543 727.841 Q63.8132 730.928 62.6992 734.366 L56.6518 734.366 Q58.3387 731.119 59.198 727.968 Q60.0256 724.817 60.0256 721.73 Q60.0256 717.592 58.6251 715.364 Q57.1929 713.136 54.6147 713.136 Q52.2276 713.136 50.9545 714.759 Q49.6813 716.351 48.5037 721.793 L48.0262 723.83 Q46.8804 729.273 44.5251 731.692 Q42.138 734.111 38.0002 734.111 Q32.9713 734.111 30.2341 730.546 Q27.4968 726.981 27.4968 720.425 Q27.4968 717.178 27.9743 714.314 Q28.4517 711.449 29.4065 709.03 Z" fill="#000000" fill-rule="evenodd" fill-opacity="1" /><path clip-path="url(#clip750)" d="M28.3562 697.795 L28.3562 691.938 L64.0042 691.938 L64.0042 697.795 L28.3562 697.795 M14.479 697.795 L14.479 691.938 L21.895 691.938 L21.895 697.795 L14.479 697.795 Z" fill="#000000" fill-rule="evenodd" fill-opacity="1" /><path clip-path="url(#clip750)" d="M18.2347 673.891 L28.3562 673.891 L28.3562 661.828 L32.9077 661.828 L32.9077 673.891 L52.2594 673.891 Q56.6199 673.891 57.8613 672.714 Q59.1026 671.504 59.1026 667.844 L59.1026 661.828 L64.0042 661.828 L64.0042 667.844 Q64.0042 674.623 61.4897 677.201 Q58.9434 679.78 52.2594 679.78 L32.9077 679.78 L32.9077 684.076 L28.3562 684.076 L28.3562 679.78 L18.2347 679.78 L18.2347 673.891 Z" fill="#000000" fill-rule="evenodd" fill-opacity="1" /><path clip-path="url(#clip750)" d="M67.3143 639.294 Q73.68 641.776 75.6216 644.132 Q77.5631 646.487 77.5631 650.434 L77.5631 655.112 L72.6615 655.112 L72.6615 651.675 Q72.6615 649.256 71.5157 647.919 Q70.3699 646.582 66.1048 644.959 L63.4312 643.909 L28.3562 658.327 L28.3562 652.121 L56.238 640.981 L28.3562 629.841 L28.3562 623.634 L67.3143 639.294 Z" fill="#000000" fill-rule="evenodd" fill-opacity="1" /><polyline clip-path="url(#clip752)" style="stroke:#009af9; stroke-linecap:butt; stroke-linejoin:round; stroke-width:20; stroke-opacity:1; fill:none" points="
  219.38,1400.1 223.853,1399.96 228.327,1398.34 232.8,1393.72 237.273,1385.72 241.746,1374.58 246.22,1360.8 250.693,1344.94 255.166,1327.51 264.113,1289.74 
  273.059,1250.32 282.006,1211.16 290.952,1173.45 299.899,1137.89 308.845,1104.87 317.792,1074.56 326.738,1047 335.685,1022.12 344.631,999.816 353.578,979.951 
  362.524,962.367 371.471,946.903 380.417,933.396 389.364,921.69 398.31,911.635 416.203,895.922 434.096,885.236 451.989,878.704 469.882,875.587 478.829,875.111 
  487.775,875.265 496.722,875.988 505.668,877.222 547.03,888.227 588.391,905.252 629.753,925.694 671.115,947.857 753.838,993.339 836.561,1036.86 919.285,1076.6 
  1002.01,1112.08 1084.73,1143.41 1167.45,1170.93 1250.18,1195.05 1332.9,1216.19 1415.62,1234.75 1498.35,1251.06 1663.79,1278.13 1829.24,1299.36 1994.69,1316.16 
  2160.13,1329.61 2325.58,1340.47 2491.03,1349.32 2821.92,1362.6 3152.81,1371.82 3550.52,1379.47 3948.23,1384.71 4345.93,1388.4 4743.64,1391.06 5416.15,1394.07 
  6088.66,1395.94 7549.73,1398.07 8896.71,1398.96 10340.8,1399.44 12013.9,1399.73 13500.8,1399.86 14804.7,1399.94 16226.3,1399.99 17656.3,1400.02 19237.3,1400.04 
  20741.7,1400.06 22305.8,1400.07 23622.5,1400.08 25230,1400.08 26741.2,1400.09 29162.1,1400.09 29534.7,1400.09 
  "/>
<polyline clip-path="url(#clip752)" style="stroke:#e26f46; stroke-linecap:butt; stroke-linejoin:round; stroke-width:20; stroke-opacity:1; fill:none" points="
  219.38,1400.1 228.179,1400.1 236.977,1400.1 318.333,1400.1 399.688,1400.1 448.579,1399.96 497.471,1397.28 518.139,1392.71 538.808,1383.22 559.476,1365.82 
  580.144,1337.04 591.37,1315.44 602.596,1289.04 613.822,1257.48 625.048,1220.55 636.274,1178.18 647.5,1130.45 658.726,1077.62 669.951,1020.12 690.65,903.886 
  711.348,778.567 732.047,649.907 752.745,524.032 763.841,459.78 774.936,398.864 786.032,342.032 797.127,289.937 808.223,243.125 819.318,202.031 830.414,166.976 
  841.509,138.17 854.365,112.737 867.22,95.8133 880.075,87.223 892.93,86.6476 905.786,93.6482 918.641,107.689 931.496,128.162 944.351,154.408 967.2,213.153 
  990.048,284.028 1012.9,363.256 1035.74,447.389 1075.82,598.02 1115.89,742.421 1137.73,815.59 1159.58,883.816 1181.42,946.666 1203.27,1003.95 1225.24,1055.95 
  1247.22,1102.48 1269.19,1143.78 1291.17,1180.2 1315.46,1215.24 1339.76,1245.31 1364.05,1270.96 1388.35,1292.72 1434.58,1325.13 1480.81,1348.24 1576.96,1376.57 
  1657.89,1388.22 1756.7,1395.03 1849.58,1397.84 1998.39,1399.49 2021.29,1399.6 
  "/>
<polyline clip-path="url(#clip752)" style="stroke:#3da44d; stroke-linecap:butt; stroke-linejoin:round; stroke-width:20; stroke-opacity:1; fill:none" points="
  219.38,1400.1 230.527,1400.1 241.675,1400.1 252.822,1400.1 263.969,1400.1 289.737,1399.95 315.506,1398.53 341.274,1392.72 367.042,1378.2 379.926,1366.48 
  392.81,1351.41 405.694,1332.88 418.578,1310.95 431.462,1285.8 444.347,1257.74 457.231,1227.18 470.115,1194.57 495.883,1125.16 521.651,1053.48 547.419,983.135 
  573.187,917.118 598.956,857.648 624.724,806.189 650.492,763.541 676.26,729.95 691.746,714.06 707.231,701.288 722.717,691.506 738.203,684.563 753.688,680.293 
  769.174,678.514 784.659,679.042 800.145,681.686 831.116,692.573 862.087,709.714 893.059,731.757 924.03,757.49 976.401,806.508 1028.77,858.994 1081.14,911.963 
  1133.52,963.378 1190.41,1015.97 1247.3,1064.26 1304.19,1107.86 1361.08,1146.72 1413.52,1178.5 1465.97,1206.64 1518.42,1231.43 1570.87,1253.19 1627.1,1273.5 
  1683.33,1291.05 1739.56,1306.18 1795.78,1319.21 1926.08,1342.8 2056.37,1359.4 2172.16,1369.97 2287.96,1377.71 2389.49,1382.79 2491.03,1386.67 2712.44,1392.29 
  2935.16,1395.5 3181.41,1397.49 3415.71,1398.55 3659.33,1399.18 3864.4,1399.5 4114.77,1399.74 4350.13,1399.87 4727.19,1399.99 4785.22,1400 
  "/>
<path clip-path="url(#clip750)" d="
M1869.49 335.573 L2281.64 335.573 L2281.64 93.6527 L1869.49 93.6527  Z
  " fill="#ffffff" fill-rule="evenodd" fill-opacity="1"/>
<polyline clip-path="url(#clip750)" style="stroke:#000000; stroke-linecap:butt; stroke-linejoin:round; stroke-width:4; stroke-opacity:1; fill:none" points="
  1869.49,335.573 2281.64,335.573 2281.64,93.6527 1869.49,93.6527 1869.49,335.573 
  "/>
<polyline clip-path="url(#clip750)" style="stroke:#009af9; stroke-linecap:butt; stroke-linejoin:round; stroke-width:4; stroke-opacity:1; fill:none" points="
  1893.19,154.133 2035.41,154.133 
  "/>
<path clip-path="url(#clip750)" d="M2084.49 150.153 Q2084.49 151.793 2082.14 151.793 L2076.87 151.793 Q2078.35 153.901 2078.35 157.016 Q2078.35 159.686 2077.25 162.192 Q2076.17 164.675 2074.44 166.408 Q2072.73 168.141 2070.57 169.196 Q2068.42 170.226 2066.31 170.226 Q2063.1 170.226 2061.11 168.048 Q2059.12 165.87 2059.12 162.637 Q2059.12 160.927 2059.7 159.03 Q2060.31 157.133 2061.46 155.376 Q2062.61 153.596 2064.11 152.167 Q2065.63 150.739 2067.6 149.872 Q2069.59 149.005 2071.67 149.005 L2082.61 149.005 Q2083.2 149.005 2083.5 149.052 Q2083.83 149.076 2084.16 149.357 Q2084.49 149.614 2084.49 150.153 M2075.28 156.454 Q2075.28 155.892 2075.21 155.4 Q2075.14 154.884 2074.88 154.205 Q2074.62 153.502 2074.18 153.011 Q2073.73 152.495 2072.87 152.144 Q2072.02 151.793 2070.88 151.793 Q2069.26 151.793 2067.48 152.683 Q2065.7 153.573 2064.34 155.774 Q2063.22 157.648 2062.66 160.084 Q2062.09 162.52 2062.09 163.972 Q2062.09 166.455 2063.29 167.814 Q2064.51 169.149 2066.36 169.149 Q2067.88 169.149 2069.61 168.118 Q2071.35 167.064 2072.68 165.073 Q2073.85 163.34 2074.55 160.81 Q2075.28 158.281 2075.28 156.454 Z" fill="#000000" fill-rule="evenodd" fill-opacity="1" /><path clip-path="url(#clip750)" d="M2099.54 162.403 Q2099.58 161.817 2100.5 161.817 L2129.89 161.817 Q2131.27 161.817 2131.3 162.356 Q2131.3 162.942 2129.99 162.918 L2100.82 162.918 Q2099.54 162.942 2099.54 162.403 M2099.54 153.034 Q2099.54 152.448 2100.54 152.472 L2129.84 152.472 Q2131.27 152.472 2131.3 153.034 Q2131.3 153.573 2130.08 153.573 L2100.5 153.573 Q2099.54 153.573 2099.54 153.034 Z" fill="#000000" fill-rule="evenodd" fill-opacity="1" /><path clip-path="url(#clip750)" d="M2149.79 142.307 L2149.79 140.808 Q2155.55 140.808 2158.52 137.739 Q2159.34 137.739 2159.48 137.927 Q2159.63 138.114 2159.63 138.981 L2159.63 165.893 Q2159.63 167.322 2160.33 167.767 Q2161.03 168.212 2164.1 168.212 L2165.62 168.212 L2165.62 169.687 Q2163.94 169.547 2157.85 169.547 Q2151.76 169.547 2150.09 169.687 L2150.09 168.212 L2151.61 168.212 Q2154.64 168.212 2155.36 167.79 Q2156.09 167.345 2156.09 165.893 L2156.09 141.042 Q2153.58 142.307 2149.79 142.307 Z" fill="#000000" fill-rule="evenodd" fill-opacity="1" /><polyline clip-path="url(#clip750)" style="stroke:#e26f46; stroke-linecap:butt; stroke-linejoin:round; stroke-width:4; stroke-opacity:1; fill:none" points="
  1893.19,214.613 2035.41,214.613 
  "/>
<path clip-path="url(#clip750)" d="M2084.49 210.375 Q2084.49 212.015 2082.14 212.015 L2076.87 212.015 Q2078.35 214.123 2078.35 217.238 Q2078.35 219.908 2077.25 222.414 Q2076.17 224.897 2074.44 226.63 Q2072.73 228.364 2070.57 229.418 Q2068.42 230.448 2066.31 230.448 Q2063.1 230.448 2061.11 228.27 Q2059.12 226.092 2059.12 222.859 Q2059.12 221.15 2059.7 219.252 Q2060.31 217.355 2061.46 215.598 Q2062.61 213.818 2064.11 212.39 Q2065.63 210.961 2067.6 210.094 Q2069.59 209.228 2071.67 209.228 L2082.61 209.228 Q2083.2 209.228 2083.5 209.274 Q2083.83 209.298 2084.16 209.579 Q2084.49 209.837 2084.49 210.375 M2075.28 216.676 Q2075.28 216.114 2075.21 215.622 Q2075.14 215.107 2074.88 214.427 Q2074.62 213.725 2074.18 213.233 Q2073.73 212.717 2072.87 212.366 Q2072.02 212.015 2070.88 212.015 Q2069.26 212.015 2067.48 212.905 Q2065.7 213.795 2064.34 215.997 Q2063.22 217.87 2062.66 220.306 Q2062.09 222.742 2062.09 224.194 Q2062.09 226.677 2063.29 228.036 Q2064.51 229.371 2066.36 229.371 Q2067.88 229.371 2069.61 228.34 Q2071.35 227.286 2072.68 225.295 Q2073.85 223.562 2074.55 221.032 Q2075.28 218.503 2075.28 216.676 Z" fill="#000000" fill-rule="evenodd" fill-opacity="1" /><path clip-path="url(#clip750)" d="M2099.54 222.625 Q2099.58 222.04 2100.5 222.04 L2129.89 222.04 Q2131.27 222.04 2131.3 222.578 Q2131.3 223.164 2129.99 223.14 L2100.82 223.14 Q2099.54 223.164 2099.54 222.625 M2099.54 213.256 Q2099.54 212.671 2100.54 212.694 L2129.84 212.694 Q2131.27 212.694 2131.3 213.256 Q2131.3 213.795 2130.08 213.795 L2100.5 213.795 Q2099.54 213.795 2099.54 213.256 Z" fill="#000000" fill-rule="evenodd" fill-opacity="1" /><path clip-path="url(#clip750)" d="M2149.79 214.568 Q2149.79 207.518 2151.57 203.676 Q2154.05 197.961 2159.91 197.961 Q2161.15 197.961 2162.44 198.313 Q2163.75 198.641 2165.39 199.929 Q2167.05 201.217 2168.06 203.325 Q2169.98 207.401 2169.98 214.568 Q2169.98 221.571 2168.2 225.389 Q2165.6 230.964 2159.86 230.964 Q2157.7 230.964 2155.5 229.863 Q2153.32 228.762 2151.94 226.115 Q2149.79 222.157 2149.79 214.568 M2153.77 213.982 Q2153.77 221.22 2154.29 224.101 Q2154.87 227.216 2156.46 228.574 Q2158.08 229.91 2159.86 229.91 Q2161.78 229.91 2163.37 228.481 Q2164.99 227.029 2165.48 223.913 Q2166.02 220.845 2166 213.982 Q2166 207.307 2165.53 204.637 Q2164.9 201.522 2163.21 200.28 Q2161.55 199.015 2159.86 199.015 Q2159.23 199.015 2158.55 199.203 Q2157.89 199.39 2156.93 199.929 Q2155.97 200.468 2155.22 201.803 Q2154.5 203.138 2154.14 205.152 Q2153.77 207.752 2153.77 213.982 Z" fill="#000000" fill-rule="evenodd" fill-opacity="1" /><path clip-path="url(#clip750)" d="M2174.26 229.137 Q2173.54 228.364 2173.54 227.357 Q2173.54 226.349 2174.26 225.623 Q2174.99 224.874 2176.09 224.874 Q2177.15 224.874 2177.85 225.576 Q2178.57 226.256 2178.57 227.38 Q2178.57 228.481 2177.8 229.207 Q2177.05 229.91 2176.09 229.91 Q2174.99 229.91 2174.26 229.137 Z" fill="#000000" fill-rule="evenodd" fill-opacity="1" /><path clip-path="url(#clip750)" d="M2186.74 229.91 Q2186.74 229.043 2186.81 228.785 Q2186.9 228.528 2187.27 228.129 L2196.48 217.87 Q2201.51 212.202 2201.51 207.26 Q2201.51 204.051 2199.83 201.756 Q2198.17 199.46 2195.1 199.46 Q2192.99 199.46 2191.21 200.749 Q2189.43 202.037 2188.61 204.332 Q2188.75 204.285 2189.24 204.285 Q2190.44 204.285 2191.09 205.035 Q2191.77 205.784 2191.77 206.792 Q2191.77 208.08 2190.93 208.712 Q2190.11 209.321 2189.29 209.321 Q2188.96 209.321 2188.52 209.251 Q2188.09 209.181 2187.41 208.525 Q2186.74 207.846 2186.74 206.651 Q2186.74 203.302 2189.26 200.632 Q2191.82 197.961 2195.71 197.961 Q2200.11 197.961 2202.99 200.585 Q2205.89 203.185 2205.89 207.26 Q2205.89 208.689 2205.45 210 Q2205.03 211.289 2204.44 212.296 Q2203.88 213.303 2202.33 214.919 Q2200.79 216.535 2199.55 217.683 Q2198.31 218.831 2195.52 221.267 L2190.44 226.209 L2199.08 226.209 Q2203.29 226.209 2203.62 225.834 Q2204.09 225.155 2204.68 221.571 L2205.89 221.571 L2204.54 229.91 L2186.74 229.91 Z" fill="#000000" fill-rule="evenodd" fill-opacity="1" /><path clip-path="url(#clip750)" d="M2210.49 222.18 Q2210.49 220.751 2211.26 220.213 Q2212.03 219.651 2212.85 219.651 Q2213.95 219.651 2214.58 220.353 Q2215.24 221.032 2215.24 221.993 Q2215.24 222.953 2214.58 223.656 Q2213.95 224.335 2212.85 224.335 Q2212.31 224.335 2212.03 224.241 Q2212.66 226.443 2214.58 228.036 Q2216.53 229.628 2219.08 229.628 Q2222.29 229.628 2224.21 226.513 Q2225.36 224.499 2225.36 219.932 Q2225.36 215.903 2224.49 213.889 Q2223.16 210.82 2220.42 210.82 Q2216.53 210.82 2214.23 214.17 Q2213.95 214.591 2213.62 214.615 Q2213.16 214.615 2213.04 214.357 Q2212.94 214.076 2212.94 213.35 L2212.94 199.156 Q2212.94 198.008 2213.41 198.008 Q2213.6 198.008 2214 198.149 Q2217.02 199.484 2220.37 199.507 Q2223.81 199.507 2226.9 198.102 Q2227.14 197.961 2227.28 197.961 Q2227.75 197.961 2227.77 198.5 Q2227.77 198.687 2227.37 199.25 Q2227 199.788 2226.18 200.514 Q2225.36 201.217 2224.3 201.896 Q2223.25 202.576 2221.7 203.044 Q2220.18 203.489 2218.5 203.489 Q2216.48 203.489 2214.42 202.857 L2214.42 212.202 Q2216.9 209.766 2220.51 209.766 Q2224.35 209.766 2227 212.858 Q2229.64 215.95 2229.64 220.26 Q2229.64 224.78 2226.51 227.872 Q2223.39 230.964 2219.17 230.964 Q2215.33 230.964 2212.9 228.223 Q2210.49 225.483 2210.49 222.18 Z" fill="#000000" fill-rule="evenodd" fill-opacity="1" /><polyline clip-path="url(#clip750)" style="stroke:#3da44d; stroke-linecap:butt; stroke-linejoin:round; stroke-width:4; stroke-opacity:1; fill:none" points="
  1893.19,275.093 2035.41,275.093 
  "/>
<path clip-path="url(#clip750)" d="M2084.49 270.855 Q2084.49 272.495 2082.14 272.495 L2076.87 272.495 Q2078.35 274.603 2078.35 277.718 Q2078.35 280.388 2077.25 282.894 Q2076.17 285.377 2074.44 287.11 Q2072.73 288.844 2070.57 289.898 Q2068.42 290.928 2066.31 290.928 Q2063.1 290.928 2061.11 288.75 Q2059.12 286.572 2059.12 283.339 Q2059.12 281.63 2059.7 279.732 Q2060.31 277.835 2061.46 276.078 Q2062.61 274.298 2064.11 272.87 Q2065.63 271.441 2067.6 270.574 Q2069.59 269.708 2071.67 269.708 L2082.61 269.708 Q2083.2 269.708 2083.5 269.754 Q2083.83 269.778 2084.16 270.059 Q2084.49 270.317 2084.49 270.855 M2075.28 277.156 Q2075.28 276.594 2075.21 276.102 Q2075.14 275.587 2074.88 274.907 Q2074.62 274.205 2074.18 273.713 Q2073.73 273.197 2072.87 272.846 Q2072.02 272.495 2070.88 272.495 Q2069.26 272.495 2067.48 273.385 Q2065.7 274.275 2064.34 276.477 Q2063.22 278.35 2062.66 280.786 Q2062.09 283.222 2062.09 284.674 Q2062.09 287.157 2063.29 288.516 Q2064.51 289.851 2066.36 289.851 Q2067.88 289.851 2069.61 288.82 Q2071.35 287.766 2072.68 285.775 Q2073.85 284.042 2074.55 281.512 Q2075.28 278.983 2075.28 277.156 Z" fill="#000000" fill-rule="evenodd" fill-opacity="1" /><path clip-path="url(#clip750)" d="M2099.54 283.105 Q2099.58 282.52 2100.5 282.52 L2129.89 282.52 Q2131.27 282.52 2131.3 283.058 Q2131.3 283.644 2129.99 283.62 L2100.82 283.62 Q2099.54 283.644 2099.54 283.105 M2099.54 273.736 Q2099.54 273.151 2100.54 273.174 L2129.84 273.174 Q2131.27 273.174 2131.3 273.736 Q2131.3 274.275 2130.08 274.275 L2100.5 274.275 Q2099.54 274.275 2099.54 273.736 Z" fill="#000000" fill-rule="evenodd" fill-opacity="1" /><path clip-path="url(#clip750)" d="M2149.79 275.048 Q2149.79 267.998 2151.57 264.156 Q2154.05 258.441 2159.91 258.441 Q2161.15 258.441 2162.44 258.793 Q2163.75 259.121 2165.39 260.409 Q2167.05 261.697 2168.06 263.805 Q2169.98 267.881 2169.98 275.048 Q2169.98 282.051 2168.2 285.869 Q2165.6 291.444 2159.86 291.444 Q2157.7 291.444 2155.5 290.343 Q2153.32 289.242 2151.94 286.595 Q2149.79 282.637 2149.79 275.048 M2153.77 274.462 Q2153.77 281.7 2154.29 284.581 Q2154.87 287.696 2156.46 289.054 Q2158.08 290.39 2159.86 290.39 Q2161.78 290.39 2163.37 288.961 Q2164.99 287.509 2165.48 284.393 Q2166.02 281.325 2166 274.462 Q2166 267.787 2165.53 265.117 Q2164.9 262.002 2163.21 260.76 Q2161.55 259.495 2159.86 259.495 Q2159.23 259.495 2158.55 259.683 Q2157.89 259.87 2156.93 260.409 Q2155.97 260.948 2155.22 262.283 Q2154.5 263.618 2154.14 265.632 Q2153.77 268.232 2153.77 274.462 Z" fill="#000000" fill-rule="evenodd" fill-opacity="1" /><path clip-path="url(#clip750)" d="M2174.26 289.617 Q2173.54 288.844 2173.54 287.837 Q2173.54 286.829 2174.26 286.103 Q2174.99 285.354 2176.09 285.354 Q2177.15 285.354 2177.85 286.056 Q2178.57 286.736 2178.57 287.86 Q2178.57 288.961 2177.8 289.687 Q2177.05 290.39 2176.09 290.39 Q2174.99 290.39 2174.26 289.617 Z" fill="#000000" fill-rule="evenodd" fill-opacity="1" /><path clip-path="url(#clip750)" d="M2186.74 282.66 Q2186.74 281.231 2187.51 280.693 Q2188.28 280.131 2189.1 280.131 Q2190.2 280.131 2190.83 280.833 Q2191.49 281.512 2191.49 282.473 Q2191.49 283.433 2190.83 284.136 Q2190.2 284.815 2189.1 284.815 Q2188.56 284.815 2188.28 284.721 Q2188.91 286.923 2190.83 288.516 Q2192.78 290.108 2195.33 290.108 Q2198.54 290.108 2200.46 286.993 Q2201.61 284.979 2201.61 280.412 Q2201.61 276.383 2200.74 274.369 Q2199.41 271.3 2196.67 271.3 Q2192.78 271.3 2190.48 274.65 Q2190.2 275.071 2189.87 275.095 Q2189.41 275.095 2189.29 274.837 Q2189.19 274.556 2189.19 273.83 L2189.19 259.636 Q2189.19 258.488 2189.66 258.488 Q2189.85 258.488 2190.25 258.629 Q2193.27 259.964 2196.62 259.987 Q2200.06 259.987 2203.15 258.582 Q2203.39 258.441 2203.53 258.441 Q2204 258.441 2204.02 258.98 Q2204.02 259.167 2203.62 259.73 Q2203.25 260.268 2202.43 260.994 Q2201.61 261.697 2200.55 262.376 Q2199.5 263.056 2197.95 263.524 Q2196.43 263.969 2194.75 263.969 Q2192.73 263.969 2190.67 263.337 L2190.67 272.682 Q2193.15 270.246 2196.76 270.246 Q2200.6 270.246 2203.25 273.338 Q2205.89 276.43 2205.89 280.74 Q2205.89 285.26 2202.76 288.352 Q2199.64 291.444 2195.42 291.444 Q2191.58 291.444 2189.15 288.703 Q2186.74 285.963 2186.74 282.66 Z" fill="#000000" fill-rule="evenodd" fill-opacity="1" /></svg>
