<?xml version="1.0" encoding="utf-8"?>
<svg xmlns="http://www.w3.org/2000/svg" xmlns:xlink="http://www.w3.org/1999/xlink" width="600" height="400" viewBox="0 0 2400 1600">
<defs>
  <clipPath id="clip050">
    <rect x="0" y="0" width="2400" height="1600"/>
  </clipPath>
</defs>
<path clip-path="url(#clip050)" d="
M0 1600 L2400 1600 L2400 0 L0 0  Z
  " fill="#ffffff" fill-rule="evenodd" fill-opacity="1"/>
<defs>
  <clipPath id="clip051">
    <rect x="480" y="0" width="1681" height="1600"/>
  </clipPath>
</defs>
<defs>
  <clipPath id="clip052">
    <rect x="219" y="47" width="2134" height="1393"/>
  </clipPath>
</defs>
<path clip-path="url(#clip050)" d="
M219.866 1439.5 L2352.76 1439.5 L2352.76 47.2441 L219.866 47.2441  Z
  " fill="#ffffff" fill-rule="evenodd" fill-opacity="1"/>
<polyline clip-path="url(#clip052)" style="stroke:#000000; stroke-linecap:butt; stroke-linejoin:round; stroke-width:2; stroke-opacity:0.1; fill:none" points="
  382.376,1439.5 382.376,47.2441 
  "/>
<polyline clip-path="url(#clip052)" style="stroke:#000000; stroke-linecap:butt; stroke-linejoin:round; stroke-width:2; stroke-opacity:0.1; fill:none" points="
  947.335,1439.5 947.335,47.2441 
  "/>
<polyline clip-path="url(#clip052)" style="stroke:#000000; stroke-linecap:butt; stroke-linejoin:round; stroke-width:2; stroke-opacity:0.1; fill:none" points="
  1512.29,1439.5 1512.29,47.2441 
  "/>
<polyline clip-path="url(#clip052)" style="stroke:#000000; stroke-linecap:butt; stroke-linejoin:round; stroke-width:2; stroke-opacity:0.1; fill:none" points="
  2077.25,1439.5 2077.25,47.2441 
  "/>
<polyline clip-path="url(#clip050)" style="stroke:#000000; stroke-linecap:butt; stroke-linejoin:round; stroke-width:4; stroke-opacity:1; fill:none" points="
  219.866,1439.5 2352.76,1439.5 
  "/>
<polyline clip-path="url(#clip050)" style="stroke:#000000; stroke-linecap:butt; stroke-linejoin:round; stroke-width:4; stroke-opacity:1; fill:none" points="
  382.376,1439.5 382.376,1422.79 
  "/>
<polyline clip-path="url(#clip050)" style="stroke:#000000; stroke-linecap:butt; stroke-linejoin:round; stroke-width:4; stroke-opacity:1; fill:none" points="
  947.335,1439.5 947.335,1422.79 
  "/>
<polyline clip-path="url(#clip050)" style="stroke:#000000; stroke-linecap:butt; stroke-linejoin:round; stroke-width:4; stroke-opacity:1; fill:none" points="
  1512.29,1439.5 1512.29,1422.79 
  "/>
<polyline clip-path="url(#clip050)" style="stroke:#000000; stroke-linecap:butt; stroke-linejoin:round; stroke-width:4; stroke-opacity:1; fill:none" points="
  2077.25,1439.5 2077.25,1422.79 
  "/>
<path clip-path="url(#clip050)" d="M382.376 1468.69 Q378.765 1468.69 376.936 1472.26 Q375.13 1475.8 375.13 1482.93 Q375.13 1490.04 376.936 1493.6 Q378.765 1497.14 382.376 1497.14 Q386.01 1497.14 387.816 1493.6 Q389.644 1490.04 389.644 1482.93 Q389.644 1475.8 387.816 1472.26 Q386.01 1468.69 382.376 1468.69 M382.376 1464.99 Q388.186 1464.99 391.241 1469.6 Q394.32 1474.18 394.32 1482.93 Q394.32 1491.66 391.241 1496.26 Q388.186 1500.85 382.376 1500.85 Q376.566 1500.85 373.487 1496.26 Q370.431 1491.66 370.431 1482.93 Q370.431 1474.18 373.487 1469.6 Q376.566 1464.99 382.376 1464.99 Z" fill="#000000" fill-rule="evenodd" fill-opacity="1" /><path clip-path="url(#clip050)" d="M937.613 1465.61 L955.97 1465.61 L955.97 1469.55 L941.896 1469.55 L941.896 1478.02 Q942.914 1477.67 943.933 1477.51 Q944.951 1477.33 945.97 1477.33 Q951.757 1477.33 955.136 1480.5 Q958.516 1483.67 958.516 1489.09 Q958.516 1494.66 955.044 1497.77 Q951.571 1500.85 945.252 1500.85 Q943.076 1500.85 940.808 1500.47 Q938.562 1500.1 936.155 1499.36 L936.155 1494.66 Q938.238 1495.8 940.46 1496.35 Q942.683 1496.91 945.159 1496.91 Q949.164 1496.91 951.502 1494.8 Q953.84 1492.7 953.84 1489.09 Q953.84 1485.47 951.502 1483.37 Q949.164 1481.26 945.159 1481.26 Q943.284 1481.26 941.409 1481.68 Q939.558 1482.1 937.613 1482.97 L937.613 1465.61 Z" fill="#000000" fill-rule="evenodd" fill-opacity="1" /><path clip-path="url(#clip050)" d="M1486.98 1496.24 L1494.62 1496.24 L1494.62 1469.87 L1486.31 1471.54 L1486.31 1467.28 L1494.58 1465.61 L1499.25 1465.61 L1499.25 1496.24 L1506.89 1496.24 L1506.89 1500.17 L1486.98 1500.17 L1486.98 1496.24 Z" fill="#000000" fill-rule="evenodd" fill-opacity="1" /><path clip-path="url(#clip050)" d="M1526.33 1468.69 Q1522.72 1468.69 1520.89 1472.26 Q1519.09 1475.8 1519.09 1482.93 Q1519.09 1490.04 1520.89 1493.6 Q1522.72 1497.14 1526.33 1497.14 Q1529.97 1497.14 1531.77 1493.6 Q1533.6 1490.04 1533.6 1482.93 Q1533.6 1475.8 1531.77 1472.26 Q1529.97 1468.69 1526.33 1468.69 M1526.33 1464.99 Q1532.14 1464.99 1535.2 1469.6 Q1538.28 1474.18 1538.28 1482.93 Q1538.28 1491.66 1535.2 1496.26 Q1532.14 1500.85 1526.33 1500.85 Q1520.52 1500.85 1517.45 1496.26 Q1514.39 1491.66 1514.39 1482.93 Q1514.39 1474.18 1517.45 1469.6 Q1520.52 1464.99 1526.33 1464.99 Z" fill="#000000" fill-rule="evenodd" fill-opacity="1" /><path clip-path="url(#clip050)" d="M2052.44 1496.24 L2060.08 1496.24 L2060.08 1469.87 L2051.77 1471.54 L2051.77 1467.28 L2060.03 1465.61 L2064.71 1465.61 L2064.71 1496.24 L2072.35 1496.24 L2072.35 1500.17 L2052.44 1500.17 L2052.44 1496.24 Z" fill="#000000" fill-rule="evenodd" fill-opacity="1" /><path clip-path="url(#clip050)" d="M2081.84 1465.61 L2100.19 1465.61 L2100.19 1469.55 L2086.12 1469.55 L2086.12 1478.02 Q2087.14 1477.67 2088.16 1477.51 Q2089.18 1477.33 2090.19 1477.33 Q2095.98 1477.33 2099.36 1480.5 Q2102.74 1483.67 2102.74 1489.09 Q2102.74 1494.66 2099.27 1497.77 Q2095.8 1500.85 2089.48 1500.85 Q2087.3 1500.85 2085.03 1500.47 Q2082.79 1500.1 2080.38 1499.36 L2080.38 1494.66 Q2082.46 1495.8 2084.69 1496.35 Q2086.91 1496.91 2089.38 1496.91 Q2093.39 1496.91 2095.73 1494.8 Q2098.06 1492.7 2098.06 1489.09 Q2098.06 1485.47 2095.73 1483.37 Q2093.39 1481.26 2089.38 1481.26 Q2087.51 1481.26 2085.63 1481.68 Q2083.78 1482.1 2081.84 1482.97 L2081.84 1465.61 Z" fill="#000000" fill-rule="evenodd" fill-opacity="1" /><path clip-path="url(#clip050)" d="M1298.25 1535.75 Q1298.25 1541.16 1296.51 1547.24 Q1294.8 1553.3 1292.09 1558.19 Q1289.39 1563.06 1285.85 1566.28 Q1282.3 1569.47 1278.92 1569.47 Q1276.76 1569.47 1275.15 1568.27 Q1273.58 1567.05 1272.71 1565.02 Q1271.84 1562.96 1271.42 1560.71 Q1271 1558.42 1271 1555.94 Q1271 1552.24 1271.8 1548.21 Q1272.61 1544.15 1273.96 1540.48 Q1275.32 1536.78 1277.22 1533.43 Q1279.12 1530.05 1281.21 1527.6 Q1283.33 1525.12 1285.72 1523.67 Q1288.1 1522.22 1290.32 1522.22 Q1291.93 1522.22 1293.22 1522.93 Q1294.54 1523.6 1295.38 1524.8 Q1296.22 1525.96 1296.8 1527.34 Q1297.41 1528.73 1297.7 1530.34 Q1297.99 1531.91 1298.12 1533.23 Q1298.25 1534.52 1298.25 1535.75 M1293.9 1531.66 Q1293.9 1530.01 1293.77 1528.79 Q1293.64 1527.53 1293.29 1526.28 Q1292.93 1525.02 1292.16 1524.35 Q1291.42 1523.67 1290.26 1523.67 Q1286.88 1523.67 1283.08 1530.59 Q1281.85 1532.75 1280.76 1535.68 Q1279.66 1538.61 1279.28 1540 Q1278.89 1541.38 1277.99 1544.8 L1291.77 1544.8 Q1293.9 1536 1293.9 1531.66 M1291.19 1546.89 L1277.47 1546.89 Q1275.35 1554.94 1275.35 1559.96 Q1275.35 1564.34 1276.25 1566.18 Q1277.18 1567.98 1278.92 1567.98 Q1280.92 1567.98 1282.79 1565.99 Q1284.66 1563.96 1286.56 1560.29 Q1289.07 1555.52 1291.19 1546.89 Z" fill="#000000" fill-rule="evenodd" fill-opacity="1" /><polyline clip-path="url(#clip052)" style="stroke:#000000; stroke-linecap:butt; stroke-linejoin:round; stroke-width:2; stroke-opacity:0.1; fill:none" points="
  219.866,1400.1 2352.76,1400.1 
  "/>
<polyline clip-path="url(#clip052)" style="stroke:#000000; stroke-linecap:butt; stroke-linejoin:round; stroke-width:2; stroke-opacity:0.1; fill:none" points="
  219.866,1137.41 2352.76,1137.41 
  "/>
<polyline clip-path="url(#clip052)" style="stroke:#000000; stroke-linecap:butt; stroke-linejoin:round; stroke-width:2; stroke-opacity:0.1; fill:none" points="
  219.866,874.718 2352.76,874.718 
  "/>
<polyline clip-path="url(#clip052)" style="stroke:#000000; stroke-linecap:butt; stroke-linejoin:round; stroke-width:2; stroke-opacity:0.1; fill:none" points="
  219.866,612.028 2352.76,612.028 
  "/>
<polyline clip-path="url(#clip052)" style="stroke:#000000; stroke-linecap:butt; stroke-linejoin:round; stroke-width:2; stroke-opacity:0.1; fill:none" points="
  219.866,349.338 2352.76,349.338 
  "/>
<polyline clip-path="url(#clip052)" style="stroke:#000000; stroke-linecap:butt; stroke-linejoin:round; stroke-width:2; stroke-opacity:0.1; fill:none" points="
  219.866,86.6476 2352.76,86.6476 
  "/>
<polyline clip-path="url(#clip050)" style="stroke:#000000; stroke-linecap:butt; stroke-linejoin:round; stroke-width:4; stroke-opacity:1; fill:none" points="
  219.866,1439.5 219.866,47.2441 
  "/>
<polyline clip-path="url(#clip050)" style="stroke:#000000; stroke-linecap:butt; stroke-linejoin:round; stroke-width:4; stroke-opacity:1; fill:none" points="
  219.866,1400.1 245.461,1400.1 
  "/>
<polyline clip-path="url(#clip050)" style="stroke:#000000; stroke-linecap:butt; stroke-linejoin:round; stroke-width:4; stroke-opacity:1; fill:none" points="
  219.866,1137.41 245.461,1137.41 
  "/>
<polyline clip-path="url(#clip050)" style="stroke:#000000; stroke-linecap:butt; stroke-linejoin:round; stroke-width:4; stroke-opacity:1; fill:none" points="
  219.866,874.718 245.461,874.718 
  "/>
<polyline clip-path="url(#clip050)" style="stroke:#000000; stroke-linecap:butt; stroke-linejoin:round; stroke-width:4; stroke-opacity:1; fill:none" points="
  219.866,612.028 245.461,612.028 
  "/>
<polyline clip-path="url(#clip050)" style="stroke:#000000; stroke-linecap:butt; stroke-linejoin:round; stroke-width:4; stroke-opacity:1; fill:none" points="
  219.866,349.338 245.461,349.338 
  "/>
<polyline clip-path="url(#clip050)" style="stroke:#000000; stroke-linecap:butt; stroke-linejoin:round; stroke-width:4; stroke-opacity:1; fill:none" points="
  219.866,86.6476 245.461,86.6476 
  "/>
<path clip-path="url(#clip050)" d="M126.691 1385.9 Q123.08 1385.9 121.251 1389.46 Q119.445 1393 119.445 1400.13 Q119.445 1407.24 121.251 1410.8 Q123.08 1414.35 126.691 1414.35 Q130.325 1414.35 132.13 1410.8 Q133.959 1407.24 133.959 1400.13 Q133.959 1393 132.13 1389.46 Q130.325 1385.9 126.691 1385.9 M126.691 1382.19 Q132.501 1382.19 135.556 1386.8 Q138.635 1391.38 138.635 1400.13 Q138.635 1408.86 135.556 1413.47 Q132.501 1418.05 126.691 1418.05 Q120.88 1418.05 117.802 1413.47 Q114.746 1408.86 114.746 1400.13 Q114.746 1391.38 117.802 1386.8 Q120.88 1382.19 126.691 1382.19 Z" fill="#000000" fill-rule="evenodd" fill-opacity="1" /><path clip-path="url(#clip050)" d="M146.853 1411.5 L151.737 1411.5 L151.737 1417.38 L146.853 1417.38 L146.853 1411.5 Z" fill="#000000" fill-rule="evenodd" fill-opacity="1" /><path clip-path="url(#clip050)" d="M171.922 1385.9 Q168.311 1385.9 166.482 1389.46 Q164.677 1393 164.677 1400.13 Q164.677 1407.24 166.482 1410.8 Q168.311 1414.35 171.922 1414.35 Q175.556 1414.35 177.362 1410.8 Q179.19 1407.24 179.19 1400.13 Q179.19 1393 177.362 1389.46 Q175.556 1385.9 171.922 1385.9 M171.922 1382.19 Q177.732 1382.19 180.788 1386.8 Q183.866 1391.38 183.866 1400.13 Q183.866 1408.86 180.788 1413.47 Q177.732 1418.05 171.922 1418.05 Q166.112 1418.05 163.033 1413.47 Q159.978 1408.86 159.978 1400.13 Q159.978 1391.38 163.033 1386.8 Q166.112 1382.19 171.922 1382.19 Z" fill="#000000" fill-rule="evenodd" fill-opacity="1" /><path clip-path="url(#clip050)" d="M127.917 1123.21 Q124.306 1123.21 122.478 1126.77 Q120.672 1130.31 120.672 1137.44 Q120.672 1144.55 122.478 1148.11 Q124.306 1151.66 127.917 1151.66 Q131.552 1151.66 133.357 1148.11 Q135.186 1144.55 135.186 1137.44 Q135.186 1130.31 133.357 1126.77 Q131.552 1123.21 127.917 1123.21 M127.917 1119.5 Q133.728 1119.5 136.783 1124.11 Q139.862 1128.69 139.862 1137.44 Q139.862 1146.17 136.783 1150.78 Q133.728 1155.36 127.917 1155.36 Q122.107 1155.36 119.029 1150.78 Q115.973 1146.17 115.973 1137.44 Q115.973 1128.69 119.029 1124.11 Q122.107 1119.5 127.917 1119.5 Z" fill="#000000" fill-rule="evenodd" fill-opacity="1" /><path clip-path="url(#clip050)" d="M148.079 1148.81 L152.964 1148.81 L152.964 1154.69 L148.079 1154.69 L148.079 1148.81 Z" fill="#000000" fill-rule="evenodd" fill-opacity="1" /><path clip-path="url(#clip050)" d="M163.959 1150.75 L171.598 1150.75 L171.598 1124.39 L163.288 1126.05 L163.288 1121.79 L171.552 1120.13 L176.227 1120.13 L176.227 1150.75 L183.866 1150.75 L183.866 1154.69 L163.959 1154.69 L163.959 1150.75 Z" fill="#000000" fill-rule="evenodd" fill-opacity="1" /><path clip-path="url(#clip050)" d="M128.288 860.517 Q124.677 860.517 122.848 864.082 Q121.043 867.623 121.043 874.753 Q121.043 881.859 122.848 885.424 Q124.677 888.966 128.288 888.966 Q131.922 888.966 133.728 885.424 Q135.556 881.859 135.556 874.753 Q135.556 867.623 133.728 864.082 Q131.922 860.517 128.288 860.517 M128.288 856.813 Q134.098 856.813 137.154 861.42 Q140.232 866.003 140.232 874.753 Q140.232 883.48 137.154 888.086 Q134.098 892.669 128.288 892.669 Q122.478 892.669 119.399 888.086 Q116.343 883.48 116.343 874.753 Q116.343 866.003 119.399 861.42 Q122.478 856.813 128.288 856.813 Z" fill="#000000" fill-rule="evenodd" fill-opacity="1" /><path clip-path="url(#clip050)" d="M148.45 886.118 L153.334 886.118 L153.334 891.998 L148.45 891.998 L148.45 886.118 Z" fill="#000000" fill-rule="evenodd" fill-opacity="1" /><path clip-path="url(#clip050)" d="M167.547 888.063 L183.866 888.063 L183.866 891.998 L161.922 891.998 L161.922 888.063 Q164.584 885.308 169.167 880.679 Q173.774 876.026 174.954 874.683 Q177.2 872.16 178.079 870.424 Q178.982 868.665 178.982 866.975 Q178.982 864.22 177.038 862.484 Q175.116 860.748 172.014 860.748 Q169.815 860.748 167.362 861.512 Q164.931 862.276 162.153 863.827 L162.153 859.105 Q164.977 857.97 167.431 857.392 Q169.885 856.813 171.922 856.813 Q177.292 856.813 180.487 859.498 Q183.681 862.183 183.681 866.674 Q183.681 868.804 182.871 870.725 Q182.084 872.623 179.977 875.216 Q179.399 875.887 176.297 879.105 Q173.195 882.299 167.547 888.063 Z" fill="#000000" fill-rule="evenodd" fill-opacity="1" /><path clip-path="url(#clip050)" d="M127.339 597.827 Q123.728 597.827 121.899 601.391 Q120.093 604.933 120.093 612.063 Q120.093 619.169 121.899 622.734 Q123.728 626.276 127.339 626.276 Q130.973 626.276 132.779 622.734 Q134.607 619.169 134.607 612.063 Q134.607 604.933 132.779 601.391 Q130.973 597.827 127.339 597.827 M127.339 594.123 Q133.149 594.123 136.204 598.729 Q139.283 603.313 139.283 612.063 Q139.283 620.789 136.204 625.396 Q133.149 629.979 127.339 629.979 Q121.529 629.979 118.45 625.396 Q115.394 620.789 115.394 612.063 Q115.394 603.313 118.45 598.729 Q121.529 594.123 127.339 594.123 Z" fill="#000000" fill-rule="evenodd" fill-opacity="1" /><path clip-path="url(#clip050)" d="M147.501 623.428 L152.385 623.428 L152.385 629.308 L147.501 629.308 L147.501 623.428 Z" fill="#000000" fill-rule="evenodd" fill-opacity="1" /><path clip-path="url(#clip050)" d="M176.737 610.674 Q180.093 611.391 181.968 613.66 Q183.866 615.928 183.866 619.262 Q183.866 624.377 180.348 627.178 Q176.829 629.979 170.348 629.979 Q168.172 629.979 165.857 629.539 Q163.565 629.123 161.112 628.266 L161.112 623.752 Q163.056 624.887 165.371 625.465 Q167.686 626.044 170.209 626.044 Q174.607 626.044 176.899 624.308 Q179.214 622.572 179.214 619.262 Q179.214 616.206 177.061 614.493 Q174.931 612.757 171.112 612.757 L167.084 612.757 L167.084 608.915 L171.297 608.915 Q174.746 608.915 176.575 607.549 Q178.403 606.16 178.403 603.567 Q178.403 600.905 176.505 599.493 Q174.63 598.058 171.112 598.058 Q169.19 598.058 166.991 598.475 Q164.792 598.891 162.153 599.771 L162.153 595.604 Q164.815 594.864 167.13 594.493 Q169.468 594.123 171.528 594.123 Q176.852 594.123 179.954 596.553 Q183.056 598.961 183.056 603.081 Q183.056 605.952 181.413 607.942 Q179.769 609.91 176.737 610.674 Z" fill="#000000" fill-rule="evenodd" fill-opacity="1" /><path clip-path="url(#clip050)" d="M126.205 335.136 Q122.593 335.136 120.765 338.701 Q118.959 342.243 118.959 349.372 Q118.959 356.479 120.765 360.044 Q122.593 363.585 126.205 363.585 Q129.839 363.585 131.644 360.044 Q133.473 356.479 133.473 349.372 Q133.473 342.243 131.644 338.701 Q129.839 335.136 126.205 335.136 M126.205 331.433 Q132.015 331.433 135.07 336.039 Q138.149 340.623 138.149 349.372 Q138.149 358.099 135.07 362.706 Q132.015 367.289 126.205 367.289 Q120.394 367.289 117.316 362.706 Q114.26 358.099 114.26 349.372 Q114.26 340.623 117.316 336.039 Q120.394 331.433 126.205 331.433 Z" fill="#000000" fill-rule="evenodd" fill-opacity="1" /><path clip-path="url(#clip050)" d="M146.366 360.738 L151.251 360.738 L151.251 366.618 L146.366 366.618 L146.366 360.738 Z" fill="#000000" fill-rule="evenodd" fill-opacity="1" /><path clip-path="url(#clip050)" d="M174.283 336.132 L162.477 354.581 L174.283 354.581 L174.283 336.132 M173.056 332.058 L178.936 332.058 L178.936 354.581 L183.866 354.581 L183.866 358.47 L178.936 358.47 L178.936 366.618 L174.283 366.618 L174.283 358.47 L158.681 358.47 L158.681 353.956 L173.056 332.058 Z" fill="#000000" fill-rule="evenodd" fill-opacity="1" /><path clip-path="url(#clip050)" d="M127.686 72.4463 Q124.075 72.4463 122.246 76.0111 Q120.441 79.5527 120.441 86.6823 Q120.441 93.7888 122.246 97.3536 Q124.075 100.895 127.686 100.895 Q131.32 100.895 133.126 97.3536 Q134.954 93.7888 134.954 86.6823 Q134.954 79.5527 133.126 76.0111 Q131.32 72.4463 127.686 72.4463 M127.686 68.7426 Q133.496 68.7426 136.552 73.3491 Q139.63 77.9324 139.63 86.6823 Q139.63 95.4091 136.552 100.016 Q133.496 104.599 127.686 104.599 Q121.876 104.599 118.797 100.016 Q115.742 95.4091 115.742 86.6823 Q115.742 77.9324 118.797 73.3491 Q121.876 68.7426 127.686 68.7426 Z" fill="#000000" fill-rule="evenodd" fill-opacity="1" /><path clip-path="url(#clip050)" d="M147.848 98.048 L152.732 98.048 L152.732 103.928 L147.848 103.928 L147.848 98.048 Z" fill="#000000" fill-rule="evenodd" fill-opacity="1" /><path clip-path="url(#clip050)" d="M162.964 69.3676 L181.32 69.3676 L181.32 73.3028 L167.246 73.3028 L167.246 81.775 Q168.264 81.4277 169.283 81.2657 Q170.302 81.0805 171.32 81.0805 Q177.107 81.0805 180.487 84.2518 Q183.866 87.4231 183.866 92.8397 Q183.866 98.4184 180.394 101.52 Q176.922 104.599 170.602 104.599 Q168.427 104.599 166.158 104.229 Q163.913 103.858 161.505 103.117 L161.505 98.4184 Q163.589 99.5526 165.811 100.108 Q168.033 100.664 170.51 100.664 Q174.514 100.664 176.852 98.5573 Q179.19 96.4508 179.19 92.8397 Q179.19 89.2286 176.852 87.1222 Q174.514 85.0157 170.51 85.0157 Q168.635 85.0157 166.76 85.4323 Q164.908 85.849 162.964 86.7286 L162.964 69.3676 Z" fill="#000000" fill-rule="evenodd" fill-opacity="1" /><path clip-path="url(#clip050)" d="M16.4842 820.637 L16.4842 811.056 L48.8219 798.93 L16.4842 786.739 L16.4842 777.159 L64.0042 777.159 L64.0042 783.429 L22.277 783.429 L54.8694 795.683 L54.8694 802.144 L22.277 814.398 L64.0042 814.398 L64.0042 820.637 L16.4842 820.637 Z" fill="#000000" fill-rule="evenodd" fill-opacity="1" /><path clip-path="url(#clip050)" d="M46.0847 748.45 Q46.0847 755.547 47.7079 758.285 Q49.3312 761.022 53.2461 761.022 Q56.3653 761.022 58.2114 758.985 Q60.0256 756.916 60.0256 753.383 Q60.0256 748.513 56.5881 745.585 Q53.1188 742.625 47.3897 742.625 L46.0847 742.625 L46.0847 748.45 M43.6657 736.769 L64.0042 736.769 L64.0042 742.625 L58.5933 742.625 Q61.8398 744.63 63.3994 747.622 Q64.9272 750.614 64.9272 754.943 Q64.9272 760.417 61.8716 763.664 Q58.7843 766.878 53.6281 766.878 Q47.6125 766.878 44.5569 762.868 Q41.5014 758.826 41.5014 750.837 L41.5014 742.625 L40.9285 742.625 Q36.8862 742.625 34.6901 745.299 Q32.4621 747.94 32.4621 752.747 Q32.4621 755.802 33.1941 758.698 Q33.9262 761.595 35.3903 764.268 L29.9795 764.268 Q28.7381 761.054 28.1334 758.03 Q27.4968 755.006 27.4968 752.142 Q27.4968 744.407 31.5072 740.588 Q35.5176 736.769 43.6657 736.769 Z" fill="#000000" fill-rule="evenodd" fill-opacity="1" /><path clip-path="url(#clip050)" d="M29.4065 701.98 L34.9447 701.98 Q33.6716 704.463 33.035 707.136 Q32.3984 709.81 32.3984 712.674 Q32.3984 717.035 33.7352 719.231 Q35.072 721.395 37.7456 721.395 Q39.7826 721.395 40.9603 719.836 Q42.1061 718.276 43.1565 713.566 L43.6021 711.56 Q44.9389 705.322 47.3897 702.712 Q49.8086 700.07 54.1691 700.07 Q59.1344 700.07 62.0308 704.017 Q64.9272 707.932 64.9272 714.807 Q64.9272 717.671 64.3543 720.791 Q63.8132 723.878 62.6992 727.316 L56.6518 727.316 Q58.3387 724.069 59.198 720.918 Q60.0256 717.767 60.0256 714.68 Q60.0256 710.542 58.6251 708.314 Q57.1929 706.086 54.6147 706.086 Q52.2276 706.086 50.9545 707.709 Q49.6813 709.301 48.5037 714.743 L48.0262 716.78 Q46.8804 722.223 44.5251 724.642 Q42.138 727.061 38.0002 727.061 Q32.9713 727.061 30.2341 723.496 Q27.4968 719.931 27.4968 713.375 Q27.4968 710.128 27.9743 707.264 Q28.4517 704.399 29.4065 701.98 Z" fill="#000000" fill-rule="evenodd" fill-opacity="1" /><path clip-path="url(#clip050)" d="M29.4065 668.019 L34.9447 668.019 Q33.6716 670.502 33.035 673.175 Q32.3984 675.849 32.3984 678.713 Q32.3984 683.074 33.7352 685.27 Q35.072 687.434 37.7456 687.434 Q39.7826 687.434 40.9603 685.875 Q42.1061 684.315 43.1565 679.605 L43.6021 677.599 Q44.9389 671.361 47.3897 668.751 Q49.8086 666.109 54.1691 666.109 Q59.1344 666.109 62.0308 670.056 Q64.9272 673.971 64.9272 680.846 Q64.9272 683.71 64.3543 686.83 Q63.8132 689.917 62.6992 693.354 L56.6518 693.354 Q58.3387 690.108 59.198 686.957 Q60.0256 683.806 60.0256 680.719 Q60.0256 676.581 58.6251 674.353 Q57.1929 672.125 54.6147 672.125 Q52.2276 672.125 50.9545 673.748 Q49.6813 675.34 48.5037 680.782 L48.0262 682.819 Q46.8804 688.262 44.5251 690.681 Q42.138 693.1 38.0002 693.1 Q32.9713 693.1 30.2341 689.535 Q27.4968 685.97 27.4968 679.414 Q27.4968 676.167 27.9743 673.302 Q28.4517 670.438 29.4065 668.019 Z" fill="#000000" fill-rule="evenodd" fill-opacity="1" /><path clip-path="url(#clip052)" d="
M337.179 86.6476 L337.179 1400.1 L427.573 1400.1 L427.573 86.6476 L337.179 86.6476 L337.179 86.6476  Z
  " fill="#009af9" fill-rule="evenodd" fill-opacity="0.3"/>
<polyline clip-path="url(#clip052)" style="stroke:#000000; stroke-linecap:butt; stroke-linejoin:round; stroke-width:4; stroke-opacity:0.3; fill:none" points="
  337.179,86.6476 337.179,1400.1 427.573,1400.1 427.573,86.6476 337.179,86.6476 
  "/>
<path clip-path="url(#clip052)" d="
M450.171 743.373 L450.171 1400.1 L540.564 1400.1 L540.564 743.373 L450.171 743.373 L450.171 743.373  Z
  " fill="#009af9" fill-rule="evenodd" fill-opacity="0.3"/>
<polyline clip-path="url(#clip052)" style="stroke:#000000; stroke-linecap:butt; stroke-linejoin:round; stroke-width:4; stroke-opacity:0.3; fill:none" points="
  450.171,743.373 450.171,1400.1 540.564,1400.1 540.564,743.373 450.171,743.373 
  "/>
<path clip-path="url(#clip052)" d="
M563.163 1071.74 L563.163 1400.1 L653.556 1400.1 L653.556 1071.74 L563.163 1071.74 L563.163 1071.74  Z
  " fill="#009af9" fill-rule="evenodd" fill-opacity="0.3"/>
<polyline clip-path="url(#clip052)" style="stroke:#000000; stroke-linecap:butt; stroke-linejoin:round; stroke-width:4; stroke-opacity:0.3; fill:none" points="
  563.163,1071.74 563.163,1400.1 653.556,1400.1 653.556,1071.74 563.163,1071.74 
  "/>
<path clip-path="url(#clip052)" d="
M676.155 1235.92 L676.155 1400.1 L766.548 1400.1 L766.548 1235.92 L676.155 1235.92 L676.155 1235.92  Z
  " fill="#009af9" fill-rule="evenodd" fill-opacity="0.3"/>
<polyline clip-path="url(#clip052)" style="stroke:#000000; stroke-linecap:butt; stroke-linejoin:round; stroke-width:4; stroke-opacity:0.3; fill:none" points="
  676.155,1235.92 676.155,1400.1 766.548,1400.1 766.548,1235.92 676.155,1235.92 
  "/>
<path clip-path="url(#clip052)" d="
M789.147 1318.01 L789.147 1400.1 L879.54 1400.1 L879.54 1318.01 L789.147 1318.01 L789.147 1318.01  Z
  " fill="#009af9" fill-rule="evenodd" fill-opacity="0.3"/>
<polyline clip-path="url(#clip052)" style="stroke:#000000; stroke-linecap:butt; stroke-linejoin:round; stroke-width:4; stroke-opacity:0.3; fill:none" points="
  789.147,1318.01 789.147,1400.1 879.54,1400.1 879.54,1318.01 789.147,1318.01 
  "/>
<path clip-path="url(#clip052)" d="
M902.139 1359.05 L902.139 1400.1 L992.532 1400.1 L992.532 1359.05 L902.139 1359.05 L902.139 1359.05  Z
  " fill="#009af9" fill-rule="evenodd" fill-opacity="0.3"/>
<polyline clip-path="url(#clip052)" style="stroke:#000000; stroke-linecap:butt; stroke-linejoin:round; stroke-width:4; stroke-opacity:0.3; fill:none" points="
  902.139,1359.05 902.139,1400.1 992.532,1400.1 992.532,1359.05 902.139,1359.05 
  "/>
<path clip-path="url(#clip052)" d="
M1015.13 1379.58 L1015.13 1400.1 L1105.52 1400.1 L1105.52 1379.58 L1015.13 1379.58 L1015.13 1379.58  Z
  " fill="#009af9" fill-rule="evenodd" fill-opacity="0.3"/>
<polyline clip-path="url(#clip052)" style="stroke:#000000; stroke-linecap:butt; stroke-linejoin:round; stroke-width:4; stroke-opacity:0.3; fill:none" points="
  1015.13,1379.58 1015.13,1400.1 1105.52,1400.1 1105.52,1379.58 1015.13,1379.58 
  "/>
<path clip-path="url(#clip052)" d="
M1128.12 1389.84 L1128.12 1400.1 L1218.52 1400.1 L1218.52 1389.84 L1128.12 1389.84 L1128.12 1389.84  Z
  " fill="#009af9" fill-rule="evenodd" fill-opacity="0.3"/>
<polyline clip-path="url(#clip052)" style="stroke:#000000; stroke-linecap:butt; stroke-linejoin:round; stroke-width:4; stroke-opacity:0.3; fill:none" points="
  1128.12,1389.84 1128.12,1400.1 1218.52,1400.1 1218.52,1389.84 1128.12,1389.84 
  "/>
<path clip-path="url(#clip052)" d="
M1241.11 1394.97 L1241.11 1400.1 L1331.51 1400.1 L1331.51 1394.97 L1241.11 1394.97 L1241.11 1394.97  Z
  " fill="#009af9" fill-rule="evenodd" fill-opacity="0.3"/>
<polyline clip-path="url(#clip052)" style="stroke:#000000; stroke-linecap:butt; stroke-linejoin:round; stroke-width:4; stroke-opacity:0.3; fill:none" points="
  1241.11,1394.97 1241.11,1400.1 1331.51,1400.1 1331.51,1394.97 1241.11,1394.97 
  "/>
<path clip-path="url(#clip052)" d="
M1354.11 1397.53 L1354.11 1400.1 L1444.5 1400.1 L1444.5 1397.53 L1354.11 1397.53 L1354.11 1397.53  Z
  " fill="#009af9" fill-rule="evenodd" fill-opacity="0.3"/>
<polyline clip-path="url(#clip052)" style="stroke:#000000; stroke-linecap:butt; stroke-linejoin:round; stroke-width:4; stroke-opacity:0.3; fill:none" points="
  1354.11,1397.53 1354.11,1400.1 1444.5,1400.1 1444.5,1397.53 1354.11,1397.53 
  "/>
<path clip-path="url(#clip052)" d="
M1467.1 1398.82 L1467.1 1400.1 L1557.49 1400.1 L1557.49 1398.82 L1467.1 1398.82 L1467.1 1398.82  Z
  " fill="#009af9" fill-rule="evenodd" fill-opacity="0.3"/>
<polyline clip-path="url(#clip052)" style="stroke:#000000; stroke-linecap:butt; stroke-linejoin:round; stroke-width:4; stroke-opacity:0.3; fill:none" points="
  1467.1,1398.82 1467.1,1400.1 1557.49,1400.1 1557.49,1398.82 1467.1,1398.82 
  "/>
<path clip-path="url(#clip052)" d="
M1580.09 1399.46 L1580.09 1400.1 L1670.48 1400.1 L1670.48 1399.46 L1580.09 1399.46 L1580.09 1399.46  Z
  " fill="#009af9" fill-rule="evenodd" fill-opacity="0.3"/>
<polyline clip-path="url(#clip052)" style="stroke:#000000; stroke-linecap:butt; stroke-linejoin:round; stroke-width:4; stroke-opacity:0.3; fill:none" points="
  1580.09,1399.46 1580.09,1400.1 1670.48,1400.1 1670.48,1399.46 1580.09,1399.46 
  "/>
<path clip-path="url(#clip052)" d="
M1693.08 1399.78 L1693.08 1400.1 L1783.48 1400.1 L1783.48 1399.78 L1693.08 1399.78 L1693.08 1399.78  Z
  " fill="#009af9" fill-rule="evenodd" fill-opacity="0.3"/>
<polyline clip-path="url(#clip052)" style="stroke:#000000; stroke-linecap:butt; stroke-linejoin:round; stroke-width:4; stroke-opacity:0.3; fill:none" points="
  1693.08,1399.78 1693.08,1400.1 1783.48,1400.1 1783.48,1399.78 1693.08,1399.78 
  "/>
<path clip-path="url(#clip052)" d="
M1806.07 1399.94 L1806.07 1400.1 L1896.47 1400.1 L1896.47 1399.94 L1806.07 1399.94 L1806.07 1399.94  Z
  " fill="#009af9" fill-rule="evenodd" fill-opacity="0.3"/>
<polyline clip-path="url(#clip052)" style="stroke:#000000; stroke-linecap:butt; stroke-linejoin:round; stroke-width:4; stroke-opacity:0.3; fill:none" points="
  1806.07,1399.94 1806.07,1400.1 1896.47,1400.1 1896.47,1399.94 1806.07,1399.94 
  "/>
<path clip-path="url(#clip052)" d="
M337.179 743.373 L337.179 1400.1 L427.573 1400.1 L427.573 743.373 L337.179 743.373 L337.179 743.373  Z
  " fill="#e26f46" fill-rule="evenodd" fill-opacity="0.3"/>
<polyline clip-path="url(#clip052)" style="stroke:#000000; stroke-linecap:butt; stroke-linejoin:round; stroke-width:4; stroke-opacity:0.3; fill:none" points="
  337.179,743.373 337.179,1400.1 427.573,1400.1 427.573,743.373 337.179,743.373 
  "/>
<path clip-path="url(#clip052)" d="
M450.171 743.373 L450.171 1400.1 L540.564 1400.1 L540.564 743.373 L450.171 743.373 L450.171 743.373  Z
  " fill="#e26f46" fill-rule="evenodd" fill-opacity="0.3"/>
<polyline clip-path="url(#clip052)" style="stroke:#000000; stroke-linecap:butt; stroke-linejoin:round; stroke-width:4; stroke-opacity:0.3; fill:none" points="
  450.171,743.373 450.171,1400.1 540.564,1400.1 540.564,743.373 450.171,743.373 
  "/>
<path clip-path="url(#clip052)" d="
M563.163 907.554 L563.163 1400.1 L653.556 1400.1 L653.556 907.554 L563.163 907.554 L563.163 907.554  Z
  " fill="#e26f46" fill-rule="evenodd" fill-opacity="0.3"/>
<polyline clip-path="url(#clip052)" style="stroke:#000000; stroke-linecap:butt; stroke-linejoin:round; stroke-width:4; stroke-opacity:0.3; fill:none" points="
  563.163,907.554 563.163,1400.1 653.556,1400.1 653.556,907.554 563.163,907.554 
  "/>
<path clip-path="url(#clip052)" d="
M676.155 1071.74 L676.155 1400.1 L766.548 1400.1 L766.548 1071.74 L676.155 1071.74 L676.155 1071.74  Z
  " fill="#e26f46" fill-rule="evenodd" fill-opacity="0.3"/>
<polyline clip-path="url(#clip052)" style="stroke:#000000; stroke-linecap:butt; stroke-linejoin:round; stroke-width:4; stroke-opacity:0.3; fill:none" points="
  676.155,1071.74 676.155,1400.1 766.548,1400.1 766.548,1071.74 676.155,1071.74 
  "/>
<path clip-path="url(#clip052)" d="
M789.147 1194.87 L789.147 1400.1 L879.54 1400.1 L879.54 1194.87 L789.147 1194.87 L789.147 1194.87  Z
  " fill="#e26f46" fill-rule="evenodd" fill-opacity="0.3"/>
<polyline clip-path="url(#clip052)" style="stroke:#000000; stroke-linecap:butt; stroke-linejoin:round; stroke-width:4; stroke-opacity:0.3; fill:none" points="
  789.147,1194.87 789.147,1400.1 879.54,1400.1 879.54,1194.87 789.147,1194.87 
  "/>
<path clip-path="url(#clip052)" d="
M902.139 1276.96 L902.139 1400.1 L992.532 1400.1 L992.532 1276.96 L902.139 1276.96 L902.139 1276.96  Z
  " fill="#e26f46" fill-rule="evenodd" fill-opacity="0.3"/>
<polyline clip-path="url(#clip052)" style="stroke:#000000; stroke-linecap:butt; stroke-linejoin:round; stroke-width:4; stroke-opacity:0.3; fill:none" points="
  902.139,1276.96 902.139,1400.1 992.532,1400.1 992.532,1276.96 902.139,1276.96 
  "/>
<path clip-path="url(#clip052)" d="
M1015.13 1328.27 L1015.13 1400.1 L1105.52 1400.1 L1105.52 1328.27 L1015.13 1328.27 L1015.13 1328.27  Z
  " fill="#e26f46" fill-rule="evenodd" fill-opacity="0.3"/>
<polyline clip-path="url(#clip052)" style="stroke:#000000; stroke-linecap:butt; stroke-linejoin:round; stroke-width:4; stroke-opacity:0.3; fill:none" points="
  1015.13,1328.27 1015.13,1400.1 1105.52,1400.1 1105.52,1328.27 1015.13,1328.27 
  "/>
<path clip-path="url(#clip052)" d="
M1128.12 1359.05 L1128.12 1400.1 L1218.52 1400.1 L1218.52 1359.05 L1128.12 1359.05 L1128.12 1359.05  Z
  " fill="#e26f46" fill-rule="evenodd" fill-opacity="0.3"/>
<polyline clip-path="url(#clip052)" style="stroke:#000000; stroke-linecap:butt; stroke-linejoin:round; stroke-width:4; stroke-opacity:0.3; fill:none" points="
  1128.12,1359.05 1128.12,1400.1 1218.52,1400.1 1218.52,1359.05 1128.12,1359.05 
  "/>
<path clip-path="url(#clip052)" d="
M1241.11 1377.01 L1241.11 1400.1 L1331.51 1400.1 L1331.51 1377.01 L1241.11 1377.01 L1241.11 1377.01  Z
  " fill="#e26f46" fill-rule="evenodd" fill-opacity="0.3"/>
<polyline clip-path="url(#clip052)" style="stroke:#000000; stroke-linecap:butt; stroke-linejoin:round; stroke-width:4; stroke-opacity:0.3; fill:none" points="
  1241.11,1377.01 1241.11,1400.1 1331.51,1400.1 1331.51,1377.01 1241.11,1377.01 
  "/>
<path clip-path="url(#clip052)" d="
M1354.11 1387.27 L1354.11 1400.1 L1444.5 1400.1 L1444.5 1387.27 L1354.11 1387.27 L1354.11 1387.27  Z
  " fill="#e26f46" fill-rule="evenodd" fill-opacity="0.3"/>
<polyline clip-path="url(#clip052)" style="stroke:#000000; stroke-linecap:butt; stroke-linejoin:round; stroke-width:4; stroke-opacity:0.3; fill:none" points="
  1354.11,1387.27 1354.11,1400.1 1444.5,1400.1 1444.5,1387.27 1354.11,1387.27 
  "/>
<path clip-path="url(#clip052)" d="
M1467.1 1393.04 L1467.1 1400.1 L1557.49 1400.1 L1557.49 1393.04 L1467.1 1393.04 L1467.1 1393.04  Z
  " fill="#e26f46" fill-rule="evenodd" fill-opacity="0.3"/>
<polyline clip-path="url(#clip052)" style="stroke:#000000; stroke-linecap:butt; stroke-linejoin:round; stroke-width:4; stroke-opacity:0.3; fill:none" points="
  1467.1,1393.04 1467.1,1400.1 1557.49,1400.1 1557.49,1393.04 1467.1,1393.04 
  "/>
<path clip-path="url(#clip052)" d="
M1580.09 1396.25 L1580.09 1400.1 L1670.48 1400.1 L1670.48 1396.25 L1580.09 1396.25 L1580.09 1396.25  Z
  " fill="#e26f46" fill-rule="evenodd" fill-opacity="0.3"/>
<polyline clip-path="url(#clip052)" style="stroke:#000000; stroke-linecap:butt; stroke-linejoin:round; stroke-width:4; stroke-opacity:0.3; fill:none" points="
  1580.09,1396.25 1580.09,1400.1 1670.48,1400.1 1670.48,1396.25 1580.09,1396.25 
  "/>
<path clip-path="url(#clip052)" d="
M1693.08 1398.01 L1693.08 1400.1 L1783.48 1400.1 L1783.48 1398.01 L1693.08 1398.01 L1693.08 1398.01  Z
  " fill="#e26f46" fill-rule="evenodd" fill-opacity="0.3"/>
<polyline clip-path="url(#clip052)" style="stroke:#000000; stroke-linecap:butt; stroke-linejoin:round; stroke-width:4; stroke-opacity:0.3; fill:none" points="
  1693.08,1398.01 1693.08,1400.1 1783.48,1400.1 1783.48,1398.01 1693.08,1398.01 
  "/>
<path clip-path="url(#clip052)" d="
M1806.07 1398.98 L1806.07 1400.1 L1896.47 1400.1 L1896.47 1398.98 L1806.07 1398.98 L1806.07 1398.98  Z
  " fill="#e26f46" fill-rule="evenodd" fill-opacity="0.3"/>
<polyline clip-path="url(#clip052)" style="stroke:#000000; stroke-linecap:butt; stroke-linejoin:round; stroke-width:4; stroke-opacity:0.3; fill:none" points="
  1806.07,1398.98 1806.07,1400.1 1896.47,1400.1 1896.47,1398.98 1806.07,1398.98 
  "/>
<path clip-path="url(#clip052)" d="
M1919.07 1399.5 L1919.07 1400.1 L2009.46 1400.1 L2009.46 1399.5 L1919.07 1399.5 L1919.07 1399.5  Z
  " fill="#e26f46" fill-rule="evenodd" fill-opacity="0.3"/>
<polyline clip-path="url(#clip052)" style="stroke:#000000; stroke-linecap:butt; stroke-linejoin:round; stroke-width:4; stroke-opacity:0.3; fill:none" points="
  1919.07,1399.5 1919.07,1400.1 2009.46,1400.1 2009.46,1399.5 1919.07,1399.5 
  "/>
<path clip-path="url(#clip052)" d="
M2032.06 1399.78 L2032.06 1400.1 L2122.45 1400.1 L2122.45 1399.78 L2032.06 1399.78 L2032.06 1399.78  Z
  " fill="#e26f46" fill-rule="evenodd" fill-opacity="0.3"/>
<polyline clip-path="url(#clip052)" style="stroke:#000000; stroke-linecap:butt; stroke-linejoin:round; stroke-width:4; stroke-opacity:0.3; fill:none" points="
  2032.06,1399.78 2032.06,1400.1 2122.45,1400.1 2122.45,1399.78 2032.06,1399.78 
  "/>
<path clip-path="url(#clip052)" d="
M2145.05 1399.93 L2145.05 1400.1 L2235.44 1400.1 L2235.44 1399.93 L2145.05 1399.93 L2145.05 1399.93  Z
  " fill="#e26f46" fill-rule="evenodd" fill-opacity="0.3"/>
<polyline clip-path="url(#clip052)" style="stroke:#000000; stroke-linecap:butt; stroke-linejoin:round; stroke-width:4; stroke-opacity:0.3; fill:none" points="
  2145.05,1399.93 2145.05,1400.1 2235.44,1400.1 2235.44,1399.93 2145.05,1399.93 
  "/>
<path clip-path="url(#clip050)" d="
M1932.62 275.093 L2281.66 275.093 L2281.66 93.6527 L1932.62 93.6527  Z
  " fill="#ffffff" fill-rule="evenodd" fill-opacity="1"/>
<polyline clip-path="url(#clip050)" style="stroke:#000000; stroke-linecap:butt; stroke-linejoin:round; stroke-width:4; stroke-opacity:1; fill:none" points="
  1932.62,275.093 2281.66,275.093 2281.66,93.6527 1932.62,93.6527 1932.62,275.093 
  "/>
<path clip-path="url(#clip050)" d="
M1956.32 178.325 L2098.51 178.325 L2098.51 129.941 L1956.32 129.941 L1956.32 178.325  Z
  " fill="#009af9" fill-rule="evenodd" fill-opacity="0.3"/>
<polyline clip-path="url(#clip050)" style="stroke:#000000; stroke-linecap:butt; stroke-linejoin:round; stroke-width:4; stroke-opacity:1; fill:none" points="
  1956.32,178.325 2098.51,178.325 2098.51,129.941 1956.32,129.941 1956.32,178.325 
  "/>
<path clip-path="url(#clip050)" d="M2143.92 152.168 Q2143.92 153.503 2143.1 154.299 Q2142.3 155.096 2141.3 155.096 Q2140.41 155.096 2139.94 154.58 Q2139.47 154.065 2139.47 153.409 Q2139.47 153.128 2139.59 152.777 Q2139.7 152.402 2139.96 151.957 Q2140.24 151.512 2140.83 151.184 Q2141.41 150.856 2142.21 150.809 Q2142.05 150.645 2142 150.622 Q2141.65 150.341 2140.99 150.247 Q2140.9 150.2 2140.57 150.2 Q2138.96 150.2 2137.32 151.395 Q2135.7 152.566 2133.71 154.791 Q2131.2 157.391 2129.59 158.351 Q2136.68 159.288 2136.68 163.387 Q2136.68 164.066 2136.5 164.886 Q2136.12 166.432 2136.12 167.556 Q2136.12 169.805 2137.64 169.805 Q2139.12 169.805 2140.06 168.306 Q2141.02 166.807 2141.81 163.879 Q2141.93 163.34 2142.05 163.176 Q2142.16 163.012 2142.49 163.012 Q2143.08 163.012 2143.08 163.481 Q2142.54 166.221 2141.34 168.329 Q2139.82 170.882 2137.55 170.882 Q2135.65 170.882 2134.39 169.571 Q2133.15 168.236 2133.15 166.128 Q2133.15 165.612 2133.33 164.441 Q2133.47 163.973 2133.47 163.434 Q2133.47 162.333 2132.87 161.513 Q2132.26 160.67 2131.27 160.249 Q2130.29 159.827 2129.47 159.64 Q2128.67 159.429 2127.9 159.358 Q2125.56 169.266 2125.23 169.875 Q2125.02 170.297 2124.55 170.578 Q2124.08 170.882 2123.59 170.882 Q2123.12 170.882 2122.65 170.554 Q2122.21 170.25 2122.21 169.524 Q2122.21 169.149 2122.4 168.47 L2129.35 140.831 L2129.49 139.894 Q2129.49 139.613 2129.38 139.473 Q2129.28 139.309 2128.72 139.192 Q2128.18 139.075 2127.1 139.075 Q2126.66 139.075 2126.45 139.051 Q2126.26 139.028 2126.1 138.911 Q2125.93 138.77 2125.93 138.489 Q2125.93 138.091 2126.1 137.88 Q2126.28 137.646 2126.42 137.599 Q2126.56 137.552 2126.85 137.529 Q2127.24 137.505 2128.58 137.388 Q2129.91 137.248 2131.06 137.154 Q2132.21 137.06 2132.7 137.06 Q2132.98 137.06 2133.12 137.201 Q2133.29 137.318 2133.31 137.459 L2133.33 137.576 L2128.34 157.813 Q2130.41 156.993 2133.66 153.362 Q2137.43 149.146 2140.67 149.146 Q2142.19 149.146 2143.05 150.083 Q2143.92 150.997 2143.92 152.168 Z" fill="#000000" fill-rule="evenodd" fill-opacity="1" /><path clip-path="url(#clip050)" d="M2160.26 163.059 Q2160.31 162.474 2161.22 162.474 L2190.62 162.474 Q2192 162.474 2192.02 163.012 Q2192.02 163.598 2190.71 163.575 L2161.55 163.575 Q2160.26 163.598 2160.26 163.059 M2160.26 153.69 Q2160.26 153.105 2161.27 153.128 L2190.57 153.128 Q2192 153.128 2192.02 153.69 Q2192.02 154.229 2190.8 154.229 L2161.22 154.229 Q2160.26 154.229 2160.26 153.69 Z" fill="#000000" fill-rule="evenodd" fill-opacity="1" /><path clip-path="url(#clip050)" d="M2210.51 142.963 L2210.51 141.464 Q2216.27 141.464 2219.25 138.395 Q2220.07 138.395 2220.21 138.583 Q2220.35 138.77 2220.35 139.637 L2220.35 166.549 Q2220.35 167.978 2221.05 168.423 Q2221.75 168.868 2224.82 168.868 L2226.35 168.868 L2226.35 170.344 Q2224.66 170.203 2218.57 170.203 Q2212.48 170.203 2210.82 170.344 L2210.82 168.868 L2212.34 168.868 Q2215.36 168.868 2216.09 168.446 Q2216.81 168.001 2216.81 166.549 L2216.81 141.698 Q2214.31 142.963 2210.51 142.963 Z" fill="#000000" fill-rule="evenodd" fill-opacity="1" /><path clip-path="url(#clip050)" d="
M1956.32 238.805 L2098.51 238.805 L2098.51 190.421 L1956.32 190.421 L1956.32 238.805  Z
  " fill="#e26f46" fill-rule="evenodd" fill-opacity="0.3"/>
<polyline clip-path="url(#clip050)" style="stroke:#000000; stroke-linecap:butt; stroke-linejoin:round; stroke-width:4; stroke-opacity:1; fill:none" points="
  1956.32,238.805 2098.51,238.805 2098.51,190.421 1956.32,190.421 1956.32,238.805 
  "/>
<path clip-path="url(#clip050)" d="M2143.92 212.648 Q2143.92 213.983 2143.1 214.779 Q2142.3 215.576 2141.3 215.576 Q2140.41 215.576 2139.94 215.06 Q2139.47 214.545 2139.47 213.889 Q2139.47 213.608 2139.59 213.257 Q2139.7 212.882 2139.96 212.437 Q2140.24 211.992 2140.83 211.664 Q2141.41 211.336 2142.21 211.289 Q2142.05 211.125 2142 211.102 Q2141.65 210.821 2140.99 210.727 Q2140.9 210.68 2140.57 210.68 Q2138.96 210.68 2137.32 211.875 Q2135.7 213.046 2133.71 215.271 Q2131.2 217.871 2129.59 218.831 Q2136.68 219.768 2136.68 223.867 Q2136.68 224.546 2136.5 225.366 Q2136.12 226.912 2136.12 228.036 Q2136.12 230.285 2137.64 230.285 Q2139.12 230.285 2140.06 228.786 Q2141.02 227.287 2141.81 224.359 Q2141.93 223.82 2142.05 223.656 Q2142.16 223.492 2142.49 223.492 Q2143.08 223.492 2143.08 223.961 Q2142.54 226.701 2141.34 228.809 Q2139.82 231.362 2137.55 231.362 Q2135.65 231.362 2134.39 230.051 Q2133.15 228.716 2133.15 226.608 Q2133.15 226.092 2133.33 224.921 Q2133.47 224.453 2133.47 223.914 Q2133.47 222.813 2132.87 221.993 Q2132.26 221.15 2131.27 220.729 Q2130.29 220.307 2129.47 220.12 Q2128.67 219.909 2127.9 219.838 Q2125.56 229.746 2125.23 230.355 Q2125.02 230.777 2124.55 231.058 Q2124.08 231.362 2123.59 231.362 Q2123.12 231.362 2122.65 231.034 Q2122.21 230.73 2122.21 230.004 Q2122.21 229.629 2122.4 228.95 L2129.35 201.311 L2129.49 200.374 Q2129.49 200.093 2129.38 199.953 Q2129.28 199.789 2128.72 199.672 Q2128.18 199.555 2127.1 199.555 Q2126.66 199.555 2126.45 199.531 Q2126.26 199.508 2126.1 199.391 Q2125.93 199.25 2125.93 198.969 Q2125.93 198.571 2126.1 198.36 Q2126.28 198.126 2126.42 198.079 Q2126.56 198.032 2126.85 198.009 Q2127.24 197.985 2128.58 197.868 Q2129.91 197.728 2131.06 197.634 Q2132.21 197.54 2132.7 197.54 Q2132.98 197.54 2133.12 197.681 Q2133.29 197.798 2133.31 197.939 L2133.33 198.056 L2128.34 218.293 Q2130.41 217.473 2133.66 213.842 Q2137.43 209.626 2140.67 209.626 Q2142.19 209.626 2143.05 210.563 Q2143.92 211.477 2143.92 212.648 Z" fill="#000000" fill-rule="evenodd" fill-opacity="1" /><path clip-path="url(#clip050)" d="M2160.26 223.539 Q2160.31 222.954 2161.22 222.954 L2190.62 222.954 Q2192 222.954 2192.02 223.492 Q2192.02 224.078 2190.71 224.055 L2161.55 224.055 Q2160.26 224.078 2160.26 223.539 M2160.26 214.17 Q2160.26 213.585 2161.27 213.608 L2190.57 213.608 Q2192 213.608 2192.02 214.17 Q2192.02 214.709 2190.8 214.709 L2161.22 214.709 Q2160.26 214.709 2160.26 214.17 Z" fill="#000000" fill-rule="evenodd" fill-opacity="1" /><path clip-path="url(#clip050)" d="M2210.51 230.824 Q2210.51 229.957 2210.58 229.699 Q2210.68 229.442 2211.05 229.044 L2220.26 218.784 Q2225.29 213.116 2225.29 208.174 Q2225.29 204.965 2223.61 202.67 Q2221.94 200.374 2218.87 200.374 Q2216.77 200.374 2214.99 201.663 Q2213.21 202.951 2212.39 205.246 Q2212.53 205.199 2213.02 205.199 Q2214.21 205.199 2214.87 205.949 Q2215.55 206.699 2215.55 207.706 Q2215.55 208.994 2214.7 209.626 Q2213.88 210.235 2213.07 210.235 Q2212.74 210.235 2212.29 210.165 Q2211.87 210.095 2211.19 209.439 Q2210.51 208.76 2210.51 207.565 Q2210.51 204.216 2213.04 201.546 Q2215.59 198.875 2219.48 198.875 Q2223.89 198.875 2226.77 201.499 Q2229.67 204.099 2229.67 208.174 Q2229.67 209.603 2229.23 210.915 Q2228.8 212.203 2228.22 213.21 Q2227.66 214.217 2226.11 215.833 Q2224.57 217.449 2223.32 218.597 Q2222.08 219.745 2219.3 222.181 L2214.21 227.123 L2222.86 227.123 Q2227.07 227.123 2227.4 226.748 Q2227.87 226.069 2228.45 222.485 L2229.67 222.485 L2228.31 230.824 L2210.51 230.824 Z" fill="#000000" fill-rule="evenodd" fill-opacity="1" /></svg>
