<?xml version="1.0" encoding="utf-8"?>
<svg xmlns="http://www.w3.org/2000/svg" xmlns:xlink="http://www.w3.org/1999/xlink" width="600" height="400" viewBox="0 0 2400 1600">
<defs>
  <clipPath id="clip080">
    <rect x="0" y="0" width="2400" height="1600"/>
  </clipPath>
</defs>
<path clip-path="url(#clip080)" d="
M0 1600 L2400 1600 L2400 0 L0 0  Z
  " fill="#ffffff" fill-rule="evenodd" fill-opacity="1"/>
<defs>
  <clipPath id="clip081">
    <rect x="480" y="0" width="1681" height="1600"/>
  </clipPath>
</defs>
<defs>
  <clipPath id="clip082">
    <rect x="219" y="47" width="2134" height="1393"/>
  </clipPath>
</defs>
<path clip-path="url(#clip080)" d="
M219.866 1439.5 L2352.76 1439.5 L2352.76 47.2441 L219.866 47.2441  Z
  " fill="#ffffff" fill-rule="evenodd" fill-opacity="1"/>
<polyline clip-path="url(#clip082)" style="stroke:#000000; stroke-linecap:butt; stroke-linejoin:round; stroke-width:2; stroke-opacity:0.1; fill:none" points="
  219.866,1439.5 219.866,47.2441 
  "/>
<polyline clip-path="url(#clip082)" style="stroke:#000000; stroke-linecap:butt; stroke-linejoin:round; stroke-width:2; stroke-opacity:0.1; fill:none" points="
  753.089,1439.5 753.089,47.2441 
  "/>
<polyline clip-path="url(#clip082)" style="stroke:#000000; stroke-linecap:butt; stroke-linejoin:round; stroke-width:2; stroke-opacity:0.1; fill:none" points="
  1286.31,1439.5 1286.31,47.2441 
  "/>
<polyline clip-path="url(#clip082)" style="stroke:#000000; stroke-linecap:butt; stroke-linejoin:round; stroke-width:2; stroke-opacity:0.1; fill:none" points="
  1819.53,1439.5 1819.53,47.2441 
  "/>
<polyline clip-path="url(#clip082)" style="stroke:#000000; stroke-linecap:butt; stroke-linejoin:round; stroke-width:2; stroke-opacity:0.1; fill:none" points="
  2352.76,1439.5 2352.76,47.2441 
  "/>
<polyline clip-path="url(#clip080)" style="stroke:#000000; stroke-linecap:butt; stroke-linejoin:round; stroke-width:4; stroke-opacity:1; fill:none" points="
  219.866,1439.5 2352.76,1439.5 
  "/>
<polyline clip-path="url(#clip080)" style="stroke:#000000; stroke-linecap:butt; stroke-linejoin:round; stroke-width:4; stroke-opacity:1; fill:none" points="
  219.866,1439.5 219.866,1422.79 
  "/>
<polyline clip-path="url(#clip080)" style="stroke:#000000; stroke-linecap:butt; stroke-linejoin:round; stroke-width:4; stroke-opacity:1; fill:none" points="
  753.089,1439.5 753.089,1422.79 
  "/>
<polyline clip-path="url(#clip080)" style="stroke:#000000; stroke-linecap:butt; stroke-linejoin:round; stroke-width:4; stroke-opacity:1; fill:none" points="
  1286.31,1439.5 1286.31,1422.79 
  "/>
<polyline clip-path="url(#clip080)" style="stroke:#000000; stroke-linecap:butt; stroke-linejoin:round; stroke-width:4; stroke-opacity:1; fill:none" points="
  1819.53,1439.5 1819.53,1422.79 
  "/>
<polyline clip-path="url(#clip080)" style="stroke:#000000; stroke-linecap:butt; stroke-linejoin:round; stroke-width:4; stroke-opacity:1; fill:none" points="
  2352.76,1439.5 2352.76,1422.79 
  "/>
<path clip-path="url(#clip080)" d="M188.767 1483.35 L218.443 1483.35 L218.443 1487.28 L188.767 1487.28 L188.767 1483.35 Z" fill="#000000" fill-rule="evenodd" fill-opacity="1" /><path clip-path="url(#clip080)" d="M241.382 1469.69 L229.577 1488.14 L241.382 1488.14 L241.382 1469.69 M240.156 1465.61 L246.035 1465.61 L246.035 1488.14 L250.966 1488.14 L250.966 1492.03 L246.035 1492.03 L246.035 1500.17 L241.382 1500.17 L241.382 1492.03 L225.781 1492.03 L225.781 1487.51 L240.156 1465.61 Z" fill="#000000" fill-rule="evenodd" fill-opacity="1" /><path clip-path="url(#clip080)" d="M723.031 1483.35 L752.707 1483.35 L752.707 1487.28 L723.031 1487.28 L723.031 1483.35 Z" fill="#000000" fill-rule="evenodd" fill-opacity="1" /><path clip-path="url(#clip080)" d="M766.827 1496.24 L783.146 1496.24 L783.146 1500.17 L761.202 1500.17 L761.202 1496.24 Q763.864 1493.48 768.447 1488.85 Q773.054 1484.2 774.234 1482.86 Q776.48 1480.34 777.359 1478.6 Q778.262 1476.84 778.262 1475.15 Q778.262 1472.4 776.318 1470.66 Q774.396 1468.92 771.295 1468.92 Q769.096 1468.92 766.642 1469.69 Q764.211 1470.45 761.434 1472 L761.434 1467.28 Q764.258 1466.15 766.711 1465.57 Q769.165 1464.99 771.202 1464.99 Q776.572 1464.99 779.767 1467.67 Q782.961 1470.36 782.961 1474.85 Q782.961 1476.98 782.151 1478.9 Q781.364 1480.8 779.258 1483.39 Q778.679 1484.06 775.577 1487.28 Q772.475 1490.47 766.827 1496.24 Z" fill="#000000" fill-rule="evenodd" fill-opacity="1" /><path clip-path="url(#clip080)" d="M1286.31 1468.69 Q1282.7 1468.69 1280.87 1472.26 Q1279.07 1475.8 1279.07 1482.93 Q1279.07 1490.04 1280.87 1493.6 Q1282.7 1497.14 1286.31 1497.14 Q1289.95 1497.14 1291.75 1493.6 Q1293.58 1490.04 1293.58 1482.93 Q1293.58 1475.8 1291.75 1472.26 Q1289.95 1468.69 1286.31 1468.69 M1286.31 1464.99 Q1292.12 1464.99 1295.18 1469.6 Q1298.26 1474.18 1298.26 1482.93 Q1298.26 1491.66 1295.18 1496.26 Q1292.12 1500.85 1286.31 1500.85 Q1280.5 1500.85 1277.42 1496.26 Q1274.37 1491.66 1274.37 1482.93 Q1274.37 1474.18 1277.42 1469.6 Q1280.5 1464.99 1286.31 1464.99 Z" fill="#000000" fill-rule="evenodd" fill-opacity="1" /><path clip-path="url(#clip080)" d="M1814.19 1496.24 L1830.51 1496.24 L1830.51 1500.17 L1808.56 1500.17 L1808.56 1496.24 Q1811.22 1493.48 1815.81 1488.85 Q1820.41 1484.2 1821.59 1482.86 Q1823.84 1480.34 1824.72 1478.6 Q1825.62 1476.84 1825.62 1475.15 Q1825.62 1472.4 1823.68 1470.66 Q1821.76 1468.92 1818.65 1468.92 Q1816.45 1468.92 1814 1469.69 Q1811.57 1470.45 1808.79 1472 L1808.79 1467.28 Q1811.62 1466.15 1814.07 1465.57 Q1816.52 1464.99 1818.56 1464.99 Q1823.93 1464.99 1827.13 1467.67 Q1830.32 1470.36 1830.32 1474.85 Q1830.32 1476.98 1829.51 1478.9 Q1828.72 1480.8 1826.62 1483.39 Q1826.04 1484.06 1822.94 1487.28 Q1819.83 1490.47 1814.19 1496.24 Z" fill="#000000" fill-rule="evenodd" fill-opacity="1" /><path clip-path="url(#clip080)" d="M2355.77 1469.69 L2343.96 1488.14 L2355.77 1488.14 L2355.77 1469.69 M2354.54 1465.61 L2360.42 1465.61 L2360.42 1488.14 L2365.35 1488.14 L2365.35 1492.03 L2360.42 1492.03 L2360.42 1500.17 L2355.77 1500.17 L2355.77 1492.03 L2340.16 1492.03 L2340.16 1487.51 L2354.54 1465.61 Z" fill="#000000" fill-rule="evenodd" fill-opacity="1" /><path clip-path="url(#clip080)" d="M1298.25 1535.75 Q1298.25 1541.16 1296.51 1547.24 Q1294.8 1553.3 1292.09 1558.19 Q1289.39 1563.06 1285.85 1566.28 Q1282.3 1569.47 1278.92 1569.47 Q1276.76 1569.47 1275.15 1568.27 Q1273.58 1567.05 1272.71 1565.02 Q1271.84 1562.96 1271.42 1560.71 Q1271 1558.42 1271 1555.94 Q1271 1552.24 1271.8 1548.21 Q1272.61 1544.15 1273.96 1540.48 Q1275.32 1536.78 1277.22 1533.43 Q1279.12 1530.05 1281.21 1527.6 Q1283.33 1525.12 1285.72 1523.67 Q1288.1 1522.22 1290.32 1522.22 Q1291.93 1522.22 1293.22 1522.93 Q1294.54 1523.6 1295.38 1524.8 Q1296.22 1525.96 1296.8 1527.34 Q1297.41 1528.73 1297.7 1530.34 Q1297.99 1531.91 1298.12 1533.23 Q1298.25 1534.52 1298.25 1535.75 M1293.9 1531.66 Q1293.9 1530.01 1293.77 1528.79 Q1293.64 1527.53 1293.29 1526.28 Q1292.93 1525.02 1292.16 1524.35 Q1291.42 1523.67 1290.26 1523.67 Q1286.88 1523.67 1283.08 1530.59 Q1281.85 1532.75 1280.76 1535.68 Q1279.66 1538.61 1279.28 1540 Q1278.89 1541.38 1277.99 1544.8 L1291.77 1544.8 Q1293.9 1536 1293.9 1531.66 M1291.19 1546.89 L1277.47 1546.89 Q1275.35 1554.94 1275.35 1559.96 Q1275.35 1564.34 1276.25 1566.18 Q1277.18 1567.98 1278.92 1567.98 Q1280.92 1567.98 1282.79 1565.99 Q1284.66 1563.96 1286.56 1560.29 Q1289.07 1555.52 1291.19 1546.89 Z" fill="#000000" fill-rule="evenodd" fill-opacity="1" /><polyline clip-path="url(#clip082)" style="stroke:#000000; stroke-linecap:butt; stroke-linejoin:round; stroke-width:2; stroke-opacity:0.1; fill:none" points="
  219.866,1400.42 2352.76,1400.42 
  "/>
<polyline clip-path="url(#clip082)" style="stroke:#000000; stroke-linecap:butt; stroke-linejoin:round; stroke-width:2; stroke-opacity:0.1; fill:none" points="
  219.866,1071.05 2352.76,1071.05 
  "/>
<polyline clip-path="url(#clip082)" style="stroke:#000000; stroke-linecap:butt; stroke-linejoin:round; stroke-width:2; stroke-opacity:0.1; fill:none" points="
  219.866,741.683 2352.76,741.683 
  "/>
<polyline clip-path="url(#clip082)" style="stroke:#000000; stroke-linecap:butt; stroke-linejoin:round; stroke-width:2; stroke-opacity:0.1; fill:none" points="
  219.866,412.313 2352.76,412.313 
  "/>
<polyline clip-path="url(#clip082)" style="stroke:#000000; stroke-linecap:butt; stroke-linejoin:round; stroke-width:2; stroke-opacity:0.1; fill:none" points="
  219.866,82.9425 2352.76,82.9425 
  "/>
<polyline clip-path="url(#clip080)" style="stroke:#000000; stroke-linecap:butt; stroke-linejoin:round; stroke-width:4; stroke-opacity:1; fill:none" points="
  219.866,1439.5 219.866,47.2441 
  "/>
<polyline clip-path="url(#clip080)" style="stroke:#000000; stroke-linecap:butt; stroke-linejoin:round; stroke-width:4; stroke-opacity:1; fill:none" points="
  219.866,1400.42 245.461,1400.42 
  "/>
<polyline clip-path="url(#clip080)" style="stroke:#000000; stroke-linecap:butt; stroke-linejoin:round; stroke-width:4; stroke-opacity:1; fill:none" points="
  219.866,1071.05 245.461,1071.05 
  "/>
<polyline clip-path="url(#clip080)" style="stroke:#000000; stroke-linecap:butt; stroke-linejoin:round; stroke-width:4; stroke-opacity:1; fill:none" points="
  219.866,741.683 245.461,741.683 
  "/>
<polyline clip-path="url(#clip080)" style="stroke:#000000; stroke-linecap:butt; stroke-linejoin:round; stroke-width:4; stroke-opacity:1; fill:none" points="
  219.866,412.313 245.461,412.313 
  "/>
<polyline clip-path="url(#clip080)" style="stroke:#000000; stroke-linecap:butt; stroke-linejoin:round; stroke-width:4; stroke-opacity:1; fill:none" points="
  219.866,82.9425 245.461,82.9425 
  "/>
<path clip-path="url(#clip080)" d="M126.691 1386.22 Q123.08 1386.22 121.251 1389.79 Q119.445 1393.33 119.445 1400.46 Q119.445 1407.57 121.251 1411.13 Q123.08 1414.67 126.691 1414.67 Q130.325 1414.67 132.13 1411.13 Q133.959 1407.57 133.959 1400.46 Q133.959 1393.33 132.13 1389.79 Q130.325 1386.22 126.691 1386.22 M126.691 1382.52 Q132.501 1382.52 135.556 1387.13 Q138.635 1391.71 138.635 1400.46 Q138.635 1409.19 135.556 1413.79 Q132.501 1418.38 126.691 1418.38 Q120.88 1418.38 117.802 1413.79 Q114.746 1409.19 114.746 1400.46 Q114.746 1391.71 117.802 1387.13 Q120.88 1382.52 126.691 1382.52 Z" fill="#000000" fill-rule="evenodd" fill-opacity="1" /><path clip-path="url(#clip080)" d="M146.853 1411.82 L151.737 1411.82 L151.737 1417.7 L146.853 1417.7 L146.853 1411.82 Z" fill="#000000" fill-rule="evenodd" fill-opacity="1" /><path clip-path="url(#clip080)" d="M171.922 1386.22 Q168.311 1386.22 166.482 1389.79 Q164.677 1393.33 164.677 1400.46 Q164.677 1407.57 166.482 1411.13 Q168.311 1414.67 171.922 1414.67 Q175.556 1414.67 177.362 1411.13 Q179.19 1407.57 179.19 1400.46 Q179.19 1393.33 177.362 1389.79 Q175.556 1386.22 171.922 1386.22 M171.922 1382.52 Q177.732 1382.52 180.788 1387.13 Q183.866 1391.71 183.866 1400.46 Q183.866 1409.19 180.788 1413.79 Q177.732 1418.38 171.922 1418.38 Q166.112 1418.38 163.033 1413.79 Q159.978 1409.19 159.978 1400.46 Q159.978 1391.71 163.033 1387.13 Q166.112 1382.52 171.922 1382.52 Z" fill="#000000" fill-rule="evenodd" fill-opacity="1" /><path clip-path="url(#clip080)" d="M128.288 1056.85 Q124.677 1056.85 122.848 1060.42 Q121.043 1063.96 121.043 1071.09 Q121.043 1078.2 122.848 1081.76 Q124.677 1085.3 128.288 1085.3 Q131.922 1085.3 133.728 1081.76 Q135.556 1078.2 135.556 1071.09 Q135.556 1063.96 133.728 1060.42 Q131.922 1056.85 128.288 1056.85 M128.288 1053.15 Q134.098 1053.15 137.154 1057.76 Q140.232 1062.34 140.232 1071.09 Q140.232 1079.82 137.154 1084.42 Q134.098 1089.01 128.288 1089.01 Q122.478 1089.01 119.399 1084.42 Q116.343 1079.82 116.343 1071.09 Q116.343 1062.34 119.399 1057.76 Q122.478 1053.15 128.288 1053.15 Z" fill="#000000" fill-rule="evenodd" fill-opacity="1" /><path clip-path="url(#clip080)" d="M148.45 1082.45 L153.334 1082.45 L153.334 1088.33 L148.45 1088.33 L148.45 1082.45 Z" fill="#000000" fill-rule="evenodd" fill-opacity="1" /><path clip-path="url(#clip080)" d="M167.547 1084.4 L183.866 1084.4 L183.866 1088.33 L161.922 1088.33 L161.922 1084.4 Q164.584 1081.64 169.167 1077.01 Q173.774 1072.36 174.954 1071.02 Q177.2 1068.5 178.079 1066.76 Q178.982 1065 178.982 1063.31 Q178.982 1060.56 177.038 1058.82 Q175.116 1057.08 172.014 1057.08 Q169.815 1057.08 167.362 1057.85 Q164.931 1058.61 162.153 1060.16 L162.153 1055.44 Q164.977 1054.31 167.431 1053.73 Q169.885 1053.15 171.922 1053.15 Q177.292 1053.15 180.487 1055.83 Q183.681 1058.52 183.681 1063.01 Q183.681 1065.14 182.871 1067.06 Q182.084 1068.96 179.977 1071.55 Q179.399 1072.22 176.297 1075.44 Q173.195 1078.63 167.547 1084.4 Z" fill="#000000" fill-rule="evenodd" fill-opacity="1" /><path clip-path="url(#clip080)" d="M126.205 727.482 Q122.593 727.482 120.765 731.047 Q118.959 734.589 118.959 741.718 Q118.959 748.825 120.765 752.389 Q122.593 755.931 126.205 755.931 Q129.839 755.931 131.644 752.389 Q133.473 748.825 133.473 741.718 Q133.473 734.589 131.644 731.047 Q129.839 727.482 126.205 727.482 M126.205 723.778 Q132.015 723.778 135.07 728.385 Q138.149 732.968 138.149 741.718 Q138.149 750.445 135.07 755.051 Q132.015 759.635 126.205 759.635 Q120.394 759.635 117.316 755.051 Q114.26 750.445 114.26 741.718 Q114.26 732.968 117.316 728.385 Q120.394 723.778 126.205 723.778 Z" fill="#000000" fill-rule="evenodd" fill-opacity="1" /><path clip-path="url(#clip080)" d="M146.366 753.084 L151.251 753.084 L151.251 758.963 L146.366 758.963 L146.366 753.084 Z" fill="#000000" fill-rule="evenodd" fill-opacity="1" /><path clip-path="url(#clip080)" d="M174.283 728.477 L162.477 746.926 L174.283 746.926 L174.283 728.477 M173.056 724.403 L178.936 724.403 L178.936 746.926 L183.866 746.926 L183.866 750.815 L178.936 750.815 L178.936 758.963 L174.283 758.963 L174.283 750.815 L158.681 750.815 L158.681 746.301 L173.056 724.403 Z" fill="#000000" fill-rule="evenodd" fill-opacity="1" /><path clip-path="url(#clip080)" d="M126.529 398.112 Q122.918 398.112 121.089 401.676 Q119.283 405.218 119.283 412.348 Q119.283 419.454 121.089 423.019 Q122.918 426.561 126.529 426.561 Q130.163 426.561 131.968 423.019 Q133.797 419.454 133.797 412.348 Q133.797 405.218 131.968 401.676 Q130.163 398.112 126.529 398.112 M126.529 394.408 Q132.339 394.408 135.394 399.014 Q138.473 403.598 138.473 412.348 Q138.473 421.074 135.394 425.681 Q132.339 430.264 126.529 430.264 Q120.718 430.264 117.64 425.681 Q114.584 421.074 114.584 412.348 Q114.584 403.598 117.64 399.014 Q120.718 394.408 126.529 394.408 Z" fill="#000000" fill-rule="evenodd" fill-opacity="1" /><path clip-path="url(#clip080)" d="M146.691 423.713 L151.575 423.713 L151.575 429.593 L146.691 429.593 L146.691 423.713 Z" fill="#000000" fill-rule="evenodd" fill-opacity="1" /><path clip-path="url(#clip080)" d="M172.339 410.45 Q169.19 410.45 167.339 412.602 Q165.51 414.755 165.51 418.505 Q165.51 422.232 167.339 424.408 Q169.19 426.561 172.339 426.561 Q175.487 426.561 177.315 424.408 Q179.167 422.232 179.167 418.505 Q179.167 414.755 177.315 412.602 Q175.487 410.45 172.339 410.45 M181.621 395.797 L181.621 400.056 Q179.862 399.223 178.056 398.783 Q176.274 398.343 174.514 398.343 Q169.885 398.343 167.431 401.468 Q165.001 404.593 164.653 410.912 Q166.019 408.899 168.079 407.834 Q170.139 406.746 172.616 406.746 Q177.825 406.746 180.834 409.917 Q183.866 413.065 183.866 418.505 Q183.866 423.829 180.718 427.047 Q177.57 430.264 172.339 430.264 Q166.343 430.264 163.172 425.681 Q160.001 421.074 160.001 412.348 Q160.001 404.153 163.89 399.292 Q167.778 394.408 174.329 394.408 Q176.089 394.408 177.871 394.755 Q179.676 395.102 181.621 395.797 Z" fill="#000000" fill-rule="evenodd" fill-opacity="1" /><path clip-path="url(#clip080)" d="M126.783 68.7412 Q123.172 68.7412 121.343 72.306 Q119.538 75.8476 119.538 82.9772 Q119.538 90.0836 121.343 93.6484 Q123.172 97.1901 126.783 97.1901 Q130.417 97.1901 132.223 93.6484 Q134.052 90.0836 134.052 82.9772 Q134.052 75.8476 132.223 72.306 Q130.417 68.7412 126.783 68.7412 M126.783 65.0375 Q132.593 65.0375 135.649 69.6439 Q138.728 74.2273 138.728 82.9772 Q138.728 91.704 135.649 96.3105 Q132.593 100.894 126.783 100.894 Q120.973 100.894 117.894 96.3105 Q114.839 91.704 114.839 82.9772 Q114.839 74.2273 117.894 69.6439 Q120.973 65.0375 126.783 65.0375 Z" fill="#000000" fill-rule="evenodd" fill-opacity="1" /><path clip-path="url(#clip080)" d="M146.945 94.3429 L151.829 94.3429 L151.829 100.222 L146.945 100.222 L146.945 94.3429 Z" fill="#000000" fill-rule="evenodd" fill-opacity="1" /><path clip-path="url(#clip080)" d="M172.014 83.8105 Q168.681 83.8105 166.76 85.5929 Q164.862 87.3753 164.862 90.5003 Q164.862 93.6253 166.76 95.4077 Q168.681 97.1901 172.014 97.1901 Q175.348 97.1901 177.269 95.4077 Q179.19 93.6021 179.19 90.5003 Q179.19 87.3753 177.269 85.5929 Q175.371 83.8105 172.014 83.8105 M167.339 81.8198 Q164.329 81.0791 162.64 79.0189 Q160.973 76.9587 160.973 73.9958 Q160.973 69.8523 163.913 67.4449 Q166.876 65.0375 172.014 65.0375 Q177.176 65.0375 180.116 67.4449 Q183.056 69.8523 183.056 73.9958 Q183.056 76.9587 181.366 79.0189 Q179.7 81.0791 176.714 81.8198 Q180.093 82.6068 181.968 84.8985 Q183.866 87.1901 183.866 90.5003 Q183.866 95.5234 180.788 98.2086 Q177.732 100.894 172.014 100.894 Q166.297 100.894 163.218 98.2086 Q160.163 95.5234 160.163 90.5003 Q160.163 87.1901 162.061 84.8985 Q163.959 82.6068 167.339 81.8198 M165.626 74.4356 Q165.626 77.1208 167.292 78.6254 Q168.982 80.13 172.014 80.13 Q175.024 80.13 176.714 78.6254 Q178.426 77.1208 178.426 74.4356 Q178.426 71.7504 176.714 70.2458 Q175.024 68.7412 172.014 68.7412 Q168.982 68.7412 167.292 70.2458 Q165.626 71.7504 165.626 74.4356 Z" fill="#000000" fill-rule="evenodd" fill-opacity="1" /><path clip-path="url(#clip080)" d="M21.7677 856.683 L58.7206 856.683 L58.7206 848.916 Q58.7206 839.081 54.2646 834.53 Q49.8086 829.947 40.1964 829.947 Q30.6479 829.947 26.2237 834.53 Q21.7677 839.081 21.7677 848.916 L21.7677 856.683 M16.4842 863.112 L16.4842 849.903 Q16.4842 836.09 22.2451 829.628 Q27.9743 823.167 40.1964 823.167 Q52.4822 823.167 58.2432 829.66 Q64.0042 836.153 64.0042 849.903 L64.0042 863.112 L16.4842 863.112 Z" fill="#000000" fill-rule="evenodd" fill-opacity="1" /><path clip-path="url(#clip080)" d="M44.7161 782.681 L47.5806 782.681 L47.5806 809.608 Q53.6281 809.226 56.8109 805.98 Q59.9619 802.701 59.9619 796.877 Q59.9619 793.503 59.1344 790.352 Q58.3069 787.169 56.6518 784.05 L62.1899 784.05 Q63.5267 787.201 64.227 790.511 Q64.9272 793.821 64.9272 797.227 Q64.9272 805.757 59.9619 810.754 Q54.9967 815.719 46.5303 815.719 Q37.7774 815.719 32.6531 811.009 Q27.4968 806.266 27.4968 798.245 Q27.4968 791.052 32.1438 786.883 Q36.7589 782.681 44.7161 782.681 M42.9973 788.538 Q38.1912 788.601 35.3266 791.243 Q32.4621 793.853 32.4621 798.182 Q32.4621 803.083 35.2312 806.043 Q38.0002 808.972 43.0292 809.417 L42.9973 788.538 Z" fill="#000000" fill-rule="evenodd" fill-opacity="1" /><path clip-path="url(#clip080)" d="M42.4881 743.437 L64.0042 743.437 L64.0042 749.293 L42.679 749.293 Q37.6183 749.293 35.1038 751.266 Q32.5894 753.24 32.5894 757.187 Q32.5894 761.929 35.6131 764.666 Q38.6368 767.404 43.8567 767.404 L64.0042 767.404 L64.0042 773.292 L28.3562 773.292 L28.3562 767.404 L33.8944 767.404 Q30.6797 765.303 29.0883 762.47 Q27.4968 759.606 27.4968 755.882 Q27.4968 749.739 31.3163 746.588 Q35.1038 743.437 42.4881 743.437 Z" fill="#000000" fill-rule="evenodd" fill-opacity="1" /><path clip-path="url(#clip080)" d="M29.4065 709.03 L34.9447 709.03 Q33.6716 711.513 33.035 714.186 Q32.3984 716.86 32.3984 719.724 Q32.3984 724.085 33.7352 726.281 Q35.072 728.445 37.7456 728.445 Q39.7826 728.445 40.9603 726.886 Q42.1061 725.326 43.1565 720.616 L43.6021 718.61 Q44.9389 712.372 47.3897 709.762 Q49.8086 707.12 54.1691 707.12 Q59.1344 707.12 62.0308 711.067 Q64.9272 714.982 64.9272 721.857 Q64.9272 724.721 64.3543 727.841 Q63.8132 730.928 62.6992 734.366 L56.6518 734.366 Q58.3387 731.119 59.198 727.968 Q60.0256 724.817 60.0256 721.73 Q60.0256 717.592 58.6251 715.364 Q57.1929 713.136 54.6147 713.136 Q52.2276 713.136 50.9545 714.759 Q49.6813 716.351 48.5037 721.793 L48.0262 723.83 Q46.8804 729.273 44.5251 731.692 Q42.138 734.111 38.0002 734.111 Q32.9713 734.111 30.2341 730.546 Q27.4968 726.981 27.4968 720.425 Q27.4968 717.178 27.9743 714.314 Q28.4517 711.449 29.4065 709.03 Z" fill="#000000" fill-rule="evenodd" fill-opacity="1" /><path clip-path="url(#clip080)" d="M28.3562 697.795 L28.3562 691.938 L64.0042 691.938 L64.0042 697.795 L28.3562 697.795 M14.479 697.795 L14.479 691.938 L21.895 691.938 L21.895 697.795 L14.479 697.795 Z" fill="#000000" fill-rule="evenodd" fill-opacity="1" /><path clip-path="url(#clip080)" d="M18.2347 673.891 L28.3562 673.891 L28.3562 661.828 L32.9077 661.828 L32.9077 673.891 L52.2594 673.891 Q56.6199 673.891 57.8613 672.714 Q59.1026 671.504 59.1026 667.844 L59.1026 661.828 L64.0042 661.828 L64.0042 667.844 Q64.0042 674.623 61.4897 677.201 Q58.9434 679.78 52.2594 679.78 L32.9077 679.78 L32.9077 684.076 L28.3562 684.076 L28.3562 679.78 L18.2347 679.78 L18.2347 673.891 Z" fill="#000000" fill-rule="evenodd" fill-opacity="1" /><path clip-path="url(#clip080)" d="M67.3143 639.294 Q73.68 641.776 75.6216 644.132 Q77.5631 646.487 77.5631 650.434 L77.5631 655.112 L72.6615 655.112 L72.6615 651.675 Q72.6615 649.256 71.5157 647.919 Q70.3699 646.582 66.1048 644.959 L63.4312 643.909 L28.3562 658.327 L28.3562 652.121 L56.238 640.981 L28.3562 629.841 L28.3562 623.634 L67.3143 639.294 Z" fill="#000000" fill-rule="evenodd" fill-opacity="1" /><polyline clip-path="url(#clip082)" style="stroke:#009af9; stroke-linecap:butt; stroke-linejoin:round; stroke-width:20; stroke-opacity:1; fill:none" points="
  294.78,1399.77 304.463,1399.68 314.146,1399.57 403.68,1397.68 493.215,1392.55 547.021,1386.37 600.828,1376.32 646.32,1363.59 691.813,1345.74 716.522,1333.47 
  741.231,1319.16 765.94,1302.62 790.648,1283.73 813.428,1264.14 836.207,1242.42 858.987,1218.57 881.766,1192.64 930.61,1130.62 979.454,1061.65 1036.04,977.536 
  1092.63,895.794 1117.78,862.406 1142.93,831.889 1168.07,804.961 1193.22,782.281 1215.27,766.342 1237.32,754.426 1259.37,746.772 1281.42,743.536 1305.46,745.117 
  1329.5,751.989 1353.54,763.984 1377.58,780.816 1401.76,802.227 1425.95,827.63 1450.13,856.448 1474.31,888.05 1527.79,964.486 1581.27,1044.14 1632.15,1117.16 
  1683.03,1183.27 1709.48,1214 1735.93,1241.94 1762.39,1267.02 1788.84,1289.23 1833.37,1320.39 1877.91,1344.4 1932.28,1365.52 1986.65,1379.57 2037.76,1388.05 
  2088.87,1393.35 2170.76,1397.75 2252.64,1399.5 2265.24,1399.65 2277.84,1399.77 
  "/>
<polyline clip-path="url(#clip082)" style="stroke:#e26f46; stroke-linecap:butt; stroke-linejoin:round; stroke-width:20; stroke-opacity:1; fill:none" points="
  790.545,1399.12 795.387,1398.93 800.228,1398.72 844.996,1394.95 889.763,1384.68 916.666,1372.31 943.569,1352.21 966.316,1326.75 989.062,1291.05 1001.42,1266.52 
  1013.77,1237.89 1026.13,1204.82 1038.48,1167.05 1049.87,1127.86 1061.26,1084.42 1072.65,1036.72 1084.04,984.859 1108.46,860.817 1132.88,722.875 1161.18,554.648 
  1189.47,391.163 1202.05,324.387 1214.62,263.353 1227.19,209.498 1239.76,164.138 1250.79,132.26 1261.81,108.427 1272.84,93.1193 1283.86,86.6476 1295.88,89.8105 
  1307.91,103.554 1319.93,127.544 1331.95,161.208 1344.04,204.029 1356.13,254.835 1368.22,312.472 1380.31,375.675 1407.05,528.547 1433.79,687.865 1459.23,833.901 
  1484.67,966.117 1497.9,1027.57 1511.12,1083.46 1524.35,1133.61 1537.58,1178.03 1559.84,1240.35 1582.11,1288.37 1609.3,1330.62 1636.48,1358.71 1662.04,1375.68 
  1687.59,1386.27 1728.53,1395.07 1769.48,1398.58 1775.78,1398.87 1782.08,1399.12 
  "/>
<polyline clip-path="url(#clip082)" style="stroke:#3da44d; stroke-linecap:butt; stroke-linejoin:round; stroke-width:20; stroke-opacity:1; fill:none" points="
  -696.752,1400.1 -677.386,1400.05 -658.019,1400 -478.951,1399.05 -299.882,1396.49 -192.269,1393.4 -84.656,1388.37 6.32929,1382 97.3146,1373.08 146.732,1366.95 
  196.15,1359.79 245.568,1351.52 294.986,1342.08 340.545,1332.28 386.103,1321.42 431.662,1309.5 477.221,1296.53 574.909,1265.52 672.597,1231.04 785.777,1188.98 
  898.958,1148.11 949.249,1131.42 999.54,1116.16 1049.83,1102.69 1100.12,1091.35 1144.22,1083.38 1188.32,1077.42 1232.42,1073.6 1276.52,1071.98 1324.61,1072.77 
  1372.69,1076.21 1420.77,1082.2 1468.85,1090.62 1517.22,1101.33 1565.58,1114.03 1613.95,1128.44 1662.32,1144.24 1769.27,1182.46 1876.22,1222.28 1977.99,1258.79 
  2079.75,1291.85 2132.65,1307.21 2185.56,1321.18 2238.46,1333.72 2291.37,1344.83 2380.44,1360.4 2469.5,1372.41 2578.25,1382.97 2686.99,1390 2789.21,1394.24 
  2891.43,1396.89 3055.2,1399.09 3218.97,1399.96 3244.17,1400.04 3269.37,1400.1 
  "/>
<path clip-path="url(#clip080)" d="
M1893.31 335.573 L2281.66 335.573 L2281.66 93.6527 L1893.31 93.6527  Z
  " fill="#ffffff" fill-rule="evenodd" fill-opacity="1"/>
<polyline clip-path="url(#clip080)" style="stroke:#000000; stroke-linecap:butt; stroke-linejoin:round; stroke-width:4; stroke-opacity:1; fill:none" points="
  1893.31,335.573 2281.66,335.573 2281.66,93.6527 1893.31,93.6527 1893.31,335.573 
  "/>
<polyline clip-path="url(#clip080)" style="stroke:#009af9; stroke-linecap:butt; stroke-linejoin:round; stroke-width:4; stroke-opacity:1; fill:none" points="
  1917,154.133 2059.2,154.133 
  "/>
<path clip-path="url(#clip080)" d="M2108.26 150.153 Q2108.26 151.793 2105.92 151.793 L2100.65 151.793 Q2102.13 153.901 2102.13 157.016 Q2102.13 159.686 2101.02 162.192 Q2099.95 164.675 2098.21 166.408 Q2096.5 168.141 2094.35 169.196 Q2092.19 170.226 2090.09 170.226 Q2086.88 170.226 2084.89 168.048 Q2082.9 165.87 2082.9 162.637 Q2082.9 160.927 2083.48 159.03 Q2084.09 157.133 2085.24 155.376 Q2086.39 153.596 2087.88 152.167 Q2089.41 150.739 2091.37 149.872 Q2093.37 149.005 2095.45 149.005 L2106.39 149.005 Q2106.97 149.005 2107.28 149.052 Q2107.61 149.076 2107.93 149.357 Q2108.26 149.614 2108.26 150.153 M2099.06 156.454 Q2099.06 155.892 2098.99 155.4 Q2098.92 154.884 2098.66 154.205 Q2098.4 153.502 2097.96 153.011 Q2097.51 152.495 2096.64 152.144 Q2095.8 151.793 2094.65 151.793 Q2093.04 151.793 2091.26 152.683 Q2089.48 153.573 2088.12 155.774 Q2086.99 157.648 2086.43 160.084 Q2085.87 162.52 2085.87 163.972 Q2085.87 166.455 2087.06 167.814 Q2088.28 169.149 2090.13 169.149 Q2091.66 169.149 2093.39 168.118 Q2095.12 167.064 2096.46 165.073 Q2097.63 163.34 2098.33 160.81 Q2099.06 158.281 2099.06 156.454 Z" fill="#000000" fill-rule="evenodd" fill-opacity="1" /><path clip-path="url(#clip080)" d="M2123.31 162.403 Q2123.36 161.817 2124.27 161.817 L2153.67 161.817 Q2155.05 161.817 2155.07 162.356 Q2155.07 162.942 2153.76 162.918 L2124.6 162.918 Q2123.31 162.942 2123.31 162.403 M2123.31 153.034 Q2123.31 152.448 2124.32 152.472 L2153.62 152.472 Q2155.05 152.472 2155.07 153.034 Q2155.07 153.573 2153.86 153.573 L2124.27 153.573 Q2123.31 153.573 2123.31 153.034 Z" fill="#000000" fill-rule="evenodd" fill-opacity="1" /><path clip-path="url(#clip080)" d="M2173.57 142.307 L2173.57 140.808 Q2179.33 140.808 2182.3 137.739 Q2183.12 137.739 2183.26 137.927 Q2183.4 138.114 2183.4 138.981 L2183.4 165.893 Q2183.4 167.322 2184.11 167.767 Q2184.81 168.212 2187.88 168.212 L2189.4 168.212 L2189.4 169.687 Q2187.71 169.547 2181.62 169.547 Q2175.53 169.547 2173.87 169.687 L2173.87 168.212 L2175.39 168.212 Q2178.41 168.212 2179.14 167.79 Q2179.87 167.345 2179.87 165.893 L2179.87 141.042 Q2177.36 142.307 2173.57 142.307 Z" fill="#000000" fill-rule="evenodd" fill-opacity="1" /><polyline clip-path="url(#clip080)" style="stroke:#e26f46; stroke-linecap:butt; stroke-linejoin:round; stroke-width:4; stroke-opacity:1; fill:none" points="
  1917,214.613 2059.2,214.613 
  "/>
<path clip-path="url(#clip080)" d="M2108.26 210.375 Q2108.26 212.015 2105.92 212.015 L2100.65 212.015 Q2102.13 214.123 2102.13 217.238 Q2102.13 219.908 2101.02 222.414 Q2099.95 224.897 2098.21 226.63 Q2096.5 228.364 2094.35 229.418 Q2092.19 230.448 2090.09 230.448 Q2086.88 230.448 2084.89 228.27 Q2082.9 226.092 2082.9 222.859 Q2082.9 221.15 2083.48 219.252 Q2084.09 217.355 2085.24 215.598 Q2086.39 213.818 2087.88 212.39 Q2089.41 210.961 2091.37 210.094 Q2093.37 209.228 2095.45 209.228 L2106.39 209.228 Q2106.97 209.228 2107.28 209.274 Q2107.61 209.298 2107.93 209.579 Q2108.26 209.837 2108.26 210.375 M2099.06 216.676 Q2099.06 216.114 2098.99 215.622 Q2098.92 215.107 2098.66 214.427 Q2098.4 213.725 2097.96 213.233 Q2097.51 212.717 2096.64 212.366 Q2095.8 212.015 2094.65 212.015 Q2093.04 212.015 2091.26 212.905 Q2089.48 213.795 2088.12 215.997 Q2086.99 217.87 2086.43 220.306 Q2085.87 222.742 2085.87 224.194 Q2085.87 226.677 2087.06 228.036 Q2088.28 229.371 2090.13 229.371 Q2091.66 229.371 2093.39 228.34 Q2095.12 227.286 2096.46 225.295 Q2097.63 223.562 2098.33 221.032 Q2099.06 218.503 2099.06 216.676 Z" fill="#000000" fill-rule="evenodd" fill-opacity="1" /><path clip-path="url(#clip080)" d="M2123.31 222.625 Q2123.36 222.04 2124.27 222.04 L2153.67 222.04 Q2155.05 222.04 2155.07 222.578 Q2155.07 223.164 2153.76 223.14 L2124.6 223.14 Q2123.31 223.164 2123.31 222.625 M2123.31 213.256 Q2123.31 212.671 2124.32 212.694 L2153.62 212.694 Q2155.05 212.694 2155.07 213.256 Q2155.07 213.795 2153.86 213.795 L2124.27 213.795 Q2123.31 213.795 2123.31 213.256 Z" fill="#000000" fill-rule="evenodd" fill-opacity="1" /><path clip-path="url(#clip080)" d="M2173.57 214.568 Q2173.57 207.518 2175.35 203.676 Q2177.83 197.961 2183.68 197.961 Q2184.92 197.961 2186.21 198.313 Q2187.52 198.641 2189.16 199.929 Q2190.83 201.217 2191.83 203.325 Q2193.76 207.401 2193.76 214.568 Q2193.76 221.571 2191.98 225.389 Q2189.38 230.964 2183.64 230.964 Q2181.48 230.964 2179.28 229.863 Q2177.1 228.762 2175.72 226.115 Q2173.57 222.157 2173.57 214.568 M2177.55 213.982 Q2177.55 221.22 2178.06 224.101 Q2178.65 227.216 2180.24 228.574 Q2181.86 229.91 2183.64 229.91 Q2185.56 229.91 2187.15 228.481 Q2188.77 227.029 2189.26 223.913 Q2189.8 220.845 2189.77 213.982 Q2189.77 207.307 2189.3 204.637 Q2188.67 201.522 2186.99 200.28 Q2185.32 199.015 2183.64 199.015 Q2183 199.015 2182.33 199.203 Q2181.67 199.39 2180.71 199.929 Q2179.75 200.468 2179 201.803 Q2178.27 203.138 2177.92 205.152 Q2177.55 207.752 2177.55 213.982 Z" fill="#000000" fill-rule="evenodd" fill-opacity="1" /><path clip-path="url(#clip080)" d="M2198.04 229.137 Q2197.32 228.364 2197.32 227.357 Q2197.32 226.349 2198.04 225.623 Q2198.77 224.874 2199.87 224.874 Q2200.92 224.874 2201.62 225.576 Q2202.35 226.256 2202.35 227.38 Q2202.35 228.481 2201.58 229.207 Q2200.83 229.91 2199.87 229.91 Q2198.77 229.91 2198.04 229.137 Z" fill="#000000" fill-rule="evenodd" fill-opacity="1" /><path clip-path="url(#clip080)" d="M2210.51 222.18 Q2210.51 220.751 2211.28 220.213 Q2212.06 219.651 2212.88 219.651 Q2213.98 219.651 2214.61 220.353 Q2215.27 221.032 2215.27 221.993 Q2215.27 222.953 2214.61 223.656 Q2213.98 224.335 2212.88 224.335 Q2212.34 224.335 2212.06 224.241 Q2212.69 226.443 2214.61 228.036 Q2216.56 229.628 2219.11 229.628 Q2222.32 229.628 2224.24 226.513 Q2225.39 224.499 2225.39 219.932 Q2225.39 215.903 2224.52 213.889 Q2223.18 210.82 2220.44 210.82 Q2216.56 210.82 2214.26 214.17 Q2213.98 214.591 2213.65 214.615 Q2213.18 214.615 2213.07 214.357 Q2212.97 214.076 2212.97 213.35 L2212.97 199.156 Q2212.97 198.008 2213.44 198.008 Q2213.63 198.008 2214.03 198.149 Q2217.05 199.484 2220.4 199.507 Q2223.84 199.507 2226.93 198.102 Q2227.17 197.961 2227.31 197.961 Q2227.77 197.961 2227.8 198.5 Q2227.8 198.687 2227.4 199.25 Q2227.02 199.788 2226.21 200.514 Q2225.39 201.217 2224.33 201.896 Q2223.28 202.576 2221.73 203.044 Q2220.21 203.489 2218.52 203.489 Q2216.51 203.489 2214.45 202.857 L2214.45 212.202 Q2216.93 209.766 2220.54 209.766 Q2224.38 209.766 2227.02 212.858 Q2229.67 215.95 2229.67 220.26 Q2229.67 224.78 2226.53 227.872 Q2223.42 230.964 2219.2 230.964 Q2215.36 230.964 2212.92 228.223 Q2210.51 225.483 2210.51 222.18 Z" fill="#000000" fill-rule="evenodd" fill-opacity="1" /><polyline clip-path="url(#clip080)" style="stroke:#3da44d; stroke-linecap:butt; stroke-linejoin:round; stroke-width:4; stroke-opacity:1; fill:none" points="
  1917,275.093 2059.2,275.093 
  "/>
<path clip-path="url(#clip080)" d="M2108.26 271.113 Q2108.26 272.753 2105.92 272.753 L2100.65 272.753 Q2102.13 274.861 2102.13 277.976 Q2102.13 280.646 2101.02 283.152 Q2099.95 285.635 2098.21 287.368 Q2096.5 289.101 2094.35 290.156 Q2092.19 291.186 2090.09 291.186 Q2086.88 291.186 2084.89 289.008 Q2082.9 286.83 2082.9 283.597 Q2082.9 281.887 2083.48 279.99 Q2084.09 278.093 2085.24 276.336 Q2086.39 274.556 2087.88 273.127 Q2089.41 271.699 2091.37 270.832 Q2093.37 269.965 2095.45 269.965 L2106.39 269.965 Q2106.97 269.965 2107.28 270.012 Q2107.61 270.036 2107.93 270.317 Q2108.26 270.574 2108.26 271.113 M2099.06 277.414 Q2099.06 276.852 2098.99 276.36 Q2098.92 275.844 2098.66 275.165 Q2098.4 274.462 2097.96 273.971 Q2097.51 273.455 2096.64 273.104 Q2095.8 272.753 2094.65 272.753 Q2093.04 272.753 2091.26 273.643 Q2089.48 274.533 2088.12 276.734 Q2086.99 278.608 2086.43 281.044 Q2085.87 283.48 2085.87 284.932 Q2085.87 287.415 2087.06 288.774 Q2088.28 290.109 2090.13 290.109 Q2091.66 290.109 2093.39 289.078 Q2095.12 288.024 2096.46 286.033 Q2097.63 284.3 2098.33 281.77 Q2099.06 279.241 2099.06 277.414 Z" fill="#000000" fill-rule="evenodd" fill-opacity="1" /><path clip-path="url(#clip080)" d="M2123.31 283.363 Q2123.36 282.777 2124.27 282.777 L2153.67 282.777 Q2155.05 282.777 2155.07 283.316 Q2155.07 283.902 2153.76 283.878 L2124.6 283.878 Q2123.31 283.902 2123.31 283.363 M2123.31 273.994 Q2123.31 273.408 2124.32 273.432 L2153.62 273.432 Q2155.05 273.432 2155.07 273.994 Q2155.07 274.533 2153.86 274.533 L2124.27 274.533 Q2123.31 274.533 2123.31 273.994 Z" fill="#000000" fill-rule="evenodd" fill-opacity="1" /><path clip-path="url(#clip080)" d="M2173.57 290.647 Q2173.57 289.781 2173.64 289.523 Q2173.73 289.265 2174.1 288.867 L2183.31 278.608 Q2188.34 272.94 2188.34 267.998 Q2188.34 264.789 2186.66 262.494 Q2185 260.198 2181.93 260.198 Q2179.82 260.198 2178.04 261.486 Q2176.26 262.775 2175.44 265.07 Q2175.58 265.023 2176.07 265.023 Q2177.27 265.023 2177.92 265.773 Q2178.6 266.522 2178.6 267.529 Q2178.6 268.818 2177.76 269.45 Q2176.94 270.059 2176.12 270.059 Q2175.79 270.059 2175.35 269.989 Q2174.92 269.919 2174.24 269.263 Q2173.57 268.583 2173.57 267.389 Q2173.57 264.039 2176.09 261.369 Q2178.65 258.699 2182.54 258.699 Q2186.94 258.699 2189.82 261.322 Q2192.72 263.922 2192.72 267.998 Q2192.72 269.427 2192.28 270.738 Q2191.86 272.027 2191.27 273.034 Q2190.71 274.041 2189.16 275.657 Q2187.62 277.273 2186.38 278.421 Q2185.14 279.569 2182.35 282.004 L2177.27 286.947 L2185.91 286.947 Q2190.12 286.947 2190.45 286.572 Q2190.92 285.893 2191.51 282.309 L2192.72 282.309 L2191.37 290.647 L2173.57 290.647 Z" fill="#000000" fill-rule="evenodd" fill-opacity="1" /></svg>
