<?xml version="1.0" encoding="utf-8"?>
<svg xmlns="http://www.w3.org/2000/svg" xmlns:xlink="http://www.w3.org/1999/xlink" width="600" height="400" viewBox="0 0 2400 1600">
<defs>
  <clipPath id="clip660">
    <rect x="0" y="0" width="2400" height="1600"/>
  </clipPath>
</defs>
<path clip-path="url(#clip660)" d="
M0 1600 L2400 1600 L2400 0 L0 0  Z
  " fill="#ffffff" fill-rule="evenodd" fill-opacity="1"/>
<defs>
  <clipPath id="clip661">
    <rect x="480" y="0" width="1681" height="1600"/>
  </clipPath>
</defs>
<defs>
  <clipPath id="clip662">
    <rect x="219" y="47" width="2134" height="1393"/>
  </clipPath>
</defs>
<path clip-path="url(#clip660)" d="
M219.38 1439.5 L2352.76 1439.5 L2352.76 47.2441 L219.38 47.2441  Z
  " fill="#ffffff" fill-rule="evenodd" fill-opacity="1"/>
<polyline clip-path="url(#clip662)" style="stroke:#000000; stroke-linecap:butt; stroke-linejoin:round; stroke-width:2; stroke-opacity:0.1; fill:none" points="
  391.754,1439.5 391.754,47.2441 
  "/>
<polyline clip-path="url(#clip662)" style="stroke:#000000; stroke-linecap:butt; stroke-linejoin:round; stroke-width:2; stroke-opacity:0.1; fill:none" points="
  804.514,1439.5 804.514,47.2441 
  "/>
<polyline clip-path="url(#clip662)" style="stroke:#000000; stroke-linecap:butt; stroke-linejoin:round; stroke-width:2; stroke-opacity:0.1; fill:none" points="
  1217.27,1439.5 1217.27,47.2441 
  "/>
<polyline clip-path="url(#clip662)" style="stroke:#000000; stroke-linecap:butt; stroke-linejoin:round; stroke-width:2; stroke-opacity:0.1; fill:none" points="
  1630.03,1439.5 1630.03,47.2441 
  "/>
<polyline clip-path="url(#clip662)" style="stroke:#000000; stroke-linecap:butt; stroke-linejoin:round; stroke-width:2; stroke-opacity:0.1; fill:none" points="
  2042.8,1439.5 2042.8,47.2441 
  "/>
<polyline clip-path="url(#clip660)" style="stroke:#000000; stroke-linecap:butt; stroke-linejoin:round; stroke-width:4; stroke-opacity:1; fill:none" points="
  219.38,1439.5 2352.76,1439.5 
  "/>
<polyline clip-path="url(#clip660)" style="stroke:#000000; stroke-linecap:butt; stroke-linejoin:round; stroke-width:4; stroke-opacity:1; fill:none" points="
  391.754,1439.5 391.754,1422.79 
  "/>
<polyline clip-path="url(#clip660)" style="stroke:#000000; stroke-linecap:butt; stroke-linejoin:round; stroke-width:4; stroke-opacity:1; fill:none" points="
  804.514,1439.5 804.514,1422.79 
  "/>
<polyline clip-path="url(#clip660)" style="stroke:#000000; stroke-linecap:butt; stroke-linejoin:round; stroke-width:4; stroke-opacity:1; fill:none" points="
  1217.27,1439.5 1217.27,1422.79 
  "/>
<polyline clip-path="url(#clip660)" style="stroke:#000000; stroke-linecap:butt; stroke-linejoin:round; stroke-width:4; stroke-opacity:1; fill:none" points="
  1630.03,1439.5 1630.03,1422.79 
  "/>
<polyline clip-path="url(#clip660)" style="stroke:#000000; stroke-linecap:butt; stroke-linejoin:round; stroke-width:4; stroke-opacity:1; fill:none" points="
  2042.8,1439.5 2042.8,1422.79 
  "/>
<path clip-path="url(#clip660)" d="M391.754 1468.69 Q388.143 1468.69 386.315 1472.26 Q384.509 1475.8 384.509 1482.93 Q384.509 1490.04 386.315 1493.6 Q388.143 1497.14 391.754 1497.14 Q395.389 1497.14 397.194 1493.6 Q399.023 1490.04 399.023 1482.93 Q399.023 1475.8 397.194 1472.26 Q395.389 1468.69 391.754 1468.69 M391.754 1464.99 Q397.564 1464.99 400.62 1469.6 Q403.699 1474.18 403.699 1482.93 Q403.699 1491.66 400.62 1496.26 Q397.564 1500.85 391.754 1500.85 Q385.944 1500.85 382.865 1496.26 Q379.81 1491.66 379.81 1482.93 Q379.81 1474.18 382.865 1469.6 Q385.944 1464.99 391.754 1464.99 Z" fill="#000000" fill-rule="evenodd" fill-opacity="1" /><path clip-path="url(#clip660)" d="M808.762 1481.54 Q812.119 1482.26 813.994 1484.53 Q815.892 1486.79 815.892 1490.13 Q815.892 1495.24 812.373 1498.04 Q808.855 1500.85 802.373 1500.85 Q800.197 1500.85 797.883 1500.41 Q795.591 1499.99 793.137 1499.13 L793.137 1494.62 Q795.082 1495.75 797.396 1496.33 Q799.711 1496.91 802.234 1496.91 Q806.633 1496.91 808.924 1495.17 Q811.239 1493.44 811.239 1490.13 Q811.239 1487.07 809.086 1485.36 Q806.957 1483.62 803.137 1483.62 L799.109 1483.62 L799.109 1479.78 L803.322 1479.78 Q806.771 1479.78 808.6 1478.41 Q810.429 1477.03 810.429 1474.43 Q810.429 1471.77 808.531 1470.36 Q806.656 1468.92 803.137 1468.92 Q801.216 1468.92 799.017 1469.34 Q796.818 1469.76 794.179 1470.64 L794.179 1466.47 Q796.841 1465.73 799.156 1465.36 Q801.494 1464.99 803.554 1464.99 Q808.878 1464.99 811.98 1467.42 Q815.082 1469.83 815.082 1473.95 Q815.082 1476.82 813.438 1478.81 Q811.795 1480.78 808.762 1481.54 Z" fill="#000000" fill-rule="evenodd" fill-opacity="1" /><path clip-path="url(#clip660)" d="M1217.68 1481.03 Q1214.53 1481.03 1212.68 1483.18 Q1210.85 1485.34 1210.85 1489.09 Q1210.85 1492.81 1212.68 1494.99 Q1214.53 1497.14 1217.68 1497.14 Q1220.83 1497.14 1222.66 1494.99 Q1224.51 1492.81 1224.51 1489.09 Q1224.51 1485.34 1222.66 1483.18 Q1220.83 1481.03 1217.68 1481.03 M1226.96 1466.38 L1226.96 1470.64 Q1225.2 1469.8 1223.4 1469.36 Q1221.61 1468.92 1219.86 1468.92 Q1215.23 1468.92 1212.77 1472.05 Q1210.34 1475.17 1209.99 1481.49 Q1211.36 1479.48 1213.42 1478.41 Q1215.48 1477.33 1217.96 1477.33 Q1223.17 1477.33 1226.18 1480.5 Q1229.21 1483.65 1229.21 1489.09 Q1229.21 1494.41 1226.06 1497.63 Q1222.91 1500.85 1217.68 1500.85 Q1211.68 1500.85 1208.51 1496.26 Q1205.34 1491.66 1205.34 1482.93 Q1205.34 1474.73 1209.23 1469.87 Q1213.12 1464.99 1219.67 1464.99 Q1221.43 1464.99 1223.21 1465.34 Q1225.02 1465.68 1226.96 1466.38 Z" fill="#000000" fill-rule="evenodd" fill-opacity="1" /><path clip-path="url(#clip660)" d="M1620.34 1499.46 L1620.34 1495.2 Q1622.1 1496.03 1623.9 1496.47 Q1625.71 1496.91 1627.44 1496.91 Q1632.07 1496.91 1634.5 1493.81 Q1636.96 1490.68 1637.3 1484.34 Q1635.96 1486.33 1633.9 1487.4 Q1631.84 1488.46 1629.34 1488.46 Q1624.16 1488.46 1621.12 1485.34 Q1618.11 1482.19 1618.11 1476.75 Q1618.11 1471.42 1621.26 1468.21 Q1624.41 1464.99 1629.64 1464.99 Q1635.64 1464.99 1638.78 1469.6 Q1641.96 1474.18 1641.96 1482.93 Q1641.96 1491.1 1638.07 1495.98 Q1634.2 1500.85 1627.65 1500.85 Q1625.89 1500.85 1624.09 1500.5 Q1622.28 1500.15 1620.34 1499.46 M1629.64 1484.8 Q1632.79 1484.8 1634.62 1482.65 Q1636.47 1480.5 1636.47 1476.75 Q1636.47 1473.02 1634.62 1470.87 Q1632.79 1468.69 1629.64 1468.69 Q1626.49 1468.69 1624.64 1470.87 Q1622.81 1473.02 1622.81 1476.75 Q1622.81 1480.5 1624.64 1482.65 Q1626.49 1484.8 1629.64 1484.8 Z" fill="#000000" fill-rule="evenodd" fill-opacity="1" /><path clip-path="url(#clip660)" d="M2018.28 1496.24 L2025.92 1496.24 L2025.92 1469.87 L2017.61 1471.54 L2017.61 1467.28 L2025.87 1465.61 L2030.55 1465.61 L2030.55 1496.24 L2038.19 1496.24 L2038.19 1500.17 L2018.28 1500.17 L2018.28 1496.24 Z" fill="#000000" fill-rule="evenodd" fill-opacity="1" /><path clip-path="url(#clip660)" d="M2051.66 1496.24 L2067.98 1496.24 L2067.98 1500.17 L2046.04 1500.17 L2046.04 1496.24 Q2048.7 1493.48 2053.28 1488.85 Q2057.89 1484.2 2059.07 1482.86 Q2061.31 1480.34 2062.19 1478.6 Q2063.1 1476.84 2063.1 1475.15 Q2063.1 1472.4 2061.15 1470.66 Q2059.23 1468.92 2056.13 1468.92 Q2053.93 1468.92 2051.48 1469.69 Q2049.04 1470.45 2046.27 1472 L2046.27 1467.28 Q2049.09 1466.15 2051.54 1465.57 Q2054 1464.99 2056.04 1464.99 Q2061.41 1464.99 2064.6 1467.67 Q2067.79 1470.36 2067.79 1474.85 Q2067.79 1476.98 2066.98 1478.9 Q2066.2 1480.8 2064.09 1483.39 Q2063.51 1484.06 2060.41 1487.28 Q2057.31 1490.47 2051.66 1496.24 Z" fill="#000000" fill-rule="evenodd" fill-opacity="1" /><path clip-path="url(#clip660)" d="M1298 1535.75 Q1298 1541.16 1296.26 1547.24 Q1294.56 1553.3 1291.85 1558.19 Q1289.15 1563.06 1285.6 1566.28 Q1282.06 1569.47 1278.68 1569.47 Q1276.52 1569.47 1274.91 1568.27 Q1273.33 1567.05 1272.46 1565.02 Q1271.59 1562.96 1271.18 1560.71 Q1270.76 1558.42 1270.76 1555.94 Q1270.76 1552.24 1271.56 1548.21 Q1272.37 1544.15 1273.72 1540.48 Q1275.07 1536.78 1276.97 1533.43 Q1278.87 1530.05 1280.97 1527.6 Q1283.09 1525.12 1285.47 1523.67 Q1287.86 1522.22 1290.08 1522.22 Q1291.69 1522.22 1292.98 1522.93 Q1294.3 1523.6 1295.14 1524.8 Q1295.97 1525.96 1296.55 1527.34 Q1297.17 1528.73 1297.46 1530.34 Q1297.75 1531.91 1297.87 1533.23 Q1298 1534.52 1298 1535.75 M1293.66 1531.66 Q1293.66 1530.01 1293.53 1528.79 Q1293.4 1527.53 1293.04 1526.28 Q1292.69 1525.02 1291.92 1524.35 Q1291.18 1523.67 1290.02 1523.67 Q1286.63 1523.67 1282.83 1530.59 Q1281.61 1532.75 1280.52 1535.68 Q1279.42 1538.61 1279.03 1540 Q1278.65 1541.38 1277.75 1544.8 L1291.53 1544.8 Q1293.66 1536 1293.66 1531.66 M1290.95 1546.89 L1277.23 1546.89 Q1275.1 1554.94 1275.1 1559.96 Q1275.1 1564.34 1276.01 1566.18 Q1276.94 1567.98 1278.68 1567.98 Q1280.68 1567.98 1282.54 1565.99 Q1284.41 1563.96 1286.31 1560.29 Q1288.82 1555.52 1290.95 1546.89 Z" fill="#000000" fill-rule="evenodd" fill-opacity="1" /><polyline clip-path="url(#clip662)" style="stroke:#000000; stroke-linecap:butt; stroke-linejoin:round; stroke-width:2; stroke-opacity:0.1; fill:none" points="
  219.38,1400.1 2352.76,1400.1 
  "/>
<polyline clip-path="url(#clip662)" style="stroke:#000000; stroke-linecap:butt; stroke-linejoin:round; stroke-width:2; stroke-opacity:0.1; fill:none" points="
  219.38,1043.07 2352.76,1043.07 
  "/>
<polyline clip-path="url(#clip662)" style="stroke:#000000; stroke-linecap:butt; stroke-linejoin:round; stroke-width:2; stroke-opacity:0.1; fill:none" points="
  219.38,686.033 2352.76,686.033 
  "/>
<polyline clip-path="url(#clip662)" style="stroke:#000000; stroke-linecap:butt; stroke-linejoin:round; stroke-width:2; stroke-opacity:0.1; fill:none" points="
  219.38,329 2352.76,329 
  "/>
<polyline clip-path="url(#clip660)" style="stroke:#000000; stroke-linecap:butt; stroke-linejoin:round; stroke-width:4; stroke-opacity:1; fill:none" points="
  219.38,1439.5 219.38,47.2441 
  "/>
<polyline clip-path="url(#clip660)" style="stroke:#000000; stroke-linecap:butt; stroke-linejoin:round; stroke-width:4; stroke-opacity:1; fill:none" points="
  219.38,1400.1 244.981,1400.1 
  "/>
<polyline clip-path="url(#clip660)" style="stroke:#000000; stroke-linecap:butt; stroke-linejoin:round; stroke-width:4; stroke-opacity:1; fill:none" points="
  219.38,1043.07 244.981,1043.07 
  "/>
<polyline clip-path="url(#clip660)" style="stroke:#000000; stroke-linecap:butt; stroke-linejoin:round; stroke-width:4; stroke-opacity:1; fill:none" points="
  219.38,686.033 244.981,686.033 
  "/>
<polyline clip-path="url(#clip660)" style="stroke:#000000; stroke-linecap:butt; stroke-linejoin:round; stroke-width:4; stroke-opacity:1; fill:none" points="
  219.38,329 244.981,329 
  "/>
<path clip-path="url(#clip660)" d="M126.205 1385.9 Q122.593 1385.9 120.765 1389.46 Q118.959 1393 118.959 1400.13 Q118.959 1407.24 120.765 1410.8 Q122.593 1414.35 126.205 1414.35 Q129.839 1414.35 131.644 1410.8 Q133.473 1407.24 133.473 1400.13 Q133.473 1393 131.644 1389.46 Q129.839 1385.9 126.205 1385.9 M126.205 1382.19 Q132.015 1382.19 135.07 1386.8 Q138.149 1391.38 138.149 1400.13 Q138.149 1408.86 135.07 1413.47 Q132.015 1418.05 126.205 1418.05 Q120.394 1418.05 117.316 1413.47 Q114.26 1408.86 114.26 1400.13 Q114.26 1391.38 117.316 1386.8 Q120.394 1382.19 126.205 1382.19 Z" fill="#000000" fill-rule="evenodd" fill-opacity="1" /><path clip-path="url(#clip660)" d="M146.366 1411.5 L151.251 1411.5 L151.251 1417.38 L146.366 1417.38 L146.366 1411.5 Z" fill="#000000" fill-rule="evenodd" fill-opacity="1" /><path clip-path="url(#clip660)" d="M171.436 1385.9 Q167.825 1385.9 165.996 1389.46 Q164.19 1393 164.19 1400.13 Q164.19 1407.24 165.996 1410.8 Q167.825 1414.35 171.436 1414.35 Q175.07 1414.35 176.876 1410.8 Q178.704 1407.24 178.704 1400.13 Q178.704 1393 176.876 1389.46 Q175.07 1385.9 171.436 1385.9 M171.436 1382.19 Q177.246 1382.19 180.301 1386.8 Q183.38 1391.38 183.38 1400.13 Q183.38 1408.86 180.301 1413.47 Q177.246 1418.05 171.436 1418.05 Q165.626 1418.05 162.547 1413.47 Q159.491 1408.86 159.491 1400.13 Q159.491 1391.38 162.547 1386.8 Q165.626 1382.19 171.436 1382.19 Z" fill="#000000" fill-rule="evenodd" fill-opacity="1" /><path clip-path="url(#clip660)" d="M127.431 1028.86 Q123.82 1028.86 121.992 1032.43 Q120.186 1035.97 120.186 1043.1 Q120.186 1050.21 121.992 1053.77 Q123.82 1057.31 127.431 1057.31 Q131.066 1057.31 132.871 1053.77 Q134.7 1050.21 134.7 1043.1 Q134.7 1035.97 132.871 1032.43 Q131.066 1028.86 127.431 1028.86 M127.431 1025.16 Q133.242 1025.16 136.297 1029.77 Q139.376 1034.35 139.376 1043.1 Q139.376 1051.83 136.297 1056.43 Q133.242 1061.02 127.431 1061.02 Q121.621 1061.02 118.543 1056.43 Q115.487 1051.83 115.487 1043.1 Q115.487 1034.35 118.543 1029.77 Q121.621 1025.16 127.431 1025.16 Z" fill="#000000" fill-rule="evenodd" fill-opacity="1" /><path clip-path="url(#clip660)" d="M147.593 1054.47 L152.478 1054.47 L152.478 1060.35 L147.593 1060.35 L147.593 1054.47 Z" fill="#000000" fill-rule="evenodd" fill-opacity="1" /><path clip-path="url(#clip660)" d="M163.473 1056.41 L171.112 1056.41 L171.112 1030.04 L162.802 1031.71 L162.802 1027.45 L171.065 1025.79 L175.741 1025.79 L175.741 1056.41 L183.38 1056.41 L183.38 1060.35 L163.473 1060.35 L163.473 1056.41 Z" fill="#000000" fill-rule="evenodd" fill-opacity="1" /><path clip-path="url(#clip660)" d="M127.802 671.831 Q124.191 671.831 122.362 675.396 Q120.556 678.938 120.556 686.067 Q120.556 693.174 122.362 696.738 Q124.191 700.28 127.802 700.28 Q131.436 700.28 133.242 696.738 Q135.07 693.174 135.07 686.067 Q135.07 678.938 133.242 675.396 Q131.436 671.831 127.802 671.831 M127.802 668.128 Q133.612 668.128 136.667 672.734 Q139.746 677.317 139.746 686.067 Q139.746 694.794 136.667 699.401 Q133.612 703.984 127.802 703.984 Q121.992 703.984 118.913 699.401 Q115.857 694.794 115.857 686.067 Q115.857 677.317 118.913 672.734 Q121.992 668.128 127.802 668.128 Z" fill="#000000" fill-rule="evenodd" fill-opacity="1" /><path clip-path="url(#clip660)" d="M147.964 697.433 L152.848 697.433 L152.848 703.313 L147.964 703.313 L147.964 697.433 Z" fill="#000000" fill-rule="evenodd" fill-opacity="1" /><path clip-path="url(#clip660)" d="M167.061 699.377 L183.38 699.377 L183.38 703.313 L161.436 703.313 L161.436 699.377 Q164.098 696.623 168.681 691.993 Q173.288 687.34 174.468 685.998 Q176.714 683.475 177.593 681.739 Q178.496 679.979 178.496 678.29 Q178.496 675.535 176.551 673.799 Q174.63 672.063 171.528 672.063 Q169.329 672.063 166.876 672.827 Q164.445 673.59 161.667 675.141 L161.667 670.419 Q164.491 669.285 166.945 668.706 Q169.399 668.128 171.436 668.128 Q176.806 668.128 180.001 670.813 Q183.195 673.498 183.195 677.989 Q183.195 680.118 182.385 682.039 Q181.598 683.938 179.491 686.53 Q178.913 687.201 175.811 690.419 Q172.709 693.614 167.061 699.377 Z" fill="#000000" fill-rule="evenodd" fill-opacity="1" /><path clip-path="url(#clip660)" d="M126.853 314.798 Q123.242 314.798 121.413 318.363 Q119.607 321.905 119.607 329.034 Q119.607 336.141 121.413 339.706 Q123.242 343.247 126.853 343.247 Q130.487 343.247 132.292 339.706 Q134.121 336.141 134.121 329.034 Q134.121 321.905 132.292 318.363 Q130.487 314.798 126.853 314.798 M126.853 311.095 Q132.663 311.095 135.718 315.701 Q138.797 320.284 138.797 329.034 Q138.797 337.761 135.718 342.368 Q132.663 346.951 126.853 346.951 Q121.043 346.951 117.964 342.368 Q114.908 337.761 114.908 329.034 Q114.908 320.284 117.964 315.701 Q121.043 311.095 126.853 311.095 Z" fill="#000000" fill-rule="evenodd" fill-opacity="1" /><path clip-path="url(#clip660)" d="M147.015 340.4 L151.899 340.4 L151.899 346.28 L147.015 346.28 L147.015 340.4 Z" fill="#000000" fill-rule="evenodd" fill-opacity="1" /><path clip-path="url(#clip660)" d="M176.251 327.645 Q179.607 328.363 181.482 330.632 Q183.38 332.9 183.38 336.233 Q183.38 341.349 179.862 344.15 Q176.343 346.951 169.862 346.951 Q167.686 346.951 165.371 346.511 Q163.079 346.094 160.626 345.238 L160.626 340.724 Q162.57 341.858 164.885 342.437 Q167.2 343.016 169.723 343.016 Q174.121 343.016 176.413 341.28 Q178.727 339.544 178.727 336.233 Q178.727 333.178 176.575 331.465 Q174.445 329.729 170.626 329.729 L166.598 329.729 L166.598 325.886 L170.811 325.886 Q174.26 325.886 176.089 324.52 Q177.917 323.132 177.917 320.539 Q177.917 317.877 176.019 316.465 Q174.144 315.03 170.626 315.03 Q168.704 315.03 166.505 315.446 Q164.306 315.863 161.667 316.743 L161.667 312.576 Q164.329 311.835 166.644 311.465 Q168.982 311.095 171.042 311.095 Q176.366 311.095 179.468 313.525 Q182.57 315.933 182.57 320.053 Q182.57 322.923 180.926 324.914 Q179.283 326.882 176.251 327.645 Z" fill="#000000" fill-rule="evenodd" fill-opacity="1" /><path clip-path="url(#clip660)" d="M16.4842 820.637 L16.4842 811.056 L48.8219 798.93 L16.4842 786.739 L16.4842 777.159 L64.0042 777.159 L64.0042 783.429 L22.277 783.429 L54.8694 795.683 L54.8694 802.144 L22.277 814.398 L64.0042 814.398 L64.0042 820.637 L16.4842 820.637 Z" fill="#000000" fill-rule="evenodd" fill-opacity="1" /><path clip-path="url(#clip660)" d="M46.0847 748.45 Q46.0847 755.547 47.7079 758.285 Q49.3312 761.022 53.2461 761.022 Q56.3653 761.022 58.2114 758.985 Q60.0256 756.916 60.0256 753.383 Q60.0256 748.513 56.5881 745.585 Q53.1188 742.625 47.3897 742.625 L46.0847 742.625 L46.0847 748.45 M43.6657 736.769 L64.0042 736.769 L64.0042 742.625 L58.5933 742.625 Q61.8398 744.63 63.3994 747.622 Q64.9272 750.614 64.9272 754.943 Q64.9272 760.417 61.8716 763.664 Q58.7843 766.878 53.6281 766.878 Q47.6125 766.878 44.5569 762.868 Q41.5014 758.826 41.5014 750.837 L41.5014 742.625 L40.9285 742.625 Q36.8862 742.625 34.6901 745.299 Q32.4621 747.94 32.4621 752.747 Q32.4621 755.802 33.1941 758.698 Q33.9262 761.595 35.3903 764.268 L29.9795 764.268 Q28.7381 761.054 28.1334 758.03 Q27.4968 755.006 27.4968 752.142 Q27.4968 744.407 31.5072 740.588 Q35.5176 736.769 43.6657 736.769 Z" fill="#000000" fill-rule="evenodd" fill-opacity="1" /><path clip-path="url(#clip660)" d="M29.4065 701.98 L34.9447 701.98 Q33.6716 704.463 33.035 707.136 Q32.3984 709.81 32.3984 712.674 Q32.3984 717.035 33.7352 719.231 Q35.072 721.395 37.7456 721.395 Q39.7826 721.395 40.9603 719.836 Q42.1061 718.276 43.1565 713.566 L43.6021 711.56 Q44.9389 705.322 47.3897 702.712 Q49.8086 700.07 54.1691 700.07 Q59.1344 700.07 62.0308 704.017 Q64.9272 707.932 64.9272 714.807 Q64.9272 717.671 64.3543 720.791 Q63.8132 723.878 62.6992 727.316 L56.6518 727.316 Q58.3387 724.069 59.198 720.918 Q60.0256 717.767 60.0256 714.68 Q60.0256 710.542 58.6251 708.314 Q57.1929 706.086 54.6147 706.086 Q52.2276 706.086 50.9545 707.709 Q49.6813 709.301 48.5037 714.743 L48.0262 716.78 Q46.8804 722.223 44.5251 724.642 Q42.138 727.061 38.0002 727.061 Q32.9713 727.061 30.2341 723.496 Q27.4968 719.931 27.4968 713.375 Q27.4968 710.128 27.9743 707.264 Q28.4517 704.399 29.4065 701.98 Z" fill="#000000" fill-rule="evenodd" fill-opacity="1" /><path clip-path="url(#clip660)" d="M29.4065 668.019 L34.9447 668.019 Q33.6716 670.502 33.035 673.175 Q32.3984 675.849 32.3984 678.713 Q32.3984 683.074 33.7352 685.27 Q35.072 687.434 37.7456 687.434 Q39.7826 687.434 40.9603 685.875 Q42.1061 684.315 43.1565 679.605 L43.6021 677.599 Q44.9389 671.361 47.3897 668.751 Q49.8086 666.109 54.1691 666.109 Q59.1344 666.109 62.0308 670.056 Q64.9272 673.971 64.9272 680.846 Q64.9272 683.71 64.3543 686.83 Q63.8132 689.917 62.6992 693.354 L56.6518 693.354 Q58.3387 690.108 59.198 686.957 Q60.0256 683.806 60.0256 680.719 Q60.0256 676.581 58.6251 674.353 Q57.1929 672.125 54.6147 672.125 Q52.2276 672.125 50.9545 673.748 Q49.6813 675.34 48.5037 680.782 L48.0262 682.819 Q46.8804 688.262 44.5251 690.681 Q42.138 693.1 38.0002 693.1 Q32.9713 693.1 30.2341 689.535 Q27.4968 685.97 27.4968 679.414 Q27.4968 676.167 27.9743 673.302 Q28.4517 670.438 29.4065 668.019 Z" fill="#000000" fill-rule="evenodd" fill-opacity="1" /><path clip-path="url(#clip662)" d="
M336.72 86.6476 L336.72 1400.1 L446.789 1400.1 L446.789 86.6476 L336.72 86.6476 L336.72 86.6476  Z
  " fill="#009af9" fill-rule="evenodd" fill-opacity="0.3"/>
<polyline clip-path="url(#clip662)" style="stroke:#000000; stroke-linecap:butt; stroke-linejoin:round; stroke-width:4; stroke-opacity:0.3; fill:none" points="
  336.72,86.6476 336.72,1400.1 446.789,1400.1 446.789,86.6476 336.72,86.6476 
  "/>
<path clip-path="url(#clip662)" d="
M474.306 86.6476 L474.306 1400.1 L584.376 1400.1 L584.376 86.6476 L474.306 86.6476 L474.306 86.6476  Z
  " fill="#009af9" fill-rule="evenodd" fill-opacity="0.3"/>
<polyline clip-path="url(#clip662)" style="stroke:#000000; stroke-linecap:butt; stroke-linejoin:round; stroke-width:4; stroke-opacity:0.3; fill:none" points="
  474.306,86.6476 474.306,1400.1 584.376,1400.1 584.376,86.6476 474.306,86.6476 
  "/>
<path clip-path="url(#clip662)" d="
M611.893 743.373 L611.893 1400.1 L721.962 1400.1 L721.962 743.373 L611.893 743.373 L611.893 743.373  Z
  " fill="#009af9" fill-rule="evenodd" fill-opacity="0.3"/>
<polyline clip-path="url(#clip662)" style="stroke:#000000; stroke-linecap:butt; stroke-linejoin:round; stroke-width:4; stroke-opacity:0.3; fill:none" points="
  611.893,743.373 611.893,1400.1 721.962,1400.1 721.962,743.373 611.893,743.373 
  "/>
<path clip-path="url(#clip662)" d="
M749.48 1181.19 L749.48 1400.1 L859.549 1400.1 L859.549 1181.19 L749.48 1181.19 L749.48 1181.19  Z
  " fill="#009af9" fill-rule="evenodd" fill-opacity="0.3"/>
<polyline clip-path="url(#clip662)" style="stroke:#000000; stroke-linecap:butt; stroke-linejoin:round; stroke-width:4; stroke-opacity:0.3; fill:none" points="
  749.48,1181.19 749.48,1400.1 859.549,1400.1 859.549,1181.19 749.48,1181.19 
  "/>
<path clip-path="url(#clip662)" d="
M887.067 1345.37 L887.067 1400.1 L997.136 1400.1 L997.136 1345.37 L887.067 1345.37 L887.067 1345.37  Z
  " fill="#009af9" fill-rule="evenodd" fill-opacity="0.3"/>
<polyline clip-path="url(#clip662)" style="stroke:#000000; stroke-linecap:butt; stroke-linejoin:round; stroke-width:4; stroke-opacity:0.3; fill:none" points="
  887.067,1345.37 887.067,1400.1 997.136,1400.1 997.136,1345.37 887.067,1345.37 
  "/>
<path clip-path="url(#clip662)" d="
M1024.65 1389.15 L1024.65 1400.1 L1134.72 1400.1 L1134.72 1389.15 L1024.65 1389.15 L1024.65 1389.15  Z
  " fill="#009af9" fill-rule="evenodd" fill-opacity="0.3"/>
<polyline clip-path="url(#clip662)" style="stroke:#000000; stroke-linecap:butt; stroke-linejoin:round; stroke-width:4; stroke-opacity:0.3; fill:none" points="
  1024.65,1389.15 1024.65,1400.1 1134.72,1400.1 1134.72,1389.15 1024.65,1389.15 
  "/>
<path clip-path="url(#clip662)" d="
M1162.24 1398.27 L1162.24 1400.1 L1272.31 1400.1 L1272.31 1398.27 L1162.24 1398.27 L1162.24 1398.27  Z
  " fill="#009af9" fill-rule="evenodd" fill-opacity="0.3"/>
<polyline clip-path="url(#clip662)" style="stroke:#000000; stroke-linecap:butt; stroke-linejoin:round; stroke-width:4; stroke-opacity:0.3; fill:none" points="
  1162.24,1398.27 1162.24,1400.1 1272.31,1400.1 1272.31,1398.27 1162.24,1398.27 
  "/>
<path clip-path="url(#clip662)" d="
M336.72 1334.71 L336.72 1400.1 L446.789 1400.1 L446.789 1334.71 L336.72 1334.71 L336.72 1334.71  Z
  " fill="#e26f46" fill-rule="evenodd" fill-opacity="0.3"/>
<polyline clip-path="url(#clip662)" style="stroke:#000000; stroke-linecap:butt; stroke-linejoin:round; stroke-width:4; stroke-opacity:0.3; fill:none" points="
  336.72,1334.71 336.72,1400.1 446.789,1400.1 446.789,1334.71 336.72,1334.71 
  "/>
<path clip-path="url(#clip662)" d="
M474.306 1138.53 L474.306 1400.1 L584.376 1400.1 L584.376 1138.53 L474.306 1138.53 L474.306 1138.53  Z
  " fill="#e26f46" fill-rule="evenodd" fill-opacity="0.3"/>
<polyline clip-path="url(#clip662)" style="stroke:#000000; stroke-linecap:butt; stroke-linejoin:round; stroke-width:4; stroke-opacity:0.3; fill:none" points="
  474.306,1138.53 474.306,1400.1 584.376,1400.1 584.376,1138.53 474.306,1138.53 
  "/>
<path clip-path="url(#clip662)" d="
M611.893 876.955 L611.893 1400.1 L721.962 1400.1 L721.962 876.955 L611.893 876.955 L611.893 876.955  Z
  " fill="#e26f46" fill-rule="evenodd" fill-opacity="0.3"/>
<polyline clip-path="url(#clip662)" style="stroke:#000000; stroke-linecap:butt; stroke-linejoin:round; stroke-width:4; stroke-opacity:0.3; fill:none" points="
  611.893,876.955 611.893,1400.1 721.962,1400.1 721.962,876.955 611.893,876.955 
  "/>
<path clip-path="url(#clip662)" d="
M749.48 702.575 L749.48 1400.1 L859.549 1400.1 L859.549 702.575 L749.48 702.575 L749.48 702.575  Z
  " fill="#e26f46" fill-rule="evenodd" fill-opacity="0.3"/>
<polyline clip-path="url(#clip662)" style="stroke:#000000; stroke-linecap:butt; stroke-linejoin:round; stroke-width:4; stroke-opacity:0.3; fill:none" points="
  749.48,702.575 749.48,1400.1 859.549,1400.1 859.549,702.575 749.48,702.575 
  "/>
<path clip-path="url(#clip662)" d="
M887.067 702.575 L887.067 1400.1 L997.136 1400.1 L997.136 702.575 L887.067 702.575 L887.067 702.575  Z
  " fill="#e26f46" fill-rule="evenodd" fill-opacity="0.3"/>
<polyline clip-path="url(#clip662)" style="stroke:#000000; stroke-linecap:butt; stroke-linejoin:round; stroke-width:4; stroke-opacity:0.3; fill:none" points="
  887.067,702.575 887.067,1400.1 997.136,1400.1 997.136,702.575 887.067,702.575 
  "/>
<path clip-path="url(#clip662)" d="
M1024.65 842.079 L1024.65 1400.1 L1134.72 1400.1 L1134.72 842.079 L1024.65 842.079 L1024.65 842.079  Z
  " fill="#e26f46" fill-rule="evenodd" fill-opacity="0.3"/>
<polyline clip-path="url(#clip662)" style="stroke:#000000; stroke-linecap:butt; stroke-linejoin:round; stroke-width:4; stroke-opacity:0.3; fill:none" points="
  1024.65,842.079 1024.65,1400.1 1134.72,1400.1 1134.72,842.079 1024.65,842.079 
  "/>
<path clip-path="url(#clip662)" d="
M1162.24 1028.09 L1162.24 1400.1 L1272.31 1400.1 L1272.31 1028.09 L1162.24 1028.09 L1162.24 1028.09  Z
  " fill="#e26f46" fill-rule="evenodd" fill-opacity="0.3"/>
<polyline clip-path="url(#clip662)" style="stroke:#000000; stroke-linecap:butt; stroke-linejoin:round; stroke-width:4; stroke-opacity:0.3; fill:none" points="
  1162.24,1028.09 1162.24,1400.1 1272.31,1400.1 1272.31,1028.09 1162.24,1028.09 
  "/>
<path clip-path="url(#clip662)" d="
M1299.83 1187.52 L1299.83 1400.1 L1409.9 1400.1 L1409.9 1187.52 L1299.83 1187.52 L1299.83 1187.52  Z
  " fill="#e26f46" fill-rule="evenodd" fill-opacity="0.3"/>
<polyline clip-path="url(#clip662)" style="stroke:#000000; stroke-linecap:butt; stroke-linejoin:round; stroke-width:4; stroke-opacity:0.3; fill:none" points="
  1299.83,1187.52 1299.83,1400.1 1409.9,1400.1 1409.9,1187.52 1299.83,1187.52 
  "/>
<path clip-path="url(#clip662)" d="
M1437.41 1293.81 L1437.41 1400.1 L1547.48 1400.1 L1547.48 1293.81 L1437.41 1293.81 L1437.41 1293.81  Z
  " fill="#e26f46" fill-rule="evenodd" fill-opacity="0.3"/>
<polyline clip-path="url(#clip662)" style="stroke:#000000; stroke-linecap:butt; stroke-linejoin:round; stroke-width:4; stroke-opacity:0.3; fill:none" points="
  1437.41,1293.81 1437.41,1400.1 1547.48,1400.1 1547.48,1293.81 1437.41,1293.81 
  "/>
<path clip-path="url(#clip662)" d="
M1575 1352.86 L1575 1400.1 L1685.07 1400.1 L1685.07 1352.86 L1575 1352.86 L1575 1352.86  Z
  " fill="#e26f46" fill-rule="evenodd" fill-opacity="0.3"/>
<polyline clip-path="url(#clip662)" style="stroke:#000000; stroke-linecap:butt; stroke-linejoin:round; stroke-width:4; stroke-opacity:0.3; fill:none" points="
  1575,1352.86 1575,1400.1 1685.07,1400.1 1685.07,1352.86 1575,1352.86 
  "/>
<path clip-path="url(#clip662)" d="
M1712.59 1381.2 L1712.59 1400.1 L1822.66 1400.1 L1822.66 1381.2 L1712.59 1381.2 L1712.59 1381.2  Z
  " fill="#e26f46" fill-rule="evenodd" fill-opacity="0.3"/>
<polyline clip-path="url(#clip662)" style="stroke:#000000; stroke-linecap:butt; stroke-linejoin:round; stroke-width:4; stroke-opacity:0.3; fill:none" points="
  1712.59,1381.2 1712.59,1400.1 1822.66,1400.1 1822.66,1381.2 1712.59,1381.2 
  "/>
<path clip-path="url(#clip662)" d="
M1850.17 1393.23 L1850.17 1400.1 L1960.24 1400.1 L1960.24 1393.23 L1850.17 1393.23 L1850.17 1393.23  Z
  " fill="#e26f46" fill-rule="evenodd" fill-opacity="0.3"/>
<polyline clip-path="url(#clip662)" style="stroke:#000000; stroke-linecap:butt; stroke-linejoin:round; stroke-width:4; stroke-opacity:0.3; fill:none" points="
  1850.17,1393.23 1850.17,1400.1 1960.24,1400.1 1960.24,1393.23 1850.17,1393.23 
  "/>
<path clip-path="url(#clip662)" d="
M1987.76 1397.81 L1987.76 1400.1 L2097.83 1400.1 L2097.83 1397.81 L1987.76 1397.81 L1987.76 1397.81  Z
  " fill="#e26f46" fill-rule="evenodd" fill-opacity="0.3"/>
<polyline clip-path="url(#clip662)" style="stroke:#000000; stroke-linecap:butt; stroke-linejoin:round; stroke-width:4; stroke-opacity:0.3; fill:none" points="
  1987.76,1397.81 1987.76,1400.1 2097.83,1400.1 2097.83,1397.81 1987.76,1397.81 
  "/>
<path clip-path="url(#clip662)" d="
M2125.35 1399.39 L2125.35 1400.1 L2235.42 1400.1 L2235.42 1399.39 L2125.35 1399.39 L2125.35 1399.39  Z
  " fill="#e26f46" fill-rule="evenodd" fill-opacity="0.3"/>
<polyline clip-path="url(#clip662)" style="stroke:#000000; stroke-linecap:butt; stroke-linejoin:round; stroke-width:4; stroke-opacity:0.3; fill:none" points="
  2125.35,1399.39 2125.35,1400.1 2235.42,1400.1 2235.42,1399.39 2125.35,1399.39 
  "/>
<path clip-path="url(#clip660)" d="
M1929.63 275.093 L2281.64 275.093 L2281.64 93.6527 L1929.63 93.6527  Z
  " fill="#ffffff" fill-rule="evenodd" fill-opacity="1"/>
<polyline clip-path="url(#clip660)" style="stroke:#000000; stroke-linecap:butt; stroke-linejoin:round; stroke-width:4; stroke-opacity:1; fill:none" points="
  1929.63,275.093 2281.64,275.093 2281.64,93.6527 1929.63,93.6527 1929.63,275.093 
  "/>
<path clip-path="url(#clip660)" d="
M1953.33 178.325 L2095.55 178.325 L2095.55 129.941 L1953.33 129.941 L1953.33 178.325  Z
  " fill="#009af9" fill-rule="evenodd" fill-opacity="0.3"/>
<polyline clip-path="url(#clip660)" style="stroke:#000000; stroke-linecap:butt; stroke-linejoin:round; stroke-width:4; stroke-opacity:1; fill:none" points="
  1953.33,178.325 2095.55,178.325 2095.55,129.941 1953.33,129.941 1953.33,178.325 
  "/>
<path clip-path="url(#clip660)" d="M2142.99 170.344 Q2142.99 170.789 2142.47 170.835 L2141.42 170.835 Q2140.34 170.835 2139.87 170.672 Q2139.4 170.508 2138.86 169.758 Q2138.54 169.29 2137.72 167.111 Q2136.92 164.91 2135.75 161.584 Q2134.6 158.258 2133.83 156.29 L2122.28 169.922 Q2121.48 170.929 2120.69 170.929 Q2120.1 170.929 2119.68 170.531 Q2119.26 170.133 2119.26 169.524 Q2119.26 169.079 2119.42 168.821 Q2119.61 168.563 2120.1 168.048 L2133.36 154.908 L2128.7 141.862 Q2127.81 139.449 2127.29 138.84 Q2126.8 138.231 2125.58 138.021 Q2125.14 137.904 2125.14 137.529 Q2125.14 137.013 2126 137.013 Q2130.64 137.013 2131.86 140.41 L2141.65 167.697 Q2142.19 169.266 2142.75 169.922 Q2142.99 170.226 2142.99 170.344 Z" fill="#000000" fill-rule="evenodd" fill-opacity="1" /><path clip-path="url(#clip660)" d="M2160.23 163.012 Q2160.28 162.427 2161.19 162.427 L2190.59 162.427 Q2191.97 162.427 2191.99 162.966 Q2191.99 163.551 2190.68 163.528 L2161.52 163.528 Q2160.23 163.551 2160.23 163.012 M2160.23 153.643 Q2160.23 153.058 2161.24 153.081 L2190.54 153.081 Q2191.97 153.081 2191.99 153.643 Q2191.99 154.182 2190.78 154.182 L2161.19 154.182 Q2160.23 154.182 2160.23 153.643 Z" fill="#000000" fill-rule="evenodd" fill-opacity="1" /><path clip-path="url(#clip660)" d="M2210.49 142.916 L2210.49 141.417 Q2216.25 141.417 2219.22 138.349 Q2220.04 138.349 2220.18 138.536 Q2220.32 138.723 2220.32 139.59 L2220.32 166.502 Q2220.32 167.931 2221.03 168.376 Q2221.73 168.821 2224.8 168.821 L2226.32 168.821 L2226.32 170.297 Q2224.63 170.156 2218.54 170.156 Q2212.45 170.156 2210.79 170.297 L2210.79 168.821 L2212.31 168.821 Q2215.33 168.821 2216.06 168.4 Q2216.79 167.955 2216.79 166.502 L2216.79 141.651 Q2214.28 142.916 2210.49 142.916 Z" fill="#000000" fill-rule="evenodd" fill-opacity="1" /><path clip-path="url(#clip660)" d="
M1953.33 238.805 L2095.55 238.805 L2095.55 190.421 L1953.33 190.421 L1953.33 238.805  Z
  " fill="#e26f46" fill-rule="evenodd" fill-opacity="0.3"/>
<polyline clip-path="url(#clip660)" style="stroke:#000000; stroke-linecap:butt; stroke-linejoin:round; stroke-width:4; stroke-opacity:1; fill:none" points="
  1953.33,238.805 2095.55,238.805 2095.55,190.421 1953.33,190.421 1953.33,238.805 
  "/>
<path clip-path="url(#clip660)" d="M2142.99 230.824 Q2142.99 231.269 2142.47 231.315 L2141.42 231.315 Q2140.34 231.315 2139.87 231.152 Q2139.4 230.988 2138.86 230.238 Q2138.54 229.77 2137.72 227.591 Q2136.92 225.39 2135.75 222.064 Q2134.6 218.738 2133.83 216.77 L2122.28 230.402 Q2121.48 231.409 2120.69 231.409 Q2120.1 231.409 2119.68 231.011 Q2119.26 230.613 2119.26 230.004 Q2119.26 229.559 2119.42 229.301 Q2119.61 229.043 2120.1 228.528 L2133.36 215.388 L2128.7 202.342 Q2127.81 199.929 2127.29 199.32 Q2126.8 198.711 2125.58 198.501 Q2125.14 198.384 2125.14 198.009 Q2125.14 197.493 2126 197.493 Q2130.64 197.493 2131.86 200.89 L2141.65 228.177 Q2142.19 229.746 2142.75 230.402 Q2142.99 230.706 2142.99 230.824 Z" fill="#000000" fill-rule="evenodd" fill-opacity="1" /><path clip-path="url(#clip660)" d="M2160.23 223.492 Q2160.28 222.907 2161.19 222.907 L2190.59 222.907 Q2191.97 222.907 2191.99 223.446 Q2191.99 224.031 2190.68 224.008 L2161.52 224.008 Q2160.23 224.031 2160.23 223.492 M2160.23 214.123 Q2160.23 213.538 2161.24 213.561 L2190.54 213.561 Q2191.97 213.561 2191.99 214.123 Q2191.99 214.662 2190.78 214.662 L2161.19 214.662 Q2160.23 214.662 2160.23 214.123 Z" fill="#000000" fill-rule="evenodd" fill-opacity="1" /><path clip-path="url(#clip660)" d="M2210.49 222.86 L2210.49 221.384 L2225.22 198.875 Q2225.59 198.29 2226.18 198.313 Q2226.72 198.313 2226.83 198.524 Q2226.95 198.735 2226.95 199.555 L2226.95 221.384 L2231.75 221.384 L2231.75 222.86 L2226.95 222.86 L2226.95 227.029 Q2226.95 228.411 2227.51 228.856 Q2228.1 229.301 2230.58 229.301 L2231.59 229.301 L2231.59 230.777 Q2229.62 230.636 2225.08 230.636 Q2220.56 230.636 2218.59 230.777 L2218.59 229.301 L2219.6 229.301 Q2222.08 229.301 2222.66 228.88 Q2223.25 228.435 2223.25 227.029 L2223.25 222.86 L2210.49 222.86 M2211.84 221.384 L2223.53 221.384 L2223.53 203.49 L2211.84 221.384 Z" fill="#000000" fill-rule="evenodd" fill-opacity="1" /></svg>
