<?xml version="1.0" encoding="utf-8"?>
<svg xmlns="http://www.w3.org/2000/svg" xmlns:xlink="http://www.w3.org/1999/xlink" width="600" height="400" viewBox="0 0 2400 1600">
<defs>
  <clipPath id="clip170">
    <rect x="0" y="0" width="2400" height="1600"/>
  </clipPath>
</defs>
<path clip-path="url(#clip170)" d="
M0 1600 L2400 1600 L2400 0 L0 0  Z
  " fill="#ffffff" fill-rule="evenodd" fill-opacity="1"/>
<defs>
  <clipPath id="clip171">
    <rect x="480" y="0" width="1681" height="1600"/>
  </clipPath>
</defs>
<defs>
  <clipPath id="clip172">
    <rect x="219" y="47" width="2134" height="1393"/>
  </clipPath>
</defs>
<path clip-path="url(#clip170)" d="
M219.866 1439.5 L2352.76 1439.5 L2352.76 47.2441 L219.866 47.2441  Z
  " fill="#ffffff" fill-rule="evenodd" fill-opacity="1"/>
<polyline clip-path="url(#clip172)" style="stroke:#000000; stroke-linecap:butt; stroke-linejoin:round; stroke-width:2; stroke-opacity:0.1; fill:none" points="
  219.866,1439.5 219.866,47.2441 
  "/>
<polyline clip-path="url(#clip172)" style="stroke:#000000; stroke-linecap:butt; stroke-linejoin:round; stroke-width:2; stroke-opacity:0.1; fill:none" points="
  753.089,1439.5 753.089,47.2441 
  "/>
<polyline clip-path="url(#clip172)" style="stroke:#000000; stroke-linecap:butt; stroke-linejoin:round; stroke-width:2; stroke-opacity:0.1; fill:none" points="
  1286.31,1439.5 1286.31,47.2441 
  "/>
<polyline clip-path="url(#clip172)" style="stroke:#000000; stroke-linecap:butt; stroke-linejoin:round; stroke-width:2; stroke-opacity:0.1; fill:none" points="
  1819.53,1439.5 1819.53,47.2441 
  "/>
<polyline clip-path="url(#clip172)" style="stroke:#000000; stroke-linecap:butt; stroke-linejoin:round; stroke-width:2; stroke-opacity:0.1; fill:none" points="
  2352.76,1439.5 2352.76,47.2441 
  "/>
<polyline clip-path="url(#clip170)" style="stroke:#000000; stroke-linecap:butt; stroke-linejoin:round; stroke-width:4; stroke-opacity:1; fill:none" points="
  219.866,1439.5 2352.76,1439.5 
  "/>
<polyline clip-path="url(#clip170)" style="stroke:#000000; stroke-linecap:butt; stroke-linejoin:round; stroke-width:4; stroke-opacity:1; fill:none" points="
  219.866,1439.5 219.866,1422.79 
  "/>
<polyline clip-path="url(#clip170)" style="stroke:#000000; stroke-linecap:butt; stroke-linejoin:round; stroke-width:4; stroke-opacity:1; fill:none" points="
  753.089,1439.5 753.089,1422.79 
  "/>
<polyline clip-path="url(#clip170)" style="stroke:#000000; stroke-linecap:butt; stroke-linejoin:round; stroke-width:4; stroke-opacity:1; fill:none" points="
  1286.31,1439.5 1286.31,1422.79 
  "/>
<polyline clip-path="url(#clip170)" style="stroke:#000000; stroke-linecap:butt; stroke-linejoin:round; stroke-width:4; stroke-opacity:1; fill:none" points="
  1819.53,1439.5 1819.53,1422.79 
  "/>
<polyline clip-path="url(#clip170)" style="stroke:#000000; stroke-linecap:butt; stroke-linejoin:round; stroke-width:4; stroke-opacity:1; fill:none" points="
  2352.76,1439.5 2352.76,1422.79 
  "/>
<path clip-path="url(#clip170)" d="M188.767 1483.35 L218.443 1483.35 L218.443 1487.28 L188.767 1487.28 L188.767 1483.35 Z" fill="#000000" fill-rule="evenodd" fill-opacity="1" /><path clip-path="url(#clip170)" d="M241.382 1469.69 L229.577 1488.14 L241.382 1488.14 L241.382 1469.69 M240.156 1465.61 L246.035 1465.61 L246.035 1488.14 L250.966 1488.14 L250.966 1492.03 L246.035 1492.03 L246.035 1500.17 L241.382 1500.17 L241.382 1492.03 L225.781 1492.03 L225.781 1487.51 L240.156 1465.61 Z" fill="#000000" fill-rule="evenodd" fill-opacity="1" /><path clip-path="url(#clip170)" d="M723.031 1483.35 L752.707 1483.35 L752.707 1487.28 L723.031 1487.28 L723.031 1483.35 Z" fill="#000000" fill-rule="evenodd" fill-opacity="1" /><path clip-path="url(#clip170)" d="M766.827 1496.24 L783.146 1496.24 L783.146 1500.17 L761.202 1500.17 L761.202 1496.24 Q763.864 1493.48 768.447 1488.85 Q773.054 1484.2 774.234 1482.86 Q776.48 1480.34 777.359 1478.6 Q778.262 1476.84 778.262 1475.15 Q778.262 1472.4 776.318 1470.66 Q774.396 1468.92 771.295 1468.92 Q769.096 1468.92 766.642 1469.69 Q764.211 1470.45 761.434 1472 L761.434 1467.28 Q764.258 1466.15 766.711 1465.57 Q769.165 1464.99 771.202 1464.99 Q776.572 1464.99 779.767 1467.67 Q782.961 1470.36 782.961 1474.85 Q782.961 1476.98 782.151 1478.9 Q781.364 1480.8 779.258 1483.39 Q778.679 1484.06 775.577 1487.28 Q772.475 1490.47 766.827 1496.24 Z" fill="#000000" fill-rule="evenodd" fill-opacity="1" /><path clip-path="url(#clip170)" d="M1286.31 1468.69 Q1282.7 1468.69 1280.87 1472.26 Q1279.07 1475.8 1279.07 1482.93 Q1279.07 1490.04 1280.87 1493.6 Q1282.7 1497.14 1286.31 1497.14 Q1289.95 1497.14 1291.75 1493.6 Q1293.58 1490.04 1293.58 1482.93 Q1293.58 1475.8 1291.75 1472.26 Q1289.95 1468.69 1286.31 1468.69 M1286.31 1464.99 Q1292.12 1464.99 1295.18 1469.6 Q1298.26 1474.18 1298.26 1482.93 Q1298.26 1491.66 1295.18 1496.26 Q1292.12 1500.85 1286.31 1500.85 Q1280.5 1500.85 1277.42 1496.26 Q1274.37 1491.66 1274.37 1482.93 Q1274.37 1474.18 1277.42 1469.6 Q1280.5 1464.99 1286.31 1464.99 Z" fill="#000000" fill-rule="evenodd" fill-opacity="1" /><path clip-path="url(#clip170)" d="M1814.19 1496.24 L1830.51 1496.24 L1830.51 1500.17 L1808.56 1500.17 L1808.56 1496.24 Q1811.22 1493.48 1815.81 1488.85 Q1820.41 1484.2 1821.59 1482.86 Q1823.84 1480.34 1824.72 1478.6 Q1825.62 1476.84 1825.62 1475.15 Q1825.62 1472.4 1823.68 1470.66 Q1821.76 1468.92 1818.65 1468.92 Q1816.45 1468.92 1814 1469.69 Q1811.57 1470.45 1808.79 1472 L1808.79 1467.28 Q1811.62 1466.15 1814.07 1465.57 Q1816.52 1464.99 1818.56 1464.99 Q1823.93 1464.99 1827.13 1467.67 Q1830.32 1470.36 1830.32 1474.85 Q1830.32 1476.98 1829.51 1478.9 Q1828.72 1480.8 1826.62 1483.39 Q1826.04 1484.06 1822.94 1487.28 Q1819.83 1490.47 1814.19 1496.24 Z" fill="#000000" fill-rule="evenodd" fill-opacity="1" /><path clip-path="url(#clip170)" d="M2355.77 1469.69 L2343.96 1488.14 L2355.77 1488.14 L2355.77 1469.69 M2354.54 1465.61 L2360.42 1465.61 L2360.42 1488.14 L2365.35 1488.14 L2365.35 1492.03 L2360.42 1492.03 L2360.42 1500.17 L2355.77 1500.17 L2355.77 1492.03 L2340.16 1492.03 L2340.16 1487.51 L2354.54 1465.61 Z" fill="#000000" fill-rule="evenodd" fill-opacity="1" /><path clip-path="url(#clip170)" d="M1298.25 1535.75 Q1298.25 1541.16 1296.51 1547.24 Q1294.8 1553.3 1292.09 1558.19 Q1289.39 1563.06 1285.85 1566.28 Q1282.3 1569.47 1278.92 1569.47 Q1276.76 1569.47 1275.15 1568.27 Q1273.58 1567.05 1272.71 1565.02 Q1271.84 1562.96 1271.42 1560.71 Q1271 1558.42 1271 1555.94 Q1271 1552.24 1271.8 1548.21 Q1272.61 1544.15 1273.96 1540.48 Q1275.32 1536.78 1277.22 1533.43 Q1279.12 1530.05 1281.21 1527.6 Q1283.33 1525.12 1285.72 1523.67 Q1288.1 1522.22 1290.32 1522.22 Q1291.93 1522.22 1293.22 1522.93 Q1294.54 1523.6 1295.38 1524.8 Q1296.22 1525.96 1296.8 1527.34 Q1297.41 1528.73 1297.7 1530.34 Q1297.99 1531.91 1298.12 1533.23 Q1298.25 1534.52 1298.25 1535.75 M1293.9 1531.66 Q1293.9 1530.01 1293.77 1528.79 Q1293.64 1527.53 1293.29 1526.28 Q1292.93 1525.02 1292.16 1524.35 Q1291.42 1523.67 1290.26 1523.67 Q1286.88 1523.67 1283.08 1530.59 Q1281.85 1532.75 1280.76 1535.68 Q1279.66 1538.61 1279.28 1540 Q1278.89 1541.38 1277.99 1544.8 L1291.77 1544.8 Q1293.9 1536 1293.9 1531.66 M1291.19 1546.89 L1277.47 1546.89 Q1275.35 1554.94 1275.35 1559.96 Q1275.35 1564.34 1276.25 1566.18 Q1277.18 1567.98 1278.92 1567.98 Q1280.92 1567.98 1282.79 1565.99 Q1284.66 1563.96 1286.56 1560.29 Q1289.07 1555.52 1291.19 1546.89 Z" fill="#000000" fill-rule="evenodd" fill-opacity="1" /><polyline clip-path="url(#clip172)" style="stroke:#000000; stroke-linecap:butt; stroke-linejoin:round; stroke-width:2; stroke-opacity:0.1; fill:none" points="
  219.866,1400.11 2352.76,1400.11 
  "/>
<polyline clip-path="url(#clip172)" style="stroke:#000000; stroke-linecap:butt; stroke-linejoin:round; stroke-width:2; stroke-opacity:0.1; fill:none" points="
  219.866,1068.04 2352.76,1068.04 
  "/>
<polyline clip-path="url(#clip172)" style="stroke:#000000; stroke-linecap:butt; stroke-linejoin:round; stroke-width:2; stroke-opacity:0.1; fill:none" points="
  219.866,735.978 2352.76,735.978 
  "/>
<polyline clip-path="url(#clip172)" style="stroke:#000000; stroke-linecap:butt; stroke-linejoin:round; stroke-width:2; stroke-opacity:0.1; fill:none" points="
  219.866,403.912 2352.76,403.912 
  "/>
<polyline clip-path="url(#clip172)" style="stroke:#000000; stroke-linecap:butt; stroke-linejoin:round; stroke-width:2; stroke-opacity:0.1; fill:none" points="
  219.866,71.8473 2352.76,71.8473 
  "/>
<polyline clip-path="url(#clip170)" style="stroke:#000000; stroke-linecap:butt; stroke-linejoin:round; stroke-width:4; stroke-opacity:1; fill:none" points="
  219.866,1439.5 219.866,47.2441 
  "/>
<polyline clip-path="url(#clip170)" style="stroke:#000000; stroke-linecap:butt; stroke-linejoin:round; stroke-width:4; stroke-opacity:1; fill:none" points="
  219.866,1400.11 245.461,1400.11 
  "/>
<polyline clip-path="url(#clip170)" style="stroke:#000000; stroke-linecap:butt; stroke-linejoin:round; stroke-width:4; stroke-opacity:1; fill:none" points="
  219.866,1068.04 245.461,1068.04 
  "/>
<polyline clip-path="url(#clip170)" style="stroke:#000000; stroke-linecap:butt; stroke-linejoin:round; stroke-width:4; stroke-opacity:1; fill:none" points="
  219.866,735.978 245.461,735.978 
  "/>
<polyline clip-path="url(#clip170)" style="stroke:#000000; stroke-linecap:butt; stroke-linejoin:round; stroke-width:4; stroke-opacity:1; fill:none" points="
  219.866,403.912 245.461,403.912 
  "/>
<polyline clip-path="url(#clip170)" style="stroke:#000000; stroke-linecap:butt; stroke-linejoin:round; stroke-width:4; stroke-opacity:1; fill:none" points="
  219.866,71.8473 245.461,71.8473 
  "/>
<path clip-path="url(#clip170)" d="M126.691 1385.91 Q123.08 1385.91 121.251 1389.47 Q119.445 1393.01 119.445 1400.14 Q119.445 1407.25 121.251 1410.81 Q123.08 1414.36 126.691 1414.36 Q130.325 1414.36 132.13 1410.81 Q133.959 1407.25 133.959 1400.14 Q133.959 1393.01 132.13 1389.47 Q130.325 1385.91 126.691 1385.91 M126.691 1382.2 Q132.501 1382.2 135.556 1386.81 Q138.635 1391.39 138.635 1400.14 Q138.635 1408.87 135.556 1413.48 Q132.501 1418.06 126.691 1418.06 Q120.88 1418.06 117.802 1413.48 Q114.746 1408.87 114.746 1400.14 Q114.746 1391.39 117.802 1386.81 Q120.88 1382.2 126.691 1382.2 Z" fill="#000000" fill-rule="evenodd" fill-opacity="1" /><path clip-path="url(#clip170)" d="M146.853 1411.51 L151.737 1411.51 L151.737 1417.39 L146.853 1417.39 L146.853 1411.51 Z" fill="#000000" fill-rule="evenodd" fill-opacity="1" /><path clip-path="url(#clip170)" d="M171.922 1385.91 Q168.311 1385.91 166.482 1389.47 Q164.677 1393.01 164.677 1400.14 Q164.677 1407.25 166.482 1410.81 Q168.311 1414.36 171.922 1414.36 Q175.556 1414.36 177.362 1410.81 Q179.19 1407.25 179.19 1400.14 Q179.19 1393.01 177.362 1389.47 Q175.556 1385.91 171.922 1385.91 M171.922 1382.2 Q177.732 1382.2 180.788 1386.81 Q183.866 1391.39 183.866 1400.14 Q183.866 1408.87 180.788 1413.48 Q177.732 1418.06 171.922 1418.06 Q166.112 1418.06 163.033 1413.48 Q159.978 1408.87 159.978 1400.14 Q159.978 1391.39 163.033 1386.81 Q166.112 1382.2 171.922 1382.2 Z" fill="#000000" fill-rule="evenodd" fill-opacity="1" /><path clip-path="url(#clip170)" d="M127.917 1053.84 Q124.306 1053.84 122.478 1057.41 Q120.672 1060.95 120.672 1068.08 Q120.672 1075.18 122.478 1078.75 Q124.306 1082.29 127.917 1082.29 Q131.552 1082.29 133.357 1078.75 Q135.186 1075.18 135.186 1068.08 Q135.186 1060.95 133.357 1057.41 Q131.552 1053.84 127.917 1053.84 M127.917 1050.14 Q133.728 1050.14 136.783 1054.74 Q139.862 1059.33 139.862 1068.08 Q139.862 1076.8 136.783 1081.41 Q133.728 1085.99 127.917 1085.99 Q122.107 1085.99 119.029 1081.41 Q115.973 1076.8 115.973 1068.08 Q115.973 1059.33 119.029 1054.74 Q122.107 1050.14 127.917 1050.14 Z" fill="#000000" fill-rule="evenodd" fill-opacity="1" /><path clip-path="url(#clip170)" d="M148.079 1079.44 L152.964 1079.44 L152.964 1085.32 L148.079 1085.32 L148.079 1079.44 Z" fill="#000000" fill-rule="evenodd" fill-opacity="1" /><path clip-path="url(#clip170)" d="M163.959 1081.39 L171.598 1081.39 L171.598 1055.02 L163.288 1056.69 L163.288 1052.43 L171.552 1050.76 L176.227 1050.76 L176.227 1081.39 L183.866 1081.39 L183.866 1085.32 L163.959 1085.32 L163.959 1081.39 Z" fill="#000000" fill-rule="evenodd" fill-opacity="1" /><path clip-path="url(#clip170)" d="M128.288 721.776 Q124.677 721.776 122.848 725.341 Q121.043 728.883 121.043 736.012 Q121.043 743.119 122.848 746.683 Q124.677 750.225 128.288 750.225 Q131.922 750.225 133.728 746.683 Q135.556 743.119 135.556 736.012 Q135.556 728.883 133.728 725.341 Q131.922 721.776 128.288 721.776 M128.288 718.073 Q134.098 718.073 137.154 722.679 Q140.232 727.262 140.232 736.012 Q140.232 744.739 137.154 749.346 Q134.098 753.929 128.288 753.929 Q122.478 753.929 119.399 749.346 Q116.343 744.739 116.343 736.012 Q116.343 727.262 119.399 722.679 Q122.478 718.073 128.288 718.073 Z" fill="#000000" fill-rule="evenodd" fill-opacity="1" /><path clip-path="url(#clip170)" d="M148.45 747.378 L153.334 747.378 L153.334 753.258 L148.45 753.258 L148.45 747.378 Z" fill="#000000" fill-rule="evenodd" fill-opacity="1" /><path clip-path="url(#clip170)" d="M167.547 749.322 L183.866 749.322 L183.866 753.258 L161.922 753.258 L161.922 749.322 Q164.584 746.568 169.167 741.938 Q173.774 737.285 174.954 735.943 Q177.2 733.42 178.079 731.684 Q178.982 729.924 178.982 728.235 Q178.982 725.48 177.038 723.744 Q175.116 722.008 172.014 722.008 Q169.815 722.008 167.362 722.772 Q164.931 723.535 162.153 725.086 L162.153 720.364 Q164.977 719.23 167.431 718.651 Q169.885 718.073 171.922 718.073 Q177.292 718.073 180.487 720.758 Q183.681 723.443 183.681 727.934 Q183.681 730.063 182.871 731.985 Q182.084 733.883 179.977 736.475 Q179.399 737.147 176.297 740.364 Q173.195 743.559 167.547 749.322 Z" fill="#000000" fill-rule="evenodd" fill-opacity="1" /><path clip-path="url(#clip170)" d="M127.339 389.711 Q123.728 389.711 121.899 393.276 Q120.093 396.818 120.093 403.947 Q120.093 411.054 121.899 414.618 Q123.728 418.16 127.339 418.16 Q130.973 418.16 132.779 414.618 Q134.607 411.054 134.607 403.947 Q134.607 396.818 132.779 393.276 Q130.973 389.711 127.339 389.711 M127.339 386.007 Q133.149 386.007 136.204 390.614 Q139.283 395.197 139.283 403.947 Q139.283 412.674 136.204 417.28 Q133.149 421.864 127.339 421.864 Q121.529 421.864 118.45 417.28 Q115.394 412.674 115.394 403.947 Q115.394 395.197 118.45 390.614 Q121.529 386.007 127.339 386.007 Z" fill="#000000" fill-rule="evenodd" fill-opacity="1" /><path clip-path="url(#clip170)" d="M147.501 415.313 L152.385 415.313 L152.385 421.192 L147.501 421.192 L147.501 415.313 Z" fill="#000000" fill-rule="evenodd" fill-opacity="1" /><path clip-path="url(#clip170)" d="M176.737 402.558 Q180.093 403.276 181.968 405.544 Q183.866 407.813 183.866 411.146 Q183.866 416.262 180.348 419.063 Q176.829 421.864 170.348 421.864 Q168.172 421.864 165.857 421.424 Q163.565 421.007 161.112 420.151 L161.112 415.637 Q163.056 416.771 165.371 417.35 Q167.686 417.929 170.209 417.929 Q174.607 417.929 176.899 416.192 Q179.214 414.456 179.214 411.146 Q179.214 408.091 177.061 406.378 Q174.931 404.642 171.112 404.642 L167.084 404.642 L167.084 400.799 L171.297 400.799 Q174.746 400.799 176.575 399.433 Q178.403 398.044 178.403 395.452 Q178.403 392.79 176.505 391.378 Q174.63 389.943 171.112 389.943 Q169.19 389.943 166.991 390.359 Q164.792 390.776 162.153 391.656 L162.153 387.489 Q164.815 386.748 167.13 386.378 Q169.468 386.007 171.528 386.007 Q176.852 386.007 179.954 388.438 Q183.056 390.845 183.056 394.966 Q183.056 397.836 181.413 399.827 Q179.769 401.794 176.737 402.558 Z" fill="#000000" fill-rule="evenodd" fill-opacity="1" /><path clip-path="url(#clip170)" d="M126.205 57.646 Q122.593 57.646 120.765 61.2108 Q118.959 64.7524 118.959 71.882 Q118.959 78.9884 120.765 82.5532 Q122.593 86.0949 126.205 86.0949 Q129.839 86.0949 131.644 82.5532 Q133.473 78.9884 133.473 71.882 Q133.473 64.7524 131.644 61.2108 Q129.839 57.646 126.205 57.646 M126.205 53.9423 Q132.015 53.9423 135.07 58.5487 Q138.149 63.132 138.149 71.882 Q138.149 80.6088 135.07 85.2153 Q132.015 89.7986 126.205 89.7986 Q120.394 89.7986 117.316 85.2153 Q114.26 80.6088 114.26 71.882 Q114.26 63.132 117.316 58.5487 Q120.394 53.9423 126.205 53.9423 Z" fill="#000000" fill-rule="evenodd" fill-opacity="1" /><path clip-path="url(#clip170)" d="M146.366 83.2477 L151.251 83.2477 L151.251 89.1273 L146.366 89.1273 L146.366 83.2477 Z" fill="#000000" fill-rule="evenodd" fill-opacity="1" /><path clip-path="url(#clip170)" d="M174.283 58.6413 L162.477 77.0903 L174.283 77.0903 L174.283 58.6413 M173.056 54.5673 L178.936 54.5673 L178.936 77.0903 L183.866 77.0903 L183.866 80.9792 L178.936 80.9792 L178.936 89.1273 L174.283 89.1273 L174.283 80.9792 L158.681 80.9792 L158.681 76.4653 L173.056 54.5673 Z" fill="#000000" fill-rule="evenodd" fill-opacity="1" /><path clip-path="url(#clip170)" d="M21.7677 856.683 L58.7206 856.683 L58.7206 848.916 Q58.7206 839.081 54.2646 834.53 Q49.8086 829.947 40.1964 829.947 Q30.6479 829.947 26.2237 834.53 Q21.7677 839.081 21.7677 848.916 L21.7677 856.683 M16.4842 863.112 L16.4842 849.903 Q16.4842 836.09 22.2451 829.628 Q27.9743 823.167 40.1964 823.167 Q52.4822 823.167 58.2432 829.66 Q64.0042 836.153 64.0042 849.903 L64.0042 863.112 L16.4842 863.112 Z" fill="#000000" fill-rule="evenodd" fill-opacity="1" /><path clip-path="url(#clip170)" d="M44.7161 782.681 L47.5806 782.681 L47.5806 809.608 Q53.6281 809.226 56.8109 805.98 Q59.9619 802.701 59.9619 796.877 Q59.9619 793.503 59.1344 790.352 Q58.3069 787.169 56.6518 784.05 L62.1899 784.05 Q63.5267 787.201 64.227 790.511 Q64.9272 793.821 64.9272 797.227 Q64.9272 805.757 59.9619 810.754 Q54.9967 815.719 46.5303 815.719 Q37.7774 815.719 32.6531 811.009 Q27.4968 806.266 27.4968 798.245 Q27.4968 791.052 32.1438 786.883 Q36.7589 782.681 44.7161 782.681 M42.9973 788.538 Q38.1912 788.601 35.3266 791.243 Q32.4621 793.853 32.4621 798.182 Q32.4621 803.083 35.2312 806.043 Q38.0002 808.972 43.0292 809.417 L42.9973 788.538 Z" fill="#000000" fill-rule="evenodd" fill-opacity="1" /><path clip-path="url(#clip170)" d="M42.4881 743.437 L64.0042 743.437 L64.0042 749.293 L42.679 749.293 Q37.6183 749.293 35.1038 751.266 Q32.5894 753.24 32.5894 757.187 Q32.5894 761.929 35.6131 764.666 Q38.6368 767.404 43.8567 767.404 L64.0042 767.404 L64.0042 773.292 L28.3562 773.292 L28.3562 767.404 L33.8944 767.404 Q30.6797 765.303 29.0883 762.47 Q27.4968 759.606 27.4968 755.882 Q27.4968 749.739 31.3163 746.588 Q35.1038 743.437 42.4881 743.437 Z" fill="#000000" fill-rule="evenodd" fill-opacity="1" /><path clip-path="url(#clip170)" d="M29.4065 709.03 L34.9447 709.03 Q33.6716 711.513 33.035 714.186 Q32.3984 716.86 32.3984 719.724 Q32.3984 724.085 33.7352 726.281 Q35.072 728.445 37.7456 728.445 Q39.7826 728.445 40.9603 726.886 Q42.1061 725.326 43.1565 720.616 L43.6021 718.61 Q44.9389 712.372 47.3897 709.762 Q49.8086 707.12 54.1691 707.12 Q59.1344 707.12 62.0308 711.067 Q64.9272 714.982 64.9272 721.857 Q64.9272 724.721 64.3543 727.841 Q63.8132 730.928 62.6992 734.366 L56.6518 734.366 Q58.3387 731.119 59.198 727.968 Q60.0256 724.817 60.0256 721.73 Q60.0256 717.592 58.6251 715.364 Q57.1929 713.136 54.6147 713.136 Q52.2276 713.136 50.9545 714.759 Q49.6813 716.351 48.5037 721.793 L48.0262 723.83 Q46.8804 729.273 44.5251 731.692 Q42.138 734.111 38.0002 734.111 Q32.9713 734.111 30.2341 730.546 Q27.4968 726.981 27.4968 720.425 Q27.4968 717.178 27.9743 714.314 Q28.4517 711.449 29.4065 709.03 Z" fill="#000000" fill-rule="evenodd" fill-opacity="1" /><path clip-path="url(#clip170)" d="M28.3562 697.795 L28.3562 691.938 L64.0042 691.938 L64.0042 697.795 L28.3562 697.795 M14.479 697.795 L14.479 691.938 L21.895 691.938 L21.895 697.795 L14.479 697.795 Z" fill="#000000" fill-rule="evenodd" fill-opacity="1" /><path clip-path="url(#clip170)" d="M18.2347 673.891 L28.3562 673.891 L28.3562 661.828 L32.9077 661.828 L32.9077 673.891 L52.2594 673.891 Q56.6199 673.891 57.8613 672.714 Q59.1026 671.504 59.1026 667.844 L59.1026 661.828 L64.0042 661.828 L64.0042 667.844 Q64.0042 674.623 61.4897 677.201 Q58.9434 679.78 52.2594 679.78 L32.9077 679.78 L32.9077 684.076 L28.3562 684.076 L28.3562 679.78 L18.2347 679.78 L18.2347 673.891 Z" fill="#000000" fill-rule="evenodd" fill-opacity="1" /><path clip-path="url(#clip170)" d="M67.3143 639.294 Q73.68 641.776 75.6216 644.132 Q77.5631 646.487 77.5631 650.434 L77.5631 655.112 L72.6615 655.112 L72.6615 651.675 Q72.6615 649.256 71.5157 647.919 Q70.3699 646.582 66.1048 644.959 L63.4312 643.909 L28.3562 658.327 L28.3562 652.121 L56.238 640.981 L28.3562 629.841 L28.3562 623.634 L67.3143 639.294 Z" fill="#000000" fill-rule="evenodd" fill-opacity="1" /><polyline clip-path="url(#clip172)" style="stroke:#009af9; stroke-linecap:butt; stroke-linejoin:round; stroke-width:20; stroke-opacity:1; fill:none" points="
  -17563.1,1400.1 -17195,1400.1 -13790.8,1400.09 -11745,1400.08 -10015.4,1400.06 -8136.45,1400.03 -6404.26,1399.97 -4547.18,1399.79 -2395.56,1398.87 -1917.53,1398.23 
  -1439.51,1397.09 -961.483,1394.79 -483.458,1389.49 -273.865,1384.89 -64.2728,1377.28 40.5236,1371.57 145.32,1363.84 250.116,1353.17 354.912,1338.08 459.709,1316.19 
  564.505,1283.58 616.903,1261.34 669.301,1233.66 721.7,1199.02 774.098,1155.52 826.496,1100.81 878.894,1032.22 905.093,991.86 931.292,947.036 957.491,897.528 
  983.69,843.24 1036.09,720.99 1088.49,584.896 1114.69,514.966 1140.88,446.583 1167.08,382.468 1193.28,325.669 1207.56,298.909 1221.85,275.739 1236.13,256.598 
  1250.41,241.866 1264.69,231.846 1278.98,226.747 1293.26,226.678 1307.54,231.64 1321.82,241.529 1336.1,256.136 1350.39,275.161 1364.67,298.227 1393.23,354.683 
  1421.8,421.59 1478.92,570.975 1536.05,719.789 1564.62,788.657 1593.18,852.365 1621.74,910.474 1650.31,962.914 1678.87,1009.87 1707.44,1051.66 1736,1088.72 
  1764.56,1121.5 1821.69,1175.99 1878.82,1218.44 1935.95,1251.61 1993.08,1277.68 2050.2,1298.31 2107.33,1314.77 2221.59,1338.74 2335.84,1354.74 2450.1,1365.74 
  2564.36,1373.51 2792.87,1383.31 3021.38,1388.87 3481.12,1394.41 3940.86,1396.84 4400.6,1398.07 4860.34,1398.75 6893.55,1399.75 8828.1,1399.96 10839.6,1400.04 
  12532.8,1400.06 14600.1,1400.08 16543.3,1400.09 19656.6,1400.1 20135.7,1400.1 
  "/>
<polyline clip-path="url(#clip172)" style="stroke:#e26f46; stroke-linecap:butt; stroke-linejoin:round; stroke-width:20; stroke-opacity:1; fill:none" points="
  -431.198,1399.76 -397.652,1399.7 -87.4734,1398.33 98.9313,1395.41 256.534,1388.84 342.135,1381.67 427.735,1369.63 506.651,1351.39 585.567,1322.11 627.87,1299.85 
  670.173,1271.52 712.476,1235.75 754.78,1191.03 803.792,1126.02 852.804,1044.84 877.31,997.731 901.817,946.202 926.323,890.337 950.829,830.377 994.385,715.114 
  1037.94,592.276 1081.5,467.929 1125.05,350.056 1144.15,302.751 1163.25,259.253 1182.35,220.334 1201.44,186.722 1220.54,159.065 1239.64,137.918 1258.74,123.713 
  1277.83,116.745 1298.66,117.563 1319.48,127.134 1340.3,145.22 1361.12,171.377 1381.94,204.974 1402.76,245.227 1423.58,291.23 1444.41,341.995 1528.19,573.658 
  1611.97,805.273 1635.12,863.483 1658.28,918.184 1681.44,969.104 1704.6,1016.1 1750.91,1098.31 1797.23,1165.53 1841.3,1217.02 1885.36,1258.05 1929.43,1290.36 
  1973.5,1315.56 2065.14,1351.15 2156.78,1371.7 2233.92,1382.04 2311.06,1388.52 2499.42,1396.02 2676.49,1398.47 2960.16,1399.68 3003.82,1399.76 
  "/>
<polyline clip-path="url(#clip172)" style="stroke:#3da44d; stroke-linecap:butt; stroke-linejoin:round; stroke-width:20; stroke-opacity:1; fill:none" points="
  157.483,1399.19 179.531,1398.95 383.395,1391.42 444.652,1384.7 505.909,1373.35 557.701,1358.22 609.493,1335.75 665.754,1299.88 722.014,1248.18 747.948,1217.87 
  773.882,1182.94 799.815,1143.06 825.749,1098 853.553,1043.77 881.356,983.443 909.16,917.235 936.964,845.64 1001.39,663.886 1065.82,473.78 1094.44,392.486 
  1123.07,316.386 1151.7,247.837 1180.33,189.095 1205.43,147.268 1230.53,115.706 1255.64,95.3039 1280.74,86.6476 1308.11,90.8805 1335.48,109.222 1362.85,141.043 
  1390.22,185.27 1417.75,240.803 1445.28,305.631 1472.82,377.763 1500.35,455.109 1561.23,634.404 1622.11,809.02 1651.07,885.958 1680.04,957.388 1709,1022.62 
  1737.96,1081.29 1768.08,1135.24 1798.19,1182.15 1828.31,1222.39 1858.42,1256.46 1883.77,1280.81 1909.12,1301.59 1934.48,1319.2 1959.83,1334.01 2021.73,1360.58 
  2083.63,1377.08 2141.81,1386.55 2200,1392.26 2293.22,1396.94 2386.45,1398.87 2400.79,1399.04 2415.14,1399.19 
  "/>
<path clip-path="url(#clip170)" d="
M1910.17 335.573 L2281.66 335.573 L2281.66 93.6527 L1910.17 93.6527  Z
  " fill="#ffffff" fill-rule="evenodd" fill-opacity="1"/>
<polyline clip-path="url(#clip170)" style="stroke:#000000; stroke-linecap:butt; stroke-linejoin:round; stroke-width:4; stroke-opacity:1; fill:none" points="
  1910.17,335.573 2281.66,335.573 2281.66,93.6527 1910.17,93.6527 1910.17,335.573 
  "/>
<polyline clip-path="url(#clip170)" style="stroke:#009af9; stroke-linecap:butt; stroke-linejoin:round; stroke-width:4; stroke-opacity:1; fill:none" points="
  1933.87,154.133 2076.06,154.133 
  "/>
<path clip-path="url(#clip170)" d="M2122.34 150.044 Q2122.34 150.255 2122.15 150.981 Q2121.99 151.683 2121.45 153.065 Q2120.93 154.424 2120.13 155.946 Q2119.36 157.445 2117.93 159.343 Q2116.5 161.24 2114.72 162.903 Q2111.37 166.041 2107.79 167.728 Q2104.23 169.414 2101.19 169.953 L2100.51 169.953 Q2099.76 169.953 2099.76 169.367 L2100.27 167.213 L2103.2 155.478 Q2104.11 151.894 2104.11 151.59 Q2104.11 151.309 2104 151.168 Q2103.9 151.004 2103.34 150.887 Q2102.8 150.77 2101.72 150.77 Q2101.28 150.77 2101.07 150.747 Q2100.88 150.723 2100.72 150.606 Q2100.55 150.466 2100.55 150.184 Q2100.55 149.786 2100.72 149.575 Q2100.9 149.341 2101.05 149.294 Q2101.19 149.248 2101.47 149.224 Q2101.87 149.201 2103.2 149.084 Q2104.54 148.943 2105.68 148.849 Q2106.83 148.756 2107.32 148.756 Q2107.6 148.756 2107.77 148.896 Q2107.93 149.013 2107.93 149.154 L2107.95 149.271 L2103.25 168.36 Q2104.98 167.798 2106.69 166.861 Q2108.42 165.924 2110.3 164.378 Q2112.17 162.809 2113.76 160.865 Q2115.36 158.921 2116.76 156.204 Q2118.19 153.464 2119.08 150.325 Q2119.24 149.693 2119.64 149.318 Q2120.06 148.943 2120.37 148.849 Q2120.67 148.756 2120.95 148.756 Q2121.59 148.756 2121.96 149.107 Q2122.34 149.435 2122.34 150.044 Z" fill="#000000" fill-rule="evenodd" fill-opacity="1" /><path clip-path="url(#clip170)" d="M2136.51 162.669 Q2136.56 162.083 2137.47 162.083 L2166.87 162.083 Q2168.25 162.083 2168.27 162.622 Q2168.27 163.207 2166.96 163.184 L2137.8 163.184 Q2136.51 163.207 2136.51 162.669 M2136.51 153.3 Q2136.51 152.714 2137.52 152.738 L2166.82 152.738 Q2168.25 152.738 2168.27 153.3 Q2168.27 153.838 2167.05 153.838 L2137.47 153.838 Q2136.51 153.838 2136.51 153.3 Z" fill="#000000" fill-rule="evenodd" fill-opacity="1" /><path clip-path="url(#clip170)" d="M2186.76 169.953 Q2186.76 169.086 2186.83 168.829 Q2186.93 168.571 2187.3 168.173 L2196.51 157.914 Q2201.54 152.246 2201.54 147.303 Q2201.54 144.095 2199.86 141.799 Q2198.19 139.504 2195.12 139.504 Q2193.02 139.504 2191.24 140.792 Q2189.46 142.08 2188.64 144.376 Q2188.78 144.329 2189.27 144.329 Q2190.46 144.329 2191.12 145.078 Q2191.8 145.828 2191.8 146.835 Q2191.8 148.123 2190.95 148.756 Q2190.13 149.365 2189.32 149.365 Q2188.99 149.365 2188.54 149.294 Q2188.12 149.224 2187.44 148.568 Q2186.76 147.889 2186.76 146.695 Q2186.76 143.345 2189.29 140.675 Q2191.84 138.005 2195.73 138.005 Q2200.14 138.005 2203.02 140.628 Q2205.92 143.228 2205.92 147.303 Q2205.92 148.732 2205.48 150.044 Q2205.05 151.332 2204.47 152.339 Q2203.91 153.346 2202.36 154.963 Q2200.82 156.579 2199.57 157.726 Q2198.33 158.874 2195.55 161.31 L2190.46 166.252 L2199.11 166.252 Q2203.32 166.252 2203.65 165.877 Q2204.12 165.198 2204.7 161.615 L2205.92 161.615 L2204.56 169.953 L2186.76 169.953 Z" fill="#000000" fill-rule="evenodd" fill-opacity="1" /><polyline clip-path="url(#clip170)" style="stroke:#e26f46; stroke-linecap:butt; stroke-linejoin:round; stroke-width:4; stroke-opacity:1; fill:none" points="
  1933.87,214.613 2076.06,214.613 
  "/>
<path clip-path="url(#clip170)" d="M2122.34 210 Q2122.34 210.211 2122.15 210.937 Q2121.99 211.64 2121.45 213.022 Q2120.93 214.38 2120.13 215.903 Q2119.36 217.402 2117.93 219.299 Q2116.5 221.196 2114.72 222.859 Q2111.37 225.998 2107.79 227.684 Q2104.23 229.371 2101.19 229.91 L2100.51 229.91 Q2099.76 229.91 2099.76 229.324 L2100.27 227.169 L2103.2 215.434 Q2104.11 211.851 2104.11 211.546 Q2104.11 211.265 2104 211.125 Q2103.9 210.961 2103.34 210.844 Q2102.8 210.727 2101.72 210.727 Q2101.28 210.727 2101.07 210.703 Q2100.88 210.68 2100.72 210.563 Q2100.55 210.422 2100.55 210.141 Q2100.55 209.743 2100.72 209.532 Q2100.9 209.298 2101.05 209.251 Q2101.19 209.204 2101.47 209.181 Q2101.87 209.157 2103.2 209.04 Q2104.54 208.9 2105.68 208.806 Q2106.83 208.712 2107.32 208.712 Q2107.6 208.712 2107.77 208.853 Q2107.93 208.97 2107.93 209.11 L2107.95 209.228 L2103.25 228.317 Q2104.98 227.755 2106.69 226.818 Q2108.42 225.881 2110.3 224.335 Q2112.17 222.766 2113.76 220.822 Q2115.36 218.878 2116.76 216.161 Q2118.19 213.42 2119.08 210.282 Q2119.24 209.649 2119.64 209.274 Q2120.06 208.9 2120.37 208.806 Q2120.67 208.712 2120.95 208.712 Q2121.59 208.712 2121.96 209.064 Q2122.34 209.392 2122.34 210 Z" fill="#000000" fill-rule="evenodd" fill-opacity="1" /><path clip-path="url(#clip170)" d="M2136.51 222.625 Q2136.56 222.04 2137.47 222.04 L2166.87 222.04 Q2168.25 222.04 2168.27 222.578 Q2168.27 223.164 2166.96 223.14 L2137.8 223.14 Q2136.51 223.164 2136.51 222.625 M2136.51 213.256 Q2136.51 212.671 2137.52 212.694 L2166.82 212.694 Q2168.25 212.694 2168.27 213.256 Q2168.27 213.795 2167.05 213.795 L2137.47 213.795 Q2136.51 213.795 2136.51 213.256 Z" fill="#000000" fill-rule="evenodd" fill-opacity="1" /><path clip-path="url(#clip170)" d="M2186.76 222.672 Q2186.76 217.308 2193.67 213.842 Q2190.7 211.827 2190.16 211.242 Q2188.05 208.9 2188.05 205.972 Q2188.05 202.622 2190.58 200.304 Q2193.13 197.961 2196.74 197.961 Q2200.18 197.961 2202.78 199.952 Q2205.38 201.943 2205.38 205.105 Q2205.38 209.555 2199.57 212.554 Q2203.42 214.943 2204.33 215.95 Q2206.67 218.55 2206.67 221.852 Q2206.67 225.694 2203.72 228.34 Q2200.77 230.964 2196.69 230.964 Q2192.71 230.964 2189.74 228.645 Q2186.76 226.326 2186.76 222.672 M2189.15 222.672 Q2189.15 225.647 2191.38 227.638 Q2193.62 229.628 2196.74 229.628 Q2199.76 229.628 2202.01 227.895 Q2204.28 226.162 2204.28 223.586 Q2204.28 222.578 2203.93 221.712 Q2203.6 220.845 2202.92 220.166 Q2202.27 219.463 2201.85 219.159 Q2201.45 218.831 2200.67 218.292 L2194.77 214.568 Q2189.15 217.683 2189.15 222.672 M2190.16 204.098 Q2190.16 206.393 2192.57 207.986 L2198.52 211.827 Q2203.27 209.04 2203.27 205.105 Q2203.27 202.552 2201.33 200.866 Q2199.39 199.156 2196.69 199.156 Q2194.05 199.156 2192.1 200.561 Q2190.16 201.943 2190.16 204.098 Z" fill="#000000" fill-rule="evenodd" fill-opacity="1" /><polyline clip-path="url(#clip170)" style="stroke:#3da44d; stroke-linecap:butt; stroke-linejoin:round; stroke-width:4; stroke-opacity:1; fill:none" points="
  1933.87,275.093 2076.06,275.093 
  "/>
<path clip-path="url(#clip170)" d="M2122.34 270.48 Q2122.34 270.691 2122.15 271.417 Q2121.99 272.12 2121.45 273.502 Q2120.93 274.86 2120.13 276.383 Q2119.36 277.882 2117.93 279.779 Q2116.5 281.676 2114.72 283.339 Q2111.37 286.478 2107.79 288.164 Q2104.23 289.851 2101.19 290.39 L2100.51 290.39 Q2099.76 290.39 2099.76 289.804 L2100.27 287.649 L2103.2 275.914 Q2104.11 272.331 2104.11 272.026 Q2104.11 271.745 2104 271.605 Q2103.9 271.441 2103.34 271.324 Q2102.8 271.207 2101.72 271.207 Q2101.28 271.207 2101.07 271.183 Q2100.88 271.16 2100.72 271.043 Q2100.55 270.902 2100.55 270.621 Q2100.55 270.223 2100.72 270.012 Q2100.9 269.778 2101.05 269.731 Q2101.19 269.684 2101.47 269.661 Q2101.87 269.637 2103.2 269.52 Q2104.54 269.38 2105.68 269.286 Q2106.83 269.192 2107.32 269.192 Q2107.6 269.192 2107.77 269.333 Q2107.93 269.45 2107.93 269.59 L2107.95 269.708 L2103.25 288.797 Q2104.98 288.235 2106.69 287.298 Q2108.42 286.361 2110.3 284.815 Q2112.17 283.246 2113.76 281.302 Q2115.36 279.358 2116.76 276.641 Q2118.19 273.9 2119.08 270.762 Q2119.24 270.129 2119.64 269.754 Q2120.06 269.38 2120.37 269.286 Q2120.67 269.192 2120.95 269.192 Q2121.59 269.192 2121.96 269.544 Q2122.34 269.872 2122.34 270.48 Z" fill="#000000" fill-rule="evenodd" fill-opacity="1" /><path clip-path="url(#clip170)" d="M2136.51 283.105 Q2136.56 282.52 2137.47 282.52 L2166.87 282.52 Q2168.25 282.52 2168.27 283.058 Q2168.27 283.644 2166.96 283.62 L2137.8 283.62 Q2136.51 283.644 2136.51 283.105 M2136.51 273.736 Q2136.51 273.151 2137.52 273.174 L2166.82 273.174 Q2168.25 273.174 2168.27 273.736 Q2168.27 274.275 2167.05 274.275 L2137.47 274.275 Q2136.51 274.275 2136.51 273.736 Z" fill="#000000" fill-rule="evenodd" fill-opacity="1" /><path clip-path="url(#clip170)" d="M2186.76 283.925 Q2186.76 282.496 2187.58 281.817 Q2188.4 281.138 2189.46 281.138 Q2190.56 281.138 2191.33 281.864 Q2192.13 282.566 2192.13 283.808 Q2192.13 285.143 2191.19 285.892 Q2190.28 286.642 2188.96 286.455 Q2190.11 288.375 2192.22 289.242 Q2194.35 290.108 2196.32 290.108 Q2198.38 290.108 2200.04 288.328 Q2201.73 286.548 2201.73 282.192 Q2201.73 278.491 2200.28 276.36 Q2198.85 274.228 2196.01 274.228 L2193.91 274.228 Q2193.18 274.228 2192.97 274.158 Q2192.76 274.088 2192.76 273.689 Q2192.76 273.221 2193.48 273.127 Q2194.21 273.127 2195.36 272.987 Q2198.15 272.893 2199.62 270.48 Q2200.96 268.232 2200.96 265.023 Q2200.96 262.095 2199.55 260.877 Q2198.17 259.636 2196.37 259.636 Q2194.68 259.636 2192.83 260.339 Q2190.98 261.041 2189.97 262.611 Q2192.95 262.611 2192.95 265.023 Q2192.95 266.077 2192.27 266.78 Q2191.61 267.459 2190.51 267.459 Q2189.46 267.459 2188.75 266.803 Q2188.05 266.124 2188.05 264.976 Q2188.05 262.236 2190.49 260.339 Q2192.95 258.441 2196.55 258.441 Q2200.11 258.441 2202.74 260.315 Q2205.38 262.189 2205.38 265.07 Q2205.38 267.904 2203.51 270.223 Q2201.64 272.542 2198.66 273.502 Q2202.31 274.228 2204.49 276.711 Q2206.67 279.17 2206.67 282.192 Q2206.67 285.939 2203.72 288.703 Q2200.77 291.444 2196.46 291.444 Q2192.48 291.444 2189.62 289.289 Q2186.76 287.134 2186.76 283.925 Z" fill="#000000" fill-rule="evenodd" fill-opacity="1" /><path clip-path="url(#clip170)" d="M2210.51 275.048 Q2210.51 267.998 2212.29 264.156 Q2214.77 258.441 2220.63 258.441 Q2221.87 258.441 2223.16 258.793 Q2224.47 259.121 2226.11 260.409 Q2227.77 261.697 2228.78 263.805 Q2230.7 267.881 2230.7 275.048 Q2230.7 282.051 2228.92 285.869 Q2226.32 291.444 2220.58 291.444 Q2218.43 291.444 2216.23 290.343 Q2214.05 289.242 2212.67 286.595 Q2210.51 282.637 2210.51 275.048 M2214.49 274.462 Q2214.49 281.7 2215.01 284.581 Q2215.59 287.696 2217.19 289.054 Q2218.8 290.39 2220.58 290.39 Q2222.5 290.39 2224.1 288.961 Q2225.71 287.509 2226.21 284.393 Q2226.74 281.325 2226.72 274.462 Q2226.72 267.787 2226.25 265.117 Q2225.62 262.002 2223.93 260.76 Q2222.27 259.495 2220.58 259.495 Q2219.95 259.495 2219.27 259.683 Q2218.62 259.87 2217.66 260.409 Q2216.7 260.948 2215.95 262.283 Q2215.22 263.618 2214.87 265.632 Q2214.49 268.232 2214.49 274.462 Z" fill="#000000" fill-rule="evenodd" fill-opacity="1" /></svg>
