<?xml version="1.0" encoding="utf-8"?>
<svg xmlns="http://www.w3.org/2000/svg" xmlns:xlink="http://www.w3.org/1999/xlink" width="600" height="400" viewBox="0 0 2400 1600">
<defs>
  <clipPath id="clip290">
    <rect x="0" y="0" width="2400" height="1600"/>
  </clipPath>
</defs>
<path clip-path="url(#clip290)" d="
M0 1600 L2400 1600 L2400 0 L0 0  Z
  " fill="#ffffff" fill-rule="evenodd" fill-opacity="1"/>
<defs>
  <clipPath id="clip291">
    <rect x="480" y="0" width="1681" height="1600"/>
  </clipPath>
</defs>
<defs>
  <clipPath id="clip292">
    <rect x="217" y="47" width="2136" height="1405"/>
  </clipPath>
</defs>
<path clip-path="url(#clip290)" d="
M264.287 1431.55 L2352.76 1431.55 L2352.76 47.2441 L264.287 47.2441  Z
  " fill="#ffffff" fill-rule="evenodd" fill-opacity="1"/>
<defs>
  <clipPath id="clip293">
    <rect x="264" y="47" width="2089" height="1385"/>
  </clipPath>
</defs>
<polyline clip-path="url(#clip293)" style="stroke:#000000; stroke-linecap:butt; stroke-linejoin:round; stroke-width:2; stroke-opacity:0.1; fill:none" points="
  264.287,1431.55 264.287,47.2441 
  "/>
<polyline clip-path="url(#clip293)" style="stroke:#000000; stroke-linecap:butt; stroke-linejoin:round; stroke-width:2; stroke-opacity:0.1; fill:none" points="
  681.981,1431.55 681.981,47.2441 
  "/>
<polyline clip-path="url(#clip293)" style="stroke:#000000; stroke-linecap:butt; stroke-linejoin:round; stroke-width:2; stroke-opacity:0.1; fill:none" points="
  1099.67,1431.55 1099.67,47.2441 
  "/>
<polyline clip-path="url(#clip293)" style="stroke:#000000; stroke-linecap:butt; stroke-linejoin:round; stroke-width:2; stroke-opacity:0.1; fill:none" points="
  1517.37,1431.55 1517.37,47.2441 
  "/>
<polyline clip-path="url(#clip293)" style="stroke:#000000; stroke-linecap:butt; stroke-linejoin:round; stroke-width:2; stroke-opacity:0.1; fill:none" points="
  1935.06,1431.55 1935.06,47.2441 
  "/>
<polyline clip-path="url(#clip293)" style="stroke:#000000; stroke-linecap:butt; stroke-linejoin:round; stroke-width:2; stroke-opacity:0.1; fill:none" points="
  2352.76,1431.55 2352.76,47.2441 
  "/>
<polyline clip-path="url(#clip290)" style="stroke:#000000; stroke-linecap:butt; stroke-linejoin:round; stroke-width:4; stroke-opacity:1; fill:none" points="
  264.287,1431.55 2352.76,1431.55 
  "/>
<polyline clip-path="url(#clip290)" style="stroke:#000000; stroke-linecap:butt; stroke-linejoin:round; stroke-width:4; stroke-opacity:1; fill:none" points="
  264.287,1431.55 264.287,1414.94 
  "/>
<polyline clip-path="url(#clip290)" style="stroke:#000000; stroke-linecap:butt; stroke-linejoin:round; stroke-width:4; stroke-opacity:1; fill:none" points="
  681.981,1431.55 681.981,1414.94 
  "/>
<polyline clip-path="url(#clip290)" style="stroke:#000000; stroke-linecap:butt; stroke-linejoin:round; stroke-width:4; stroke-opacity:1; fill:none" points="
  1099.67,1431.55 1099.67,1414.94 
  "/>
<polyline clip-path="url(#clip290)" style="stroke:#000000; stroke-linecap:butt; stroke-linejoin:round; stroke-width:4; stroke-opacity:1; fill:none" points="
  1517.37,1431.55 1517.37,1414.94 
  "/>
<polyline clip-path="url(#clip290)" style="stroke:#000000; stroke-linecap:butt; stroke-linejoin:round; stroke-width:4; stroke-opacity:1; fill:none" points="
  1935.06,1431.55 1935.06,1414.94 
  "/>
<polyline clip-path="url(#clip290)" style="stroke:#000000; stroke-linecap:butt; stroke-linejoin:round; stroke-width:4; stroke-opacity:1; fill:none" points="
  2352.76,1431.55 2352.76,1414.94 
  "/>
<path clip-path="url(#clip290)" d="M211.51 1460.74 Q207.899 1460.74 206.07 1464.31 Q204.264 1467.85 204.264 1474.98 Q204.264 1482.09 206.07 1485.65 Q207.899 1489.19 211.51 1489.19 Q215.144 1489.19 216.95 1485.65 Q218.778 1482.09 218.778 1474.98 Q218.778 1467.85 216.95 1464.31 Q215.144 1460.74 211.51 1460.74 M211.51 1457.04 Q217.32 1457.04 220.376 1461.65 Q223.454 1466.23 223.454 1474.98 Q223.454 1483.71 220.376 1488.31 Q217.32 1492.9 211.51 1492.9 Q205.7 1492.9 202.621 1488.31 Q199.565 1483.71 199.565 1474.98 Q199.565 1466.23 202.621 1461.65 Q205.7 1457.04 211.51 1457.04 Z" fill="#000000" fill-rule="evenodd" fill-opacity="1" /><path clip-path="url(#clip290)" d="M231.672 1486.35 L236.556 1486.35 L236.556 1492.23 L231.672 1492.23 L231.672 1486.35 Z" fill="#000000" fill-rule="evenodd" fill-opacity="1" /><path clip-path="url(#clip290)" d="M256.741 1460.74 Q253.13 1460.74 251.301 1464.31 Q249.496 1467.85 249.496 1474.98 Q249.496 1482.09 251.301 1485.65 Q253.13 1489.19 256.741 1489.19 Q260.375 1489.19 262.181 1485.65 Q264.01 1482.09 264.01 1474.98 Q264.01 1467.85 262.181 1464.31 Q260.375 1460.74 256.741 1460.74 M256.741 1457.04 Q262.551 1457.04 265.607 1461.65 Q268.685 1466.23 268.685 1474.98 Q268.685 1483.71 265.607 1488.31 Q262.551 1492.9 256.741 1492.9 Q250.931 1492.9 247.852 1488.31 Q244.797 1483.71 244.797 1474.98 Q244.797 1466.23 247.852 1461.65 Q250.931 1457.04 256.741 1457.04 Z" fill="#000000" fill-rule="evenodd" fill-opacity="1" /><path clip-path="url(#clip290)" d="M286.903 1460.74 Q283.292 1460.74 281.463 1464.31 Q279.658 1467.85 279.658 1474.98 Q279.658 1482.09 281.463 1485.65 Q283.292 1489.19 286.903 1489.19 Q290.537 1489.19 292.343 1485.65 Q294.171 1482.09 294.171 1474.98 Q294.171 1467.85 292.343 1464.31 Q290.537 1460.74 286.903 1460.74 M286.903 1457.04 Q292.713 1457.04 295.769 1461.65 Q298.847 1466.23 298.847 1474.98 Q298.847 1483.71 295.769 1488.31 Q292.713 1492.9 286.903 1492.9 Q281.093 1492.9 278.014 1488.31 Q274.959 1483.71 274.959 1474.98 Q274.959 1466.23 278.014 1461.65 Q281.093 1457.04 286.903 1457.04 Z" fill="#000000" fill-rule="evenodd" fill-opacity="1" /><path clip-path="url(#clip290)" d="M317.065 1460.74 Q313.454 1460.74 311.625 1464.31 Q309.819 1467.85 309.819 1474.98 Q309.819 1482.09 311.625 1485.65 Q313.454 1489.19 317.065 1489.19 Q320.699 1489.19 322.505 1485.65 Q324.333 1482.09 324.333 1474.98 Q324.333 1467.85 322.505 1464.31 Q320.699 1460.74 317.065 1460.74 M317.065 1457.04 Q322.875 1457.04 325.931 1461.65 Q329.009 1466.23 329.009 1474.98 Q329.009 1483.71 325.931 1488.31 Q322.875 1492.9 317.065 1492.9 Q311.255 1492.9 308.176 1488.31 Q305.12 1483.71 305.12 1474.98 Q305.12 1466.23 308.176 1461.65 Q311.255 1457.04 317.065 1457.04 Z" fill="#000000" fill-rule="evenodd" fill-opacity="1" /><path clip-path="url(#clip290)" d="M630.002 1460.74 Q626.391 1460.74 624.562 1464.31 Q622.757 1467.85 622.757 1474.98 Q622.757 1482.09 624.562 1485.65 Q626.391 1489.19 630.002 1489.19 Q633.636 1489.19 635.442 1485.65 Q637.271 1482.09 637.271 1474.98 Q637.271 1467.85 635.442 1464.31 Q633.636 1460.74 630.002 1460.74 M630.002 1457.04 Q635.812 1457.04 638.868 1461.65 Q641.947 1466.23 641.947 1474.98 Q641.947 1483.71 638.868 1488.31 Q635.812 1492.9 630.002 1492.9 Q624.192 1492.9 621.113 1488.31 Q618.058 1483.71 618.058 1474.98 Q618.058 1466.23 621.113 1461.65 Q624.192 1457.04 630.002 1457.04 Z" fill="#000000" fill-rule="evenodd" fill-opacity="1" /><path clip-path="url(#clip290)" d="M650.164 1486.35 L655.048 1486.35 L655.048 1492.23 L650.164 1492.23 L650.164 1486.35 Z" fill="#000000" fill-rule="evenodd" fill-opacity="1" /><path clip-path="url(#clip290)" d="M675.233 1460.74 Q671.622 1460.74 669.794 1464.31 Q667.988 1467.85 667.988 1474.98 Q667.988 1482.09 669.794 1485.65 Q671.622 1489.19 675.233 1489.19 Q678.868 1489.19 680.673 1485.65 Q682.502 1482.09 682.502 1474.98 Q682.502 1467.85 680.673 1464.31 Q678.868 1460.74 675.233 1460.74 M675.233 1457.04 Q681.044 1457.04 684.099 1461.65 Q687.178 1466.23 687.178 1474.98 Q687.178 1483.71 684.099 1488.31 Q681.044 1492.9 675.233 1492.9 Q669.423 1492.9 666.345 1488.31 Q663.289 1483.71 663.289 1474.98 Q663.289 1466.23 666.345 1461.65 Q669.423 1457.04 675.233 1457.04 Z" fill="#000000" fill-rule="evenodd" fill-opacity="1" /><path clip-path="url(#clip290)" d="M705.395 1460.74 Q701.784 1460.74 699.955 1464.31 Q698.15 1467.85 698.15 1474.98 Q698.15 1482.09 699.955 1485.65 Q701.784 1489.19 705.395 1489.19 Q709.03 1489.19 710.835 1485.65 Q712.664 1482.09 712.664 1474.98 Q712.664 1467.85 710.835 1464.31 Q709.03 1460.74 705.395 1460.74 M705.395 1457.04 Q711.205 1457.04 714.261 1461.65 Q717.34 1466.23 717.34 1474.98 Q717.34 1483.71 714.261 1488.31 Q711.205 1492.9 705.395 1492.9 Q699.585 1492.9 696.506 1488.31 Q693.451 1483.71 693.451 1474.98 Q693.451 1466.23 696.506 1461.65 Q699.585 1457.04 705.395 1457.04 Z" fill="#000000" fill-rule="evenodd" fill-opacity="1" /><path clip-path="url(#clip290)" d="M729.585 1488.29 L745.904 1488.29 L745.904 1492.23 L723.96 1492.23 L723.96 1488.29 Q726.622 1485.54 731.205 1480.91 Q735.812 1476.25 736.992 1474.91 Q739.238 1472.39 740.117 1470.65 Q741.02 1468.89 741.02 1467.2 Q741.02 1464.45 739.076 1462.71 Q737.154 1460.98 734.053 1460.98 Q731.853 1460.98 729.4 1461.74 Q726.969 1462.5 724.191 1464.05 L724.191 1459.33 Q727.016 1458.2 729.469 1457.62 Q731.923 1457.04 733.96 1457.04 Q739.33 1457.04 742.525 1459.73 Q745.719 1462.41 745.719 1466.9 Q745.719 1469.03 744.909 1470.95 Q744.122 1472.85 742.015 1475.44 Q741.437 1476.11 738.335 1479.33 Q735.233 1482.53 729.585 1488.29 Z" fill="#000000" fill-rule="evenodd" fill-opacity="1" /><path clip-path="url(#clip290)" d="M1046.65 1460.74 Q1043.04 1460.74 1041.21 1464.31 Q1039.41 1467.85 1039.41 1474.98 Q1039.41 1482.09 1041.21 1485.65 Q1043.04 1489.19 1046.65 1489.19 Q1050.29 1489.19 1052.09 1485.65 Q1053.92 1482.09 1053.92 1474.98 Q1053.92 1467.85 1052.09 1464.31 Q1050.29 1460.74 1046.65 1460.74 M1046.65 1457.04 Q1052.46 1457.04 1055.52 1461.65 Q1058.6 1466.23 1058.6 1474.98 Q1058.6 1483.71 1055.52 1488.31 Q1052.46 1492.9 1046.65 1492.9 Q1040.84 1492.9 1037.77 1488.31 Q1034.71 1483.71 1034.71 1474.98 Q1034.71 1466.23 1037.77 1461.65 Q1040.84 1457.04 1046.65 1457.04 Z" fill="#000000" fill-rule="evenodd" fill-opacity="1" /><path clip-path="url(#clip290)" d="M1066.82 1486.35 L1071.7 1486.35 L1071.7 1492.23 L1066.82 1492.23 L1066.82 1486.35 Z" fill="#000000" fill-rule="evenodd" fill-opacity="1" /><path clip-path="url(#clip290)" d="M1091.89 1460.74 Q1088.27 1460.74 1086.45 1464.31 Q1084.64 1467.85 1084.64 1474.98 Q1084.64 1482.09 1086.45 1485.65 Q1088.27 1489.19 1091.89 1489.19 Q1095.52 1489.19 1097.33 1485.65 Q1099.15 1482.09 1099.15 1474.98 Q1099.15 1467.85 1097.33 1464.31 Q1095.52 1460.74 1091.89 1460.74 M1091.89 1457.04 Q1097.7 1457.04 1100.75 1461.65 Q1103.83 1466.23 1103.83 1474.98 Q1103.83 1483.71 1100.75 1488.31 Q1097.7 1492.9 1091.89 1492.9 Q1086.08 1492.9 1083 1488.31 Q1079.94 1483.71 1079.94 1474.98 Q1079.94 1466.23 1083 1461.65 Q1086.08 1457.04 1091.89 1457.04 Z" fill="#000000" fill-rule="evenodd" fill-opacity="1" /><path clip-path="url(#clip290)" d="M1122.05 1460.74 Q1118.44 1460.74 1116.61 1464.31 Q1114.8 1467.85 1114.8 1474.98 Q1114.8 1482.09 1116.61 1485.65 Q1118.44 1489.19 1122.05 1489.19 Q1125.68 1489.19 1127.49 1485.65 Q1129.32 1482.09 1129.32 1474.98 Q1129.32 1467.85 1127.49 1464.31 Q1125.68 1460.74 1122.05 1460.74 M1122.05 1457.04 Q1127.86 1457.04 1130.91 1461.65 Q1133.99 1466.23 1133.99 1474.98 Q1133.99 1483.71 1130.91 1488.31 Q1127.86 1492.9 1122.05 1492.9 Q1116.24 1492.9 1113.16 1488.31 Q1110.1 1483.71 1110.1 1474.98 Q1110.1 1466.23 1113.16 1461.65 Q1116.24 1457.04 1122.05 1457.04 Z" fill="#000000" fill-rule="evenodd" fill-opacity="1" /><path clip-path="url(#clip290)" d="M1155.06 1461.74 L1143.25 1480.19 L1155.06 1480.19 L1155.06 1461.74 M1153.83 1457.67 L1159.71 1457.67 L1159.71 1480.19 L1164.64 1480.19 L1164.64 1484.08 L1159.71 1484.08 L1159.71 1492.23 L1155.06 1492.23 L1155.06 1484.08 L1139.45 1484.08 L1139.45 1479.56 L1153.83 1457.67 Z" fill="#000000" fill-rule="evenodd" fill-opacity="1" /><path clip-path="url(#clip290)" d="M1464.51 1460.74 Q1460.9 1460.74 1459.07 1464.31 Q1457.26 1467.85 1457.26 1474.98 Q1457.26 1482.09 1459.07 1485.65 Q1460.9 1489.19 1464.51 1489.19 Q1468.14 1489.19 1469.95 1485.65 Q1471.78 1482.09 1471.78 1474.98 Q1471.78 1467.85 1469.95 1464.31 Q1468.14 1460.74 1464.51 1460.74 M1464.51 1457.04 Q1470.32 1457.04 1473.38 1461.65 Q1476.45 1466.23 1476.45 1474.98 Q1476.45 1483.71 1473.38 1488.31 Q1470.32 1492.9 1464.51 1492.9 Q1458.7 1492.9 1455.62 1488.31 Q1452.57 1483.71 1452.57 1474.98 Q1452.57 1466.23 1455.62 1461.65 Q1458.7 1457.04 1464.51 1457.04 Z" fill="#000000" fill-rule="evenodd" fill-opacity="1" /><path clip-path="url(#clip290)" d="M1484.67 1486.35 L1489.56 1486.35 L1489.56 1492.23 L1484.67 1492.23 L1484.67 1486.35 Z" fill="#000000" fill-rule="evenodd" fill-opacity="1" /><path clip-path="url(#clip290)" d="M1509.74 1460.74 Q1506.13 1460.74 1504.3 1464.31 Q1502.5 1467.85 1502.5 1474.98 Q1502.5 1482.09 1504.3 1485.65 Q1506.13 1489.19 1509.74 1489.19 Q1513.38 1489.19 1515.18 1485.65 Q1517.01 1482.09 1517.01 1474.98 Q1517.01 1467.85 1515.18 1464.31 Q1513.38 1460.74 1509.74 1460.74 M1509.74 1457.04 Q1515.55 1457.04 1518.61 1461.65 Q1521.69 1466.23 1521.69 1474.98 Q1521.69 1483.71 1518.61 1488.31 Q1515.55 1492.9 1509.74 1492.9 Q1503.93 1492.9 1500.85 1488.31 Q1497.8 1483.71 1497.8 1474.98 Q1497.8 1466.23 1500.85 1461.65 Q1503.93 1457.04 1509.74 1457.04 Z" fill="#000000" fill-rule="evenodd" fill-opacity="1" /><path clip-path="url(#clip290)" d="M1539.9 1460.74 Q1536.29 1460.74 1534.46 1464.31 Q1532.66 1467.85 1532.66 1474.98 Q1532.66 1482.09 1534.46 1485.65 Q1536.29 1489.19 1539.9 1489.19 Q1543.54 1489.19 1545.34 1485.65 Q1547.17 1482.09 1547.17 1474.98 Q1547.17 1467.85 1545.34 1464.31 Q1543.54 1460.74 1539.9 1460.74 M1539.9 1457.04 Q1545.71 1457.04 1548.77 1461.65 Q1551.85 1466.23 1551.85 1474.98 Q1551.85 1483.71 1548.77 1488.31 Q1545.71 1492.9 1539.9 1492.9 Q1534.09 1492.9 1531.01 1488.31 Q1527.96 1483.71 1527.96 1474.98 Q1527.96 1466.23 1531.01 1461.65 Q1534.09 1457.04 1539.9 1457.04 Z" fill="#000000" fill-rule="evenodd" fill-opacity="1" /><path clip-path="url(#clip290)" d="M1570.64 1473.08 Q1567.5 1473.08 1565.64 1475.24 Q1563.81 1477.39 1563.81 1481.14 Q1563.81 1484.86 1565.64 1487.04 Q1567.5 1489.19 1570.64 1489.19 Q1573.79 1489.19 1575.62 1487.04 Q1577.47 1484.86 1577.47 1481.14 Q1577.47 1477.39 1575.62 1475.24 Q1573.79 1473.08 1570.64 1473.08 M1579.93 1458.43 L1579.93 1462.69 Q1578.17 1461.86 1576.36 1461.42 Q1574.58 1460.98 1572.82 1460.98 Q1568.19 1460.98 1565.74 1464.1 Q1563.31 1467.23 1562.96 1473.55 Q1564.32 1471.53 1566.38 1470.47 Q1568.44 1469.38 1570.92 1469.38 Q1576.13 1469.38 1579.14 1472.55 Q1582.17 1475.7 1582.17 1481.14 Q1582.17 1486.46 1579.02 1489.68 Q1575.88 1492.9 1570.64 1492.9 Q1564.65 1492.9 1561.48 1488.31 Q1558.31 1483.71 1558.31 1474.98 Q1558.31 1466.79 1562.19 1461.93 Q1566.08 1457.04 1572.63 1457.04 Q1574.39 1457.04 1576.18 1457.39 Q1577.98 1457.74 1579.93 1458.43 Z" fill="#000000" fill-rule="evenodd" fill-opacity="1" /><path clip-path="url(#clip290)" d="M1882.33 1460.74 Q1878.72 1460.74 1876.89 1464.31 Q1875.09 1467.85 1875.09 1474.98 Q1875.09 1482.09 1876.89 1485.65 Q1878.72 1489.19 1882.33 1489.19 Q1885.97 1489.19 1887.77 1485.65 Q1889.6 1482.09 1889.6 1474.98 Q1889.6 1467.85 1887.77 1464.31 Q1885.97 1460.74 1882.33 1460.74 M1882.33 1457.04 Q1888.14 1457.04 1891.2 1461.65 Q1894.28 1466.23 1894.28 1474.98 Q1894.28 1483.71 1891.2 1488.31 Q1888.14 1492.9 1882.33 1492.9 Q1876.52 1492.9 1873.44 1488.31 Q1870.39 1483.71 1870.39 1474.98 Q1870.39 1466.23 1873.44 1461.65 Q1876.52 1457.04 1882.33 1457.04 Z" fill="#000000" fill-rule="evenodd" fill-opacity="1" /><path clip-path="url(#clip290)" d="M1902.49 1486.35 L1907.38 1486.35 L1907.38 1492.23 L1902.49 1492.23 L1902.49 1486.35 Z" fill="#000000" fill-rule="evenodd" fill-opacity="1" /><path clip-path="url(#clip290)" d="M1927.56 1460.74 Q1923.95 1460.74 1922.12 1464.31 Q1920.32 1467.85 1920.32 1474.98 Q1920.32 1482.09 1922.12 1485.65 Q1923.95 1489.19 1927.56 1489.19 Q1931.2 1489.19 1933 1485.65 Q1934.83 1482.09 1934.83 1474.98 Q1934.83 1467.85 1933 1464.31 Q1931.2 1460.74 1927.56 1460.74 M1927.56 1457.04 Q1933.37 1457.04 1936.43 1461.65 Q1939.51 1466.23 1939.51 1474.98 Q1939.51 1483.71 1936.43 1488.31 Q1933.37 1492.9 1927.56 1492.9 Q1921.75 1492.9 1918.67 1488.31 Q1915.62 1483.71 1915.62 1474.98 Q1915.62 1466.23 1918.67 1461.65 Q1921.75 1457.04 1927.56 1457.04 Z" fill="#000000" fill-rule="evenodd" fill-opacity="1" /><path clip-path="url(#clip290)" d="M1957.72 1460.74 Q1954.11 1460.74 1952.28 1464.31 Q1950.48 1467.85 1950.48 1474.98 Q1950.48 1482.09 1952.28 1485.65 Q1954.11 1489.19 1957.72 1489.19 Q1961.36 1489.19 1963.16 1485.65 Q1964.99 1482.09 1964.99 1474.98 Q1964.99 1467.85 1963.16 1464.31 Q1961.36 1460.74 1957.72 1460.74 M1957.72 1457.04 Q1963.53 1457.04 1966.59 1461.65 Q1969.67 1466.23 1969.67 1474.98 Q1969.67 1483.71 1966.59 1488.31 Q1963.53 1492.9 1957.72 1492.9 Q1951.91 1492.9 1948.84 1488.31 Q1945.78 1483.71 1945.78 1474.98 Q1945.78 1466.23 1948.84 1461.65 Q1951.91 1457.04 1957.72 1457.04 Z" fill="#000000" fill-rule="evenodd" fill-opacity="1" /><path clip-path="url(#clip290)" d="M1987.89 1475.81 Q1984.55 1475.81 1982.63 1477.6 Q1980.73 1479.38 1980.73 1482.5 Q1980.73 1485.63 1982.63 1487.41 Q1984.55 1489.19 1987.89 1489.19 Q1991.22 1489.19 1993.14 1487.41 Q1995.06 1485.61 1995.06 1482.5 Q1995.06 1479.38 1993.14 1477.6 Q1991.24 1475.81 1987.89 1475.81 M1983.21 1473.82 Q1980.2 1473.08 1978.51 1471.02 Q1976.84 1468.96 1976.84 1466 Q1976.84 1461.86 1979.78 1459.45 Q1982.75 1457.04 1987.89 1457.04 Q1993.05 1457.04 1995.99 1459.45 Q1998.93 1461.86 1998.93 1466 Q1998.93 1468.96 1997.24 1471.02 Q1995.57 1473.08 1992.59 1473.82 Q1995.96 1474.61 1997.84 1476.9 Q1999.74 1479.19 1999.74 1482.5 Q1999.74 1487.53 1996.66 1490.21 Q1993.6 1492.9 1987.89 1492.9 Q1982.17 1492.9 1979.09 1490.21 Q1976.03 1487.53 1976.03 1482.5 Q1976.03 1479.19 1977.93 1476.9 Q1979.83 1474.61 1983.21 1473.82 M1981.5 1466.44 Q1981.5 1469.12 1983.16 1470.63 Q1984.85 1472.13 1987.89 1472.13 Q1990.9 1472.13 1992.59 1470.63 Q1994.3 1469.12 1994.3 1466.44 Q1994.3 1463.75 1992.59 1462.25 Q1990.9 1460.74 1987.89 1460.74 Q1984.85 1460.74 1983.16 1462.25 Q1981.5 1463.75 1981.5 1466.44 Z" fill="#000000" fill-rule="evenodd" fill-opacity="1" /><path clip-path="url(#clip290)" d="M2299.98 1460.74 Q2296.37 1460.74 2294.54 1464.31 Q2292.73 1467.85 2292.73 1474.98 Q2292.73 1482.09 2294.54 1485.65 Q2296.37 1489.19 2299.98 1489.19 Q2303.61 1489.19 2305.42 1485.65 Q2307.25 1482.09 2307.25 1474.98 Q2307.25 1467.85 2305.42 1464.31 Q2303.61 1460.74 2299.98 1460.74 M2299.98 1457.04 Q2305.79 1457.04 2308.84 1461.65 Q2311.92 1466.23 2311.92 1474.98 Q2311.92 1483.71 2308.84 1488.31 Q2305.79 1492.9 2299.98 1492.9 Q2294.17 1492.9 2291.09 1488.31 Q2288.03 1483.71 2288.03 1474.98 Q2288.03 1466.23 2291.09 1461.65 Q2294.17 1457.04 2299.98 1457.04 Z" fill="#000000" fill-rule="evenodd" fill-opacity="1" /><path clip-path="url(#clip290)" d="M2320.14 1486.35 L2325.02 1486.35 L2325.02 1492.23 L2320.14 1492.23 L2320.14 1486.35 Z" fill="#000000" fill-rule="evenodd" fill-opacity="1" /><path clip-path="url(#clip290)" d="M2345.21 1460.74 Q2341.6 1460.74 2339.77 1464.31 Q2337.96 1467.85 2337.96 1474.98 Q2337.96 1482.09 2339.77 1485.65 Q2341.6 1489.19 2345.21 1489.19 Q2348.84 1489.19 2350.65 1485.65 Q2352.48 1482.09 2352.48 1474.98 Q2352.48 1467.85 2350.65 1464.31 Q2348.84 1460.74 2345.21 1460.74 M2345.21 1457.04 Q2351.02 1457.04 2354.08 1461.65 Q2357.15 1466.23 2357.15 1474.98 Q2357.15 1483.71 2354.08 1488.31 Q2351.02 1492.9 2345.21 1492.9 Q2339.4 1492.9 2336.32 1488.31 Q2333.27 1483.71 2333.27 1474.98 Q2333.27 1466.23 2336.32 1461.65 Q2339.4 1457.04 2345.21 1457.04 Z" fill="#000000" fill-rule="evenodd" fill-opacity="1" /><path clip-path="url(#clip290)" d="M2366.18 1488.29 L2373.82 1488.29 L2373.82 1461.93 L2365.51 1463.59 L2365.51 1459.33 L2373.77 1457.67 L2378.45 1457.67 L2378.45 1488.29 L2386.09 1488.29 L2386.09 1492.23 L2366.18 1492.23 L2366.18 1488.29 Z" fill="#000000" fill-rule="evenodd" fill-opacity="1" /><path clip-path="url(#clip290)" d="M2405.53 1460.74 Q2401.92 1460.74 2400.09 1464.31 Q2398.29 1467.85 2398.29 1474.98 Q2398.29 1482.09 2400.09 1485.65 Q2401.92 1489.19 2405.53 1489.19 Q2409.17 1489.19 2410.97 1485.65 Q2412.8 1482.09 2412.8 1474.98 Q2412.8 1467.85 2410.97 1464.31 Q2409.17 1460.74 2405.53 1460.74 M2405.53 1457.04 Q2411.34 1457.04 2414.4 1461.65 Q2417.48 1466.23 2417.48 1474.98 Q2417.48 1483.71 2414.4 1488.31 Q2411.34 1492.9 2405.53 1492.9 Q2399.72 1492.9 2396.64 1488.31 Q2393.59 1483.71 2393.59 1474.98 Q2393.59 1466.23 2396.64 1461.65 Q2399.72 1457.04 2405.53 1457.04 Z" fill="#000000" fill-rule="evenodd" fill-opacity="1" /><path clip-path="url(#clip290)" d="M1323.65 1541.56 Q1323.65 1544.81 1321.98 1548.06 Q1320.3 1551.31 1317.57 1553.83 Q1314.83 1556.31 1311.09 1557.92 Q1307.36 1559.53 1303.46 1559.66 L1300.95 1569.48 Q1300.46 1571.86 1300.21 1572.12 Q1299.95 1572.38 1299.56 1572.38 Q1298.76 1572.38 1298.76 1571.64 Q1298.76 1571.41 1300.21 1565.84 L1301.75 1559.66 Q1295.89 1559.33 1292.48 1555.95 Q1289.06 1552.57 1289.06 1547.71 Q1289.06 1544.42 1290.74 1541.17 Q1292.45 1537.88 1295.18 1535.4 Q1297.95 1532.92 1301.69 1531.35 Q1305.42 1529.77 1309.26 1529.64 L1313.09 1514.41 Q1313.28 1513.54 1313.44 1513.31 Q1313.6 1513.09 1314.09 1513.09 Q1314.44 1513.09 1314.63 1513.25 Q1314.83 1513.41 1314.83 1513.57 L1314.86 1513.73 L1314.67 1514.66 L1310.96 1529.64 Q1314.25 1529.86 1316.79 1531.02 Q1319.34 1532.18 1320.79 1533.92 Q1322.24 1535.63 1322.94 1537.56 Q1323.65 1539.49 1323.65 1541.56 M1308.87 1531.09 Q1305.33 1531.41 1302.33 1533.15 Q1299.34 1534.89 1297.4 1537.47 Q1295.47 1540.01 1294.41 1543.07 Q1293.35 1546.1 1293.35 1549.09 Q1293.35 1551.44 1294.12 1553.25 Q1294.92 1555.05 1296.25 1556.08 Q1297.57 1557.08 1299.02 1557.63 Q1300.5 1558.14 1302.07 1558.21 L1308.87 1531.09 M1319.34 1540.17 Q1319.34 1535.98 1316.92 1533.63 Q1314.51 1531.28 1310.58 1531.09 L1303.78 1558.21 Q1306.65 1557.98 1309.16 1556.79 Q1311.7 1555.57 1313.54 1553.76 Q1315.38 1551.93 1316.7 1549.67 Q1318.02 1547.38 1318.66 1544.97 Q1319.34 1542.52 1319.34 1540.17 Z" fill="#000000" fill-rule="evenodd" fill-opacity="1" /><polyline clip-path="url(#clip293)" style="stroke:#000000; stroke-linecap:butt; stroke-linejoin:round; stroke-width:2; stroke-opacity:0.1; fill:none" points="
  264.287,1392.38 2352.76,1392.38 
  "/>
<polyline clip-path="url(#clip293)" style="stroke:#000000; stroke-linecap:butt; stroke-linejoin:round; stroke-width:2; stroke-opacity:0.1; fill:none" points="
  264.287,1044.99 2352.76,1044.99 
  "/>
<polyline clip-path="url(#clip293)" style="stroke:#000000; stroke-linecap:butt; stroke-linejoin:round; stroke-width:2; stroke-opacity:0.1; fill:none" points="
  264.287,697.594 2352.76,697.594 
  "/>
<polyline clip-path="url(#clip293)" style="stroke:#000000; stroke-linecap:butt; stroke-linejoin:round; stroke-width:2; stroke-opacity:0.1; fill:none" points="
  264.287,350.201 2352.76,350.201 
  "/>
<polyline clip-path="url(#clip290)" style="stroke:#000000; stroke-linecap:butt; stroke-linejoin:round; stroke-width:4; stroke-opacity:1; fill:none" points="
  264.287,1431.55 264.287,47.2441 
  "/>
<polyline clip-path="url(#clip290)" style="stroke:#000000; stroke-linecap:butt; stroke-linejoin:round; stroke-width:4; stroke-opacity:1; fill:none" points="
  264.287,1392.38 289.349,1392.38 
  "/>
<polyline clip-path="url(#clip290)" style="stroke:#000000; stroke-linecap:butt; stroke-linejoin:round; stroke-width:4; stroke-opacity:1; fill:none" points="
  264.287,1044.99 289.349,1044.99 
  "/>
<polyline clip-path="url(#clip290)" style="stroke:#000000; stroke-linecap:butt; stroke-linejoin:round; stroke-width:4; stroke-opacity:1; fill:none" points="
  264.287,697.594 289.349,697.594 
  "/>
<polyline clip-path="url(#clip290)" style="stroke:#000000; stroke-linecap:butt; stroke-linejoin:round; stroke-width:4; stroke-opacity:1; fill:none" points="
  264.287,350.201 289.349,350.201 
  "/>
<path clip-path="url(#clip290)" d="M216.343 1378.18 Q212.732 1378.18 210.903 1381.74 Q209.098 1385.28 209.098 1392.41 Q209.098 1399.52 210.903 1403.09 Q212.732 1406.63 216.343 1406.63 Q219.977 1406.63 221.783 1403.09 Q223.611 1399.52 223.611 1392.41 Q223.611 1385.28 221.783 1381.74 Q219.977 1378.18 216.343 1378.18 M216.343 1374.47 Q222.153 1374.47 225.209 1379.08 Q228.287 1383.66 228.287 1392.41 Q228.287 1401.14 225.209 1405.75 Q222.153 1410.33 216.343 1410.33 Q210.533 1410.33 207.454 1405.75 Q204.399 1401.14 204.399 1392.41 Q204.399 1383.66 207.454 1379.08 Q210.533 1374.47 216.343 1374.47 Z" fill="#000000" fill-rule="evenodd" fill-opacity="1" /><path clip-path="url(#clip290)" d="M116.668 1058.33 L124.306 1058.33 L124.306 1031.97 L115.996 1033.63 L115.996 1029.37 L124.26 1027.71 L128.936 1027.71 L128.936 1058.33 L136.575 1058.33 L136.575 1062.27 L116.668 1062.27 L116.668 1058.33 Z" fill="#000000" fill-rule="evenodd" fill-opacity="1" /><path clip-path="url(#clip290)" d="M156.019 1030.79 Q152.408 1030.79 150.579 1034.35 Q148.774 1037.89 148.774 1045.02 Q148.774 1052.13 150.579 1055.69 Q152.408 1059.23 156.019 1059.23 Q159.653 1059.23 161.459 1055.69 Q163.288 1052.13 163.288 1045.02 Q163.288 1037.89 161.459 1034.35 Q159.653 1030.79 156.019 1030.79 M156.019 1027.08 Q161.829 1027.08 164.885 1031.69 Q167.964 1036.27 167.964 1045.02 Q167.964 1053.75 164.885 1058.35 Q161.829 1062.94 156.019 1062.94 Q150.209 1062.94 147.13 1058.35 Q144.075 1053.75 144.075 1045.02 Q144.075 1036.27 147.13 1031.69 Q150.209 1027.08 156.019 1027.08 Z" fill="#000000" fill-rule="evenodd" fill-opacity="1" /><path clip-path="url(#clip290)" d="M186.181 1030.79 Q182.57 1030.79 180.741 1034.35 Q178.936 1037.89 178.936 1045.02 Q178.936 1052.13 180.741 1055.69 Q182.57 1059.23 186.181 1059.23 Q189.815 1059.23 191.621 1055.69 Q193.45 1052.13 193.45 1045.02 Q193.45 1037.89 191.621 1034.35 Q189.815 1030.79 186.181 1030.79 M186.181 1027.08 Q191.991 1027.08 195.047 1031.69 Q198.125 1036.27 198.125 1045.02 Q198.125 1053.75 195.047 1058.35 Q191.991 1062.94 186.181 1062.94 Q180.371 1062.94 177.292 1058.35 Q174.237 1053.75 174.237 1045.02 Q174.237 1036.27 177.292 1031.69 Q180.371 1027.08 186.181 1027.08 Z" fill="#000000" fill-rule="evenodd" fill-opacity="1" /><path clip-path="url(#clip290)" d="M216.343 1030.79 Q212.732 1030.79 210.903 1034.35 Q209.098 1037.89 209.098 1045.02 Q209.098 1052.13 210.903 1055.69 Q212.732 1059.23 216.343 1059.23 Q219.977 1059.23 221.783 1055.69 Q223.611 1052.13 223.611 1045.02 Q223.611 1037.89 221.783 1034.35 Q219.977 1030.79 216.343 1030.79 M216.343 1027.08 Q222.153 1027.08 225.209 1031.69 Q228.287 1036.27 228.287 1045.02 Q228.287 1053.75 225.209 1058.35 Q222.153 1062.94 216.343 1062.94 Q210.533 1062.94 207.454 1058.35 Q204.399 1053.75 204.399 1045.02 Q204.399 1036.27 207.454 1031.69 Q210.533 1027.08 216.343 1027.08 Z" fill="#000000" fill-rule="evenodd" fill-opacity="1" /><path clip-path="url(#clip290)" d="M119.885 710.939 L136.204 710.939 L136.204 714.874 L114.26 714.874 L114.26 710.939 Q116.922 708.184 121.505 703.554 Q126.112 698.902 127.292 697.559 Q129.538 695.036 130.417 693.3 Q131.32 691.54 131.32 689.851 Q131.32 687.096 129.376 685.36 Q127.455 683.624 124.353 683.624 Q122.154 683.624 119.7 684.388 Q117.269 685.152 114.492 686.703 L114.492 681.98 Q117.316 680.846 119.769 680.267 Q122.223 679.689 124.26 679.689 Q129.63 679.689 132.825 682.374 Q136.019 685.059 136.019 689.55 Q136.019 691.679 135.209 693.601 Q134.422 695.499 132.316 698.091 Q131.737 698.763 128.635 701.98 Q125.533 705.175 119.885 710.939 Z" fill="#000000" fill-rule="evenodd" fill-opacity="1" /><path clip-path="url(#clip290)" d="M156.019 683.392 Q152.408 683.392 150.579 686.957 Q148.774 690.499 148.774 697.628 Q148.774 704.735 150.579 708.3 Q152.408 711.841 156.019 711.841 Q159.653 711.841 161.459 708.3 Q163.288 704.735 163.288 697.628 Q163.288 690.499 161.459 686.957 Q159.653 683.392 156.019 683.392 M156.019 679.689 Q161.829 679.689 164.885 684.295 Q167.964 688.878 167.964 697.628 Q167.964 706.355 164.885 710.962 Q161.829 715.545 156.019 715.545 Q150.209 715.545 147.13 710.962 Q144.075 706.355 144.075 697.628 Q144.075 688.878 147.13 684.295 Q150.209 679.689 156.019 679.689 Z" fill="#000000" fill-rule="evenodd" fill-opacity="1" /><path clip-path="url(#clip290)" d="M186.181 683.392 Q182.57 683.392 180.741 686.957 Q178.936 690.499 178.936 697.628 Q178.936 704.735 180.741 708.3 Q182.57 711.841 186.181 711.841 Q189.815 711.841 191.621 708.3 Q193.45 704.735 193.45 697.628 Q193.45 690.499 191.621 686.957 Q189.815 683.392 186.181 683.392 M186.181 679.689 Q191.991 679.689 195.047 684.295 Q198.125 688.878 198.125 697.628 Q198.125 706.355 195.047 710.962 Q191.991 715.545 186.181 715.545 Q180.371 715.545 177.292 710.962 Q174.237 706.355 174.237 697.628 Q174.237 688.878 177.292 684.295 Q180.371 679.689 186.181 679.689 Z" fill="#000000" fill-rule="evenodd" fill-opacity="1" /><path clip-path="url(#clip290)" d="M216.343 683.392 Q212.732 683.392 210.903 686.957 Q209.098 690.499 209.098 697.628 Q209.098 704.735 210.903 708.3 Q212.732 711.841 216.343 711.841 Q219.977 711.841 221.783 708.3 Q223.611 704.735 223.611 697.628 Q223.611 690.499 221.783 686.957 Q219.977 683.392 216.343 683.392 M216.343 679.689 Q222.153 679.689 225.209 684.295 Q228.287 688.878 228.287 697.628 Q228.287 706.355 225.209 710.962 Q222.153 715.545 216.343 715.545 Q210.533 715.545 207.454 710.962 Q204.399 706.355 204.399 697.628 Q204.399 688.878 207.454 684.295 Q210.533 679.689 216.343 679.689 Z" fill="#000000" fill-rule="evenodd" fill-opacity="1" /><path clip-path="url(#clip290)" d="M130.024 348.846 Q133.38 349.564 135.255 351.833 Q137.154 354.101 137.154 357.434 Q137.154 362.55 133.635 365.351 Q130.117 368.152 123.635 368.152 Q121.459 368.152 119.144 367.712 Q116.853 367.295 114.399 366.439 L114.399 361.925 Q116.343 363.059 118.658 363.638 Q120.973 364.217 123.496 364.217 Q127.894 364.217 130.186 362.481 Q132.501 360.745 132.501 357.434 Q132.501 354.379 130.348 352.666 Q128.218 350.93 124.399 350.93 L120.371 350.93 L120.371 347.087 L124.584 347.087 Q128.033 347.087 129.862 345.721 Q131.691 344.333 131.691 341.74 Q131.691 339.078 129.792 337.666 Q127.917 336.231 124.399 336.231 Q122.478 336.231 120.279 336.647 Q118.08 337.064 115.441 337.944 L115.441 333.777 Q118.103 333.036 120.418 332.666 Q122.755 332.296 124.816 332.296 Q130.14 332.296 133.242 334.726 Q136.343 337.134 136.343 341.254 Q136.343 344.124 134.7 346.115 Q133.056 348.083 130.024 348.846 Z" fill="#000000" fill-rule="evenodd" fill-opacity="1" /><path clip-path="url(#clip290)" d="M156.019 335.999 Q152.408 335.999 150.579 339.564 Q148.774 343.106 148.774 350.235 Q148.774 357.342 150.579 360.907 Q152.408 364.448 156.019 364.448 Q159.653 364.448 161.459 360.907 Q163.288 357.342 163.288 350.235 Q163.288 343.106 161.459 339.564 Q159.653 335.999 156.019 335.999 M156.019 332.296 Q161.829 332.296 164.885 336.902 Q167.964 341.485 167.964 350.235 Q167.964 358.962 164.885 363.569 Q161.829 368.152 156.019 368.152 Q150.209 368.152 147.13 363.569 Q144.075 358.962 144.075 350.235 Q144.075 341.485 147.13 336.902 Q150.209 332.296 156.019 332.296 Z" fill="#000000" fill-rule="evenodd" fill-opacity="1" /><path clip-path="url(#clip290)" d="M186.181 335.999 Q182.57 335.999 180.741 339.564 Q178.936 343.106 178.936 350.235 Q178.936 357.342 180.741 360.907 Q182.57 364.448 186.181 364.448 Q189.815 364.448 191.621 360.907 Q193.45 357.342 193.45 350.235 Q193.45 343.106 191.621 339.564 Q189.815 335.999 186.181 335.999 M186.181 332.296 Q191.991 332.296 195.047 336.902 Q198.125 341.485 198.125 350.235 Q198.125 358.962 195.047 363.569 Q191.991 368.152 186.181 368.152 Q180.371 368.152 177.292 363.569 Q174.237 358.962 174.237 350.235 Q174.237 341.485 177.292 336.902 Q180.371 332.296 186.181 332.296 Z" fill="#000000" fill-rule="evenodd" fill-opacity="1" /><path clip-path="url(#clip290)" d="M216.343 335.999 Q212.732 335.999 210.903 339.564 Q209.098 343.106 209.098 350.235 Q209.098 357.342 210.903 360.907 Q212.732 364.448 216.343 364.448 Q219.977 364.448 221.783 360.907 Q223.611 357.342 223.611 350.235 Q223.611 343.106 221.783 339.564 Q219.977 335.999 216.343 335.999 M216.343 332.296 Q222.153 332.296 225.209 336.902 Q228.287 341.485 228.287 350.235 Q228.287 358.962 225.209 363.569 Q222.153 368.152 216.343 368.152 Q210.533 368.152 207.454 363.569 Q204.399 358.962 204.399 350.235 Q204.399 341.485 207.454 336.902 Q210.533 332.296 216.343 332.296 Z" fill="#000000" fill-rule="evenodd" fill-opacity="1" /><path clip-path="url(#clip290)" d="M21.7677 852.709 L58.7206 852.709 L58.7206 844.942 Q58.7206 835.107 54.2646 830.556 Q49.8086 825.973 40.1964 825.973 Q30.6479 825.973 26.2237 830.556 Q21.7677 835.107 21.7677 844.942 L21.7677 852.709 M16.4842 859.138 L16.4842 845.929 Q16.4842 832.116 22.2451 825.654 Q27.9743 819.193 40.1964 819.193 Q52.4822 819.193 58.2432 825.686 Q64.0042 832.179 64.0042 845.929 L64.0042 859.138 L16.4842 859.138 Z" fill="#000000" fill-rule="evenodd" fill-opacity="1" /><path clip-path="url(#clip290)" d="M44.7161 778.707 L47.5806 778.707 L47.5806 805.634 Q53.6281 805.252 56.8109 802.006 Q59.9619 798.727 59.9619 792.903 Q59.9619 789.529 59.1344 786.378 Q58.3069 783.195 56.6518 780.076 L62.1899 780.076 Q63.5267 783.227 64.227 786.537 Q64.9272 789.847 64.9272 793.253 Q64.9272 801.783 59.9619 806.78 Q54.9967 811.745 46.5303 811.745 Q37.7774 811.745 32.6531 807.035 Q27.4968 802.292 27.4968 794.271 Q27.4968 787.078 32.1438 782.909 Q36.7589 778.707 44.7161 778.707 M42.9973 784.564 Q38.1912 784.627 35.3266 787.269 Q32.4621 789.879 32.4621 794.208 Q32.4621 799.109 35.2312 802.069 Q38.0002 804.998 43.0292 805.443 L42.9973 784.564 Z" fill="#000000" fill-rule="evenodd" fill-opacity="1" /><path clip-path="url(#clip290)" d="M42.4881 739.463 L64.0042 739.463 L64.0042 745.319 L42.679 745.319 Q37.6183 745.319 35.1038 747.293 Q32.5894 749.266 32.5894 753.213 Q32.5894 757.955 35.6131 760.692 Q38.6368 763.43 43.8567 763.43 L64.0042 763.43 L64.0042 769.318 L28.3562 769.318 L28.3562 763.43 L33.8944 763.43 Q30.6797 761.329 29.0883 758.496 Q27.4968 755.632 27.4968 751.908 Q27.4968 745.765 31.3163 742.614 Q35.1038 739.463 42.4881 739.463 Z" fill="#000000" fill-rule="evenodd" fill-opacity="1" /><path clip-path="url(#clip290)" d="M29.4065 705.056 L34.9447 705.056 Q33.6716 707.539 33.035 710.212 Q32.3984 712.886 32.3984 715.75 Q32.3984 720.111 33.7352 722.307 Q35.072 724.471 37.7456 724.471 Q39.7826 724.471 40.9603 722.912 Q42.1061 721.352 43.1565 716.642 L43.6021 714.636 Q44.9389 708.398 47.3897 705.788 Q49.8086 703.146 54.1691 703.146 Q59.1344 703.146 62.0308 707.093 Q64.9272 711.008 64.9272 717.883 Q64.9272 720.748 64.3543 723.867 Q63.8132 726.954 62.6992 730.392 L56.6518 730.392 Q58.3387 727.145 59.198 723.994 Q60.0256 720.843 60.0256 717.756 Q60.0256 713.618 58.6251 711.39 Q57.1929 709.162 54.6147 709.162 Q52.2276 709.162 50.9545 710.785 Q49.6813 712.377 48.5037 717.819 L48.0262 719.856 Q46.8804 725.299 44.5251 727.718 Q42.138 730.137 38.0002 730.137 Q32.9713 730.137 30.2341 726.572 Q27.4968 723.007 27.4968 716.451 Q27.4968 713.204 27.9743 710.34 Q28.4517 707.475 29.4065 705.056 Z" fill="#000000" fill-rule="evenodd" fill-opacity="1" /><path clip-path="url(#clip290)" d="M28.3562 693.821 L28.3562 687.964 L64.0042 687.964 L64.0042 693.821 L28.3562 693.821 M14.479 693.821 L14.479 687.964 L21.895 687.964 L21.895 693.821 L14.479 693.821 Z" fill="#000000" fill-rule="evenodd" fill-opacity="1" /><path clip-path="url(#clip290)" d="M18.2347 669.917 L28.3562 669.917 L28.3562 657.854 L32.9077 657.854 L32.9077 669.917 L52.2594 669.917 Q56.6199 669.917 57.8613 668.74 Q59.1026 667.53 59.1026 663.87 L59.1026 657.854 L64.0042 657.854 L64.0042 663.87 Q64.0042 670.649 61.4897 673.228 Q58.9434 675.806 52.2594 675.806 L32.9077 675.806 L32.9077 680.102 L28.3562 680.102 L28.3562 675.806 L18.2347 675.806 L18.2347 669.917 Z" fill="#000000" fill-rule="evenodd" fill-opacity="1" /><path clip-path="url(#clip290)" d="M67.3143 635.32 Q73.68 637.802 75.6216 640.158 Q77.5631 642.513 77.5631 646.46 L77.5631 651.139 L72.6615 651.139 L72.6615 647.701 Q72.6615 645.282 71.5157 643.945 Q70.3699 642.608 66.1048 640.985 L63.4312 639.935 L28.3562 654.353 L28.3562 648.147 L56.238 637.007 L28.3562 625.867 L28.3562 619.66 L67.3143 635.32 Z" fill="#000000" fill-rule="evenodd" fill-opacity="1" /><polyline clip-path="url(#clip293)" style="stroke:#009af9; stroke-linecap:butt; stroke-linejoin:round; stroke-width:8; stroke-opacity:1; fill:none" points="
  264.801,86.4227 265.315,735.021 265.829,952.469 266.343,1061.58 266.858,1127.21 267.372,1171.06 267.886,1202.43 268.4,1225.99 268.914,1244.34 269.428,1259.04 
  269.942,1271.07 270.456,1281.11 271.484,1296.91 272.512,1308.77 273.54,1318.01 274.568,1325.41 275.596,1331.47 276.624,1336.52 278.68,1344.48 280.737,1350.45 
  282.793,1355.1 284.849,1358.83 286.905,1361.88 288.961,1364.42 293.074,1368.43 297.186,1371.43 301.298,1373.78 305.41,1375.65 309.523,1377.19 313.635,1378.47 
  317.747,1379.55 321.86,1380.49 325.972,1381.29 330.084,1382 368.109,1385.89 406.133,1387.7 444.157,1388.75 482.181,1389.43 558.23,1390.27 634.279,1390.76 
  786.376,1391.31 938.473,1391.6 1121.28,1391.82 1304.09,1391.96 1458.65,1392.04 1613.21,1392.1 1949.01,1392.19 2258.58,1392.24 2590.48,1392.28 2975.01,1392.31 
  3316.74,1392.32 3616.4,1392.34 3943.12,1392.35 4271.77,1392.35 4635.14,1392.36 4980.88,1392.36 5340.37,1392.37 5642.98,1392.37 6012.44,1392.37 6359.74,1392.37 
  6916.14,1392.38 7001.77,1392.38 
  "/>
</svg>
